%TF.GenerationSoftware,KiCad,Pcbnew,7.0.6-0*%
%TF.CreationDate,2023-08-15T02:22:12-05:00*%
%TF.ProjectId,kbxLEDController-16ch,6b62784c-4544-4436-9f6e-74726f6c6c65,rev?*%
%TF.SameCoordinates,Original*%
%TF.FileFunction,Soldermask,Bot*%
%TF.FilePolarity,Negative*%
%FSLAX46Y46*%
G04 Gerber Fmt 4.6, Leading zero omitted, Abs format (unit mm)*
G04 Created by KiCad (PCBNEW 7.0.6-0) date 2023-08-15 02:22:12*
%MOMM*%
%LPD*%
G01*
G04 APERTURE LIST*
G04 Aperture macros list*
%AMRoundRect*
0 Rectangle with rounded corners*
0 $1 Rounding radius*
0 $2 $3 $4 $5 $6 $7 $8 $9 X,Y pos of 4 corners*
0 Add a 4 corners polygon primitive as box body*
4,1,4,$2,$3,$4,$5,$6,$7,$8,$9,$2,$3,0*
0 Add four circle primitives for the rounded corners*
1,1,$1+$1,$2,$3*
1,1,$1+$1,$4,$5*
1,1,$1+$1,$6,$7*
1,1,$1+$1,$8,$9*
0 Add four rect primitives between the rounded corners*
20,1,$1+$1,$2,$3,$4,$5,0*
20,1,$1+$1,$4,$5,$6,$7,0*
20,1,$1+$1,$6,$7,$8,$9,0*
20,1,$1+$1,$8,$9,$2,$3,0*%
%AMFreePoly0*
4,1,35,0.012286,0.794911,0.071157,0.794911,0.085244,0.792886,0.221795,0.752791,0.234740,0.746879,0.354462,0.669938,0.365217,0.660618,0.458414,0.553063,0.466109,0.541091,0.525228,0.411637,0.529237,0.397982,0.549491,0.257116,0.550000,0.250000,0.550000,-0.250000,0.549491,-0.257116,0.529237,-0.397982,0.525228,-0.411637,0.466109,-0.541091,0.458414,-0.553063,0.365217,-0.660618,
0.354462,-0.669938,0.234740,-0.746879,0.221795,-0.752791,0.085244,-0.792886,0.071157,-0.794911,0.012286,-0.794911,0.000000,-0.800000,-0.550000,-0.800000,-0.585355,-0.785355,-0.600000,-0.750000,-0.600000,0.750000,-0.585355,0.785355,-0.550000,0.800000,0.000000,0.800000,0.012286,0.794911,0.012286,0.794911,$1*%
%AMFreePoly1*
4,1,35,0.585355,0.785355,0.600000,0.750000,0.600000,-0.750000,0.585355,-0.785355,0.550000,-0.800000,0.000000,-0.800000,-0.012286,-0.794911,-0.071157,-0.794911,-0.085244,-0.792886,-0.221795,-0.752791,-0.234740,-0.746879,-0.354462,-0.669938,-0.365217,-0.660618,-0.458414,-0.553063,-0.466109,-0.541091,-0.525228,-0.411637,-0.529237,-0.397982,-0.549491,-0.257116,-0.550000,-0.250000,-0.550000,0.250000,
-0.549491,0.257116,-0.529237,0.397982,-0.525228,0.411637,-0.466109,0.541091,-0.458414,0.553063,-0.365217,0.660618,-0.354462,0.669938,-0.234740,0.746879,-0.221795,0.752791,-0.085244,0.792886,-0.071157,0.794911,-0.012286,0.794911,0.000000,0.800000,0.550000,0.800000,0.585355,0.785355,0.585355,0.785355,$1*%
G04 Aperture macros list end*
%ADD10RoundRect,0.300000X-0.475000X0.250000X-0.475000X-0.250000X0.475000X-0.250000X0.475000X0.250000X0*%
%ADD11C,0.800000*%
%ADD12C,4.500000*%
%ADD13RoundRect,0.050000X0.850000X0.850000X-0.850000X0.850000X-0.850000X-0.850000X0.850000X-0.850000X0*%
%ADD14O,1.800000X1.800000*%
%ADD15RoundRect,0.050000X-0.850000X-0.850000X0.850000X-0.850000X0.850000X0.850000X-0.850000X0.850000X0*%
%ADD16RoundRect,0.300200X-0.649800X-0.649800X0.649800X-0.649800X0.649800X0.649800X-0.649800X0.649800X0*%
%ADD17C,1.900000*%
%ADD18RoundRect,0.050000X-0.850000X0.850000X-0.850000X-0.850000X0.850000X-0.850000X0.850000X0.850000X0*%
%ADD19RoundRect,0.050000X-1.300000X1.300000X-1.300000X-1.300000X1.300000X-1.300000X1.300000X1.300000X0*%
%ADD20C,2.700000*%
%ADD21RoundRect,0.200000X0.587500X0.150000X-0.587500X0.150000X-0.587500X-0.150000X0.587500X-0.150000X0*%
%ADD22RoundRect,0.200000X-0.587500X-0.150000X0.587500X-0.150000X0.587500X0.150000X-0.587500X0.150000X0*%
%ADD23RoundRect,0.300000X-0.262500X-0.450000X0.262500X-0.450000X0.262500X0.450000X-0.262500X0.450000X0*%
%ADD24RoundRect,0.300000X0.250000X0.475000X-0.250000X0.475000X-0.250000X-0.475000X0.250000X-0.475000X0*%
%ADD25RoundRect,0.300000X0.475000X-0.250000X0.475000X0.250000X-0.475000X0.250000X-0.475000X-0.250000X0*%
%ADD26FreePoly0,180.000000*%
%ADD27RoundRect,0.050000X0.500000X0.750000X-0.500000X0.750000X-0.500000X-0.750000X0.500000X-0.750000X0*%
%ADD28FreePoly1,180.000000*%
G04 APERTURE END LIST*
D10*
%TO.C,C18*%
X109855000Y-105857000D03*
X109855000Y-107757000D03*
%TD*%
D11*
%TO.C,H1*%
X103760000Y-77470000D03*
X104243274Y-76303274D03*
X104243274Y-78636726D03*
X105410000Y-75820000D03*
D12*
X105410000Y-77470000D03*
D11*
X105410000Y-79120000D03*
X106576726Y-76303274D03*
X106576726Y-78636726D03*
X107060000Y-77470000D03*
%TD*%
%TO.C,H2*%
X164085000Y-77470000D03*
X164568274Y-76303274D03*
X164568274Y-78636726D03*
X165735000Y-75820000D03*
D12*
X165735000Y-77470000D03*
D11*
X165735000Y-79120000D03*
X166901726Y-76303274D03*
X166901726Y-78636726D03*
X167385000Y-77470000D03*
%TD*%
D13*
%TO.C,J4*%
X125095000Y-92075000D03*
D14*
X125095000Y-89535000D03*
X125095000Y-86995000D03*
X125095000Y-84455000D03*
X125095000Y-81915000D03*
%TD*%
D13*
%TO.C,J3*%
X121285000Y-92075000D03*
D14*
X121285000Y-89535000D03*
X121285000Y-86995000D03*
X121285000Y-84455000D03*
X121285000Y-81915000D03*
%TD*%
D13*
%TO.C,J2*%
X107315000Y-92075000D03*
D14*
X107315000Y-89535000D03*
X107315000Y-86995000D03*
X107315000Y-84455000D03*
X107315000Y-81915000D03*
%TD*%
D11*
%TO.C,H4*%
X164085000Y-109220000D03*
X164568274Y-108053274D03*
X164568274Y-110386726D03*
X165735000Y-107570000D03*
D12*
X165735000Y-109220000D03*
D11*
X165735000Y-110870000D03*
X166901726Y-108053274D03*
X166901726Y-110386726D03*
X167385000Y-109220000D03*
%TD*%
%TO.C,H3*%
X97410000Y-109220000D03*
X97893274Y-108053274D03*
X97893274Y-110386726D03*
X99060000Y-107570000D03*
D12*
X99060000Y-109220000D03*
D11*
X99060000Y-110870000D03*
X100226726Y-108053274D03*
X100226726Y-110386726D03*
X100710000Y-109220000D03*
%TD*%
D15*
%TO.C,J6*%
X166878000Y-81915000D03*
D14*
X166878000Y-84455000D03*
X166878000Y-86995000D03*
X166878000Y-89535000D03*
X166878000Y-92075000D03*
X166878000Y-94615000D03*
X166878000Y-97155000D03*
X166878000Y-99695000D03*
X166878000Y-102235000D03*
X166878000Y-104775000D03*
%TD*%
D13*
%TO.C,J1*%
X103505000Y-92075000D03*
D14*
X103505000Y-89535000D03*
X103505000Y-86995000D03*
X103505000Y-84455000D03*
X103505000Y-81915000D03*
%TD*%
D16*
%TO.C,U4*%
X155575000Y-101600000D03*
D17*
X158115000Y-101600000D03*
X160655000Y-101600000D03*
%TD*%
D14*
%TO.C,J7*%
X104267000Y-110388000D03*
X106807000Y-110388000D03*
D18*
X109347000Y-110388000D03*
%TD*%
D19*
%TO.C,J5*%
X100965000Y-97703000D03*
D20*
X100965000Y-102703000D03*
%TD*%
D21*
%TO.C,Q13*%
X129842500Y-89855000D03*
X129842500Y-91755000D03*
X127967500Y-90805000D03*
%TD*%
D22*
%TO.C,Q2*%
X98757500Y-87945000D03*
X98757500Y-86045000D03*
X100632500Y-86995000D03*
%TD*%
D21*
%TO.C,Q16*%
X129842500Y-78425000D03*
X129842500Y-80325000D03*
X127967500Y-79375000D03*
%TD*%
D22*
%TO.C,Q12*%
X116537500Y-80325000D03*
X116537500Y-78425000D03*
X118412500Y-79375000D03*
%TD*%
%TO.C,Q4*%
X98757500Y-80325000D03*
X98757500Y-78425000D03*
X100632500Y-79375000D03*
%TD*%
D21*
%TO.C,Q15*%
X129842500Y-82235000D03*
X129842500Y-84135000D03*
X127967500Y-83185000D03*
%TD*%
D22*
%TO.C,Q11*%
X116537500Y-84135000D03*
X116537500Y-82235000D03*
X118412500Y-83185000D03*
%TD*%
D21*
%TO.C,Q7*%
X112062500Y-82235000D03*
X112062500Y-84135000D03*
X110187500Y-83185000D03*
%TD*%
D22*
%TO.C,Q3*%
X98757500Y-84135000D03*
X98757500Y-82235000D03*
X100632500Y-83185000D03*
%TD*%
D21*
%TO.C,Q14*%
X129842500Y-86045000D03*
X129842500Y-87945000D03*
X127967500Y-86995000D03*
%TD*%
D22*
%TO.C,Q10*%
X116537500Y-87945000D03*
X116537500Y-86045000D03*
X118412500Y-86995000D03*
%TD*%
D21*
%TO.C,Q6*%
X112062500Y-86045000D03*
X112062500Y-87945000D03*
X110187500Y-86995000D03*
%TD*%
D22*
%TO.C,Q9*%
X116537500Y-91755000D03*
X116537500Y-89855000D03*
X118412500Y-90805000D03*
%TD*%
D21*
%TO.C,Q5*%
X112062500Y-89855000D03*
X112062500Y-91755000D03*
X110187500Y-90805000D03*
%TD*%
D22*
%TO.C,Q1*%
X98757500Y-91755000D03*
X98757500Y-89855000D03*
X100632500Y-90805000D03*
%TD*%
D21*
%TO.C,Q8*%
X112062500Y-78425000D03*
X112062500Y-80325000D03*
X110187500Y-79375000D03*
%TD*%
D23*
%TO.C,R8*%
X162663500Y-101600000D03*
X164488500Y-101600000D03*
%TD*%
%TO.C,R10*%
X140819500Y-87503000D03*
X142644500Y-87503000D03*
%TD*%
%TO.C,R9*%
X140819500Y-84963000D03*
X142644500Y-84963000D03*
%TD*%
%TO.C,R7*%
X140819500Y-77343000D03*
X142644500Y-77343000D03*
%TD*%
D24*
%TO.C,C17*%
X160655000Y-99060000D03*
X158755000Y-99060000D03*
%TD*%
D23*
%TO.C,R11*%
X140819500Y-79883000D03*
X142644500Y-79883000D03*
%TD*%
%TO.C,R12*%
X140819500Y-82423000D03*
X142644500Y-82423000D03*
%TD*%
D25*
%TO.C,C14*%
X109855000Y-104074000D03*
X109855000Y-102174000D03*
%TD*%
D26*
%TO.C,JP1*%
X112589000Y-108077000D03*
D27*
X113889000Y-108077000D03*
D28*
X115189000Y-108077000D03*
%TD*%
M02*
