%TF.GenerationSoftware,KiCad,Pcbnew,7.0.6-0*%
%TF.CreationDate,2023-08-15T02:22:11-05:00*%
%TF.ProjectId,kbxLEDController-16ch,6b62784c-4544-4436-9f6e-74726f6c6c65,rev?*%
%TF.SameCoordinates,Original*%
%TF.FileFunction,Paste,Top*%
%TF.FilePolarity,Positive*%
%FSLAX46Y46*%
G04 Gerber Fmt 4.6, Leading zero omitted, Abs format (unit mm)*
G04 Created by KiCad (PCBNEW 7.0.6-0) date 2023-08-15 02:22:11*
%MOMM*%
%LPD*%
G01*
G04 APERTURE LIST*
G04 Aperture macros list*
%AMRoundRect*
0 Rectangle with rounded corners*
0 $1 Rounding radius*
0 $2 $3 $4 $5 $6 $7 $8 $9 X,Y pos of 4 corners*
0 Add a 4 corners polygon primitive as box body*
4,1,4,$2,$3,$4,$5,$6,$7,$8,$9,$2,$3,0*
0 Add four circle primitives for the rounded corners*
1,1,$1+$1,$2,$3*
1,1,$1+$1,$4,$5*
1,1,$1+$1,$6,$7*
1,1,$1+$1,$8,$9*
0 Add four rect primitives between the rounded corners*
20,1,$1+$1,$2,$3,$4,$5,0*
20,1,$1+$1,$4,$5,$6,$7,0*
20,1,$1+$1,$6,$7,$8,$9,0*
20,1,$1+$1,$8,$9,$2,$3,0*%
G04 Aperture macros list end*
%ADD10RoundRect,0.250000X-0.450000X0.262500X-0.450000X-0.262500X0.450000X-0.262500X0.450000X0.262500X0*%
%ADD11RoundRect,0.243750X0.456250X-0.243750X0.456250X0.243750X-0.456250X0.243750X-0.456250X-0.243750X0*%
%ADD12R,1.000000X0.900000*%
%ADD13RoundRect,0.250000X0.250000X0.475000X-0.250000X0.475000X-0.250000X-0.475000X0.250000X-0.475000X0*%
%ADD14R,0.900000X1.200000*%
%ADD15R,1.200000X0.720000*%
%ADD16R,0.720000X1.200000*%
%ADD17R,0.840000X0.840000*%
%ADD18RoundRect,0.250000X-0.475000X0.250000X-0.475000X-0.250000X0.475000X-0.250000X0.475000X0.250000X0*%
%ADD19R,1.850000X4.100000*%
%ADD20RoundRect,0.250000X-0.625000X0.375000X-0.625000X-0.375000X0.625000X-0.375000X0.625000X0.375000X0*%
%ADD21RoundRect,0.218750X-0.381250X0.218750X-0.381250X-0.218750X0.381250X-0.218750X0.381250X0.218750X0*%
%ADD22RoundRect,0.150000X0.150000X-0.512500X0.150000X0.512500X-0.150000X0.512500X-0.150000X-0.512500X0*%
%ADD23RoundRect,0.250000X-0.250000X-0.475000X0.250000X-0.475000X0.250000X0.475000X-0.250000X0.475000X0*%
%ADD24RoundRect,0.150000X-0.512500X-0.150000X0.512500X-0.150000X0.512500X0.150000X-0.512500X0.150000X0*%
%ADD25RoundRect,0.250000X0.475000X-0.250000X0.475000X0.250000X-0.475000X0.250000X-0.475000X-0.250000X0*%
%ADD26RoundRect,0.250000X0.450000X-0.262500X0.450000X0.262500X-0.450000X0.262500X-0.450000X-0.262500X0*%
G04 APERTURE END LIST*
D10*
%TO.C,R1*%
X123825000Y-105132500D03*
X123825000Y-106957500D03*
%TD*%
%TO.C,R3*%
X131445000Y-105132500D03*
X131445000Y-106957500D03*
%TD*%
%TO.C,R2*%
X127635000Y-105132500D03*
X127635000Y-106957500D03*
%TD*%
D11*
%TO.C,D3*%
X131445000Y-110792500D03*
X131445000Y-108917500D03*
%TD*%
%TO.C,D2*%
X127635000Y-110792500D03*
X127635000Y-108917500D03*
%TD*%
%TO.C,D1*%
X123825000Y-110792500D03*
X123825000Y-108917500D03*
%TD*%
D12*
%TO.C,SW6*%
X156375000Y-106535000D03*
X156375000Y-110635000D03*
X154775000Y-106535000D03*
X154775000Y-110635000D03*
%TD*%
%TO.C,SW2*%
X141135000Y-106535000D03*
X141135000Y-110635000D03*
X139535000Y-106535000D03*
X139535000Y-110635000D03*
%TD*%
D13*
%TO.C,C16*%
X136205000Y-103505000D03*
X134305000Y-103505000D03*
%TD*%
D14*
%TO.C,D4*%
X110870000Y-106934000D03*
X107570000Y-106934000D03*
%TD*%
D12*
%TO.C,SW4*%
X146215000Y-106535000D03*
X146215000Y-110635000D03*
X144615000Y-106535000D03*
X144615000Y-110635000D03*
%TD*%
%TO.C,SW1*%
X136055000Y-106535000D03*
X136055000Y-110635000D03*
X134455000Y-106535000D03*
X134455000Y-110635000D03*
%TD*%
%TO.C,SW5*%
X161455000Y-106535000D03*
X161455000Y-110635000D03*
X159855000Y-106535000D03*
X159855000Y-110635000D03*
%TD*%
%TO.C,SW3*%
X151295000Y-106535000D03*
X151295000Y-110635000D03*
X149695000Y-106535000D03*
X149695000Y-110635000D03*
%TD*%
D15*
%TO.C,U1*%
X139205000Y-75057000D03*
X139205000Y-76327000D03*
X139205000Y-77597000D03*
X139205000Y-78867000D03*
X139205000Y-80137000D03*
X139205000Y-81407000D03*
X139205000Y-82677000D03*
X139205000Y-83947000D03*
X139205000Y-85217000D03*
X139205000Y-86487000D03*
X139205000Y-87757000D03*
X139205000Y-89027000D03*
X139205000Y-90297000D03*
X139205000Y-91567000D03*
D16*
X142245000Y-92817000D03*
X143515000Y-92817000D03*
X144785000Y-92817000D03*
X146055000Y-92817000D03*
X147325000Y-92817000D03*
X148595000Y-92817000D03*
X149865000Y-92817000D03*
X151135000Y-92817000D03*
X152405000Y-92817000D03*
X153675000Y-92817000D03*
D15*
X156705000Y-91567000D03*
X156705000Y-90297000D03*
X156705000Y-89027000D03*
X156705000Y-87757000D03*
X156705000Y-86487000D03*
X156705000Y-85217000D03*
X156705000Y-83947000D03*
X156705000Y-82677000D03*
X156705000Y-81407000D03*
X156705000Y-80137000D03*
X156705000Y-78867000D03*
X156705000Y-77597000D03*
X156705000Y-76327000D03*
X156705000Y-75057000D03*
D17*
X145750000Y-80872000D03*
X145750000Y-82397000D03*
X145750000Y-83922000D03*
X147275000Y-80872000D03*
X147275000Y-82397000D03*
X147275000Y-83922000D03*
X148800000Y-80872000D03*
X148800000Y-82397000D03*
X148800000Y-83922000D03*
%TD*%
D18*
%TO.C,C7*%
X115062000Y-96840000D03*
X115062000Y-98740000D03*
%TD*%
D13*
%TO.C,C5*%
X114488000Y-106934000D03*
X112588000Y-106934000D03*
%TD*%
D19*
%TO.C,L1*%
X115396000Y-102489000D03*
X119046000Y-102489000D03*
%TD*%
D18*
%TO.C,C3*%
X137000000Y-75250000D03*
X137000000Y-77150000D03*
%TD*%
%TO.C,C1*%
X132600000Y-75250000D03*
X132600000Y-77150000D03*
%TD*%
D20*
%TO.C,F1*%
X107823000Y-98295000D03*
X107823000Y-101095000D03*
%TD*%
D21*
%TO.C,FB1*%
X107569000Y-102823500D03*
X107569000Y-104948500D03*
%TD*%
D22*
%TO.C,U3*%
X128209000Y-103372500D03*
X129159000Y-103372500D03*
X130109000Y-103372500D03*
X130109000Y-101097500D03*
X128209000Y-101097500D03*
%TD*%
D10*
%TO.C,R4*%
X126111000Y-101322500D03*
X126111000Y-103147500D03*
%TD*%
D13*
%TO.C,C6*%
X112710000Y-104521000D03*
X110810000Y-104521000D03*
%TD*%
%TO.C,C4*%
X114488000Y-109220000D03*
X112588000Y-109220000D03*
%TD*%
D18*
%TO.C,C10*%
X121539000Y-101285000D03*
X121539000Y-103185000D03*
%TD*%
%TO.C,C11*%
X123825000Y-101285000D03*
X123825000Y-103185000D03*
%TD*%
D13*
%TO.C,C12*%
X130109000Y-98806000D03*
X128209000Y-98806000D03*
%TD*%
D23*
%TO.C,C9*%
X117160000Y-108712000D03*
X119060000Y-108712000D03*
%TD*%
%TO.C,C8*%
X117160000Y-106426000D03*
X119060000Y-106426000D03*
%TD*%
D24*
%TO.C,U2*%
X110622500Y-100523000D03*
X110622500Y-101473000D03*
X110622500Y-102423000D03*
X112897500Y-102423000D03*
X112897500Y-101473000D03*
X112897500Y-100523000D03*
%TD*%
D18*
%TO.C,C2*%
X134800000Y-75250000D03*
X134800000Y-77150000D03*
%TD*%
D25*
%TO.C,C15*%
X119380000Y-98740000D03*
X119380000Y-96840000D03*
%TD*%
D26*
%TO.C,R5*%
X117221000Y-98702500D03*
X117221000Y-96877500D03*
%TD*%
D18*
%TO.C,C13*%
X132207000Y-101285000D03*
X132207000Y-103185000D03*
%TD*%
D10*
%TO.C,R6*%
X112903000Y-96877500D03*
X112903000Y-98702500D03*
%TD*%
M02*
