%TF.GenerationSoftware,KiCad,Pcbnew,(5.1.6-0-10_14)*%
%TF.CreationDate,2020-11-11T01:37:45-06:00*%
%TF.ProjectId,kbxLEDController-16ch,6b62784c-4544-4436-9f6e-74726f6c6c65,rev?*%
%TF.SameCoordinates,Original*%
%TF.FileFunction,Soldermask,Top*%
%TF.FilePolarity,Negative*%
%FSLAX46Y46*%
G04 Gerber Fmt 4.6, Leading zero omitted, Abs format (unit mm)*
G04 Created by KiCad (PCBNEW (5.1.6-0-10_14)) date 2020-11-11 01:37:45*
%MOMM*%
%LPD*%
G01*
G04 APERTURE LIST*
%ADD10C,1.900000*%
%ADD11O,1.800000X1.800000*%
%ADD12R,1.800000X1.800000*%
%ADD13C,4.500000*%
%ADD14C,0.800000*%
%ADD15R,2.100000X1.000000*%
%ADD16R,1.000000X2.100000*%
%ADD17R,5.100000X5.100000*%
%ADD18R,1.100000X1.000000*%
%ADD19R,3.600000X3.600000*%
G04 APERTURE END LIST*
%TO.C,C2*%
G36*
G01*
X134466250Y-75800000D02*
X133503750Y-75800000D01*
G75*
G02*
X133235000Y-75531250I0J268750D01*
G01*
X133235000Y-74993750D01*
G75*
G02*
X133503750Y-74725000I268750J0D01*
G01*
X134466250Y-74725000D01*
G75*
G02*
X134735000Y-74993750I0J-268750D01*
G01*
X134735000Y-75531250D01*
G75*
G02*
X134466250Y-75800000I-268750J0D01*
G01*
G37*
G36*
G01*
X134466250Y-77675000D02*
X133503750Y-77675000D01*
G75*
G02*
X133235000Y-77406250I0J268750D01*
G01*
X133235000Y-76868750D01*
G75*
G02*
X133503750Y-76600000I268750J0D01*
G01*
X134466250Y-76600000D01*
G75*
G02*
X134735000Y-76868750I0J-268750D01*
G01*
X134735000Y-77406250D01*
G75*
G02*
X134466250Y-77675000I-268750J0D01*
G01*
G37*
%TD*%
%TO.C,U3*%
G36*
G01*
X154625000Y-102285900D02*
X154625000Y-100914100D01*
G75*
G02*
X154889100Y-100650000I264100J0D01*
G01*
X156260900Y-100650000D01*
G75*
G02*
X156525000Y-100914100I0J-264100D01*
G01*
X156525000Y-102285900D01*
G75*
G02*
X156260900Y-102550000I-264100J0D01*
G01*
X154889100Y-102550000D01*
G75*
G02*
X154625000Y-102285900I0J264100D01*
G01*
G37*
D10*
X158115000Y-101600000D03*
X160655000Y-101600000D03*
%TD*%
D11*
%TO.C,J6*%
X166370000Y-104775000D03*
X166370000Y-102235000D03*
X166370000Y-99695000D03*
X166370000Y-97155000D03*
X166370000Y-94615000D03*
X166370000Y-92075000D03*
X166370000Y-89535000D03*
X166370000Y-86995000D03*
X166370000Y-84455000D03*
D12*
X166370000Y-81915000D03*
%TD*%
D13*
%TO.C,H4*%
X165735000Y-109220000D03*
D14*
X167385000Y-109220000D03*
X166901726Y-110386726D03*
X165735000Y-110870000D03*
X164568274Y-110386726D03*
X164085000Y-109220000D03*
X164568274Y-108053274D03*
X165735000Y-107570000D03*
X166901726Y-108053274D03*
%TD*%
%TO.C,H3*%
X100226726Y-108053274D03*
X99060000Y-107570000D03*
X97893274Y-108053274D03*
X97410000Y-109220000D03*
X97893274Y-110386726D03*
X99060000Y-110870000D03*
X100226726Y-110386726D03*
X100710000Y-109220000D03*
D13*
X99060000Y-109220000D03*
%TD*%
D14*
%TO.C,H2*%
X166901726Y-76303274D03*
X165735000Y-75820000D03*
X164568274Y-76303274D03*
X164085000Y-77470000D03*
X164568274Y-78636726D03*
X165735000Y-79120000D03*
X166901726Y-78636726D03*
X167385000Y-77470000D03*
D13*
X165735000Y-77470000D03*
%TD*%
D14*
%TO.C,H1*%
X106576726Y-76303274D03*
X105410000Y-75820000D03*
X104243274Y-76303274D03*
X103760000Y-77470000D03*
X104243274Y-78636726D03*
X105410000Y-79120000D03*
X106576726Y-78636726D03*
X107060000Y-77470000D03*
D13*
X105410000Y-77470000D03*
%TD*%
D15*
%TO.C,U1*%
X156455000Y-75565000D03*
X156455000Y-76835000D03*
X156455000Y-78105000D03*
X156455000Y-79375000D03*
X156455000Y-80645000D03*
X156455000Y-81915000D03*
X156455000Y-83185000D03*
X156455000Y-84455000D03*
X156455000Y-85725000D03*
X156455000Y-86995000D03*
X156455000Y-88265000D03*
X156455000Y-89535000D03*
X156455000Y-90805000D03*
X156455000Y-92075000D03*
D16*
X153670000Y-93075000D03*
X152400000Y-93075000D03*
X151130000Y-93075000D03*
X149860000Y-93075000D03*
X148590000Y-93075000D03*
X147320000Y-93075000D03*
X146050000Y-93075000D03*
X144780000Y-93075000D03*
X143510000Y-93075000D03*
X142240000Y-93075000D03*
D15*
X139455000Y-92075000D03*
X139455000Y-90805000D03*
X139455000Y-89535000D03*
X139455000Y-88265000D03*
X139455000Y-86995000D03*
X139455000Y-85725000D03*
X139455000Y-84455000D03*
X139455000Y-83185000D03*
X139455000Y-81915000D03*
X139455000Y-80645000D03*
X139455000Y-79375000D03*
X139455000Y-78105000D03*
X139455000Y-76835000D03*
X139455000Y-75565000D03*
D17*
X146955000Y-83065000D03*
%TD*%
D18*
%TO.C,SW6*%
X156375000Y-106535000D03*
X154775000Y-106535000D03*
X156375000Y-110635000D03*
X154775000Y-110635000D03*
%TD*%
%TO.C,SW5*%
X161455000Y-106535000D03*
X159855000Y-106535000D03*
X161455000Y-110635000D03*
X159855000Y-110635000D03*
%TD*%
%TO.C,SW4*%
X146215000Y-106535000D03*
X144615000Y-106535000D03*
X146215000Y-110635000D03*
X144615000Y-110635000D03*
%TD*%
%TO.C,SW3*%
X151295000Y-106535000D03*
X149695000Y-106535000D03*
X151295000Y-110635000D03*
X149695000Y-110635000D03*
%TD*%
%TO.C,SW2*%
X141135000Y-106535000D03*
X139535000Y-106535000D03*
X141135000Y-110635000D03*
X139535000Y-110635000D03*
%TD*%
%TO.C,SW1*%
X136055000Y-106535000D03*
X134455000Y-106535000D03*
X136055000Y-110635000D03*
X134455000Y-110635000D03*
%TD*%
%TO.C,R3*%
G36*
G01*
X130966738Y-106445000D02*
X131923262Y-106445000D01*
G75*
G02*
X132195000Y-106716738I0J-271738D01*
G01*
X132195000Y-107423262D01*
G75*
G02*
X131923262Y-107695000I-271738J0D01*
G01*
X130966738Y-107695000D01*
G75*
G02*
X130695000Y-107423262I0J271738D01*
G01*
X130695000Y-106716738D01*
G75*
G02*
X130966738Y-106445000I271738J0D01*
G01*
G37*
G36*
G01*
X130966738Y-104395000D02*
X131923262Y-104395000D01*
G75*
G02*
X132195000Y-104666738I0J-271738D01*
G01*
X132195000Y-105373262D01*
G75*
G02*
X131923262Y-105645000I-271738J0D01*
G01*
X130966738Y-105645000D01*
G75*
G02*
X130695000Y-105373262I0J271738D01*
G01*
X130695000Y-104666738D01*
G75*
G02*
X130966738Y-104395000I271738J0D01*
G01*
G37*
%TD*%
%TO.C,R2*%
G36*
G01*
X127156738Y-106445000D02*
X128113262Y-106445000D01*
G75*
G02*
X128385000Y-106716738I0J-271738D01*
G01*
X128385000Y-107423262D01*
G75*
G02*
X128113262Y-107695000I-271738J0D01*
G01*
X127156738Y-107695000D01*
G75*
G02*
X126885000Y-107423262I0J271738D01*
G01*
X126885000Y-106716738D01*
G75*
G02*
X127156738Y-106445000I271738J0D01*
G01*
G37*
G36*
G01*
X127156738Y-104395000D02*
X128113262Y-104395000D01*
G75*
G02*
X128385000Y-104666738I0J-271738D01*
G01*
X128385000Y-105373262D01*
G75*
G02*
X128113262Y-105645000I-271738J0D01*
G01*
X127156738Y-105645000D01*
G75*
G02*
X126885000Y-105373262I0J271738D01*
G01*
X126885000Y-104666738D01*
G75*
G02*
X127156738Y-104395000I271738J0D01*
G01*
G37*
%TD*%
%TO.C,R1*%
G36*
G01*
X123346738Y-106445000D02*
X124303262Y-106445000D01*
G75*
G02*
X124575000Y-106716738I0J-271738D01*
G01*
X124575000Y-107423262D01*
G75*
G02*
X124303262Y-107695000I-271738J0D01*
G01*
X123346738Y-107695000D01*
G75*
G02*
X123075000Y-107423262I0J271738D01*
G01*
X123075000Y-106716738D01*
G75*
G02*
X123346738Y-106445000I271738J0D01*
G01*
G37*
G36*
G01*
X123346738Y-104395000D02*
X124303262Y-104395000D01*
G75*
G02*
X124575000Y-104666738I0J-271738D01*
G01*
X124575000Y-105373262D01*
G75*
G02*
X124303262Y-105645000I-271738J0D01*
G01*
X123346738Y-105645000D01*
G75*
G02*
X123075000Y-105373262I0J271738D01*
G01*
X123075000Y-104666738D01*
G75*
G02*
X123346738Y-104395000I271738J0D01*
G01*
G37*
%TD*%
D12*
%TO.C,J4*%
X125095000Y-92075000D03*
D11*
X125095000Y-89535000D03*
X125095000Y-86995000D03*
X125095000Y-84455000D03*
X125095000Y-81915000D03*
%TD*%
D12*
%TO.C,J3*%
X121285000Y-92075000D03*
D11*
X121285000Y-89535000D03*
X121285000Y-86995000D03*
X121285000Y-84455000D03*
X121285000Y-81915000D03*
%TD*%
%TO.C,J2*%
X107315000Y-81915000D03*
X107315000Y-84455000D03*
X107315000Y-86995000D03*
X107315000Y-89535000D03*
D12*
X107315000Y-92075000D03*
%TD*%
D11*
%TO.C,J1*%
X103505000Y-81915000D03*
X103505000Y-84455000D03*
X103505000Y-86995000D03*
X103505000Y-89535000D03*
D12*
X103505000Y-92075000D03*
%TD*%
D19*
%TO.C,J5*%
X112395000Y-100330000D03*
G36*
G01*
X113420000Y-107880000D02*
X111370000Y-107880000D01*
G75*
G02*
X110595000Y-107105000I0J775000D01*
G01*
X110595000Y-105555000D01*
G75*
G02*
X111370000Y-104780000I775000J0D01*
G01*
X113420000Y-104780000D01*
G75*
G02*
X114195000Y-105555000I0J-775000D01*
G01*
X114195000Y-107105000D01*
G75*
G02*
X113420000Y-107880000I-775000J0D01*
G01*
G37*
G36*
G01*
X117995000Y-105130000D02*
X116195000Y-105130000D01*
G75*
G02*
X115295000Y-104230000I0J900000D01*
G01*
X115295000Y-102430000D01*
G75*
G02*
X116195000Y-101530000I900000J0D01*
G01*
X117995000Y-101530000D01*
G75*
G02*
X118895000Y-102430000I0J-900000D01*
G01*
X118895000Y-104230000D01*
G75*
G02*
X117995000Y-105130000I-900000J0D01*
G01*
G37*
%TD*%
%TO.C,D4*%
G36*
G01*
X131926250Y-109455000D02*
X130963750Y-109455000D01*
G75*
G02*
X130695000Y-109186250I0J268750D01*
G01*
X130695000Y-108648750D01*
G75*
G02*
X130963750Y-108380000I268750J0D01*
G01*
X131926250Y-108380000D01*
G75*
G02*
X132195000Y-108648750I0J-268750D01*
G01*
X132195000Y-109186250D01*
G75*
G02*
X131926250Y-109455000I-268750J0D01*
G01*
G37*
G36*
G01*
X131926250Y-111330000D02*
X130963750Y-111330000D01*
G75*
G02*
X130695000Y-111061250I0J268750D01*
G01*
X130695000Y-110523750D01*
G75*
G02*
X130963750Y-110255000I268750J0D01*
G01*
X131926250Y-110255000D01*
G75*
G02*
X132195000Y-110523750I0J-268750D01*
G01*
X132195000Y-111061250D01*
G75*
G02*
X131926250Y-111330000I-268750J0D01*
G01*
G37*
%TD*%
%TO.C,D3*%
G36*
G01*
X128116250Y-109455000D02*
X127153750Y-109455000D01*
G75*
G02*
X126885000Y-109186250I0J268750D01*
G01*
X126885000Y-108648750D01*
G75*
G02*
X127153750Y-108380000I268750J0D01*
G01*
X128116250Y-108380000D01*
G75*
G02*
X128385000Y-108648750I0J-268750D01*
G01*
X128385000Y-109186250D01*
G75*
G02*
X128116250Y-109455000I-268750J0D01*
G01*
G37*
G36*
G01*
X128116250Y-111330000D02*
X127153750Y-111330000D01*
G75*
G02*
X126885000Y-111061250I0J268750D01*
G01*
X126885000Y-110523750D01*
G75*
G02*
X127153750Y-110255000I268750J0D01*
G01*
X128116250Y-110255000D01*
G75*
G02*
X128385000Y-110523750I0J-268750D01*
G01*
X128385000Y-111061250D01*
G75*
G02*
X128116250Y-111330000I-268750J0D01*
G01*
G37*
%TD*%
%TO.C,D2*%
G36*
G01*
X124306250Y-109455000D02*
X123343750Y-109455000D01*
G75*
G02*
X123075000Y-109186250I0J268750D01*
G01*
X123075000Y-108648750D01*
G75*
G02*
X123343750Y-108380000I268750J0D01*
G01*
X124306250Y-108380000D01*
G75*
G02*
X124575000Y-108648750I0J-268750D01*
G01*
X124575000Y-109186250D01*
G75*
G02*
X124306250Y-109455000I-268750J0D01*
G01*
G37*
G36*
G01*
X124306250Y-111330000D02*
X123343750Y-111330000D01*
G75*
G02*
X123075000Y-111061250I0J268750D01*
G01*
X123075000Y-110523750D01*
G75*
G02*
X123343750Y-110255000I268750J0D01*
G01*
X124306250Y-110255000D01*
G75*
G02*
X124575000Y-110523750I0J-268750D01*
G01*
X124575000Y-111061250D01*
G75*
G02*
X124306250Y-111330000I-268750J0D01*
G01*
G37*
%TD*%
%TO.C,C3*%
G36*
G01*
X128219375Y-99245000D02*
X127050625Y-99245000D01*
G75*
G02*
X126785000Y-98979375I0J265625D01*
G01*
X126785000Y-96810625D01*
G75*
G02*
X127050625Y-96545000I265625J0D01*
G01*
X128219375Y-96545000D01*
G75*
G02*
X128485000Y-96810625I0J-265625D01*
G01*
X128485000Y-98979375D01*
G75*
G02*
X128219375Y-99245000I-265625J0D01*
G01*
G37*
G36*
G01*
X128219375Y-102845000D02*
X127050625Y-102845000D01*
G75*
G02*
X126785000Y-102579375I0J265625D01*
G01*
X126785000Y-100410625D01*
G75*
G02*
X127050625Y-100145000I265625J0D01*
G01*
X128219375Y-100145000D01*
G75*
G02*
X128485000Y-100410625I0J-265625D01*
G01*
X128485000Y-102579375D01*
G75*
G02*
X128219375Y-102845000I-265625J0D01*
G01*
G37*
%TD*%
%TO.C,C1*%
G36*
G01*
X137006250Y-75800000D02*
X136043750Y-75800000D01*
G75*
G02*
X135775000Y-75531250I0J268750D01*
G01*
X135775000Y-74993750D01*
G75*
G02*
X136043750Y-74725000I268750J0D01*
G01*
X137006250Y-74725000D01*
G75*
G02*
X137275000Y-74993750I0J-268750D01*
G01*
X137275000Y-75531250D01*
G75*
G02*
X137006250Y-75800000I-268750J0D01*
G01*
G37*
G36*
G01*
X137006250Y-77675000D02*
X136043750Y-77675000D01*
G75*
G02*
X135775000Y-77406250I0J268750D01*
G01*
X135775000Y-76868750D01*
G75*
G02*
X136043750Y-76600000I268750J0D01*
G01*
X137006250Y-76600000D01*
G75*
G02*
X137275000Y-76868750I0J-268750D01*
G01*
X137275000Y-77406250D01*
G75*
G02*
X137006250Y-77675000I-268750J0D01*
G01*
G37*
%TD*%
%TO.C,C6*%
G36*
G01*
X136730000Y-103023750D02*
X136730000Y-103986250D01*
G75*
G02*
X136461250Y-104255000I-268750J0D01*
G01*
X135923750Y-104255000D01*
G75*
G02*
X135655000Y-103986250I0J268750D01*
G01*
X135655000Y-103023750D01*
G75*
G02*
X135923750Y-102755000I268750J0D01*
G01*
X136461250Y-102755000D01*
G75*
G02*
X136730000Y-103023750I0J-268750D01*
G01*
G37*
G36*
G01*
X134855000Y-103023750D02*
X134855000Y-103986250D01*
G75*
G02*
X134586250Y-104255000I-268750J0D01*
G01*
X134048750Y-104255000D01*
G75*
G02*
X133780000Y-103986250I0J268750D01*
G01*
X133780000Y-103023750D01*
G75*
G02*
X134048750Y-102755000I268750J0D01*
G01*
X134586250Y-102755000D01*
G75*
G02*
X134855000Y-103023750I0J-268750D01*
G01*
G37*
%TD*%
M02*
