%TF.GenerationSoftware,KiCad,Pcbnew,(5.1.6-0-10_14)*%
%TF.CreationDate,2020-11-11T01:37:45-06:00*%
%TF.ProjectId,kbxLEDController-16ch,6b62784c-4544-4436-9f6e-74726f6c6c65,rev?*%
%TF.SameCoordinates,Original*%
%TF.FileFunction,Copper,L2,Bot*%
%TF.FilePolarity,Positive*%
%FSLAX46Y46*%
G04 Gerber Fmt 4.6, Leading zero omitted, Abs format (unit mm)*
G04 Created by KiCad (PCBNEW (5.1.6-0-10_14)) date 2020-11-11 01:37:45*
%MOMM*%
%LPD*%
G01*
G04 APERTURE LIST*
%TA.AperFunction,SMDPad,CuDef*%
%ADD10C,0.100000*%
%TD*%
%TA.AperFunction,SMDPad,CuDef*%
%ADD11R,0.900000X1.300000*%
%TD*%
%TA.AperFunction,ComponentPad*%
%ADD12C,1.800000*%
%TD*%
%TA.AperFunction,ComponentPad*%
%ADD13O,1.700000X1.700000*%
%TD*%
%TA.AperFunction,ComponentPad*%
%ADD14R,1.700000X1.700000*%
%TD*%
%TA.AperFunction,ComponentPad*%
%ADD15C,4.400000*%
%TD*%
%TA.AperFunction,ComponentPad*%
%ADD16C,0.700000*%
%TD*%
%TA.AperFunction,SMDPad,CuDef*%
%ADD17R,0.900000X0.800000*%
%TD*%
%TA.AperFunction,ComponentPad*%
%ADD18R,3.500000X3.500000*%
%TD*%
%TA.AperFunction,SMDPad,CuDef*%
%ADD19R,0.900000X1.200000*%
%TD*%
%TA.AperFunction,ViaPad*%
%ADD20C,0.800000*%
%TD*%
%TA.AperFunction,ViaPad*%
%ADD21C,1.200000*%
%TD*%
%TA.AperFunction,ViaPad*%
%ADD22C,1.000000*%
%TD*%
%TA.AperFunction,Conductor*%
%ADD23C,0.250000*%
%TD*%
%TA.AperFunction,Conductor*%
%ADD24C,0.650000*%
%TD*%
%TA.AperFunction,Conductor*%
%ADD25C,0.400000*%
%TD*%
%TA.AperFunction,Conductor*%
%ADD26C,1.000000*%
%TD*%
%TA.AperFunction,Conductor*%
%ADD27C,1.500000*%
%TD*%
%TA.AperFunction,Conductor*%
%ADD28C,2.000000*%
%TD*%
%TA.AperFunction,Conductor*%
%ADD29C,0.254000*%
%TD*%
G04 APERTURE END LIST*
%TA.AperFunction,SMDPad,CuDef*%
D10*
%TO.P,U2,2*%
%TO.N,GND*%
G36*
X129308500Y-104535000D02*
G01*
X129308500Y-101410000D01*
X129725000Y-101410000D01*
X129725000Y-99935000D01*
X130625000Y-99935000D01*
X130625000Y-101410000D01*
X131041500Y-101410000D01*
X131041500Y-104535000D01*
X129308500Y-104535000D01*
G37*
%TD.AperFunction*%
D11*
%TO.P,U2,3*%
%TO.N,+3V3*%
X131675000Y-100585000D03*
%TO.P,U2,1*%
%TO.N,Net-(C3-Pad1)*%
X128675000Y-100585000D03*
%TD*%
%TO.P,C8,2*%
%TO.N,GND*%
%TA.AperFunction,SMDPad,CuDef*%
G36*
G01*
X159267500Y-103683750D02*
X159267500Y-104596250D01*
G75*
G02*
X159023750Y-104840000I-243750J0D01*
G01*
X158536250Y-104840000D01*
G75*
G02*
X158292500Y-104596250I0J243750D01*
G01*
X158292500Y-103683750D01*
G75*
G02*
X158536250Y-103440000I243750J0D01*
G01*
X159023750Y-103440000D01*
G75*
G02*
X159267500Y-103683750I0J-243750D01*
G01*
G37*
%TD.AperFunction*%
%TO.P,C8,1*%
%TO.N,+3V3*%
%TA.AperFunction,SMDPad,CuDef*%
G36*
G01*
X161142500Y-103683750D02*
X161142500Y-104596250D01*
G75*
G02*
X160898750Y-104840000I-243750J0D01*
G01*
X160411250Y-104840000D01*
G75*
G02*
X160167500Y-104596250I0J243750D01*
G01*
X160167500Y-103683750D01*
G75*
G02*
X160411250Y-103440000I243750J0D01*
G01*
X160898750Y-103440000D01*
G75*
G02*
X161142500Y-103683750I0J-243750D01*
G01*
G37*
%TD.AperFunction*%
%TD*%
%TO.P,U3,1*%
%TO.N,/GPI36*%
%TA.AperFunction,ComponentPad*%
G36*
G01*
X154675000Y-102249800D02*
X154675000Y-100950200D01*
G75*
G02*
X154925200Y-100700000I250200J0D01*
G01*
X156224800Y-100700000D01*
G75*
G02*
X156475000Y-100950200I0J-250200D01*
G01*
X156475000Y-102249800D01*
G75*
G02*
X156224800Y-102500000I-250200J0D01*
G01*
X154925200Y-102500000D01*
G75*
G02*
X154675000Y-102249800I0J250200D01*
G01*
G37*
%TD.AperFunction*%
D12*
%TO.P,U3,2*%
%TO.N,GND*%
X158115000Y-101600000D03*
%TO.P,U3,3*%
%TO.N,+3V3*%
X160655000Y-101600000D03*
%TD*%
D13*
%TO.P,J6,10*%
%TO.N,/GPIO0*%
X166370000Y-104775000D03*
%TO.P,J6,9*%
%TO.N,/GPIO2*%
X166370000Y-102235000D03*
%TO.P,J6,8*%
%TO.N,/GPIO4*%
X166370000Y-99695000D03*
%TO.P,J6,7*%
%TO.N,/GPIO5*%
X166370000Y-97155000D03*
%TO.P,J6,6*%
%TO.N,Net-(C7-Pad2)*%
X166370000Y-94615000D03*
%TO.P,J6,5*%
%TO.N,/GPIO1*%
X166370000Y-92075000D03*
%TO.P,J6,4*%
%TO.N,/GPIO3*%
X166370000Y-89535000D03*
%TO.P,J6,3*%
%TO.N,+3V3*%
X166370000Y-86995000D03*
%TO.P,J6,2*%
%TO.N,N/C*%
X166370000Y-84455000D03*
D14*
%TO.P,J6,1*%
%TO.N,GND*%
X166370000Y-81915000D03*
%TD*%
%TO.P,R5,1*%
%TO.N,+3V3*%
%TA.AperFunction,SMDPad,CuDef*%
G36*
G01*
X163645001Y-101930000D02*
X162744999Y-101930000D01*
G75*
G02*
X162495000Y-101680001I0J249999D01*
G01*
X162495000Y-101029999D01*
G75*
G02*
X162744999Y-100780000I249999J0D01*
G01*
X163645001Y-100780000D01*
G75*
G02*
X163895000Y-101029999I0J-249999D01*
G01*
X163895000Y-101680001D01*
G75*
G02*
X163645001Y-101930000I-249999J0D01*
G01*
G37*
%TD.AperFunction*%
%TO.P,R5,2*%
%TO.N,/GPIO0*%
%TA.AperFunction,SMDPad,CuDef*%
G36*
G01*
X163645001Y-99880000D02*
X162744999Y-99880000D01*
G75*
G02*
X162495000Y-99630001I0J249999D01*
G01*
X162495000Y-98979999D01*
G75*
G02*
X162744999Y-98730000I249999J0D01*
G01*
X163645001Y-98730000D01*
G75*
G02*
X163895000Y-98979999I0J-249999D01*
G01*
X163895000Y-99630001D01*
G75*
G02*
X163645001Y-99880000I-249999J0D01*
G01*
G37*
%TD.AperFunction*%
%TD*%
D15*
%TO.P,H4,1*%
%TO.N,GND*%
X165735000Y-109220000D03*
D16*
X167385000Y-109220000D03*
X166901726Y-110386726D03*
X165735000Y-110870000D03*
X164568274Y-110386726D03*
X164085000Y-109220000D03*
X164568274Y-108053274D03*
X165735000Y-107570000D03*
X166901726Y-108053274D03*
%TD*%
%TO.P,H3,1*%
%TO.N,GND*%
X100226726Y-108053274D03*
X99060000Y-107570000D03*
X97893274Y-108053274D03*
X97410000Y-109220000D03*
X97893274Y-110386726D03*
X99060000Y-110870000D03*
X100226726Y-110386726D03*
X100710000Y-109220000D03*
D15*
X99060000Y-109220000D03*
%TD*%
D16*
%TO.P,H2,1*%
%TO.N,GND*%
X166901726Y-76303274D03*
X165735000Y-75820000D03*
X164568274Y-76303274D03*
X164085000Y-77470000D03*
X164568274Y-78636726D03*
X165735000Y-79120000D03*
X166901726Y-78636726D03*
X167385000Y-77470000D03*
D15*
X165735000Y-77470000D03*
%TD*%
D16*
%TO.P,H1,1*%
%TO.N,GND*%
X106576726Y-76303274D03*
X105410000Y-75820000D03*
X104243274Y-76303274D03*
X103760000Y-77470000D03*
X104243274Y-78636726D03*
X105410000Y-79120000D03*
X106576726Y-78636726D03*
X107060000Y-77470000D03*
D15*
X105410000Y-77470000D03*
%TD*%
%TO.P,R9,2*%
%TO.N,/GPI39*%
%TA.AperFunction,SMDPad,CuDef*%
G36*
G01*
X142055000Y-83635001D02*
X142055000Y-82734999D01*
G75*
G02*
X142304999Y-82485000I249999J0D01*
G01*
X142955001Y-82485000D01*
G75*
G02*
X143205000Y-82734999I0J-249999D01*
G01*
X143205000Y-83635001D01*
G75*
G02*
X142955001Y-83885000I-249999J0D01*
G01*
X142304999Y-83885000D01*
G75*
G02*
X142055000Y-83635001I0J249999D01*
G01*
G37*
%TD.AperFunction*%
%TO.P,R9,1*%
%TO.N,+3V3*%
%TA.AperFunction,SMDPad,CuDef*%
G36*
G01*
X140005000Y-83635001D02*
X140005000Y-82734999D01*
G75*
G02*
X140254999Y-82485000I249999J0D01*
G01*
X140905001Y-82485000D01*
G75*
G02*
X141155000Y-82734999I0J-249999D01*
G01*
X141155000Y-83635001D01*
G75*
G02*
X140905001Y-83885000I-249999J0D01*
G01*
X140254999Y-83885000D01*
G75*
G02*
X140005000Y-83635001I0J249999D01*
G01*
G37*
%TD.AperFunction*%
%TD*%
%TO.P,R8,2*%
%TO.N,/GPI36*%
%TA.AperFunction,SMDPad,CuDef*%
G36*
G01*
X142055000Y-81095001D02*
X142055000Y-80194999D01*
G75*
G02*
X142304999Y-79945000I249999J0D01*
G01*
X142955001Y-79945000D01*
G75*
G02*
X143205000Y-80194999I0J-249999D01*
G01*
X143205000Y-81095001D01*
G75*
G02*
X142955001Y-81345000I-249999J0D01*
G01*
X142304999Y-81345000D01*
G75*
G02*
X142055000Y-81095001I0J249999D01*
G01*
G37*
%TD.AperFunction*%
%TO.P,R8,1*%
%TO.N,+3V3*%
%TA.AperFunction,SMDPad,CuDef*%
G36*
G01*
X140005000Y-81095001D02*
X140005000Y-80194999D01*
G75*
G02*
X140254999Y-79945000I249999J0D01*
G01*
X140905001Y-79945000D01*
G75*
G02*
X141155000Y-80194999I0J-249999D01*
G01*
X141155000Y-81095001D01*
G75*
G02*
X140905001Y-81345000I-249999J0D01*
G01*
X140254999Y-81345000D01*
G75*
G02*
X140005000Y-81095001I0J249999D01*
G01*
G37*
%TD.AperFunction*%
%TD*%
%TO.P,R7,2*%
%TO.N,/GPI35*%
%TA.AperFunction,SMDPad,CuDef*%
G36*
G01*
X142055000Y-88715001D02*
X142055000Y-87814999D01*
G75*
G02*
X142304999Y-87565000I249999J0D01*
G01*
X142955001Y-87565000D01*
G75*
G02*
X143205000Y-87814999I0J-249999D01*
G01*
X143205000Y-88715001D01*
G75*
G02*
X142955001Y-88965000I-249999J0D01*
G01*
X142304999Y-88965000D01*
G75*
G02*
X142055000Y-88715001I0J249999D01*
G01*
G37*
%TD.AperFunction*%
%TO.P,R7,1*%
%TO.N,+3V3*%
%TA.AperFunction,SMDPad,CuDef*%
G36*
G01*
X140005000Y-88715001D02*
X140005000Y-87814999D01*
G75*
G02*
X140254999Y-87565000I249999J0D01*
G01*
X140905001Y-87565000D01*
G75*
G02*
X141155000Y-87814999I0J-249999D01*
G01*
X141155000Y-88715001D01*
G75*
G02*
X140905001Y-88965000I-249999J0D01*
G01*
X140254999Y-88965000D01*
G75*
G02*
X140005000Y-88715001I0J249999D01*
G01*
G37*
%TD.AperFunction*%
%TD*%
%TO.P,R6,2*%
%TO.N,/GPI34*%
%TA.AperFunction,SMDPad,CuDef*%
G36*
G01*
X142055000Y-86175001D02*
X142055000Y-85274999D01*
G75*
G02*
X142304999Y-85025000I249999J0D01*
G01*
X142955001Y-85025000D01*
G75*
G02*
X143205000Y-85274999I0J-249999D01*
G01*
X143205000Y-86175001D01*
G75*
G02*
X142955001Y-86425000I-249999J0D01*
G01*
X142304999Y-86425000D01*
G75*
G02*
X142055000Y-86175001I0J249999D01*
G01*
G37*
%TD.AperFunction*%
%TO.P,R6,1*%
%TO.N,+3V3*%
%TA.AperFunction,SMDPad,CuDef*%
G36*
G01*
X140005000Y-86175001D02*
X140005000Y-85274999D01*
G75*
G02*
X140254999Y-85025000I249999J0D01*
G01*
X140905001Y-85025000D01*
G75*
G02*
X141155000Y-85274999I0J-249999D01*
G01*
X141155000Y-86175001D01*
G75*
G02*
X140905001Y-86425000I-249999J0D01*
G01*
X140254999Y-86425000D01*
G75*
G02*
X140005000Y-86175001I0J249999D01*
G01*
G37*
%TD.AperFunction*%
%TD*%
%TO.P,R4,2*%
%TO.N,/~RESET*%
%TA.AperFunction,SMDPad,CuDef*%
G36*
G01*
X142055000Y-78555001D02*
X142055000Y-77654999D01*
G75*
G02*
X142304999Y-77405000I249999J0D01*
G01*
X142955001Y-77405000D01*
G75*
G02*
X143205000Y-77654999I0J-249999D01*
G01*
X143205000Y-78555001D01*
G75*
G02*
X142955001Y-78805000I-249999J0D01*
G01*
X142304999Y-78805000D01*
G75*
G02*
X142055000Y-78555001I0J249999D01*
G01*
G37*
%TD.AperFunction*%
%TO.P,R4,1*%
%TO.N,+3V3*%
%TA.AperFunction,SMDPad,CuDef*%
G36*
G01*
X140005000Y-78555001D02*
X140005000Y-77654999D01*
G75*
G02*
X140254999Y-77405000I249999J0D01*
G01*
X140905001Y-77405000D01*
G75*
G02*
X141155000Y-77654999I0J-249999D01*
G01*
X141155000Y-78555001D01*
G75*
G02*
X140905001Y-78805000I-249999J0D01*
G01*
X140254999Y-78805000D01*
G75*
G02*
X140005000Y-78555001I0J249999D01*
G01*
G37*
%TD.AperFunction*%
%TD*%
D17*
%TO.P,Q16,1*%
%TO.N,/PWM_16*%
X129905000Y-78425000D03*
%TO.P,Q16,2*%
%TO.N,GND*%
X129905000Y-80325000D03*
%TO.P,Q16,3*%
%TO.N,/PWM_16_TERM*%
X127905000Y-79375000D03*
%TD*%
%TO.P,Q12,1*%
%TO.N,/PWM_12*%
X116475000Y-80325000D03*
%TO.P,Q12,2*%
%TO.N,GND*%
X116475000Y-78425000D03*
%TO.P,Q12,3*%
%TO.N,/PWM_12_TERM*%
X118475000Y-79375000D03*
%TD*%
%TO.P,Q8,3*%
%TO.N,/PWM_8_TERM*%
X110125000Y-79375000D03*
%TO.P,Q8,2*%
%TO.N,GND*%
X112125000Y-80325000D03*
%TO.P,Q8,1*%
%TO.N,/PWM_8*%
X112125000Y-78425000D03*
%TD*%
%TO.P,Q4,3*%
%TO.N,/PWM_4_TERM*%
X100695000Y-79375000D03*
%TO.P,Q4,2*%
%TO.N,GND*%
X98695000Y-78425000D03*
%TO.P,Q4,1*%
%TO.N,/PWM_4*%
X98695000Y-80325000D03*
%TD*%
%TO.P,Q15,1*%
%TO.N,/PWM_15*%
X129905000Y-82235000D03*
%TO.P,Q15,2*%
%TO.N,GND*%
X129905000Y-84135000D03*
%TO.P,Q15,3*%
%TO.N,/PWM_15_TERM*%
X127905000Y-83185000D03*
%TD*%
%TO.P,Q11,1*%
%TO.N,/PWM_11*%
X116475000Y-84135000D03*
%TO.P,Q11,2*%
%TO.N,GND*%
X116475000Y-82235000D03*
%TO.P,Q11,3*%
%TO.N,/PWM_11_TERM*%
X118475000Y-83185000D03*
%TD*%
%TO.P,Q7,3*%
%TO.N,/PWM_7_TERM*%
X110125000Y-83185000D03*
%TO.P,Q7,2*%
%TO.N,GND*%
X112125000Y-84135000D03*
%TO.P,Q7,1*%
%TO.N,/PWM_7*%
X112125000Y-82235000D03*
%TD*%
%TO.P,Q3,3*%
%TO.N,/PWM_3_TERM*%
X100695000Y-83185000D03*
%TO.P,Q3,2*%
%TO.N,GND*%
X98695000Y-82235000D03*
%TO.P,Q3,1*%
%TO.N,/PWM_3*%
X98695000Y-84135000D03*
%TD*%
%TO.P,Q14,1*%
%TO.N,/PWM_14*%
X129905000Y-86045000D03*
%TO.P,Q14,2*%
%TO.N,GND*%
X129905000Y-87945000D03*
%TO.P,Q14,3*%
%TO.N,/PWM_14_TERM*%
X127905000Y-86995000D03*
%TD*%
%TO.P,Q10,1*%
%TO.N,/PWM_10*%
X116475000Y-87945000D03*
%TO.P,Q10,2*%
%TO.N,GND*%
X116475000Y-86045000D03*
%TO.P,Q10,3*%
%TO.N,/PWM_10_TERM*%
X118475000Y-86995000D03*
%TD*%
%TO.P,Q6,3*%
%TO.N,/PWM_6_TERM*%
X110125000Y-86995000D03*
%TO.P,Q6,2*%
%TO.N,GND*%
X112125000Y-87945000D03*
%TO.P,Q6,1*%
%TO.N,/PWM_6*%
X112125000Y-86045000D03*
%TD*%
%TO.P,Q2,3*%
%TO.N,/PWM_2_TERM*%
X100695000Y-86995000D03*
%TO.P,Q2,2*%
%TO.N,GND*%
X98695000Y-86045000D03*
%TO.P,Q2,1*%
%TO.N,/PWM_2*%
X98695000Y-87945000D03*
%TD*%
%TO.P,Q13,1*%
%TO.N,/PWM_13*%
X129905000Y-89855000D03*
%TO.P,Q13,2*%
%TO.N,GND*%
X129905000Y-91755000D03*
%TO.P,Q13,3*%
%TO.N,/PWM_13_TERM*%
X127905000Y-90805000D03*
%TD*%
%TO.P,Q9,1*%
%TO.N,/PWM_9*%
X116475000Y-91755000D03*
%TO.P,Q9,2*%
%TO.N,GND*%
X116475000Y-89855000D03*
%TO.P,Q9,3*%
%TO.N,/PWM_9_TERM*%
X118475000Y-90805000D03*
%TD*%
%TO.P,Q5,3*%
%TO.N,/PWM_5_TERM*%
X110125000Y-90805000D03*
%TO.P,Q5,2*%
%TO.N,GND*%
X112125000Y-91755000D03*
%TO.P,Q5,1*%
%TO.N,/PWM_5*%
X112125000Y-89855000D03*
%TD*%
%TO.P,Q1,3*%
%TO.N,/PWM_1_TERM*%
X100695000Y-90805000D03*
%TO.P,Q1,2*%
%TO.N,GND*%
X98695000Y-89855000D03*
%TO.P,Q1,1*%
%TO.N,/PWM_1*%
X98695000Y-91755000D03*
%TD*%
%TA.AperFunction,SMDPad,CuDef*%
D10*
%TO.P,JP1,1*%
%TO.N,/~RESET*%
G36*
X147840000Y-86210000D02*
G01*
X147840000Y-85710000D01*
X147840602Y-85710000D01*
X147840602Y-85685466D01*
X147845412Y-85636635D01*
X147854984Y-85588510D01*
X147869228Y-85541555D01*
X147888005Y-85496222D01*
X147911136Y-85452949D01*
X147938396Y-85412150D01*
X147969524Y-85374221D01*
X148004221Y-85339524D01*
X148042150Y-85308396D01*
X148082949Y-85281136D01*
X148126222Y-85258005D01*
X148171555Y-85239228D01*
X148218510Y-85224984D01*
X148266635Y-85215412D01*
X148315466Y-85210602D01*
X148340000Y-85210602D01*
X148340000Y-85210000D01*
X148840000Y-85210000D01*
X148840000Y-85210602D01*
X148864534Y-85210602D01*
X148913365Y-85215412D01*
X148961490Y-85224984D01*
X149008445Y-85239228D01*
X149053778Y-85258005D01*
X149097051Y-85281136D01*
X149137850Y-85308396D01*
X149175779Y-85339524D01*
X149210476Y-85374221D01*
X149241604Y-85412150D01*
X149268864Y-85452949D01*
X149291995Y-85496222D01*
X149310772Y-85541555D01*
X149325016Y-85588510D01*
X149334588Y-85636635D01*
X149339398Y-85685466D01*
X149339398Y-85710000D01*
X149340000Y-85710000D01*
X149340000Y-86210000D01*
X147840000Y-86210000D01*
G37*
%TD.AperFunction*%
%TA.AperFunction,SMDPad,CuDef*%
%TO.P,JP1,2*%
%TO.N,Net-(C7-Pad1)*%
G36*
X149339398Y-87010000D02*
G01*
X149339398Y-87034534D01*
X149334588Y-87083365D01*
X149325016Y-87131490D01*
X149310772Y-87178445D01*
X149291995Y-87223778D01*
X149268864Y-87267051D01*
X149241604Y-87307850D01*
X149210476Y-87345779D01*
X149175779Y-87380476D01*
X149137850Y-87411604D01*
X149097051Y-87438864D01*
X149053778Y-87461995D01*
X149008445Y-87480772D01*
X148961490Y-87495016D01*
X148913365Y-87504588D01*
X148864534Y-87509398D01*
X148840000Y-87509398D01*
X148840000Y-87510000D01*
X148340000Y-87510000D01*
X148340000Y-87509398D01*
X148315466Y-87509398D01*
X148266635Y-87504588D01*
X148218510Y-87495016D01*
X148171555Y-87480772D01*
X148126222Y-87461995D01*
X148082949Y-87438864D01*
X148042150Y-87411604D01*
X148004221Y-87380476D01*
X147969524Y-87345779D01*
X147938396Y-87307850D01*
X147911136Y-87267051D01*
X147888005Y-87223778D01*
X147869228Y-87178445D01*
X147854984Y-87131490D01*
X147845412Y-87083365D01*
X147840602Y-87034534D01*
X147840602Y-87010000D01*
X147840000Y-87010000D01*
X147840000Y-86510000D01*
X149340000Y-86510000D01*
X149340000Y-87010000D01*
X149339398Y-87010000D01*
G37*
%TD.AperFunction*%
%TD*%
D14*
%TO.P,J4,1*%
%TO.N,VDC*%
X125095000Y-92075000D03*
D13*
%TO.P,J4,2*%
%TO.N,/PWM_13_TERM*%
X125095000Y-89535000D03*
%TO.P,J4,3*%
%TO.N,/PWM_14_TERM*%
X125095000Y-86995000D03*
%TO.P,J4,4*%
%TO.N,/PWM_15_TERM*%
X125095000Y-84455000D03*
%TO.P,J4,5*%
%TO.N,/PWM_16_TERM*%
X125095000Y-81915000D03*
%TD*%
D14*
%TO.P,J3,1*%
%TO.N,VDC*%
X121285000Y-92075000D03*
D13*
%TO.P,J3,2*%
%TO.N,/PWM_9_TERM*%
X121285000Y-89535000D03*
%TO.P,J3,3*%
%TO.N,/PWM_10_TERM*%
X121285000Y-86995000D03*
%TO.P,J3,4*%
%TO.N,/PWM_11_TERM*%
X121285000Y-84455000D03*
%TO.P,J3,5*%
%TO.N,/PWM_12_TERM*%
X121285000Y-81915000D03*
%TD*%
%TO.P,J2,5*%
%TO.N,/PWM_8_TERM*%
X107315000Y-81915000D03*
%TO.P,J2,4*%
%TO.N,/PWM_7_TERM*%
X107315000Y-84455000D03*
%TO.P,J2,3*%
%TO.N,/PWM_6_TERM*%
X107315000Y-86995000D03*
%TO.P,J2,2*%
%TO.N,/PWM_5_TERM*%
X107315000Y-89535000D03*
D14*
%TO.P,J2,1*%
%TO.N,VDC*%
X107315000Y-92075000D03*
%TD*%
D13*
%TO.P,J1,5*%
%TO.N,/PWM_4_TERM*%
X103505000Y-81915000D03*
%TO.P,J1,4*%
%TO.N,/PWM_3_TERM*%
X103505000Y-84455000D03*
%TO.P,J1,3*%
%TO.N,/PWM_2_TERM*%
X103505000Y-86995000D03*
%TO.P,J1,2*%
%TO.N,/PWM_1_TERM*%
X103505000Y-89535000D03*
D14*
%TO.P,J1,1*%
%TO.N,VDC*%
X103505000Y-92075000D03*
%TD*%
D18*
%TO.P,J5,1*%
%TO.N,VDC*%
X112395000Y-100330000D03*
%TO.P,J5,2*%
%TO.N,GND*%
%TA.AperFunction,ComponentPad*%
G36*
G01*
X113395000Y-107830000D02*
X111395000Y-107830000D01*
G75*
G02*
X110645000Y-107080000I0J750000D01*
G01*
X110645000Y-105580000D01*
G75*
G02*
X111395000Y-104830000I750000J0D01*
G01*
X113395000Y-104830000D01*
G75*
G02*
X114145000Y-105580000I0J-750000D01*
G01*
X114145000Y-107080000D01*
G75*
G02*
X113395000Y-107830000I-750000J0D01*
G01*
G37*
%TD.AperFunction*%
%TO.P,J5,3*%
%TA.AperFunction,ComponentPad*%
G36*
G01*
X117970000Y-105080000D02*
X116220000Y-105080000D01*
G75*
G02*
X115345000Y-104205000I0J875000D01*
G01*
X115345000Y-102455000D01*
G75*
G02*
X116220000Y-101580000I875000J0D01*
G01*
X117970000Y-101580000D01*
G75*
G02*
X118845000Y-102455000I0J-875000D01*
G01*
X118845000Y-104205000D01*
G75*
G02*
X117970000Y-105080000I-875000J0D01*
G01*
G37*
%TD.AperFunction*%
%TD*%
D19*
%TO.P,D1,2*%
%TO.N,VDC*%
X115825000Y-99695000D03*
%TO.P,D1,1*%
%TO.N,Net-(C3-Pad1)*%
X119125000Y-99695000D03*
%TD*%
%TO.P,C5,1*%
%TO.N,+3V3*%
%TA.AperFunction,SMDPad,CuDef*%
G36*
G01*
X134441250Y-101120000D02*
X133528750Y-101120000D01*
G75*
G02*
X133285000Y-100876250I0J243750D01*
G01*
X133285000Y-100388750D01*
G75*
G02*
X133528750Y-100145000I243750J0D01*
G01*
X134441250Y-100145000D01*
G75*
G02*
X134685000Y-100388750I0J-243750D01*
G01*
X134685000Y-100876250D01*
G75*
G02*
X134441250Y-101120000I-243750J0D01*
G01*
G37*
%TD.AperFunction*%
%TO.P,C5,2*%
%TO.N,GND*%
%TA.AperFunction,SMDPad,CuDef*%
G36*
G01*
X134441250Y-99245000D02*
X133528750Y-99245000D01*
G75*
G02*
X133285000Y-99001250I0J243750D01*
G01*
X133285000Y-98513750D01*
G75*
G02*
X133528750Y-98270000I243750J0D01*
G01*
X134441250Y-98270000D01*
G75*
G02*
X134685000Y-98513750I0J-243750D01*
G01*
X134685000Y-99001250D01*
G75*
G02*
X134441250Y-99245000I-243750J0D01*
G01*
G37*
%TD.AperFunction*%
%TD*%
%TO.P,C4,1*%
%TO.N,Net-(C3-Pad1)*%
%TA.AperFunction,SMDPad,CuDef*%
G36*
G01*
X126821250Y-101120000D02*
X125908750Y-101120000D01*
G75*
G02*
X125665000Y-100876250I0J243750D01*
G01*
X125665000Y-100388750D01*
G75*
G02*
X125908750Y-100145000I243750J0D01*
G01*
X126821250Y-100145000D01*
G75*
G02*
X127065000Y-100388750I0J-243750D01*
G01*
X127065000Y-100876250D01*
G75*
G02*
X126821250Y-101120000I-243750J0D01*
G01*
G37*
%TD.AperFunction*%
%TO.P,C4,2*%
%TO.N,GND*%
%TA.AperFunction,SMDPad,CuDef*%
G36*
G01*
X126821250Y-99245000D02*
X125908750Y-99245000D01*
G75*
G02*
X125665000Y-99001250I0J243750D01*
G01*
X125665000Y-98513750D01*
G75*
G02*
X125908750Y-98270000I243750J0D01*
G01*
X126821250Y-98270000D01*
G75*
G02*
X127065000Y-98513750I0J-243750D01*
G01*
X127065000Y-99001250D01*
G75*
G02*
X126821250Y-99245000I-243750J0D01*
G01*
G37*
%TD.AperFunction*%
%TD*%
%TO.P,C7,2*%
%TO.N,Net-(C7-Pad2)*%
%TA.AperFunction,SMDPad,CuDef*%
G36*
G01*
X156660000Y-87451250D02*
X156660000Y-86538750D01*
G75*
G02*
X156903750Y-86295000I243750J0D01*
G01*
X157391250Y-86295000D01*
G75*
G02*
X157635000Y-86538750I0J-243750D01*
G01*
X157635000Y-87451250D01*
G75*
G02*
X157391250Y-87695000I-243750J0D01*
G01*
X156903750Y-87695000D01*
G75*
G02*
X156660000Y-87451250I0J243750D01*
G01*
G37*
%TD.AperFunction*%
%TO.P,C7,1*%
%TO.N,Net-(C7-Pad1)*%
%TA.AperFunction,SMDPad,CuDef*%
G36*
G01*
X154785000Y-87451250D02*
X154785000Y-86538750D01*
G75*
G02*
X155028750Y-86295000I243750J0D01*
G01*
X155516250Y-86295000D01*
G75*
G02*
X155760000Y-86538750I0J-243750D01*
G01*
X155760000Y-87451250D01*
G75*
G02*
X155516250Y-87695000I-243750J0D01*
G01*
X155028750Y-87695000D01*
G75*
G02*
X154785000Y-87451250I0J243750D01*
G01*
G37*
%TD.AperFunction*%
%TD*%
D20*
%TO.N,GND*%
X114300000Y-89535000D03*
X114300000Y-86360000D03*
X137795000Y-93345000D03*
X133985000Y-75565000D03*
X127635000Y-94615000D03*
X146685000Y-89535000D03*
X153035000Y-89535000D03*
X153035000Y-76835000D03*
X146685000Y-76835000D03*
X148590000Y-103505000D03*
X130175000Y-97155000D03*
X127635000Y-97155000D03*
%TO.N,/~RESET*%
X141986000Y-78994000D03*
X142621000Y-103505000D03*
D21*
%TO.N,+3V3*%
X140970000Y-76835000D03*
D20*
X131673600Y-99669600D03*
%TO.N,/GPIO5*%
X158496000Y-87757000D03*
X162433000Y-107696000D03*
X132334000Y-110109000D03*
%TO.N,/GPIO1*%
X159512000Y-81026000D03*
%TO.N,/GPIO3*%
X160401000Y-83312000D03*
%TO.N,/PWM_1*%
X99631500Y-91757500D03*
%TO.N,/PWM_5*%
X110363000Y-88773000D03*
%TO.N,/PWM_9*%
X117411500Y-91757500D03*
%TO.N,/PWM_13*%
X135001000Y-88646000D03*
%TO.N,/PWM_2*%
X99631500Y-87947500D03*
%TO.N,/PWM_6*%
X111188500Y-85280500D03*
%TO.N,/PWM_10*%
X117411500Y-87947500D03*
%TO.N,/PWM_14*%
X132969000Y-85471000D03*
%TO.N,/PWM_3*%
X99631500Y-84137500D03*
%TO.N,/PWM_7*%
X111188500Y-82232500D03*
%TO.N,/PWM_11*%
X118491000Y-85471000D03*
%TO.N,/PWM_15*%
X132207000Y-82232500D03*
%TO.N,/PWM_4*%
X99631500Y-80327500D03*
%TO.N,/PWM_8*%
X111188500Y-78422500D03*
%TO.N,/PWM_12*%
X118491000Y-81661000D03*
%TO.N,/PWM_16*%
X131000500Y-78422500D03*
%TO.N,/GPI34*%
X142645029Y-84820828D03*
X151257000Y-105664000D03*
%TO.N,/GPI35*%
X142591411Y-87412957D03*
X146177000Y-105664000D03*
%TO.N,/GPI36*%
X142875000Y-79502000D03*
%TO.N,/GPI39*%
X142621000Y-82169000D03*
X156337000Y-105664000D03*
%TO.N,/GPIO0*%
X156337000Y-93091000D03*
X141135000Y-109309000D03*
%TO.N,/GPIO4*%
X154686000Y-88900000D03*
%TO.N,/GPIO2*%
X153670000Y-91694000D03*
D22*
%TO.N,Net-(C3-Pad1)*%
X127635000Y-102235000D03*
X126365000Y-102235000D03*
%TD*%
D23*
%TO.N,/~RESET*%
X142630000Y-78350000D02*
X141986000Y-78994000D01*
X142630000Y-78105000D02*
X142630000Y-78350000D01*
X142630000Y-78105000D02*
X142630000Y-78114000D01*
X141605000Y-79375000D02*
X141986000Y-78994000D01*
X141605000Y-97917000D02*
X141605000Y-79375000D01*
X142630000Y-78114000D02*
X143764000Y-79248000D01*
X143764000Y-80884000D02*
X148590000Y-85710000D01*
X143764000Y-79248000D02*
X143764000Y-80884000D01*
X141605000Y-102489000D02*
X142621000Y-103505000D01*
X141605000Y-97917000D02*
X141605000Y-102489000D01*
D24*
%TO.N,+3V3*%
X140580000Y-88265000D02*
X140580000Y-85725000D01*
X140580000Y-85725000D02*
X140580000Y-83185000D01*
X140580000Y-83185000D02*
X140580000Y-80645000D01*
X140580000Y-80645000D02*
X140580000Y-78105000D01*
X140580000Y-77225000D02*
X140970000Y-76835000D01*
X140580000Y-78105000D02*
X140580000Y-77225000D01*
D25*
X160655000Y-101600000D02*
X162950000Y-101600000D01*
X162950000Y-101600000D02*
X163195000Y-101355000D01*
X160655000Y-101600000D02*
X160655000Y-104140000D01*
D24*
X140580000Y-98561000D02*
X138508500Y-100632500D01*
X140580000Y-88265000D02*
X140580000Y-98561000D01*
D25*
X158115000Y-106680000D02*
X144556000Y-106680000D01*
X144556000Y-106680000D02*
X138508500Y-100632500D01*
X160655000Y-104140000D02*
X158115000Y-106680000D01*
D24*
X138508500Y-100632500D02*
X133985000Y-100632500D01*
D26*
X131722500Y-100632500D02*
X131675000Y-100585000D01*
X133985000Y-100632500D02*
X131722500Y-100632500D01*
D23*
X131675000Y-99671000D02*
X131673600Y-99669600D01*
X131675000Y-100585000D02*
X131675000Y-99671000D01*
%TO.N,/GPIO5*%
X158496000Y-87757000D02*
X164973000Y-94234000D01*
X164973000Y-95758000D02*
X166370000Y-97155000D01*
X164973000Y-94234000D02*
X164973000Y-95758000D01*
X160020000Y-110109000D02*
X132334000Y-110109000D01*
X162433000Y-107696000D02*
X160020000Y-110109000D01*
%TO.N,/GPIO1*%
X159512000Y-85217000D02*
X159512000Y-81026000D01*
X166370000Y-92075000D02*
X159512000Y-85217000D01*
%TO.N,/GPIO3*%
X166370000Y-89535000D02*
X165100000Y-89535000D01*
X160401000Y-84836000D02*
X160401000Y-83312000D01*
X165100000Y-89535000D02*
X160401000Y-84836000D01*
D27*
%TO.N,/PWM_4_TERM*%
X100965000Y-79375000D02*
X103505000Y-81915000D01*
X100695000Y-79375000D02*
X100965000Y-79375000D01*
%TO.N,/PWM_3_TERM*%
X101965000Y-84455000D02*
X100695000Y-83185000D01*
X103505000Y-84455000D02*
X101965000Y-84455000D01*
%TO.N,/PWM_2_TERM*%
X103505000Y-86995000D02*
X100695000Y-86995000D01*
%TO.N,/PWM_1_TERM*%
X101965000Y-89535000D02*
X100695000Y-90805000D01*
X103505000Y-89535000D02*
X101965000Y-89535000D01*
%TO.N,/PWM_8_TERM*%
X109855000Y-79375000D02*
X107315000Y-81915000D01*
X110125000Y-79375000D02*
X109855000Y-79375000D01*
%TO.N,/PWM_7_TERM*%
X108855000Y-84455000D02*
X110125000Y-83185000D01*
X107315000Y-84455000D02*
X108855000Y-84455000D01*
%TO.N,/PWM_6_TERM*%
X107315000Y-86995000D02*
X110125000Y-86995000D01*
%TO.N,/PWM_5_TERM*%
X108855000Y-89535000D02*
X110125000Y-90805000D01*
X107315000Y-89535000D02*
X108855000Y-89535000D01*
%TO.N,/PWM_12_TERM*%
X121015000Y-81915000D02*
X118475000Y-79375000D01*
X121285000Y-81915000D02*
X121015000Y-81915000D01*
%TO.N,/PWM_11_TERM*%
X119745000Y-84455000D02*
X121285000Y-84455000D01*
X118475000Y-83185000D02*
X119745000Y-84455000D01*
%TO.N,/PWM_10_TERM*%
X118475000Y-86995000D02*
X121285000Y-86995000D01*
%TO.N,/PWM_9_TERM*%
X119745000Y-89535000D02*
X121285000Y-89535000D01*
X118475000Y-90805000D02*
X119745000Y-89535000D01*
%TO.N,/PWM_16_TERM*%
X127635000Y-79375000D02*
X125095000Y-81915000D01*
X127905000Y-79375000D02*
X127635000Y-79375000D01*
%TO.N,/PWM_15_TERM*%
X126635000Y-84455000D02*
X127905000Y-83185000D01*
X125095000Y-84455000D02*
X126635000Y-84455000D01*
%TO.N,/PWM_14_TERM*%
X125095000Y-86995000D02*
X127905000Y-86995000D01*
%TO.N,/PWM_13_TERM*%
X126635000Y-89535000D02*
X127905000Y-90805000D01*
X125095000Y-89535000D02*
X126635000Y-89535000D01*
D23*
%TO.N,/PWM_1*%
X99629000Y-91755000D02*
X99631500Y-91757500D01*
X98695000Y-91755000D02*
X99629000Y-91755000D01*
%TO.N,/PWM_5*%
X111445000Y-89855000D02*
X110363000Y-88773000D01*
X112125000Y-89855000D02*
X111445000Y-89855000D01*
%TO.N,/PWM_9*%
X117409000Y-91755000D02*
X117411500Y-91757500D01*
X116475000Y-91755000D02*
X117409000Y-91755000D01*
%TO.N,/PWM_13*%
X133792000Y-89855000D02*
X135001000Y-88646000D01*
X129905000Y-89855000D02*
X133792000Y-89855000D01*
%TO.N,/PWM_2*%
X99629000Y-87945000D02*
X99631500Y-87947500D01*
X98695000Y-87945000D02*
X99629000Y-87945000D01*
%TO.N,/PWM_6*%
X111953000Y-86045000D02*
X111188500Y-85280500D01*
X112125000Y-86045000D02*
X111953000Y-86045000D01*
%TO.N,/PWM_10*%
X117409000Y-87945000D02*
X117411500Y-87947500D01*
X116475000Y-87945000D02*
X117409000Y-87945000D01*
%TO.N,/PWM_14*%
X132395000Y-86045000D02*
X132969000Y-85471000D01*
X129905000Y-86045000D02*
X132395000Y-86045000D01*
%TO.N,/PWM_3*%
X99629000Y-84135000D02*
X99631500Y-84137500D01*
X98695000Y-84135000D02*
X99629000Y-84135000D01*
%TO.N,/PWM_7*%
X111191000Y-82235000D02*
X111188500Y-82232500D01*
X112125000Y-82235000D02*
X111191000Y-82235000D01*
%TO.N,/PWM_11*%
X117155000Y-84135000D02*
X118491000Y-85471000D01*
X116475000Y-84135000D02*
X117155000Y-84135000D01*
%TO.N,/PWM_15*%
X132204500Y-82235000D02*
X132207000Y-82232500D01*
X129905000Y-82235000D02*
X132204500Y-82235000D01*
%TO.N,/PWM_4*%
X99629000Y-80325000D02*
X99631500Y-80327500D01*
X98695000Y-80325000D02*
X99629000Y-80325000D01*
%TO.N,/PWM_8*%
X111191000Y-78425000D02*
X111188500Y-78422500D01*
X112125000Y-78425000D02*
X111191000Y-78425000D01*
%TO.N,/PWM_12*%
X117155000Y-80325000D02*
X118491000Y-81661000D01*
X116475000Y-80325000D02*
X117155000Y-80325000D01*
%TO.N,/PWM_16*%
X130998000Y-78425000D02*
X131000500Y-78422500D01*
X129905000Y-78425000D02*
X130998000Y-78425000D01*
%TO.N,/GPI34*%
X142645029Y-85709971D02*
X142630000Y-85725000D01*
X142645029Y-84820828D02*
X142645029Y-85709971D01*
X142630000Y-85725000D02*
X143637000Y-86732000D01*
X143637000Y-86732000D02*
X143637000Y-101727000D01*
X147574000Y-105664000D02*
X151257000Y-105664000D01*
X143637000Y-101727000D02*
X147574000Y-105664000D01*
%TO.N,/GPI35*%
X142591411Y-88226411D02*
X142630000Y-88265000D01*
X142591411Y-87412957D02*
X142591411Y-88226411D01*
X142630000Y-102117000D02*
X146177000Y-105664000D01*
X142630000Y-88265000D02*
X142630000Y-102117000D01*
%TO.N,/GPI36*%
X142875000Y-80400000D02*
X142630000Y-80645000D01*
X142875000Y-79502000D02*
X142875000Y-80400000D01*
X142630000Y-80645000D02*
X145669000Y-83684000D01*
X145669000Y-83684000D02*
X145669000Y-100965000D01*
X145669000Y-100965000D02*
X146304000Y-101600000D01*
X146304000Y-101600000D02*
X155575000Y-101600000D01*
%TO.N,/GPI39*%
X142621000Y-83176000D02*
X142630000Y-83185000D01*
X142621000Y-82169000D02*
X142621000Y-83176000D01*
X143205000Y-83185000D02*
X144653000Y-84633000D01*
X142630000Y-83185000D02*
X143205000Y-83185000D01*
X144653000Y-84633000D02*
X144653000Y-101346000D01*
X144653000Y-101346000D02*
X148209000Y-104902000D01*
X148209000Y-104902000D02*
X151638000Y-104902000D01*
X152400000Y-105664000D02*
X156337000Y-105664000D01*
X151638000Y-104902000D02*
X152400000Y-105664000D01*
%TO.N,/GPIO0*%
X159296000Y-109309000D02*
X141135000Y-109309000D01*
X156337000Y-93091000D02*
X160528000Y-93091000D01*
X162814000Y-95377000D02*
X162814000Y-98924000D01*
X160528000Y-93091000D02*
X162814000Y-95377000D01*
X162814000Y-98924000D02*
X163195000Y-99305000D01*
X164465000Y-100575000D02*
X163195000Y-99305000D01*
X163830000Y-104775000D02*
X159296000Y-109309000D01*
X164465000Y-102870000D02*
X164465000Y-100575000D01*
X166370000Y-104775000D02*
X164465000Y-102870000D01*
X166370000Y-104775000D02*
X163830000Y-104775000D01*
%TO.N,/GPIO4*%
X166370000Y-99695000D02*
X164338000Y-97663000D01*
X164338000Y-97663000D02*
X164338000Y-94615000D01*
X158623000Y-88900000D02*
X154686000Y-88900000D01*
X164338000Y-94615000D02*
X158623000Y-88900000D01*
%TO.N,/GPIO2*%
X166370000Y-102235000D02*
X164973000Y-100838000D01*
X164973000Y-100838000D02*
X164973000Y-99314000D01*
X164973000Y-99314000D02*
X163576000Y-97917000D01*
X163576000Y-97917000D02*
X163576000Y-94996000D01*
X160274000Y-91694000D02*
X153670000Y-91694000D01*
X163576000Y-94996000D02*
X160274000Y-91694000D01*
D28*
%TO.N,VDC*%
X113030000Y-99695000D02*
X112395000Y-100330000D01*
X115825000Y-99695000D02*
X113030000Y-99695000D01*
D26*
%TO.N,Net-(C3-Pad1)*%
X128627500Y-100632500D02*
X128675000Y-100585000D01*
X126365000Y-100632500D02*
X128627500Y-100632500D01*
X120062500Y-100632500D02*
X119125000Y-99695000D01*
X126365000Y-100632500D02*
X120062500Y-100632500D01*
X127635000Y-101625000D02*
X128675000Y-100585000D01*
X127635000Y-102235000D02*
X127635000Y-101625000D01*
X127635000Y-102235000D02*
X126365000Y-102235000D01*
X126365000Y-102235000D02*
X126365000Y-100632500D01*
X127635000Y-101902500D02*
X126365000Y-100632500D01*
X127635000Y-102235000D02*
X127635000Y-101902500D01*
D23*
%TO.N,Net-(C7-Pad2)*%
X159385000Y-87630000D02*
X166370000Y-94615000D01*
X157147500Y-86995000D02*
X159004000Y-86995000D01*
X159385000Y-87376000D02*
X159385000Y-87630000D01*
X159004000Y-86995000D02*
X159385000Y-87376000D01*
%TO.N,Net-(C7-Pad1)*%
X148605000Y-86995000D02*
X148590000Y-87010000D01*
X155272500Y-86995000D02*
X148605000Y-86995000D01*
%TD*%
D29*
%TO.N,GND*%
G36*
X166222884Y-75006002D02*
G01*
X166692188Y-75147694D01*
X167125025Y-75377837D01*
X167504927Y-75687678D01*
X167817403Y-76065397D01*
X168050569Y-76496627D01*
X168195532Y-76964928D01*
X168250000Y-77483153D01*
X168250001Y-109187712D01*
X168198998Y-109707883D01*
X168057307Y-110177186D01*
X167827161Y-110610028D01*
X167517323Y-110989927D01*
X167139600Y-111302406D01*
X166708373Y-111535569D01*
X166240073Y-111680532D01*
X165721847Y-111735000D01*
X99092278Y-111735000D01*
X98572117Y-111683998D01*
X98102814Y-111542307D01*
X97669972Y-111312161D01*
X97290073Y-111002323D01*
X96977594Y-110624600D01*
X96744431Y-110193373D01*
X96599468Y-109725073D01*
X96545000Y-109206847D01*
X96545000Y-107830000D01*
X110006928Y-107830000D01*
X110019188Y-107954482D01*
X110055498Y-108074180D01*
X110114463Y-108184494D01*
X110193815Y-108281185D01*
X110290506Y-108360537D01*
X110400820Y-108419502D01*
X110520518Y-108455812D01*
X110645000Y-108468072D01*
X112109250Y-108465000D01*
X112268000Y-108306250D01*
X112268000Y-106457000D01*
X112522000Y-106457000D01*
X112522000Y-108306250D01*
X112680750Y-108465000D01*
X114145000Y-108468072D01*
X114269482Y-108455812D01*
X114389180Y-108419502D01*
X114499494Y-108360537D01*
X114596185Y-108281185D01*
X114675537Y-108184494D01*
X114734502Y-108074180D01*
X114770812Y-107954482D01*
X114783072Y-107830000D01*
X114780000Y-106615750D01*
X114621250Y-106457000D01*
X112522000Y-106457000D01*
X112268000Y-106457000D01*
X110168750Y-106457000D01*
X110010000Y-106615750D01*
X110006928Y-107830000D01*
X96545000Y-107830000D01*
X96545000Y-104830000D01*
X110006928Y-104830000D01*
X110010000Y-106044250D01*
X110168750Y-106203000D01*
X112268000Y-106203000D01*
X112268000Y-104353750D01*
X112522000Y-104353750D01*
X112522000Y-106203000D01*
X114621250Y-106203000D01*
X114780000Y-106044250D01*
X114781698Y-105373195D01*
X114814463Y-105434494D01*
X114893815Y-105531185D01*
X114990506Y-105610537D01*
X115100820Y-105669502D01*
X115220518Y-105705812D01*
X115345000Y-105718072D01*
X116809250Y-105715000D01*
X116968000Y-105556250D01*
X116968000Y-103457000D01*
X117222000Y-103457000D01*
X117222000Y-105556250D01*
X117380750Y-105715000D01*
X118845000Y-105718072D01*
X118969482Y-105705812D01*
X119089180Y-105669502D01*
X119199494Y-105610537D01*
X119296185Y-105531185D01*
X119375537Y-105434494D01*
X119434502Y-105324180D01*
X119470812Y-105204482D01*
X119483072Y-105080000D01*
X119480000Y-103615750D01*
X119321250Y-103457000D01*
X117222000Y-103457000D01*
X116968000Y-103457000D01*
X114868750Y-103457000D01*
X114710000Y-103615750D01*
X114708069Y-104536367D01*
X114675537Y-104475506D01*
X114596185Y-104378815D01*
X114499494Y-104299463D01*
X114389180Y-104240498D01*
X114269482Y-104204188D01*
X114145000Y-104191928D01*
X112680750Y-104195000D01*
X112522000Y-104353750D01*
X112268000Y-104353750D01*
X112109250Y-104195000D01*
X110645000Y-104191928D01*
X110520518Y-104204188D01*
X110400820Y-104240498D01*
X110290506Y-104299463D01*
X110193815Y-104378815D01*
X110114463Y-104475506D01*
X110055498Y-104585820D01*
X110019188Y-104705518D01*
X110006928Y-104830000D01*
X96545000Y-104830000D01*
X96545000Y-98580000D01*
X110006928Y-98580000D01*
X110006928Y-102080000D01*
X110019188Y-102204482D01*
X110055498Y-102324180D01*
X110114463Y-102434494D01*
X110193815Y-102531185D01*
X110290506Y-102610537D01*
X110400820Y-102669502D01*
X110520518Y-102705812D01*
X110645000Y-102718072D01*
X114145000Y-102718072D01*
X114269482Y-102705812D01*
X114389180Y-102669502D01*
X114499494Y-102610537D01*
X114596185Y-102531185D01*
X114675537Y-102434494D01*
X114708591Y-102372655D01*
X114710000Y-103044250D01*
X114868750Y-103203000D01*
X116968000Y-103203000D01*
X116968000Y-101103750D01*
X117222000Y-101103750D01*
X117222000Y-103203000D01*
X119321250Y-103203000D01*
X119480000Y-103044250D01*
X119483010Y-101609718D01*
X119626053Y-101686176D01*
X119766159Y-101728677D01*
X119840000Y-101751077D01*
X119860993Y-101753144D01*
X120006748Y-101767500D01*
X120006755Y-101767500D01*
X120062499Y-101772990D01*
X120118243Y-101767500D01*
X125230000Y-101767500D01*
X125230000Y-102179248D01*
X125224509Y-102235000D01*
X125230000Y-102290751D01*
X125230000Y-102346788D01*
X125240932Y-102401747D01*
X125246423Y-102457499D01*
X125262685Y-102511106D01*
X125273617Y-102566067D01*
X125295063Y-102617842D01*
X125311324Y-102671447D01*
X125337731Y-102720851D01*
X125359176Y-102772624D01*
X125390307Y-102819214D01*
X125416716Y-102868623D01*
X125452259Y-102911932D01*
X125483388Y-102958520D01*
X125523009Y-102998141D01*
X125558551Y-103041449D01*
X125601859Y-103076991D01*
X125641480Y-103116612D01*
X125688068Y-103147741D01*
X125731377Y-103183284D01*
X125780786Y-103209693D01*
X125827376Y-103240824D01*
X125879149Y-103262269D01*
X125928553Y-103288676D01*
X125982158Y-103304937D01*
X126033933Y-103326383D01*
X126088894Y-103337315D01*
X126142501Y-103353577D01*
X126198253Y-103359068D01*
X126253212Y-103370000D01*
X126309248Y-103370000D01*
X126365000Y-103375491D01*
X126420751Y-103370000D01*
X127579248Y-103370000D01*
X127635000Y-103375491D01*
X127690751Y-103370000D01*
X127746788Y-103370000D01*
X127801747Y-103359068D01*
X127857499Y-103353577D01*
X127911106Y-103337315D01*
X127966067Y-103326383D01*
X128017842Y-103304937D01*
X128071447Y-103288676D01*
X128120851Y-103262269D01*
X128172624Y-103240824D01*
X128219214Y-103209693D01*
X128268623Y-103183284D01*
X128311932Y-103147741D01*
X128358520Y-103116612D01*
X128398141Y-103076991D01*
X128441449Y-103041449D01*
X128476991Y-102998141D01*
X128516612Y-102958520D01*
X128547741Y-102911932D01*
X128583284Y-102868623D01*
X128609693Y-102819214D01*
X128640824Y-102772624D01*
X128662269Y-102720851D01*
X128688676Y-102671447D01*
X128704937Y-102617842D01*
X128726383Y-102566067D01*
X128737315Y-102511106D01*
X128753577Y-102457499D01*
X128759068Y-102401747D01*
X128770000Y-102346788D01*
X128770000Y-102290751D01*
X128775491Y-102235000D01*
X128770000Y-102179248D01*
X128770000Y-102095131D01*
X128992060Y-101873072D01*
X129125000Y-101873072D01*
X129249482Y-101860812D01*
X129369180Y-101824502D01*
X129479494Y-101765537D01*
X129576185Y-101686185D01*
X129655537Y-101589494D01*
X129714502Y-101479180D01*
X129750812Y-101359482D01*
X129763072Y-101235000D01*
X129763072Y-100908060D01*
X129793577Y-100807500D01*
X129815491Y-100585001D01*
X129815491Y-100585000D01*
X130534509Y-100585000D01*
X130556423Y-100807498D01*
X130586928Y-100908059D01*
X130586928Y-101235000D01*
X130599188Y-101359482D01*
X130635498Y-101479180D01*
X130694463Y-101589494D01*
X130773815Y-101686185D01*
X130870506Y-101765537D01*
X130980820Y-101824502D01*
X131100518Y-101860812D01*
X131225000Y-101873072D01*
X132125000Y-101873072D01*
X132249482Y-101860812D01*
X132369180Y-101824502D01*
X132475822Y-101767500D01*
X134040752Y-101767500D01*
X134136477Y-101758072D01*
X134441250Y-101758072D01*
X134613285Y-101741128D01*
X134778709Y-101690947D01*
X134931164Y-101609458D01*
X134951827Y-101592500D01*
X138287633Y-101592500D01*
X143936563Y-107241432D01*
X143962709Y-107273291D01*
X144089854Y-107377636D01*
X144234913Y-107455172D01*
X144392311Y-107502918D01*
X144514981Y-107515000D01*
X144514982Y-107515000D01*
X144556000Y-107519040D01*
X144597018Y-107515000D01*
X158073982Y-107515000D01*
X158115000Y-107519040D01*
X158156018Y-107515000D01*
X158156019Y-107515000D01*
X158278689Y-107502918D01*
X158436087Y-107455172D01*
X158581146Y-107377636D01*
X158708291Y-107273291D01*
X158734446Y-107241421D01*
X160497796Y-105478072D01*
X160898750Y-105478072D01*
X161070785Y-105461128D01*
X161236209Y-105410947D01*
X161388664Y-105329458D01*
X161522292Y-105219792D01*
X161631958Y-105086164D01*
X161713447Y-104933709D01*
X161763628Y-104768285D01*
X161780572Y-104596250D01*
X161780572Y-103683750D01*
X161763628Y-103511715D01*
X161713447Y-103346291D01*
X161631958Y-103193836D01*
X161522292Y-103060208D01*
X161490000Y-103033707D01*
X161490000Y-102888199D01*
X161633505Y-102792312D01*
X161847312Y-102578505D01*
X161943199Y-102435000D01*
X162282660Y-102435000D01*
X162405149Y-102500472D01*
X162571745Y-102551008D01*
X162744999Y-102568072D01*
X163645001Y-102568072D01*
X163705000Y-102562163D01*
X163705000Y-102832677D01*
X163701324Y-102870000D01*
X163705000Y-102907322D01*
X163705000Y-102907332D01*
X163715997Y-103018985D01*
X163759454Y-103162246D01*
X163830026Y-103294276D01*
X163856376Y-103326383D01*
X163924999Y-103410001D01*
X163954003Y-103433804D01*
X164535199Y-104015000D01*
X163867322Y-104015000D01*
X163829999Y-104011324D01*
X163792676Y-104015000D01*
X163792667Y-104015000D01*
X163681014Y-104025997D01*
X163537753Y-104069454D01*
X163405724Y-104140026D01*
X163289999Y-104234999D01*
X163266201Y-104263997D01*
X158981199Y-108549000D01*
X141838711Y-108549000D01*
X141794774Y-108505063D01*
X141625256Y-108391795D01*
X141436898Y-108313774D01*
X141236939Y-108274000D01*
X141033061Y-108274000D01*
X140833102Y-108313774D01*
X140644744Y-108391795D01*
X140475226Y-108505063D01*
X140331063Y-108649226D01*
X140217795Y-108818744D01*
X140139774Y-109007102D01*
X140100000Y-109207061D01*
X140100000Y-109349000D01*
X133037711Y-109349000D01*
X132993774Y-109305063D01*
X132824256Y-109191795D01*
X132635898Y-109113774D01*
X132435939Y-109074000D01*
X132232061Y-109074000D01*
X132032102Y-109113774D01*
X131843744Y-109191795D01*
X131674226Y-109305063D01*
X131530063Y-109449226D01*
X131416795Y-109618744D01*
X131338774Y-109807102D01*
X131299000Y-110007061D01*
X131299000Y-110210939D01*
X131338774Y-110410898D01*
X131416795Y-110599256D01*
X131530063Y-110768774D01*
X131674226Y-110912937D01*
X131843744Y-111026205D01*
X132032102Y-111104226D01*
X132232061Y-111144000D01*
X132435939Y-111144000D01*
X132635898Y-111104226D01*
X132824256Y-111026205D01*
X132993774Y-110912937D01*
X133037711Y-110869000D01*
X159982678Y-110869000D01*
X160020000Y-110872676D01*
X160057322Y-110869000D01*
X160057333Y-110869000D01*
X160168986Y-110858003D01*
X160312247Y-110814546D01*
X160444276Y-110743974D01*
X160560001Y-110649001D01*
X160583804Y-110619997D01*
X162472802Y-108731000D01*
X162534939Y-108731000D01*
X162734898Y-108691226D01*
X162923256Y-108613205D01*
X163092774Y-108499937D01*
X163236937Y-108355774D01*
X163350205Y-108186256D01*
X163428226Y-107997898D01*
X163468000Y-107797939D01*
X163468000Y-107594061D01*
X163428226Y-107394102D01*
X163350205Y-107205744D01*
X163236937Y-107036226D01*
X163092774Y-106892063D01*
X162923256Y-106778795D01*
X162907523Y-106772278D01*
X164144802Y-105535000D01*
X165091822Y-105535000D01*
X165216525Y-105721632D01*
X165423368Y-105928475D01*
X165666589Y-106090990D01*
X165936842Y-106202932D01*
X166223740Y-106260000D01*
X166516260Y-106260000D01*
X166803158Y-106202932D01*
X167073411Y-106090990D01*
X167316632Y-105928475D01*
X167523475Y-105721632D01*
X167685990Y-105478411D01*
X167797932Y-105208158D01*
X167855000Y-104921260D01*
X167855000Y-104628740D01*
X167797932Y-104341842D01*
X167685990Y-104071589D01*
X167523475Y-103828368D01*
X167316632Y-103621525D01*
X167142240Y-103505000D01*
X167316632Y-103388475D01*
X167523475Y-103181632D01*
X167685990Y-102938411D01*
X167797932Y-102668158D01*
X167855000Y-102381260D01*
X167855000Y-102088740D01*
X167797932Y-101801842D01*
X167685990Y-101531589D01*
X167523475Y-101288368D01*
X167316632Y-101081525D01*
X167142240Y-100965000D01*
X167316632Y-100848475D01*
X167523475Y-100641632D01*
X167685990Y-100398411D01*
X167797932Y-100128158D01*
X167855000Y-99841260D01*
X167855000Y-99548740D01*
X167797932Y-99261842D01*
X167685990Y-98991589D01*
X167523475Y-98748368D01*
X167316632Y-98541525D01*
X167142240Y-98425000D01*
X167316632Y-98308475D01*
X167523475Y-98101632D01*
X167685990Y-97858411D01*
X167797932Y-97588158D01*
X167855000Y-97301260D01*
X167855000Y-97008740D01*
X167797932Y-96721842D01*
X167685990Y-96451589D01*
X167523475Y-96208368D01*
X167316632Y-96001525D01*
X167142240Y-95885000D01*
X167316632Y-95768475D01*
X167523475Y-95561632D01*
X167685990Y-95318411D01*
X167797932Y-95048158D01*
X167855000Y-94761260D01*
X167855000Y-94468740D01*
X167797932Y-94181842D01*
X167685990Y-93911589D01*
X167523475Y-93668368D01*
X167316632Y-93461525D01*
X167142240Y-93345000D01*
X167316632Y-93228475D01*
X167523475Y-93021632D01*
X167685990Y-92778411D01*
X167797932Y-92508158D01*
X167855000Y-92221260D01*
X167855000Y-91928740D01*
X167797932Y-91641842D01*
X167685990Y-91371589D01*
X167523475Y-91128368D01*
X167316632Y-90921525D01*
X167142240Y-90805000D01*
X167316632Y-90688475D01*
X167523475Y-90481632D01*
X167685990Y-90238411D01*
X167797932Y-89968158D01*
X167855000Y-89681260D01*
X167855000Y-89388740D01*
X167797932Y-89101842D01*
X167685990Y-88831589D01*
X167523475Y-88588368D01*
X167316632Y-88381525D01*
X167142240Y-88265000D01*
X167316632Y-88148475D01*
X167523475Y-87941632D01*
X167685990Y-87698411D01*
X167797932Y-87428158D01*
X167855000Y-87141260D01*
X167855000Y-86848740D01*
X167797932Y-86561842D01*
X167685990Y-86291589D01*
X167523475Y-86048368D01*
X167316632Y-85841525D01*
X167142240Y-85725000D01*
X167316632Y-85608475D01*
X167523475Y-85401632D01*
X167685990Y-85158411D01*
X167797932Y-84888158D01*
X167855000Y-84601260D01*
X167855000Y-84308740D01*
X167797932Y-84021842D01*
X167685990Y-83751589D01*
X167523475Y-83508368D01*
X167391620Y-83376513D01*
X167464180Y-83354502D01*
X167574494Y-83295537D01*
X167671185Y-83216185D01*
X167750537Y-83119494D01*
X167809502Y-83009180D01*
X167845812Y-82889482D01*
X167858072Y-82765000D01*
X167855000Y-82200750D01*
X167696250Y-82042000D01*
X166497000Y-82042000D01*
X166497000Y-82062000D01*
X166243000Y-82062000D01*
X166243000Y-82042000D01*
X165043750Y-82042000D01*
X164885000Y-82200750D01*
X164881928Y-82765000D01*
X164894188Y-82889482D01*
X164930498Y-83009180D01*
X164989463Y-83119494D01*
X165068815Y-83216185D01*
X165165506Y-83295537D01*
X165275820Y-83354502D01*
X165348380Y-83376513D01*
X165216525Y-83508368D01*
X165054010Y-83751589D01*
X164942068Y-84021842D01*
X164885000Y-84308740D01*
X164885000Y-84601260D01*
X164942068Y-84888158D01*
X165054010Y-85158411D01*
X165216525Y-85401632D01*
X165423368Y-85608475D01*
X165597760Y-85725000D01*
X165423368Y-85841525D01*
X165216525Y-86048368D01*
X165054010Y-86291589D01*
X164942068Y-86561842D01*
X164885000Y-86848740D01*
X164885000Y-87141260D01*
X164942068Y-87428158D01*
X165054010Y-87698411D01*
X165216525Y-87941632D01*
X165423368Y-88148475D01*
X165597760Y-88265000D01*
X165423368Y-88381525D01*
X165222347Y-88582546D01*
X161161000Y-84521199D01*
X161161000Y-84015711D01*
X161204937Y-83971774D01*
X161318205Y-83802256D01*
X161396226Y-83613898D01*
X161436000Y-83413939D01*
X161436000Y-83210061D01*
X161396226Y-83010102D01*
X161318205Y-82821744D01*
X161204937Y-82652226D01*
X161060774Y-82508063D01*
X160891256Y-82394795D01*
X160702898Y-82316774D01*
X160502939Y-82277000D01*
X160299061Y-82277000D01*
X160272000Y-82282383D01*
X160272000Y-81729711D01*
X160315937Y-81685774D01*
X160429205Y-81516256D01*
X160507226Y-81327898D01*
X160547000Y-81127939D01*
X160547000Y-81065000D01*
X164881928Y-81065000D01*
X164885000Y-81629250D01*
X165043750Y-81788000D01*
X166243000Y-81788000D01*
X166243000Y-80588750D01*
X166497000Y-80588750D01*
X166497000Y-81788000D01*
X167696250Y-81788000D01*
X167855000Y-81629250D01*
X167858072Y-81065000D01*
X167845812Y-80940518D01*
X167809502Y-80820820D01*
X167750537Y-80710506D01*
X167671185Y-80613815D01*
X167574494Y-80534463D01*
X167464180Y-80475498D01*
X167344482Y-80439188D01*
X167220000Y-80426928D01*
X166655750Y-80430000D01*
X166497000Y-80588750D01*
X166243000Y-80588750D01*
X166084250Y-80430000D01*
X165520000Y-80426928D01*
X165395518Y-80439188D01*
X165275820Y-80475498D01*
X165165506Y-80534463D01*
X165068815Y-80613815D01*
X164989463Y-80710506D01*
X164930498Y-80820820D01*
X164894188Y-80940518D01*
X164881928Y-81065000D01*
X160547000Y-81065000D01*
X160547000Y-80924061D01*
X160507226Y-80724102D01*
X160429205Y-80535744D01*
X160315937Y-80366226D01*
X160171774Y-80222063D01*
X160002256Y-80108795D01*
X159813898Y-80030774D01*
X159613939Y-79991000D01*
X159410061Y-79991000D01*
X159210102Y-80030774D01*
X159021744Y-80108795D01*
X158852226Y-80222063D01*
X158708063Y-80366226D01*
X158594795Y-80535744D01*
X158516774Y-80724102D01*
X158477000Y-80924061D01*
X158477000Y-81127939D01*
X158516774Y-81327898D01*
X158594795Y-81516256D01*
X158708063Y-81685774D01*
X158752001Y-81729712D01*
X158752000Y-85179677D01*
X158748324Y-85217000D01*
X158752000Y-85254322D01*
X158752000Y-85254332D01*
X158762997Y-85365985D01*
X158797765Y-85480602D01*
X158806454Y-85509246D01*
X158877026Y-85641276D01*
X158893206Y-85660991D01*
X158971999Y-85757001D01*
X159001003Y-85780804D01*
X164928790Y-91708592D01*
X164885000Y-91928740D01*
X164885000Y-92055198D01*
X160142436Y-87312635D01*
X160134003Y-87227014D01*
X160090546Y-87083753D01*
X160019974Y-86951724D01*
X159925001Y-86835999D01*
X159895998Y-86812197D01*
X159567804Y-86484003D01*
X159544001Y-86454999D01*
X159428276Y-86360026D01*
X159296247Y-86289454D01*
X159152986Y-86245997D01*
X159041333Y-86235000D01*
X159041322Y-86235000D01*
X159004000Y-86231324D01*
X158966678Y-86235000D01*
X158216173Y-86235000D01*
X158205947Y-86201291D01*
X158124458Y-86048836D01*
X158014792Y-85915208D01*
X157881164Y-85805542D01*
X157728709Y-85724053D01*
X157563285Y-85673872D01*
X157391250Y-85656928D01*
X156903750Y-85656928D01*
X156731715Y-85673872D01*
X156566291Y-85724053D01*
X156413836Y-85805542D01*
X156280208Y-85915208D01*
X156210000Y-86000756D01*
X156139792Y-85915208D01*
X156006164Y-85805542D01*
X155853709Y-85724053D01*
X155688285Y-85673872D01*
X155516250Y-85656928D01*
X155028750Y-85656928D01*
X154856715Y-85673872D01*
X154691291Y-85724053D01*
X154538836Y-85805542D01*
X154405208Y-85915208D01*
X154295542Y-86048836D01*
X154214053Y-86201291D01*
X154203827Y-86235000D01*
X149975610Y-86235000D01*
X149978072Y-86210000D01*
X149978072Y-85710000D01*
X149975664Y-85685550D01*
X149975664Y-85660991D01*
X149963404Y-85536510D01*
X149944282Y-85440377D01*
X149907973Y-85320681D01*
X149870464Y-85230125D01*
X149811498Y-85119808D01*
X149757042Y-85038309D01*
X149677690Y-84941618D01*
X149608382Y-84872310D01*
X149511691Y-84792958D01*
X149430192Y-84738502D01*
X149319875Y-84679536D01*
X149229319Y-84642027D01*
X149109623Y-84605718D01*
X149013490Y-84586596D01*
X148889009Y-84574336D01*
X148864450Y-84574336D01*
X148840000Y-84571928D01*
X148526730Y-84571928D01*
X144524000Y-80569199D01*
X144524000Y-79285322D01*
X144527676Y-79247999D01*
X144524000Y-79210676D01*
X144524000Y-79210667D01*
X144513003Y-79099014D01*
X144469546Y-78955753D01*
X144398974Y-78823724D01*
X144304001Y-78707999D01*
X144275004Y-78684202D01*
X143843072Y-78252270D01*
X143843072Y-77654999D01*
X143826008Y-77481745D01*
X143775472Y-77315149D01*
X143693405Y-77161613D01*
X143582962Y-77027038D01*
X143448387Y-76916595D01*
X143294851Y-76834528D01*
X143128255Y-76783992D01*
X142955001Y-76766928D01*
X142304999Y-76766928D01*
X142205000Y-76776777D01*
X142205000Y-76713363D01*
X142157540Y-76474764D01*
X142064443Y-76250008D01*
X141929287Y-76047733D01*
X141757267Y-75875713D01*
X141554992Y-75740557D01*
X141330236Y-75647460D01*
X141091637Y-75600000D01*
X140848363Y-75600000D01*
X140609764Y-75647460D01*
X140385008Y-75740557D01*
X140182733Y-75875713D01*
X140010713Y-76047733D01*
X139875557Y-76250008D01*
X139782460Y-76474764D01*
X139735000Y-76713363D01*
X139735000Y-76769383D01*
X139688784Y-76855847D01*
X139670018Y-76917711D01*
X139640108Y-77016312D01*
X139627038Y-77027038D01*
X139516595Y-77161613D01*
X139434528Y-77315149D01*
X139383992Y-77481745D01*
X139366928Y-77654999D01*
X139366928Y-78555001D01*
X139383992Y-78728255D01*
X139434528Y-78894851D01*
X139516595Y-79048387D01*
X139620001Y-79174387D01*
X139620000Y-79575613D01*
X139516595Y-79701613D01*
X139434528Y-79855149D01*
X139383992Y-80021745D01*
X139366928Y-80194999D01*
X139366928Y-81095001D01*
X139383992Y-81268255D01*
X139434528Y-81434851D01*
X139516595Y-81588387D01*
X139620001Y-81714387D01*
X139620000Y-82115613D01*
X139516595Y-82241613D01*
X139434528Y-82395149D01*
X139383992Y-82561745D01*
X139366928Y-82734999D01*
X139366928Y-83635001D01*
X139383992Y-83808255D01*
X139434528Y-83974851D01*
X139516595Y-84128387D01*
X139620001Y-84254387D01*
X139620000Y-84655613D01*
X139516595Y-84781613D01*
X139434528Y-84935149D01*
X139383992Y-85101745D01*
X139366928Y-85274999D01*
X139366928Y-86175001D01*
X139383992Y-86348255D01*
X139434528Y-86514851D01*
X139516595Y-86668387D01*
X139620001Y-86794387D01*
X139620000Y-87195613D01*
X139516595Y-87321613D01*
X139434528Y-87475149D01*
X139383992Y-87641745D01*
X139366928Y-87814999D01*
X139366928Y-88715001D01*
X139383992Y-88888255D01*
X139434528Y-89054851D01*
X139516595Y-89208387D01*
X139620000Y-89334386D01*
X139620001Y-98163354D01*
X138110856Y-99672500D01*
X135155623Y-99672500D01*
X135215537Y-99599494D01*
X135274502Y-99489180D01*
X135310812Y-99369482D01*
X135323072Y-99245000D01*
X135320000Y-99043250D01*
X135161250Y-98884500D01*
X134112000Y-98884500D01*
X134112000Y-98904500D01*
X133858000Y-98904500D01*
X133858000Y-98884500D01*
X132808750Y-98884500D01*
X132650000Y-99043250D01*
X132646928Y-99245000D01*
X132655952Y-99336621D01*
X132590805Y-99179344D01*
X132477537Y-99009826D01*
X132333374Y-98865663D01*
X132163856Y-98752395D01*
X131975498Y-98674374D01*
X131775539Y-98634600D01*
X131571661Y-98634600D01*
X131371702Y-98674374D01*
X131183344Y-98752395D01*
X131013826Y-98865663D01*
X130869663Y-99009826D01*
X130756395Y-99179344D01*
X130678374Y-99367702D01*
X130638600Y-99567661D01*
X130638600Y-99685017D01*
X130635498Y-99690820D01*
X130599188Y-99810518D01*
X130586928Y-99935000D01*
X130586928Y-100261941D01*
X130556423Y-100362502D01*
X130534509Y-100585000D01*
X129815491Y-100585000D01*
X129793577Y-100362502D01*
X129763072Y-100261941D01*
X129763072Y-99935000D01*
X129750812Y-99810518D01*
X129714502Y-99690820D01*
X129655537Y-99580506D01*
X129576185Y-99483815D01*
X129479494Y-99404463D01*
X129369180Y-99345498D01*
X129249482Y-99309188D01*
X129125000Y-99296928D01*
X128225000Y-99296928D01*
X128100518Y-99309188D01*
X127980820Y-99345498D01*
X127870506Y-99404463D01*
X127773815Y-99483815D01*
X127762584Y-99497500D01*
X127650055Y-99497500D01*
X127654502Y-99489180D01*
X127690812Y-99369482D01*
X127703072Y-99245000D01*
X127700000Y-99043250D01*
X127541250Y-98884500D01*
X126492000Y-98884500D01*
X126492000Y-98904500D01*
X126238000Y-98904500D01*
X126238000Y-98884500D01*
X125188750Y-98884500D01*
X125030000Y-99043250D01*
X125026928Y-99245000D01*
X125039188Y-99369482D01*
X125075498Y-99489180D01*
X125079945Y-99497500D01*
X120532632Y-99497500D01*
X120213072Y-99177941D01*
X120213072Y-99095000D01*
X120200812Y-98970518D01*
X120164502Y-98850820D01*
X120105537Y-98740506D01*
X120026185Y-98643815D01*
X119929494Y-98564463D01*
X119819180Y-98505498D01*
X119699482Y-98469188D01*
X119575000Y-98456928D01*
X118675000Y-98456928D01*
X118550518Y-98469188D01*
X118430820Y-98505498D01*
X118320506Y-98564463D01*
X118223815Y-98643815D01*
X118144463Y-98740506D01*
X118085498Y-98850820D01*
X118049188Y-98970518D01*
X118036928Y-99095000D01*
X118036928Y-99371941D01*
X118006423Y-99472502D01*
X117984509Y-99695000D01*
X118006423Y-99917498D01*
X118036928Y-100018059D01*
X118036928Y-100295000D01*
X118049188Y-100419482D01*
X118085498Y-100539180D01*
X118144463Y-100649494D01*
X118223815Y-100746185D01*
X118320506Y-100825537D01*
X118430820Y-100884502D01*
X118550518Y-100920812D01*
X118675000Y-100933072D01*
X118757941Y-100933072D01*
X118766960Y-100942092D01*
X117380750Y-100945000D01*
X117222000Y-101103750D01*
X116968000Y-101103750D01*
X116840752Y-100976502D01*
X116986714Y-100856714D01*
X117191031Y-100607752D01*
X117342852Y-100323715D01*
X117436343Y-100015516D01*
X117467911Y-99695000D01*
X117436343Y-99374484D01*
X117342852Y-99066285D01*
X117191031Y-98782248D01*
X116986714Y-98533286D01*
X116737752Y-98328969D01*
X116627429Y-98270000D01*
X125026928Y-98270000D01*
X125030000Y-98471750D01*
X125188750Y-98630500D01*
X126238000Y-98630500D01*
X126238000Y-97793750D01*
X126492000Y-97793750D01*
X126492000Y-98630500D01*
X127541250Y-98630500D01*
X127700000Y-98471750D01*
X127703072Y-98270000D01*
X132646928Y-98270000D01*
X132650000Y-98471750D01*
X132808750Y-98630500D01*
X133858000Y-98630500D01*
X133858000Y-97793750D01*
X134112000Y-97793750D01*
X134112000Y-98630500D01*
X135161250Y-98630500D01*
X135320000Y-98471750D01*
X135323072Y-98270000D01*
X135310812Y-98145518D01*
X135274502Y-98025820D01*
X135215537Y-97915506D01*
X135136185Y-97818815D01*
X135039494Y-97739463D01*
X134929180Y-97680498D01*
X134809482Y-97644188D01*
X134685000Y-97631928D01*
X134270750Y-97635000D01*
X134112000Y-97793750D01*
X133858000Y-97793750D01*
X133699250Y-97635000D01*
X133285000Y-97631928D01*
X133160518Y-97644188D01*
X133040820Y-97680498D01*
X132930506Y-97739463D01*
X132833815Y-97818815D01*
X132754463Y-97915506D01*
X132695498Y-98025820D01*
X132659188Y-98145518D01*
X132646928Y-98270000D01*
X127703072Y-98270000D01*
X127690812Y-98145518D01*
X127654502Y-98025820D01*
X127595537Y-97915506D01*
X127516185Y-97818815D01*
X127419494Y-97739463D01*
X127309180Y-97680498D01*
X127189482Y-97644188D01*
X127065000Y-97631928D01*
X126650750Y-97635000D01*
X126492000Y-97793750D01*
X126238000Y-97793750D01*
X126079250Y-97635000D01*
X125665000Y-97631928D01*
X125540518Y-97644188D01*
X125420820Y-97680498D01*
X125310506Y-97739463D01*
X125213815Y-97818815D01*
X125134463Y-97915506D01*
X125075498Y-98025820D01*
X125039188Y-98145518D01*
X125026928Y-98270000D01*
X116627429Y-98270000D01*
X116453715Y-98177148D01*
X116145516Y-98083657D01*
X115905322Y-98060000D01*
X114512333Y-98060000D01*
X114499494Y-98049463D01*
X114389180Y-97990498D01*
X114269482Y-97954188D01*
X114145000Y-97941928D01*
X110645000Y-97941928D01*
X110520518Y-97954188D01*
X110400820Y-97990498D01*
X110290506Y-98049463D01*
X110193815Y-98128815D01*
X110114463Y-98225506D01*
X110055498Y-98335820D01*
X110019188Y-98455518D01*
X110006928Y-98580000D01*
X96545000Y-98580000D01*
X96545000Y-79925000D01*
X97606928Y-79925000D01*
X97606928Y-80725000D01*
X97619188Y-80849482D01*
X97655498Y-80969180D01*
X97714463Y-81079494D01*
X97793815Y-81176185D01*
X97890506Y-81255537D01*
X98000820Y-81314502D01*
X98120518Y-81350812D01*
X98245000Y-81363072D01*
X99145000Y-81363072D01*
X99269482Y-81350812D01*
X99349211Y-81326626D01*
X99529561Y-81362500D01*
X99733439Y-81362500D01*
X99933398Y-81322726D01*
X100121756Y-81244705D01*
X100291274Y-81131437D01*
X100435437Y-80987274D01*
X100508797Y-80877482D01*
X102146078Y-82514763D01*
X102189010Y-82618411D01*
X102351525Y-82861632D01*
X102558368Y-83068475D01*
X102560650Y-83070000D01*
X102538686Y-83070000D01*
X101626233Y-82157548D01*
X101468188Y-82027844D01*
X101227580Y-81899236D01*
X100966507Y-81820040D01*
X100695000Y-81793300D01*
X100423493Y-81820040D01*
X100162420Y-81899236D01*
X99921812Y-82027844D01*
X99710919Y-82200919D01*
X99537844Y-82411812D01*
X99409236Y-82652420D01*
X99330040Y-82913493D01*
X99309569Y-83121348D01*
X99269482Y-83109188D01*
X99145000Y-83096928D01*
X98245000Y-83096928D01*
X98120518Y-83109188D01*
X98000820Y-83145498D01*
X97890506Y-83204463D01*
X97793815Y-83283815D01*
X97714463Y-83380506D01*
X97655498Y-83490820D01*
X97619188Y-83610518D01*
X97606928Y-83735000D01*
X97606928Y-84535000D01*
X97619188Y-84659482D01*
X97655498Y-84779180D01*
X97714463Y-84889494D01*
X97793815Y-84986185D01*
X97890506Y-85065537D01*
X98000820Y-85124502D01*
X98120518Y-85160812D01*
X98245000Y-85173072D01*
X99145000Y-85173072D01*
X99269482Y-85160812D01*
X99349211Y-85136626D01*
X99529561Y-85172500D01*
X99733439Y-85172500D01*
X99933398Y-85132726D01*
X100121756Y-85054705D01*
X100291274Y-84941437D01*
X100392013Y-84840698D01*
X100937550Y-85386236D01*
X100980919Y-85439081D01*
X101033764Y-85482450D01*
X101033766Y-85482452D01*
X101129460Y-85560986D01*
X101189184Y-85610000D01*
X100626963Y-85610000D01*
X100423493Y-85630040D01*
X100162419Y-85709236D01*
X99921812Y-85837843D01*
X99710919Y-86010919D01*
X99537843Y-86221812D01*
X99409236Y-86462419D01*
X99330040Y-86723493D01*
X99309568Y-86931348D01*
X99269482Y-86919188D01*
X99145000Y-86906928D01*
X98245000Y-86906928D01*
X98120518Y-86919188D01*
X98000820Y-86955498D01*
X97890506Y-87014463D01*
X97793815Y-87093815D01*
X97714463Y-87190506D01*
X97655498Y-87300820D01*
X97619188Y-87420518D01*
X97606928Y-87545000D01*
X97606928Y-88345000D01*
X97619188Y-88469482D01*
X97655498Y-88589180D01*
X97714463Y-88699494D01*
X97793815Y-88796185D01*
X97890506Y-88875537D01*
X98000820Y-88934502D01*
X98120518Y-88970812D01*
X98245000Y-88983072D01*
X99145000Y-88983072D01*
X99269482Y-88970812D01*
X99349211Y-88946626D01*
X99529561Y-88982500D01*
X99733439Y-88982500D01*
X99933398Y-88942726D01*
X100121756Y-88864705D01*
X100291274Y-88751437D01*
X100435437Y-88607274D01*
X100548705Y-88437756D01*
X100574758Y-88374858D01*
X100626963Y-88380000D01*
X101189184Y-88380000D01*
X101172518Y-88393677D01*
X101033766Y-88507548D01*
X101033764Y-88507550D01*
X100980919Y-88550919D01*
X100937550Y-88603764D01*
X99667548Y-89873767D01*
X99537844Y-90031812D01*
X99409236Y-90272420D01*
X99330040Y-90533493D01*
X99309569Y-90741348D01*
X99269482Y-90729188D01*
X99145000Y-90716928D01*
X98245000Y-90716928D01*
X98120518Y-90729188D01*
X98000820Y-90765498D01*
X97890506Y-90824463D01*
X97793815Y-90903815D01*
X97714463Y-91000506D01*
X97655498Y-91110820D01*
X97619188Y-91230518D01*
X97606928Y-91355000D01*
X97606928Y-92155000D01*
X97619188Y-92279482D01*
X97655498Y-92399180D01*
X97714463Y-92509494D01*
X97793815Y-92606185D01*
X97890506Y-92685537D01*
X98000820Y-92744502D01*
X98120518Y-92780812D01*
X98245000Y-92793072D01*
X99145000Y-92793072D01*
X99269482Y-92780812D01*
X99349211Y-92756626D01*
X99529561Y-92792500D01*
X99733439Y-92792500D01*
X99933398Y-92752726D01*
X100121756Y-92674705D01*
X100291274Y-92561437D01*
X100435437Y-92417274D01*
X100548705Y-92247756D01*
X100574759Y-92184858D01*
X100695000Y-92196700D01*
X100966507Y-92169960D01*
X101227580Y-92090764D01*
X101468188Y-91962156D01*
X101626233Y-91832452D01*
X102016928Y-91441757D01*
X102016928Y-92925000D01*
X102029188Y-93049482D01*
X102065498Y-93169180D01*
X102124463Y-93279494D01*
X102203815Y-93376185D01*
X102300506Y-93455537D01*
X102410820Y-93514502D01*
X102530518Y-93550812D01*
X102655000Y-93563072D01*
X104355000Y-93563072D01*
X104479482Y-93550812D01*
X104599180Y-93514502D01*
X104709494Y-93455537D01*
X104806185Y-93376185D01*
X104885537Y-93279494D01*
X104944502Y-93169180D01*
X104980812Y-93049482D01*
X104993072Y-92925000D01*
X104993072Y-91225000D01*
X105826928Y-91225000D01*
X105826928Y-92925000D01*
X105839188Y-93049482D01*
X105875498Y-93169180D01*
X105934463Y-93279494D01*
X106013815Y-93376185D01*
X106110506Y-93455537D01*
X106220820Y-93514502D01*
X106340518Y-93550812D01*
X106465000Y-93563072D01*
X108165000Y-93563072D01*
X108289482Y-93550812D01*
X108409180Y-93514502D01*
X108519494Y-93455537D01*
X108616185Y-93376185D01*
X108695537Y-93279494D01*
X108754502Y-93169180D01*
X108790812Y-93049482D01*
X108803072Y-92925000D01*
X108803072Y-91441758D01*
X109193766Y-91832452D01*
X109351811Y-91962156D01*
X109592419Y-92090763D01*
X109853492Y-92169959D01*
X110124999Y-92196700D01*
X110396506Y-92169959D01*
X110657580Y-92090763D01*
X110898187Y-91962156D01*
X111109081Y-91789081D01*
X111282156Y-91578187D01*
X111410763Y-91337580D01*
X111489959Y-91076506D01*
X111510431Y-90868652D01*
X111550518Y-90880812D01*
X111675000Y-90893072D01*
X112575000Y-90893072D01*
X112699482Y-90880812D01*
X112819180Y-90844502D01*
X112929494Y-90785537D01*
X113026185Y-90706185D01*
X113105537Y-90609494D01*
X113164502Y-90499180D01*
X113200812Y-90379482D01*
X113213072Y-90255000D01*
X113213072Y-89455000D01*
X113200812Y-89330518D01*
X113164502Y-89210820D01*
X113105537Y-89100506D01*
X113026185Y-89003815D01*
X112929494Y-88924463D01*
X112819180Y-88865498D01*
X112699482Y-88829188D01*
X112575000Y-88816928D01*
X111675000Y-88816928D01*
X111550518Y-88829188D01*
X111507146Y-88842345D01*
X111398000Y-88733199D01*
X111398000Y-88671061D01*
X111358226Y-88471102D01*
X111280205Y-88282744D01*
X111166937Y-88113226D01*
X111067180Y-88013469D01*
X111109081Y-87979081D01*
X111282157Y-87768188D01*
X111410764Y-87527581D01*
X111489960Y-87266507D01*
X111510432Y-87058652D01*
X111550518Y-87070812D01*
X111675000Y-87083072D01*
X112575000Y-87083072D01*
X112699482Y-87070812D01*
X112819180Y-87034502D01*
X112929494Y-86975537D01*
X113026185Y-86896185D01*
X113105537Y-86799494D01*
X113164502Y-86689180D01*
X113200812Y-86569482D01*
X113213072Y-86445000D01*
X113213072Y-85645000D01*
X113200812Y-85520518D01*
X113164502Y-85400820D01*
X113105537Y-85290506D01*
X113026185Y-85193815D01*
X112929494Y-85114463D01*
X112819180Y-85055498D01*
X112699482Y-85019188D01*
X112575000Y-85006928D01*
X112189360Y-85006928D01*
X112183726Y-84978602D01*
X112105705Y-84790244D01*
X111992437Y-84620726D01*
X111848274Y-84476563D01*
X111678756Y-84363295D01*
X111490398Y-84285274D01*
X111290439Y-84245500D01*
X111086561Y-84245500D01*
X111007450Y-84261236D01*
X111152452Y-84116234D01*
X111282156Y-83958189D01*
X111410763Y-83717581D01*
X111489959Y-83456508D01*
X111510431Y-83248652D01*
X111550518Y-83260812D01*
X111675000Y-83273072D01*
X112575000Y-83273072D01*
X112699482Y-83260812D01*
X112819180Y-83224502D01*
X112929494Y-83165537D01*
X113026185Y-83086185D01*
X113105537Y-82989494D01*
X113164502Y-82879180D01*
X113200812Y-82759482D01*
X113213072Y-82635000D01*
X113213072Y-81835000D01*
X113200812Y-81710518D01*
X113164502Y-81590820D01*
X113105537Y-81480506D01*
X113026185Y-81383815D01*
X112929494Y-81304463D01*
X112819180Y-81245498D01*
X112699482Y-81209188D01*
X112575000Y-81196928D01*
X111675000Y-81196928D01*
X111550518Y-81209188D01*
X111470789Y-81233374D01*
X111290439Y-81197500D01*
X111086561Y-81197500D01*
X110886602Y-81237274D01*
X110698244Y-81315295D01*
X110528726Y-81428563D01*
X110384563Y-81572726D01*
X110271295Y-81742244D01*
X110245241Y-81805143D01*
X110124999Y-81793300D01*
X109853492Y-81820041D01*
X109592419Y-81899237D01*
X109351811Y-82027844D01*
X109193766Y-82157548D01*
X108281315Y-83070000D01*
X108259350Y-83070000D01*
X108261632Y-83068475D01*
X108468475Y-82861632D01*
X108630990Y-82618411D01*
X108673922Y-82514763D01*
X110471463Y-80717222D01*
X110657581Y-80660764D01*
X110898188Y-80532157D01*
X111109081Y-80359081D01*
X111282157Y-80148188D01*
X111401453Y-79925000D01*
X115386928Y-79925000D01*
X115386928Y-80725000D01*
X115399188Y-80849482D01*
X115435498Y-80969180D01*
X115494463Y-81079494D01*
X115573815Y-81176185D01*
X115670506Y-81255537D01*
X115780820Y-81314502D01*
X115900518Y-81350812D01*
X116025000Y-81363072D01*
X116925000Y-81363072D01*
X117049482Y-81350812D01*
X117092854Y-81337655D01*
X117456000Y-81700802D01*
X117456000Y-81762939D01*
X117495774Y-81962898D01*
X117568122Y-82137560D01*
X117490919Y-82200919D01*
X117317844Y-82411812D01*
X117189236Y-82652420D01*
X117110040Y-82913493D01*
X117089569Y-83121348D01*
X117049482Y-83109188D01*
X116925000Y-83096928D01*
X116025000Y-83096928D01*
X115900518Y-83109188D01*
X115780820Y-83145498D01*
X115670506Y-83204463D01*
X115573815Y-83283815D01*
X115494463Y-83380506D01*
X115435498Y-83490820D01*
X115399188Y-83610518D01*
X115386928Y-83735000D01*
X115386928Y-84535000D01*
X115399188Y-84659482D01*
X115435498Y-84779180D01*
X115494463Y-84889494D01*
X115573815Y-84986185D01*
X115670506Y-85065537D01*
X115780820Y-85124502D01*
X115900518Y-85160812D01*
X116025000Y-85173072D01*
X116925000Y-85173072D01*
X117049482Y-85160812D01*
X117092854Y-85147655D01*
X117456000Y-85510802D01*
X117456000Y-85572939D01*
X117495774Y-85772898D01*
X117568122Y-85947560D01*
X117490919Y-86010919D01*
X117317843Y-86221812D01*
X117189236Y-86462419D01*
X117110040Y-86723493D01*
X117089568Y-86931348D01*
X117049482Y-86919188D01*
X116925000Y-86906928D01*
X116025000Y-86906928D01*
X115900518Y-86919188D01*
X115780820Y-86955498D01*
X115670506Y-87014463D01*
X115573815Y-87093815D01*
X115494463Y-87190506D01*
X115435498Y-87300820D01*
X115399188Y-87420518D01*
X115386928Y-87545000D01*
X115386928Y-88345000D01*
X115399188Y-88469482D01*
X115435498Y-88589180D01*
X115494463Y-88699494D01*
X115573815Y-88796185D01*
X115670506Y-88875537D01*
X115780820Y-88934502D01*
X115900518Y-88970812D01*
X116025000Y-88983072D01*
X116925000Y-88983072D01*
X117049482Y-88970812D01*
X117129211Y-88946626D01*
X117309561Y-88982500D01*
X117513439Y-88982500D01*
X117713398Y-88942726D01*
X117901756Y-88864705D01*
X118071274Y-88751437D01*
X118215437Y-88607274D01*
X118328705Y-88437756D01*
X118354758Y-88374858D01*
X118406963Y-88380000D01*
X118969184Y-88380000D01*
X118952518Y-88393677D01*
X118813766Y-88507548D01*
X118813764Y-88507550D01*
X118760919Y-88550919D01*
X118717550Y-88603764D01*
X117447548Y-89873767D01*
X117317844Y-90031812D01*
X117189236Y-90272420D01*
X117110040Y-90533493D01*
X117089569Y-90741348D01*
X117049482Y-90729188D01*
X116925000Y-90716928D01*
X116025000Y-90716928D01*
X115900518Y-90729188D01*
X115780820Y-90765498D01*
X115670506Y-90824463D01*
X115573815Y-90903815D01*
X115494463Y-91000506D01*
X115435498Y-91110820D01*
X115399188Y-91230518D01*
X115386928Y-91355000D01*
X115386928Y-92155000D01*
X115399188Y-92279482D01*
X115435498Y-92399180D01*
X115494463Y-92509494D01*
X115573815Y-92606185D01*
X115670506Y-92685537D01*
X115780820Y-92744502D01*
X115900518Y-92780812D01*
X116025000Y-92793072D01*
X116925000Y-92793072D01*
X117049482Y-92780812D01*
X117129211Y-92756626D01*
X117309561Y-92792500D01*
X117513439Y-92792500D01*
X117713398Y-92752726D01*
X117901756Y-92674705D01*
X118071274Y-92561437D01*
X118215437Y-92417274D01*
X118328705Y-92247756D01*
X118354759Y-92184858D01*
X118475000Y-92196700D01*
X118746507Y-92169960D01*
X119007580Y-92090764D01*
X119248188Y-91962156D01*
X119406233Y-91832452D01*
X119796928Y-91441757D01*
X119796928Y-92925000D01*
X119809188Y-93049482D01*
X119845498Y-93169180D01*
X119904463Y-93279494D01*
X119983815Y-93376185D01*
X120080506Y-93455537D01*
X120190820Y-93514502D01*
X120310518Y-93550812D01*
X120435000Y-93563072D01*
X122135000Y-93563072D01*
X122259482Y-93550812D01*
X122379180Y-93514502D01*
X122489494Y-93455537D01*
X122586185Y-93376185D01*
X122665537Y-93279494D01*
X122724502Y-93169180D01*
X122760812Y-93049482D01*
X122773072Y-92925000D01*
X122773072Y-91225000D01*
X123606928Y-91225000D01*
X123606928Y-92925000D01*
X123619188Y-93049482D01*
X123655498Y-93169180D01*
X123714463Y-93279494D01*
X123793815Y-93376185D01*
X123890506Y-93455537D01*
X124000820Y-93514502D01*
X124120518Y-93550812D01*
X124245000Y-93563072D01*
X125945000Y-93563072D01*
X126069482Y-93550812D01*
X126189180Y-93514502D01*
X126299494Y-93455537D01*
X126396185Y-93376185D01*
X126475537Y-93279494D01*
X126534502Y-93169180D01*
X126570812Y-93049482D01*
X126583072Y-92925000D01*
X126583072Y-91441758D01*
X126973766Y-91832452D01*
X127131811Y-91962156D01*
X127372419Y-92090763D01*
X127633492Y-92169959D01*
X127904999Y-92196700D01*
X128176506Y-92169959D01*
X128437580Y-92090763D01*
X128678187Y-91962156D01*
X128889081Y-91789081D01*
X129062156Y-91578187D01*
X129190763Y-91337580D01*
X129269959Y-91076506D01*
X129290431Y-90868652D01*
X129330518Y-90880812D01*
X129455000Y-90893072D01*
X130355000Y-90893072D01*
X130479482Y-90880812D01*
X130599180Y-90844502D01*
X130709494Y-90785537D01*
X130806185Y-90706185D01*
X130881018Y-90615000D01*
X133754678Y-90615000D01*
X133792000Y-90618676D01*
X133829322Y-90615000D01*
X133829333Y-90615000D01*
X133940986Y-90604003D01*
X134084247Y-90560546D01*
X134216276Y-90489974D01*
X134332001Y-90395001D01*
X134355804Y-90365997D01*
X135040802Y-89681000D01*
X135102939Y-89681000D01*
X135302898Y-89641226D01*
X135491256Y-89563205D01*
X135660774Y-89449937D01*
X135804937Y-89305774D01*
X135918205Y-89136256D01*
X135996226Y-88947898D01*
X136036000Y-88747939D01*
X136036000Y-88544061D01*
X135996226Y-88344102D01*
X135918205Y-88155744D01*
X135804937Y-87986226D01*
X135660774Y-87842063D01*
X135491256Y-87728795D01*
X135302898Y-87650774D01*
X135102939Y-87611000D01*
X134899061Y-87611000D01*
X134699102Y-87650774D01*
X134510744Y-87728795D01*
X134341226Y-87842063D01*
X134197063Y-87986226D01*
X134083795Y-88155744D01*
X134005774Y-88344102D01*
X133966000Y-88544061D01*
X133966000Y-88606198D01*
X133477199Y-89095000D01*
X130881018Y-89095000D01*
X130806185Y-89003815D01*
X130709494Y-88924463D01*
X130599180Y-88865498D01*
X130479482Y-88829188D01*
X130355000Y-88816928D01*
X129455000Y-88816928D01*
X129330518Y-88829188D01*
X129210820Y-88865498D01*
X129100506Y-88924463D01*
X129003815Y-89003815D01*
X128924463Y-89100506D01*
X128865498Y-89210820D01*
X128829188Y-89330518D01*
X128816928Y-89455000D01*
X128816928Y-89758242D01*
X127662454Y-88603769D01*
X127619081Y-88550919D01*
X127410816Y-88380000D01*
X127973037Y-88380000D01*
X128176507Y-88359960D01*
X128437581Y-88280764D01*
X128678188Y-88152157D01*
X128889081Y-87979081D01*
X129062157Y-87768188D01*
X129190764Y-87527581D01*
X129269960Y-87266507D01*
X129290432Y-87058652D01*
X129330518Y-87070812D01*
X129455000Y-87083072D01*
X130355000Y-87083072D01*
X130479482Y-87070812D01*
X130599180Y-87034502D01*
X130709494Y-86975537D01*
X130806185Y-86896185D01*
X130881018Y-86805000D01*
X132357678Y-86805000D01*
X132395000Y-86808676D01*
X132432322Y-86805000D01*
X132432333Y-86805000D01*
X132543986Y-86794003D01*
X132687247Y-86750546D01*
X132819276Y-86679974D01*
X132935001Y-86585001D01*
X132958803Y-86555998D01*
X133008801Y-86506000D01*
X133070939Y-86506000D01*
X133270898Y-86466226D01*
X133459256Y-86388205D01*
X133628774Y-86274937D01*
X133772937Y-86130774D01*
X133886205Y-85961256D01*
X133964226Y-85772898D01*
X134004000Y-85572939D01*
X134004000Y-85369061D01*
X133964226Y-85169102D01*
X133886205Y-84980744D01*
X133772937Y-84811226D01*
X133628774Y-84667063D01*
X133459256Y-84553795D01*
X133270898Y-84475774D01*
X133070939Y-84436000D01*
X132867061Y-84436000D01*
X132667102Y-84475774D01*
X132478744Y-84553795D01*
X132309226Y-84667063D01*
X132165063Y-84811226D01*
X132051795Y-84980744D01*
X131973774Y-85169102D01*
X131950721Y-85285000D01*
X130881018Y-85285000D01*
X130806185Y-85193815D01*
X130709494Y-85114463D01*
X130599180Y-85055498D01*
X130479482Y-85019188D01*
X130355000Y-85006928D01*
X129455000Y-85006928D01*
X129330518Y-85019188D01*
X129210820Y-85055498D01*
X129100506Y-85114463D01*
X129003815Y-85193815D01*
X128924463Y-85290506D01*
X128865498Y-85400820D01*
X128829188Y-85520518D01*
X128816928Y-85645000D01*
X128816928Y-85951704D01*
X128678188Y-85837843D01*
X128437581Y-85709236D01*
X128176507Y-85630040D01*
X127973037Y-85610000D01*
X127410816Y-85610000D01*
X127619081Y-85439081D01*
X127662454Y-85386231D01*
X128932452Y-84116234D01*
X129062156Y-83958189D01*
X129190763Y-83717581D01*
X129269959Y-83456508D01*
X129290431Y-83248652D01*
X129330518Y-83260812D01*
X129455000Y-83273072D01*
X130355000Y-83273072D01*
X130479482Y-83260812D01*
X130599180Y-83224502D01*
X130709494Y-83165537D01*
X130806185Y-83086185D01*
X130881018Y-82995000D01*
X131505789Y-82995000D01*
X131547226Y-83036437D01*
X131716744Y-83149705D01*
X131905102Y-83227726D01*
X132105061Y-83267500D01*
X132308939Y-83267500D01*
X132508898Y-83227726D01*
X132697256Y-83149705D01*
X132866774Y-83036437D01*
X133010937Y-82892274D01*
X133124205Y-82722756D01*
X133202226Y-82534398D01*
X133242000Y-82334439D01*
X133242000Y-82130561D01*
X133202226Y-81930602D01*
X133124205Y-81742244D01*
X133010937Y-81572726D01*
X132866774Y-81428563D01*
X132697256Y-81315295D01*
X132508898Y-81237274D01*
X132308939Y-81197500D01*
X132105061Y-81197500D01*
X131905102Y-81237274D01*
X131716744Y-81315295D01*
X131547226Y-81428563D01*
X131500789Y-81475000D01*
X130881018Y-81475000D01*
X130806185Y-81383815D01*
X130709494Y-81304463D01*
X130599180Y-81245498D01*
X130479482Y-81209188D01*
X130355000Y-81196928D01*
X129455000Y-81196928D01*
X129330518Y-81209188D01*
X129210820Y-81245498D01*
X129100506Y-81304463D01*
X129003815Y-81383815D01*
X128924463Y-81480506D01*
X128865498Y-81590820D01*
X128829188Y-81710518D01*
X128816928Y-81835000D01*
X128816928Y-82141705D01*
X128678187Y-82027844D01*
X128437580Y-81899237D01*
X128176506Y-81820041D01*
X127904999Y-81793300D01*
X127633492Y-81820041D01*
X127372419Y-81899237D01*
X127131811Y-82027844D01*
X126973766Y-82157548D01*
X126061315Y-83070000D01*
X126039350Y-83070000D01*
X126041632Y-83068475D01*
X126248475Y-82861632D01*
X126410990Y-82618411D01*
X126453922Y-82514763D01*
X128251463Y-80717222D01*
X128437581Y-80660764D01*
X128678188Y-80532157D01*
X128889081Y-80359081D01*
X129062157Y-80148188D01*
X129190764Y-79907581D01*
X129269960Y-79646507D01*
X129290432Y-79438652D01*
X129330518Y-79450812D01*
X129455000Y-79463072D01*
X130355000Y-79463072D01*
X130479482Y-79450812D01*
X130599180Y-79414502D01*
X130639189Y-79393116D01*
X130698602Y-79417726D01*
X130898561Y-79457500D01*
X131102439Y-79457500D01*
X131302398Y-79417726D01*
X131490756Y-79339705D01*
X131660274Y-79226437D01*
X131804437Y-79082274D01*
X131917705Y-78912756D01*
X131995726Y-78724398D01*
X132035500Y-78524439D01*
X132035500Y-78320561D01*
X131995726Y-78120602D01*
X131917705Y-77932244D01*
X131804437Y-77762726D01*
X131660274Y-77618563D01*
X131490756Y-77505295D01*
X131302398Y-77427274D01*
X131102439Y-77387500D01*
X130898561Y-77387500D01*
X130698602Y-77427274D01*
X130633919Y-77454067D01*
X130599180Y-77435498D01*
X130479482Y-77399188D01*
X130355000Y-77386928D01*
X129455000Y-77386928D01*
X129330518Y-77399188D01*
X129210820Y-77435498D01*
X129100506Y-77494463D01*
X129003815Y-77573815D01*
X128924463Y-77670506D01*
X128865498Y-77780820D01*
X128829188Y-77900518D01*
X128816928Y-78025000D01*
X128816928Y-78331704D01*
X128678188Y-78217843D01*
X128437581Y-78089236D01*
X128176507Y-78010040D01*
X127973037Y-77990000D01*
X127703026Y-77990000D01*
X127634999Y-77983300D01*
X127566972Y-77990000D01*
X127566963Y-77990000D01*
X127363493Y-78010040D01*
X127102419Y-78089236D01*
X126861812Y-78217843D01*
X126650919Y-78390919D01*
X126607546Y-78443769D01*
X124495237Y-80556078D01*
X124391589Y-80599010D01*
X124148368Y-80761525D01*
X123941525Y-80968368D01*
X123779010Y-81211589D01*
X123667068Y-81481842D01*
X123610000Y-81768740D01*
X123610000Y-82061260D01*
X123667068Y-82348158D01*
X123779010Y-82618411D01*
X123941525Y-82861632D01*
X124148368Y-83068475D01*
X124322760Y-83185000D01*
X124148368Y-83301525D01*
X123941525Y-83508368D01*
X123779010Y-83751589D01*
X123667068Y-84021842D01*
X123610000Y-84308740D01*
X123610000Y-84601260D01*
X123667068Y-84888158D01*
X123779010Y-85158411D01*
X123941525Y-85401632D01*
X124148368Y-85608475D01*
X124322760Y-85725000D01*
X124148368Y-85841525D01*
X123941525Y-86048368D01*
X123779010Y-86291589D01*
X123667068Y-86561842D01*
X123610000Y-86848740D01*
X123610000Y-87141260D01*
X123667068Y-87428158D01*
X123779010Y-87698411D01*
X123941525Y-87941632D01*
X124148368Y-88148475D01*
X124322760Y-88265000D01*
X124148368Y-88381525D01*
X123941525Y-88588368D01*
X123779010Y-88831589D01*
X123667068Y-89101842D01*
X123610000Y-89388740D01*
X123610000Y-89681260D01*
X123667068Y-89968158D01*
X123779010Y-90238411D01*
X123941525Y-90481632D01*
X124073380Y-90613487D01*
X124000820Y-90635498D01*
X123890506Y-90694463D01*
X123793815Y-90773815D01*
X123714463Y-90870506D01*
X123655498Y-90980820D01*
X123619188Y-91100518D01*
X123606928Y-91225000D01*
X122773072Y-91225000D01*
X122760812Y-91100518D01*
X122724502Y-90980820D01*
X122665537Y-90870506D01*
X122586185Y-90773815D01*
X122489494Y-90694463D01*
X122379180Y-90635498D01*
X122306620Y-90613487D01*
X122438475Y-90481632D01*
X122600990Y-90238411D01*
X122712932Y-89968158D01*
X122770000Y-89681260D01*
X122770000Y-89388740D01*
X122712932Y-89101842D01*
X122600990Y-88831589D01*
X122438475Y-88588368D01*
X122231632Y-88381525D01*
X122057240Y-88265000D01*
X122231632Y-88148475D01*
X122438475Y-87941632D01*
X122600990Y-87698411D01*
X122712932Y-87428158D01*
X122770000Y-87141260D01*
X122770000Y-86848740D01*
X122712932Y-86561842D01*
X122600990Y-86291589D01*
X122438475Y-86048368D01*
X122231632Y-85841525D01*
X122057240Y-85725000D01*
X122231632Y-85608475D01*
X122438475Y-85401632D01*
X122600990Y-85158411D01*
X122712932Y-84888158D01*
X122770000Y-84601260D01*
X122770000Y-84308740D01*
X122712932Y-84021842D01*
X122600990Y-83751589D01*
X122438475Y-83508368D01*
X122231632Y-83301525D01*
X122057240Y-83185000D01*
X122231632Y-83068475D01*
X122438475Y-82861632D01*
X122600990Y-82618411D01*
X122712932Y-82348158D01*
X122770000Y-82061260D01*
X122770000Y-81768740D01*
X122712932Y-81481842D01*
X122600990Y-81211589D01*
X122438475Y-80968368D01*
X122231632Y-80761525D01*
X121988411Y-80599010D01*
X121718158Y-80487068D01*
X121502944Y-80444259D01*
X119406233Y-78347548D01*
X119248188Y-78217844D01*
X119007580Y-78089236D01*
X118746507Y-78010040D01*
X118475000Y-77983300D01*
X118203493Y-78010040D01*
X117942420Y-78089236D01*
X117701812Y-78217844D01*
X117490919Y-78390919D01*
X117317844Y-78601812D01*
X117189236Y-78842420D01*
X117110040Y-79103493D01*
X117089569Y-79311348D01*
X117049482Y-79299188D01*
X116925000Y-79286928D01*
X116025000Y-79286928D01*
X115900518Y-79299188D01*
X115780820Y-79335498D01*
X115670506Y-79394463D01*
X115573815Y-79473815D01*
X115494463Y-79570506D01*
X115435498Y-79680820D01*
X115399188Y-79800518D01*
X115386928Y-79925000D01*
X111401453Y-79925000D01*
X111410764Y-79907581D01*
X111489960Y-79646507D01*
X111510432Y-79438652D01*
X111550518Y-79450812D01*
X111675000Y-79463072D01*
X112575000Y-79463072D01*
X112699482Y-79450812D01*
X112819180Y-79414502D01*
X112929494Y-79355537D01*
X113026185Y-79276185D01*
X113105537Y-79179494D01*
X113164502Y-79069180D01*
X113200812Y-78949482D01*
X113213072Y-78825000D01*
X113213072Y-78025000D01*
X113200812Y-77900518D01*
X113164502Y-77780820D01*
X113105537Y-77670506D01*
X113026185Y-77573815D01*
X112929494Y-77494463D01*
X112819180Y-77435498D01*
X112699482Y-77399188D01*
X112575000Y-77386928D01*
X111675000Y-77386928D01*
X111550518Y-77399188D01*
X111470789Y-77423374D01*
X111290439Y-77387500D01*
X111086561Y-77387500D01*
X110886602Y-77427274D01*
X110698244Y-77505295D01*
X110528726Y-77618563D01*
X110384563Y-77762726D01*
X110271295Y-77932244D01*
X110245242Y-77995142D01*
X110193037Y-77990000D01*
X109923026Y-77990000D01*
X109854999Y-77983300D01*
X109786972Y-77990000D01*
X109786963Y-77990000D01*
X109583493Y-78010040D01*
X109322419Y-78089236D01*
X109081812Y-78217843D01*
X108870919Y-78390919D01*
X108827546Y-78443769D01*
X106715237Y-80556078D01*
X106611589Y-80599010D01*
X106368368Y-80761525D01*
X106161525Y-80968368D01*
X105999010Y-81211589D01*
X105887068Y-81481842D01*
X105830000Y-81768740D01*
X105830000Y-82061260D01*
X105887068Y-82348158D01*
X105999010Y-82618411D01*
X106161525Y-82861632D01*
X106368368Y-83068475D01*
X106542760Y-83185000D01*
X106368368Y-83301525D01*
X106161525Y-83508368D01*
X105999010Y-83751589D01*
X105887068Y-84021842D01*
X105830000Y-84308740D01*
X105830000Y-84601260D01*
X105887068Y-84888158D01*
X105999010Y-85158411D01*
X106161525Y-85401632D01*
X106368368Y-85608475D01*
X106542760Y-85725000D01*
X106368368Y-85841525D01*
X106161525Y-86048368D01*
X105999010Y-86291589D01*
X105887068Y-86561842D01*
X105830000Y-86848740D01*
X105830000Y-87141260D01*
X105887068Y-87428158D01*
X105999010Y-87698411D01*
X106161525Y-87941632D01*
X106368368Y-88148475D01*
X106542760Y-88265000D01*
X106368368Y-88381525D01*
X106161525Y-88588368D01*
X105999010Y-88831589D01*
X105887068Y-89101842D01*
X105830000Y-89388740D01*
X105830000Y-89681260D01*
X105887068Y-89968158D01*
X105999010Y-90238411D01*
X106161525Y-90481632D01*
X106293380Y-90613487D01*
X106220820Y-90635498D01*
X106110506Y-90694463D01*
X106013815Y-90773815D01*
X105934463Y-90870506D01*
X105875498Y-90980820D01*
X105839188Y-91100518D01*
X105826928Y-91225000D01*
X104993072Y-91225000D01*
X104980812Y-91100518D01*
X104944502Y-90980820D01*
X104885537Y-90870506D01*
X104806185Y-90773815D01*
X104709494Y-90694463D01*
X104599180Y-90635498D01*
X104526620Y-90613487D01*
X104658475Y-90481632D01*
X104820990Y-90238411D01*
X104932932Y-89968158D01*
X104990000Y-89681260D01*
X104990000Y-89388740D01*
X104932932Y-89101842D01*
X104820990Y-88831589D01*
X104658475Y-88588368D01*
X104451632Y-88381525D01*
X104277240Y-88265000D01*
X104451632Y-88148475D01*
X104658475Y-87941632D01*
X104820990Y-87698411D01*
X104932932Y-87428158D01*
X104990000Y-87141260D01*
X104990000Y-86848740D01*
X104932932Y-86561842D01*
X104820990Y-86291589D01*
X104658475Y-86048368D01*
X104451632Y-85841525D01*
X104277240Y-85725000D01*
X104451632Y-85608475D01*
X104658475Y-85401632D01*
X104820990Y-85158411D01*
X104932932Y-84888158D01*
X104990000Y-84601260D01*
X104990000Y-84308740D01*
X104932932Y-84021842D01*
X104820990Y-83751589D01*
X104658475Y-83508368D01*
X104451632Y-83301525D01*
X104277240Y-83185000D01*
X104451632Y-83068475D01*
X104658475Y-82861632D01*
X104820990Y-82618411D01*
X104932932Y-82348158D01*
X104990000Y-82061260D01*
X104990000Y-81768740D01*
X104932932Y-81481842D01*
X104820990Y-81211589D01*
X104658475Y-80968368D01*
X104451632Y-80761525D01*
X104208411Y-80599010D01*
X104104763Y-80556078D01*
X101992454Y-78443769D01*
X101949081Y-78390919D01*
X101738188Y-78217843D01*
X101497581Y-78089236D01*
X101236507Y-78010040D01*
X101033037Y-77990000D01*
X101033029Y-77990000D01*
X100965000Y-77983300D01*
X100896971Y-77990000D01*
X100626963Y-77990000D01*
X100423493Y-78010040D01*
X100162419Y-78089236D01*
X99921812Y-78217843D01*
X99710919Y-78390919D01*
X99537843Y-78601812D01*
X99409236Y-78842419D01*
X99330040Y-79103493D01*
X99309568Y-79311348D01*
X99269482Y-79299188D01*
X99145000Y-79286928D01*
X98245000Y-79286928D01*
X98120518Y-79299188D01*
X98000820Y-79335498D01*
X97890506Y-79394463D01*
X97793815Y-79473815D01*
X97714463Y-79570506D01*
X97655498Y-79680820D01*
X97619188Y-79800518D01*
X97606928Y-79925000D01*
X96545000Y-79925000D01*
X96545000Y-77502278D01*
X96596002Y-76982116D01*
X96737694Y-76512812D01*
X96967837Y-76079975D01*
X97277678Y-75700073D01*
X97655397Y-75387597D01*
X98086627Y-75154431D01*
X98554928Y-75009468D01*
X99073153Y-74955000D01*
X165702722Y-74955000D01*
X166222884Y-75006002D01*
G37*
X166222884Y-75006002D02*
X166692188Y-75147694D01*
X167125025Y-75377837D01*
X167504927Y-75687678D01*
X167817403Y-76065397D01*
X168050569Y-76496627D01*
X168195532Y-76964928D01*
X168250000Y-77483153D01*
X168250001Y-109187712D01*
X168198998Y-109707883D01*
X168057307Y-110177186D01*
X167827161Y-110610028D01*
X167517323Y-110989927D01*
X167139600Y-111302406D01*
X166708373Y-111535569D01*
X166240073Y-111680532D01*
X165721847Y-111735000D01*
X99092278Y-111735000D01*
X98572117Y-111683998D01*
X98102814Y-111542307D01*
X97669972Y-111312161D01*
X97290073Y-111002323D01*
X96977594Y-110624600D01*
X96744431Y-110193373D01*
X96599468Y-109725073D01*
X96545000Y-109206847D01*
X96545000Y-107830000D01*
X110006928Y-107830000D01*
X110019188Y-107954482D01*
X110055498Y-108074180D01*
X110114463Y-108184494D01*
X110193815Y-108281185D01*
X110290506Y-108360537D01*
X110400820Y-108419502D01*
X110520518Y-108455812D01*
X110645000Y-108468072D01*
X112109250Y-108465000D01*
X112268000Y-108306250D01*
X112268000Y-106457000D01*
X112522000Y-106457000D01*
X112522000Y-108306250D01*
X112680750Y-108465000D01*
X114145000Y-108468072D01*
X114269482Y-108455812D01*
X114389180Y-108419502D01*
X114499494Y-108360537D01*
X114596185Y-108281185D01*
X114675537Y-108184494D01*
X114734502Y-108074180D01*
X114770812Y-107954482D01*
X114783072Y-107830000D01*
X114780000Y-106615750D01*
X114621250Y-106457000D01*
X112522000Y-106457000D01*
X112268000Y-106457000D01*
X110168750Y-106457000D01*
X110010000Y-106615750D01*
X110006928Y-107830000D01*
X96545000Y-107830000D01*
X96545000Y-104830000D01*
X110006928Y-104830000D01*
X110010000Y-106044250D01*
X110168750Y-106203000D01*
X112268000Y-106203000D01*
X112268000Y-104353750D01*
X112522000Y-104353750D01*
X112522000Y-106203000D01*
X114621250Y-106203000D01*
X114780000Y-106044250D01*
X114781698Y-105373195D01*
X114814463Y-105434494D01*
X114893815Y-105531185D01*
X114990506Y-105610537D01*
X115100820Y-105669502D01*
X115220518Y-105705812D01*
X115345000Y-105718072D01*
X116809250Y-105715000D01*
X116968000Y-105556250D01*
X116968000Y-103457000D01*
X117222000Y-103457000D01*
X117222000Y-105556250D01*
X117380750Y-105715000D01*
X118845000Y-105718072D01*
X118969482Y-105705812D01*
X119089180Y-105669502D01*
X119199494Y-105610537D01*
X119296185Y-105531185D01*
X119375537Y-105434494D01*
X119434502Y-105324180D01*
X119470812Y-105204482D01*
X119483072Y-105080000D01*
X119480000Y-103615750D01*
X119321250Y-103457000D01*
X117222000Y-103457000D01*
X116968000Y-103457000D01*
X114868750Y-103457000D01*
X114710000Y-103615750D01*
X114708069Y-104536367D01*
X114675537Y-104475506D01*
X114596185Y-104378815D01*
X114499494Y-104299463D01*
X114389180Y-104240498D01*
X114269482Y-104204188D01*
X114145000Y-104191928D01*
X112680750Y-104195000D01*
X112522000Y-104353750D01*
X112268000Y-104353750D01*
X112109250Y-104195000D01*
X110645000Y-104191928D01*
X110520518Y-104204188D01*
X110400820Y-104240498D01*
X110290506Y-104299463D01*
X110193815Y-104378815D01*
X110114463Y-104475506D01*
X110055498Y-104585820D01*
X110019188Y-104705518D01*
X110006928Y-104830000D01*
X96545000Y-104830000D01*
X96545000Y-98580000D01*
X110006928Y-98580000D01*
X110006928Y-102080000D01*
X110019188Y-102204482D01*
X110055498Y-102324180D01*
X110114463Y-102434494D01*
X110193815Y-102531185D01*
X110290506Y-102610537D01*
X110400820Y-102669502D01*
X110520518Y-102705812D01*
X110645000Y-102718072D01*
X114145000Y-102718072D01*
X114269482Y-102705812D01*
X114389180Y-102669502D01*
X114499494Y-102610537D01*
X114596185Y-102531185D01*
X114675537Y-102434494D01*
X114708591Y-102372655D01*
X114710000Y-103044250D01*
X114868750Y-103203000D01*
X116968000Y-103203000D01*
X116968000Y-101103750D01*
X117222000Y-101103750D01*
X117222000Y-103203000D01*
X119321250Y-103203000D01*
X119480000Y-103044250D01*
X119483010Y-101609718D01*
X119626053Y-101686176D01*
X119766159Y-101728677D01*
X119840000Y-101751077D01*
X119860993Y-101753144D01*
X120006748Y-101767500D01*
X120006755Y-101767500D01*
X120062499Y-101772990D01*
X120118243Y-101767500D01*
X125230000Y-101767500D01*
X125230000Y-102179248D01*
X125224509Y-102235000D01*
X125230000Y-102290751D01*
X125230000Y-102346788D01*
X125240932Y-102401747D01*
X125246423Y-102457499D01*
X125262685Y-102511106D01*
X125273617Y-102566067D01*
X125295063Y-102617842D01*
X125311324Y-102671447D01*
X125337731Y-102720851D01*
X125359176Y-102772624D01*
X125390307Y-102819214D01*
X125416716Y-102868623D01*
X125452259Y-102911932D01*
X125483388Y-102958520D01*
X125523009Y-102998141D01*
X125558551Y-103041449D01*
X125601859Y-103076991D01*
X125641480Y-103116612D01*
X125688068Y-103147741D01*
X125731377Y-103183284D01*
X125780786Y-103209693D01*
X125827376Y-103240824D01*
X125879149Y-103262269D01*
X125928553Y-103288676D01*
X125982158Y-103304937D01*
X126033933Y-103326383D01*
X126088894Y-103337315D01*
X126142501Y-103353577D01*
X126198253Y-103359068D01*
X126253212Y-103370000D01*
X126309248Y-103370000D01*
X126365000Y-103375491D01*
X126420751Y-103370000D01*
X127579248Y-103370000D01*
X127635000Y-103375491D01*
X127690751Y-103370000D01*
X127746788Y-103370000D01*
X127801747Y-103359068D01*
X127857499Y-103353577D01*
X127911106Y-103337315D01*
X127966067Y-103326383D01*
X128017842Y-103304937D01*
X128071447Y-103288676D01*
X128120851Y-103262269D01*
X128172624Y-103240824D01*
X128219214Y-103209693D01*
X128268623Y-103183284D01*
X128311932Y-103147741D01*
X128358520Y-103116612D01*
X128398141Y-103076991D01*
X128441449Y-103041449D01*
X128476991Y-102998141D01*
X128516612Y-102958520D01*
X128547741Y-102911932D01*
X128583284Y-102868623D01*
X128609693Y-102819214D01*
X128640824Y-102772624D01*
X128662269Y-102720851D01*
X128688676Y-102671447D01*
X128704937Y-102617842D01*
X128726383Y-102566067D01*
X128737315Y-102511106D01*
X128753577Y-102457499D01*
X128759068Y-102401747D01*
X128770000Y-102346788D01*
X128770000Y-102290751D01*
X128775491Y-102235000D01*
X128770000Y-102179248D01*
X128770000Y-102095131D01*
X128992060Y-101873072D01*
X129125000Y-101873072D01*
X129249482Y-101860812D01*
X129369180Y-101824502D01*
X129479494Y-101765537D01*
X129576185Y-101686185D01*
X129655537Y-101589494D01*
X129714502Y-101479180D01*
X129750812Y-101359482D01*
X129763072Y-101235000D01*
X129763072Y-100908060D01*
X129793577Y-100807500D01*
X129815491Y-100585001D01*
X129815491Y-100585000D01*
X130534509Y-100585000D01*
X130556423Y-100807498D01*
X130586928Y-100908059D01*
X130586928Y-101235000D01*
X130599188Y-101359482D01*
X130635498Y-101479180D01*
X130694463Y-101589494D01*
X130773815Y-101686185D01*
X130870506Y-101765537D01*
X130980820Y-101824502D01*
X131100518Y-101860812D01*
X131225000Y-101873072D01*
X132125000Y-101873072D01*
X132249482Y-101860812D01*
X132369180Y-101824502D01*
X132475822Y-101767500D01*
X134040752Y-101767500D01*
X134136477Y-101758072D01*
X134441250Y-101758072D01*
X134613285Y-101741128D01*
X134778709Y-101690947D01*
X134931164Y-101609458D01*
X134951827Y-101592500D01*
X138287633Y-101592500D01*
X143936563Y-107241432D01*
X143962709Y-107273291D01*
X144089854Y-107377636D01*
X144234913Y-107455172D01*
X144392311Y-107502918D01*
X144514981Y-107515000D01*
X144514982Y-107515000D01*
X144556000Y-107519040D01*
X144597018Y-107515000D01*
X158073982Y-107515000D01*
X158115000Y-107519040D01*
X158156018Y-107515000D01*
X158156019Y-107515000D01*
X158278689Y-107502918D01*
X158436087Y-107455172D01*
X158581146Y-107377636D01*
X158708291Y-107273291D01*
X158734446Y-107241421D01*
X160497796Y-105478072D01*
X160898750Y-105478072D01*
X161070785Y-105461128D01*
X161236209Y-105410947D01*
X161388664Y-105329458D01*
X161522292Y-105219792D01*
X161631958Y-105086164D01*
X161713447Y-104933709D01*
X161763628Y-104768285D01*
X161780572Y-104596250D01*
X161780572Y-103683750D01*
X161763628Y-103511715D01*
X161713447Y-103346291D01*
X161631958Y-103193836D01*
X161522292Y-103060208D01*
X161490000Y-103033707D01*
X161490000Y-102888199D01*
X161633505Y-102792312D01*
X161847312Y-102578505D01*
X161943199Y-102435000D01*
X162282660Y-102435000D01*
X162405149Y-102500472D01*
X162571745Y-102551008D01*
X162744999Y-102568072D01*
X163645001Y-102568072D01*
X163705000Y-102562163D01*
X163705000Y-102832677D01*
X163701324Y-102870000D01*
X163705000Y-102907322D01*
X163705000Y-102907332D01*
X163715997Y-103018985D01*
X163759454Y-103162246D01*
X163830026Y-103294276D01*
X163856376Y-103326383D01*
X163924999Y-103410001D01*
X163954003Y-103433804D01*
X164535199Y-104015000D01*
X163867322Y-104015000D01*
X163829999Y-104011324D01*
X163792676Y-104015000D01*
X163792667Y-104015000D01*
X163681014Y-104025997D01*
X163537753Y-104069454D01*
X163405724Y-104140026D01*
X163289999Y-104234999D01*
X163266201Y-104263997D01*
X158981199Y-108549000D01*
X141838711Y-108549000D01*
X141794774Y-108505063D01*
X141625256Y-108391795D01*
X141436898Y-108313774D01*
X141236939Y-108274000D01*
X141033061Y-108274000D01*
X140833102Y-108313774D01*
X140644744Y-108391795D01*
X140475226Y-108505063D01*
X140331063Y-108649226D01*
X140217795Y-108818744D01*
X140139774Y-109007102D01*
X140100000Y-109207061D01*
X140100000Y-109349000D01*
X133037711Y-109349000D01*
X132993774Y-109305063D01*
X132824256Y-109191795D01*
X132635898Y-109113774D01*
X132435939Y-109074000D01*
X132232061Y-109074000D01*
X132032102Y-109113774D01*
X131843744Y-109191795D01*
X131674226Y-109305063D01*
X131530063Y-109449226D01*
X131416795Y-109618744D01*
X131338774Y-109807102D01*
X131299000Y-110007061D01*
X131299000Y-110210939D01*
X131338774Y-110410898D01*
X131416795Y-110599256D01*
X131530063Y-110768774D01*
X131674226Y-110912937D01*
X131843744Y-111026205D01*
X132032102Y-111104226D01*
X132232061Y-111144000D01*
X132435939Y-111144000D01*
X132635898Y-111104226D01*
X132824256Y-111026205D01*
X132993774Y-110912937D01*
X133037711Y-110869000D01*
X159982678Y-110869000D01*
X160020000Y-110872676D01*
X160057322Y-110869000D01*
X160057333Y-110869000D01*
X160168986Y-110858003D01*
X160312247Y-110814546D01*
X160444276Y-110743974D01*
X160560001Y-110649001D01*
X160583804Y-110619997D01*
X162472802Y-108731000D01*
X162534939Y-108731000D01*
X162734898Y-108691226D01*
X162923256Y-108613205D01*
X163092774Y-108499937D01*
X163236937Y-108355774D01*
X163350205Y-108186256D01*
X163428226Y-107997898D01*
X163468000Y-107797939D01*
X163468000Y-107594061D01*
X163428226Y-107394102D01*
X163350205Y-107205744D01*
X163236937Y-107036226D01*
X163092774Y-106892063D01*
X162923256Y-106778795D01*
X162907523Y-106772278D01*
X164144802Y-105535000D01*
X165091822Y-105535000D01*
X165216525Y-105721632D01*
X165423368Y-105928475D01*
X165666589Y-106090990D01*
X165936842Y-106202932D01*
X166223740Y-106260000D01*
X166516260Y-106260000D01*
X166803158Y-106202932D01*
X167073411Y-106090990D01*
X167316632Y-105928475D01*
X167523475Y-105721632D01*
X167685990Y-105478411D01*
X167797932Y-105208158D01*
X167855000Y-104921260D01*
X167855000Y-104628740D01*
X167797932Y-104341842D01*
X167685990Y-104071589D01*
X167523475Y-103828368D01*
X167316632Y-103621525D01*
X167142240Y-103505000D01*
X167316632Y-103388475D01*
X167523475Y-103181632D01*
X167685990Y-102938411D01*
X167797932Y-102668158D01*
X167855000Y-102381260D01*
X167855000Y-102088740D01*
X167797932Y-101801842D01*
X167685990Y-101531589D01*
X167523475Y-101288368D01*
X167316632Y-101081525D01*
X167142240Y-100965000D01*
X167316632Y-100848475D01*
X167523475Y-100641632D01*
X167685990Y-100398411D01*
X167797932Y-100128158D01*
X167855000Y-99841260D01*
X167855000Y-99548740D01*
X167797932Y-99261842D01*
X167685990Y-98991589D01*
X167523475Y-98748368D01*
X167316632Y-98541525D01*
X167142240Y-98425000D01*
X167316632Y-98308475D01*
X167523475Y-98101632D01*
X167685990Y-97858411D01*
X167797932Y-97588158D01*
X167855000Y-97301260D01*
X167855000Y-97008740D01*
X167797932Y-96721842D01*
X167685990Y-96451589D01*
X167523475Y-96208368D01*
X167316632Y-96001525D01*
X167142240Y-95885000D01*
X167316632Y-95768475D01*
X167523475Y-95561632D01*
X167685990Y-95318411D01*
X167797932Y-95048158D01*
X167855000Y-94761260D01*
X167855000Y-94468740D01*
X167797932Y-94181842D01*
X167685990Y-93911589D01*
X167523475Y-93668368D01*
X167316632Y-93461525D01*
X167142240Y-93345000D01*
X167316632Y-93228475D01*
X167523475Y-93021632D01*
X167685990Y-92778411D01*
X167797932Y-92508158D01*
X167855000Y-92221260D01*
X167855000Y-91928740D01*
X167797932Y-91641842D01*
X167685990Y-91371589D01*
X167523475Y-91128368D01*
X167316632Y-90921525D01*
X167142240Y-90805000D01*
X167316632Y-90688475D01*
X167523475Y-90481632D01*
X167685990Y-90238411D01*
X167797932Y-89968158D01*
X167855000Y-89681260D01*
X167855000Y-89388740D01*
X167797932Y-89101842D01*
X167685990Y-88831589D01*
X167523475Y-88588368D01*
X167316632Y-88381525D01*
X167142240Y-88265000D01*
X167316632Y-88148475D01*
X167523475Y-87941632D01*
X167685990Y-87698411D01*
X167797932Y-87428158D01*
X167855000Y-87141260D01*
X167855000Y-86848740D01*
X167797932Y-86561842D01*
X167685990Y-86291589D01*
X167523475Y-86048368D01*
X167316632Y-85841525D01*
X167142240Y-85725000D01*
X167316632Y-85608475D01*
X167523475Y-85401632D01*
X167685990Y-85158411D01*
X167797932Y-84888158D01*
X167855000Y-84601260D01*
X167855000Y-84308740D01*
X167797932Y-84021842D01*
X167685990Y-83751589D01*
X167523475Y-83508368D01*
X167391620Y-83376513D01*
X167464180Y-83354502D01*
X167574494Y-83295537D01*
X167671185Y-83216185D01*
X167750537Y-83119494D01*
X167809502Y-83009180D01*
X167845812Y-82889482D01*
X167858072Y-82765000D01*
X167855000Y-82200750D01*
X167696250Y-82042000D01*
X166497000Y-82042000D01*
X166497000Y-82062000D01*
X166243000Y-82062000D01*
X166243000Y-82042000D01*
X165043750Y-82042000D01*
X164885000Y-82200750D01*
X164881928Y-82765000D01*
X164894188Y-82889482D01*
X164930498Y-83009180D01*
X164989463Y-83119494D01*
X165068815Y-83216185D01*
X165165506Y-83295537D01*
X165275820Y-83354502D01*
X165348380Y-83376513D01*
X165216525Y-83508368D01*
X165054010Y-83751589D01*
X164942068Y-84021842D01*
X164885000Y-84308740D01*
X164885000Y-84601260D01*
X164942068Y-84888158D01*
X165054010Y-85158411D01*
X165216525Y-85401632D01*
X165423368Y-85608475D01*
X165597760Y-85725000D01*
X165423368Y-85841525D01*
X165216525Y-86048368D01*
X165054010Y-86291589D01*
X164942068Y-86561842D01*
X164885000Y-86848740D01*
X164885000Y-87141260D01*
X164942068Y-87428158D01*
X165054010Y-87698411D01*
X165216525Y-87941632D01*
X165423368Y-88148475D01*
X165597760Y-88265000D01*
X165423368Y-88381525D01*
X165222347Y-88582546D01*
X161161000Y-84521199D01*
X161161000Y-84015711D01*
X161204937Y-83971774D01*
X161318205Y-83802256D01*
X161396226Y-83613898D01*
X161436000Y-83413939D01*
X161436000Y-83210061D01*
X161396226Y-83010102D01*
X161318205Y-82821744D01*
X161204937Y-82652226D01*
X161060774Y-82508063D01*
X160891256Y-82394795D01*
X160702898Y-82316774D01*
X160502939Y-82277000D01*
X160299061Y-82277000D01*
X160272000Y-82282383D01*
X160272000Y-81729711D01*
X160315937Y-81685774D01*
X160429205Y-81516256D01*
X160507226Y-81327898D01*
X160547000Y-81127939D01*
X160547000Y-81065000D01*
X164881928Y-81065000D01*
X164885000Y-81629250D01*
X165043750Y-81788000D01*
X166243000Y-81788000D01*
X166243000Y-80588750D01*
X166497000Y-80588750D01*
X166497000Y-81788000D01*
X167696250Y-81788000D01*
X167855000Y-81629250D01*
X167858072Y-81065000D01*
X167845812Y-80940518D01*
X167809502Y-80820820D01*
X167750537Y-80710506D01*
X167671185Y-80613815D01*
X167574494Y-80534463D01*
X167464180Y-80475498D01*
X167344482Y-80439188D01*
X167220000Y-80426928D01*
X166655750Y-80430000D01*
X166497000Y-80588750D01*
X166243000Y-80588750D01*
X166084250Y-80430000D01*
X165520000Y-80426928D01*
X165395518Y-80439188D01*
X165275820Y-80475498D01*
X165165506Y-80534463D01*
X165068815Y-80613815D01*
X164989463Y-80710506D01*
X164930498Y-80820820D01*
X164894188Y-80940518D01*
X164881928Y-81065000D01*
X160547000Y-81065000D01*
X160547000Y-80924061D01*
X160507226Y-80724102D01*
X160429205Y-80535744D01*
X160315937Y-80366226D01*
X160171774Y-80222063D01*
X160002256Y-80108795D01*
X159813898Y-80030774D01*
X159613939Y-79991000D01*
X159410061Y-79991000D01*
X159210102Y-80030774D01*
X159021744Y-80108795D01*
X158852226Y-80222063D01*
X158708063Y-80366226D01*
X158594795Y-80535744D01*
X158516774Y-80724102D01*
X158477000Y-80924061D01*
X158477000Y-81127939D01*
X158516774Y-81327898D01*
X158594795Y-81516256D01*
X158708063Y-81685774D01*
X158752001Y-81729712D01*
X158752000Y-85179677D01*
X158748324Y-85217000D01*
X158752000Y-85254322D01*
X158752000Y-85254332D01*
X158762997Y-85365985D01*
X158797765Y-85480602D01*
X158806454Y-85509246D01*
X158877026Y-85641276D01*
X158893206Y-85660991D01*
X158971999Y-85757001D01*
X159001003Y-85780804D01*
X164928790Y-91708592D01*
X164885000Y-91928740D01*
X164885000Y-92055198D01*
X160142436Y-87312635D01*
X160134003Y-87227014D01*
X160090546Y-87083753D01*
X160019974Y-86951724D01*
X159925001Y-86835999D01*
X159895998Y-86812197D01*
X159567804Y-86484003D01*
X159544001Y-86454999D01*
X159428276Y-86360026D01*
X159296247Y-86289454D01*
X159152986Y-86245997D01*
X159041333Y-86235000D01*
X159041322Y-86235000D01*
X159004000Y-86231324D01*
X158966678Y-86235000D01*
X158216173Y-86235000D01*
X158205947Y-86201291D01*
X158124458Y-86048836D01*
X158014792Y-85915208D01*
X157881164Y-85805542D01*
X157728709Y-85724053D01*
X157563285Y-85673872D01*
X157391250Y-85656928D01*
X156903750Y-85656928D01*
X156731715Y-85673872D01*
X156566291Y-85724053D01*
X156413836Y-85805542D01*
X156280208Y-85915208D01*
X156210000Y-86000756D01*
X156139792Y-85915208D01*
X156006164Y-85805542D01*
X155853709Y-85724053D01*
X155688285Y-85673872D01*
X155516250Y-85656928D01*
X155028750Y-85656928D01*
X154856715Y-85673872D01*
X154691291Y-85724053D01*
X154538836Y-85805542D01*
X154405208Y-85915208D01*
X154295542Y-86048836D01*
X154214053Y-86201291D01*
X154203827Y-86235000D01*
X149975610Y-86235000D01*
X149978072Y-86210000D01*
X149978072Y-85710000D01*
X149975664Y-85685550D01*
X149975664Y-85660991D01*
X149963404Y-85536510D01*
X149944282Y-85440377D01*
X149907973Y-85320681D01*
X149870464Y-85230125D01*
X149811498Y-85119808D01*
X149757042Y-85038309D01*
X149677690Y-84941618D01*
X149608382Y-84872310D01*
X149511691Y-84792958D01*
X149430192Y-84738502D01*
X149319875Y-84679536D01*
X149229319Y-84642027D01*
X149109623Y-84605718D01*
X149013490Y-84586596D01*
X148889009Y-84574336D01*
X148864450Y-84574336D01*
X148840000Y-84571928D01*
X148526730Y-84571928D01*
X144524000Y-80569199D01*
X144524000Y-79285322D01*
X144527676Y-79247999D01*
X144524000Y-79210676D01*
X144524000Y-79210667D01*
X144513003Y-79099014D01*
X144469546Y-78955753D01*
X144398974Y-78823724D01*
X144304001Y-78707999D01*
X144275004Y-78684202D01*
X143843072Y-78252270D01*
X143843072Y-77654999D01*
X143826008Y-77481745D01*
X143775472Y-77315149D01*
X143693405Y-77161613D01*
X143582962Y-77027038D01*
X143448387Y-76916595D01*
X143294851Y-76834528D01*
X143128255Y-76783992D01*
X142955001Y-76766928D01*
X142304999Y-76766928D01*
X142205000Y-76776777D01*
X142205000Y-76713363D01*
X142157540Y-76474764D01*
X142064443Y-76250008D01*
X141929287Y-76047733D01*
X141757267Y-75875713D01*
X141554992Y-75740557D01*
X141330236Y-75647460D01*
X141091637Y-75600000D01*
X140848363Y-75600000D01*
X140609764Y-75647460D01*
X140385008Y-75740557D01*
X140182733Y-75875713D01*
X140010713Y-76047733D01*
X139875557Y-76250008D01*
X139782460Y-76474764D01*
X139735000Y-76713363D01*
X139735000Y-76769383D01*
X139688784Y-76855847D01*
X139670018Y-76917711D01*
X139640108Y-77016312D01*
X139627038Y-77027038D01*
X139516595Y-77161613D01*
X139434528Y-77315149D01*
X139383992Y-77481745D01*
X139366928Y-77654999D01*
X139366928Y-78555001D01*
X139383992Y-78728255D01*
X139434528Y-78894851D01*
X139516595Y-79048387D01*
X139620001Y-79174387D01*
X139620000Y-79575613D01*
X139516595Y-79701613D01*
X139434528Y-79855149D01*
X139383992Y-80021745D01*
X139366928Y-80194999D01*
X139366928Y-81095001D01*
X139383992Y-81268255D01*
X139434528Y-81434851D01*
X139516595Y-81588387D01*
X139620001Y-81714387D01*
X139620000Y-82115613D01*
X139516595Y-82241613D01*
X139434528Y-82395149D01*
X139383992Y-82561745D01*
X139366928Y-82734999D01*
X139366928Y-83635001D01*
X139383992Y-83808255D01*
X139434528Y-83974851D01*
X139516595Y-84128387D01*
X139620001Y-84254387D01*
X139620000Y-84655613D01*
X139516595Y-84781613D01*
X139434528Y-84935149D01*
X139383992Y-85101745D01*
X139366928Y-85274999D01*
X139366928Y-86175001D01*
X139383992Y-86348255D01*
X139434528Y-86514851D01*
X139516595Y-86668387D01*
X139620001Y-86794387D01*
X139620000Y-87195613D01*
X139516595Y-87321613D01*
X139434528Y-87475149D01*
X139383992Y-87641745D01*
X139366928Y-87814999D01*
X139366928Y-88715001D01*
X139383992Y-88888255D01*
X139434528Y-89054851D01*
X139516595Y-89208387D01*
X139620000Y-89334386D01*
X139620001Y-98163354D01*
X138110856Y-99672500D01*
X135155623Y-99672500D01*
X135215537Y-99599494D01*
X135274502Y-99489180D01*
X135310812Y-99369482D01*
X135323072Y-99245000D01*
X135320000Y-99043250D01*
X135161250Y-98884500D01*
X134112000Y-98884500D01*
X134112000Y-98904500D01*
X133858000Y-98904500D01*
X133858000Y-98884500D01*
X132808750Y-98884500D01*
X132650000Y-99043250D01*
X132646928Y-99245000D01*
X132655952Y-99336621D01*
X132590805Y-99179344D01*
X132477537Y-99009826D01*
X132333374Y-98865663D01*
X132163856Y-98752395D01*
X131975498Y-98674374D01*
X131775539Y-98634600D01*
X131571661Y-98634600D01*
X131371702Y-98674374D01*
X131183344Y-98752395D01*
X131013826Y-98865663D01*
X130869663Y-99009826D01*
X130756395Y-99179344D01*
X130678374Y-99367702D01*
X130638600Y-99567661D01*
X130638600Y-99685017D01*
X130635498Y-99690820D01*
X130599188Y-99810518D01*
X130586928Y-99935000D01*
X130586928Y-100261941D01*
X130556423Y-100362502D01*
X130534509Y-100585000D01*
X129815491Y-100585000D01*
X129793577Y-100362502D01*
X129763072Y-100261941D01*
X129763072Y-99935000D01*
X129750812Y-99810518D01*
X129714502Y-99690820D01*
X129655537Y-99580506D01*
X129576185Y-99483815D01*
X129479494Y-99404463D01*
X129369180Y-99345498D01*
X129249482Y-99309188D01*
X129125000Y-99296928D01*
X128225000Y-99296928D01*
X128100518Y-99309188D01*
X127980820Y-99345498D01*
X127870506Y-99404463D01*
X127773815Y-99483815D01*
X127762584Y-99497500D01*
X127650055Y-99497500D01*
X127654502Y-99489180D01*
X127690812Y-99369482D01*
X127703072Y-99245000D01*
X127700000Y-99043250D01*
X127541250Y-98884500D01*
X126492000Y-98884500D01*
X126492000Y-98904500D01*
X126238000Y-98904500D01*
X126238000Y-98884500D01*
X125188750Y-98884500D01*
X125030000Y-99043250D01*
X125026928Y-99245000D01*
X125039188Y-99369482D01*
X125075498Y-99489180D01*
X125079945Y-99497500D01*
X120532632Y-99497500D01*
X120213072Y-99177941D01*
X120213072Y-99095000D01*
X120200812Y-98970518D01*
X120164502Y-98850820D01*
X120105537Y-98740506D01*
X120026185Y-98643815D01*
X119929494Y-98564463D01*
X119819180Y-98505498D01*
X119699482Y-98469188D01*
X119575000Y-98456928D01*
X118675000Y-98456928D01*
X118550518Y-98469188D01*
X118430820Y-98505498D01*
X118320506Y-98564463D01*
X118223815Y-98643815D01*
X118144463Y-98740506D01*
X118085498Y-98850820D01*
X118049188Y-98970518D01*
X118036928Y-99095000D01*
X118036928Y-99371941D01*
X118006423Y-99472502D01*
X117984509Y-99695000D01*
X118006423Y-99917498D01*
X118036928Y-100018059D01*
X118036928Y-100295000D01*
X118049188Y-100419482D01*
X118085498Y-100539180D01*
X118144463Y-100649494D01*
X118223815Y-100746185D01*
X118320506Y-100825537D01*
X118430820Y-100884502D01*
X118550518Y-100920812D01*
X118675000Y-100933072D01*
X118757941Y-100933072D01*
X118766960Y-100942092D01*
X117380750Y-100945000D01*
X117222000Y-101103750D01*
X116968000Y-101103750D01*
X116840752Y-100976502D01*
X116986714Y-100856714D01*
X117191031Y-100607752D01*
X117342852Y-100323715D01*
X117436343Y-100015516D01*
X117467911Y-99695000D01*
X117436343Y-99374484D01*
X117342852Y-99066285D01*
X117191031Y-98782248D01*
X116986714Y-98533286D01*
X116737752Y-98328969D01*
X116627429Y-98270000D01*
X125026928Y-98270000D01*
X125030000Y-98471750D01*
X125188750Y-98630500D01*
X126238000Y-98630500D01*
X126238000Y-97793750D01*
X126492000Y-97793750D01*
X126492000Y-98630500D01*
X127541250Y-98630500D01*
X127700000Y-98471750D01*
X127703072Y-98270000D01*
X132646928Y-98270000D01*
X132650000Y-98471750D01*
X132808750Y-98630500D01*
X133858000Y-98630500D01*
X133858000Y-97793750D01*
X134112000Y-97793750D01*
X134112000Y-98630500D01*
X135161250Y-98630500D01*
X135320000Y-98471750D01*
X135323072Y-98270000D01*
X135310812Y-98145518D01*
X135274502Y-98025820D01*
X135215537Y-97915506D01*
X135136185Y-97818815D01*
X135039494Y-97739463D01*
X134929180Y-97680498D01*
X134809482Y-97644188D01*
X134685000Y-97631928D01*
X134270750Y-97635000D01*
X134112000Y-97793750D01*
X133858000Y-97793750D01*
X133699250Y-97635000D01*
X133285000Y-97631928D01*
X133160518Y-97644188D01*
X133040820Y-97680498D01*
X132930506Y-97739463D01*
X132833815Y-97818815D01*
X132754463Y-97915506D01*
X132695498Y-98025820D01*
X132659188Y-98145518D01*
X132646928Y-98270000D01*
X127703072Y-98270000D01*
X127690812Y-98145518D01*
X127654502Y-98025820D01*
X127595537Y-97915506D01*
X127516185Y-97818815D01*
X127419494Y-97739463D01*
X127309180Y-97680498D01*
X127189482Y-97644188D01*
X127065000Y-97631928D01*
X126650750Y-97635000D01*
X126492000Y-97793750D01*
X126238000Y-97793750D01*
X126079250Y-97635000D01*
X125665000Y-97631928D01*
X125540518Y-97644188D01*
X125420820Y-97680498D01*
X125310506Y-97739463D01*
X125213815Y-97818815D01*
X125134463Y-97915506D01*
X125075498Y-98025820D01*
X125039188Y-98145518D01*
X125026928Y-98270000D01*
X116627429Y-98270000D01*
X116453715Y-98177148D01*
X116145516Y-98083657D01*
X115905322Y-98060000D01*
X114512333Y-98060000D01*
X114499494Y-98049463D01*
X114389180Y-97990498D01*
X114269482Y-97954188D01*
X114145000Y-97941928D01*
X110645000Y-97941928D01*
X110520518Y-97954188D01*
X110400820Y-97990498D01*
X110290506Y-98049463D01*
X110193815Y-98128815D01*
X110114463Y-98225506D01*
X110055498Y-98335820D01*
X110019188Y-98455518D01*
X110006928Y-98580000D01*
X96545000Y-98580000D01*
X96545000Y-79925000D01*
X97606928Y-79925000D01*
X97606928Y-80725000D01*
X97619188Y-80849482D01*
X97655498Y-80969180D01*
X97714463Y-81079494D01*
X97793815Y-81176185D01*
X97890506Y-81255537D01*
X98000820Y-81314502D01*
X98120518Y-81350812D01*
X98245000Y-81363072D01*
X99145000Y-81363072D01*
X99269482Y-81350812D01*
X99349211Y-81326626D01*
X99529561Y-81362500D01*
X99733439Y-81362500D01*
X99933398Y-81322726D01*
X100121756Y-81244705D01*
X100291274Y-81131437D01*
X100435437Y-80987274D01*
X100508797Y-80877482D01*
X102146078Y-82514763D01*
X102189010Y-82618411D01*
X102351525Y-82861632D01*
X102558368Y-83068475D01*
X102560650Y-83070000D01*
X102538686Y-83070000D01*
X101626233Y-82157548D01*
X101468188Y-82027844D01*
X101227580Y-81899236D01*
X100966507Y-81820040D01*
X100695000Y-81793300D01*
X100423493Y-81820040D01*
X100162420Y-81899236D01*
X99921812Y-82027844D01*
X99710919Y-82200919D01*
X99537844Y-82411812D01*
X99409236Y-82652420D01*
X99330040Y-82913493D01*
X99309569Y-83121348D01*
X99269482Y-83109188D01*
X99145000Y-83096928D01*
X98245000Y-83096928D01*
X98120518Y-83109188D01*
X98000820Y-83145498D01*
X97890506Y-83204463D01*
X97793815Y-83283815D01*
X97714463Y-83380506D01*
X97655498Y-83490820D01*
X97619188Y-83610518D01*
X97606928Y-83735000D01*
X97606928Y-84535000D01*
X97619188Y-84659482D01*
X97655498Y-84779180D01*
X97714463Y-84889494D01*
X97793815Y-84986185D01*
X97890506Y-85065537D01*
X98000820Y-85124502D01*
X98120518Y-85160812D01*
X98245000Y-85173072D01*
X99145000Y-85173072D01*
X99269482Y-85160812D01*
X99349211Y-85136626D01*
X99529561Y-85172500D01*
X99733439Y-85172500D01*
X99933398Y-85132726D01*
X100121756Y-85054705D01*
X100291274Y-84941437D01*
X100392013Y-84840698D01*
X100937550Y-85386236D01*
X100980919Y-85439081D01*
X101033764Y-85482450D01*
X101033766Y-85482452D01*
X101129460Y-85560986D01*
X101189184Y-85610000D01*
X100626963Y-85610000D01*
X100423493Y-85630040D01*
X100162419Y-85709236D01*
X99921812Y-85837843D01*
X99710919Y-86010919D01*
X99537843Y-86221812D01*
X99409236Y-86462419D01*
X99330040Y-86723493D01*
X99309568Y-86931348D01*
X99269482Y-86919188D01*
X99145000Y-86906928D01*
X98245000Y-86906928D01*
X98120518Y-86919188D01*
X98000820Y-86955498D01*
X97890506Y-87014463D01*
X97793815Y-87093815D01*
X97714463Y-87190506D01*
X97655498Y-87300820D01*
X97619188Y-87420518D01*
X97606928Y-87545000D01*
X97606928Y-88345000D01*
X97619188Y-88469482D01*
X97655498Y-88589180D01*
X97714463Y-88699494D01*
X97793815Y-88796185D01*
X97890506Y-88875537D01*
X98000820Y-88934502D01*
X98120518Y-88970812D01*
X98245000Y-88983072D01*
X99145000Y-88983072D01*
X99269482Y-88970812D01*
X99349211Y-88946626D01*
X99529561Y-88982500D01*
X99733439Y-88982500D01*
X99933398Y-88942726D01*
X100121756Y-88864705D01*
X100291274Y-88751437D01*
X100435437Y-88607274D01*
X100548705Y-88437756D01*
X100574758Y-88374858D01*
X100626963Y-88380000D01*
X101189184Y-88380000D01*
X101172518Y-88393677D01*
X101033766Y-88507548D01*
X101033764Y-88507550D01*
X100980919Y-88550919D01*
X100937550Y-88603764D01*
X99667548Y-89873767D01*
X99537844Y-90031812D01*
X99409236Y-90272420D01*
X99330040Y-90533493D01*
X99309569Y-90741348D01*
X99269482Y-90729188D01*
X99145000Y-90716928D01*
X98245000Y-90716928D01*
X98120518Y-90729188D01*
X98000820Y-90765498D01*
X97890506Y-90824463D01*
X97793815Y-90903815D01*
X97714463Y-91000506D01*
X97655498Y-91110820D01*
X97619188Y-91230518D01*
X97606928Y-91355000D01*
X97606928Y-92155000D01*
X97619188Y-92279482D01*
X97655498Y-92399180D01*
X97714463Y-92509494D01*
X97793815Y-92606185D01*
X97890506Y-92685537D01*
X98000820Y-92744502D01*
X98120518Y-92780812D01*
X98245000Y-92793072D01*
X99145000Y-92793072D01*
X99269482Y-92780812D01*
X99349211Y-92756626D01*
X99529561Y-92792500D01*
X99733439Y-92792500D01*
X99933398Y-92752726D01*
X100121756Y-92674705D01*
X100291274Y-92561437D01*
X100435437Y-92417274D01*
X100548705Y-92247756D01*
X100574759Y-92184858D01*
X100695000Y-92196700D01*
X100966507Y-92169960D01*
X101227580Y-92090764D01*
X101468188Y-91962156D01*
X101626233Y-91832452D01*
X102016928Y-91441757D01*
X102016928Y-92925000D01*
X102029188Y-93049482D01*
X102065498Y-93169180D01*
X102124463Y-93279494D01*
X102203815Y-93376185D01*
X102300506Y-93455537D01*
X102410820Y-93514502D01*
X102530518Y-93550812D01*
X102655000Y-93563072D01*
X104355000Y-93563072D01*
X104479482Y-93550812D01*
X104599180Y-93514502D01*
X104709494Y-93455537D01*
X104806185Y-93376185D01*
X104885537Y-93279494D01*
X104944502Y-93169180D01*
X104980812Y-93049482D01*
X104993072Y-92925000D01*
X104993072Y-91225000D01*
X105826928Y-91225000D01*
X105826928Y-92925000D01*
X105839188Y-93049482D01*
X105875498Y-93169180D01*
X105934463Y-93279494D01*
X106013815Y-93376185D01*
X106110506Y-93455537D01*
X106220820Y-93514502D01*
X106340518Y-93550812D01*
X106465000Y-93563072D01*
X108165000Y-93563072D01*
X108289482Y-93550812D01*
X108409180Y-93514502D01*
X108519494Y-93455537D01*
X108616185Y-93376185D01*
X108695537Y-93279494D01*
X108754502Y-93169180D01*
X108790812Y-93049482D01*
X108803072Y-92925000D01*
X108803072Y-91441758D01*
X109193766Y-91832452D01*
X109351811Y-91962156D01*
X109592419Y-92090763D01*
X109853492Y-92169959D01*
X110124999Y-92196700D01*
X110396506Y-92169959D01*
X110657580Y-92090763D01*
X110898187Y-91962156D01*
X111109081Y-91789081D01*
X111282156Y-91578187D01*
X111410763Y-91337580D01*
X111489959Y-91076506D01*
X111510431Y-90868652D01*
X111550518Y-90880812D01*
X111675000Y-90893072D01*
X112575000Y-90893072D01*
X112699482Y-90880812D01*
X112819180Y-90844502D01*
X112929494Y-90785537D01*
X113026185Y-90706185D01*
X113105537Y-90609494D01*
X113164502Y-90499180D01*
X113200812Y-90379482D01*
X113213072Y-90255000D01*
X113213072Y-89455000D01*
X113200812Y-89330518D01*
X113164502Y-89210820D01*
X113105537Y-89100506D01*
X113026185Y-89003815D01*
X112929494Y-88924463D01*
X112819180Y-88865498D01*
X112699482Y-88829188D01*
X112575000Y-88816928D01*
X111675000Y-88816928D01*
X111550518Y-88829188D01*
X111507146Y-88842345D01*
X111398000Y-88733199D01*
X111398000Y-88671061D01*
X111358226Y-88471102D01*
X111280205Y-88282744D01*
X111166937Y-88113226D01*
X111067180Y-88013469D01*
X111109081Y-87979081D01*
X111282157Y-87768188D01*
X111410764Y-87527581D01*
X111489960Y-87266507D01*
X111510432Y-87058652D01*
X111550518Y-87070812D01*
X111675000Y-87083072D01*
X112575000Y-87083072D01*
X112699482Y-87070812D01*
X112819180Y-87034502D01*
X112929494Y-86975537D01*
X113026185Y-86896185D01*
X113105537Y-86799494D01*
X113164502Y-86689180D01*
X113200812Y-86569482D01*
X113213072Y-86445000D01*
X113213072Y-85645000D01*
X113200812Y-85520518D01*
X113164502Y-85400820D01*
X113105537Y-85290506D01*
X113026185Y-85193815D01*
X112929494Y-85114463D01*
X112819180Y-85055498D01*
X112699482Y-85019188D01*
X112575000Y-85006928D01*
X112189360Y-85006928D01*
X112183726Y-84978602D01*
X112105705Y-84790244D01*
X111992437Y-84620726D01*
X111848274Y-84476563D01*
X111678756Y-84363295D01*
X111490398Y-84285274D01*
X111290439Y-84245500D01*
X111086561Y-84245500D01*
X111007450Y-84261236D01*
X111152452Y-84116234D01*
X111282156Y-83958189D01*
X111410763Y-83717581D01*
X111489959Y-83456508D01*
X111510431Y-83248652D01*
X111550518Y-83260812D01*
X111675000Y-83273072D01*
X112575000Y-83273072D01*
X112699482Y-83260812D01*
X112819180Y-83224502D01*
X112929494Y-83165537D01*
X113026185Y-83086185D01*
X113105537Y-82989494D01*
X113164502Y-82879180D01*
X113200812Y-82759482D01*
X113213072Y-82635000D01*
X113213072Y-81835000D01*
X113200812Y-81710518D01*
X113164502Y-81590820D01*
X113105537Y-81480506D01*
X113026185Y-81383815D01*
X112929494Y-81304463D01*
X112819180Y-81245498D01*
X112699482Y-81209188D01*
X112575000Y-81196928D01*
X111675000Y-81196928D01*
X111550518Y-81209188D01*
X111470789Y-81233374D01*
X111290439Y-81197500D01*
X111086561Y-81197500D01*
X110886602Y-81237274D01*
X110698244Y-81315295D01*
X110528726Y-81428563D01*
X110384563Y-81572726D01*
X110271295Y-81742244D01*
X110245241Y-81805143D01*
X110124999Y-81793300D01*
X109853492Y-81820041D01*
X109592419Y-81899237D01*
X109351811Y-82027844D01*
X109193766Y-82157548D01*
X108281315Y-83070000D01*
X108259350Y-83070000D01*
X108261632Y-83068475D01*
X108468475Y-82861632D01*
X108630990Y-82618411D01*
X108673922Y-82514763D01*
X110471463Y-80717222D01*
X110657581Y-80660764D01*
X110898188Y-80532157D01*
X111109081Y-80359081D01*
X111282157Y-80148188D01*
X111401453Y-79925000D01*
X115386928Y-79925000D01*
X115386928Y-80725000D01*
X115399188Y-80849482D01*
X115435498Y-80969180D01*
X115494463Y-81079494D01*
X115573815Y-81176185D01*
X115670506Y-81255537D01*
X115780820Y-81314502D01*
X115900518Y-81350812D01*
X116025000Y-81363072D01*
X116925000Y-81363072D01*
X117049482Y-81350812D01*
X117092854Y-81337655D01*
X117456000Y-81700802D01*
X117456000Y-81762939D01*
X117495774Y-81962898D01*
X117568122Y-82137560D01*
X117490919Y-82200919D01*
X117317844Y-82411812D01*
X117189236Y-82652420D01*
X117110040Y-82913493D01*
X117089569Y-83121348D01*
X117049482Y-83109188D01*
X116925000Y-83096928D01*
X116025000Y-83096928D01*
X115900518Y-83109188D01*
X115780820Y-83145498D01*
X115670506Y-83204463D01*
X115573815Y-83283815D01*
X115494463Y-83380506D01*
X115435498Y-83490820D01*
X115399188Y-83610518D01*
X115386928Y-83735000D01*
X115386928Y-84535000D01*
X115399188Y-84659482D01*
X115435498Y-84779180D01*
X115494463Y-84889494D01*
X115573815Y-84986185D01*
X115670506Y-85065537D01*
X115780820Y-85124502D01*
X115900518Y-85160812D01*
X116025000Y-85173072D01*
X116925000Y-85173072D01*
X117049482Y-85160812D01*
X117092854Y-85147655D01*
X117456000Y-85510802D01*
X117456000Y-85572939D01*
X117495774Y-85772898D01*
X117568122Y-85947560D01*
X117490919Y-86010919D01*
X117317843Y-86221812D01*
X117189236Y-86462419D01*
X117110040Y-86723493D01*
X117089568Y-86931348D01*
X117049482Y-86919188D01*
X116925000Y-86906928D01*
X116025000Y-86906928D01*
X115900518Y-86919188D01*
X115780820Y-86955498D01*
X115670506Y-87014463D01*
X115573815Y-87093815D01*
X115494463Y-87190506D01*
X115435498Y-87300820D01*
X115399188Y-87420518D01*
X115386928Y-87545000D01*
X115386928Y-88345000D01*
X115399188Y-88469482D01*
X115435498Y-88589180D01*
X115494463Y-88699494D01*
X115573815Y-88796185D01*
X115670506Y-88875537D01*
X115780820Y-88934502D01*
X115900518Y-88970812D01*
X116025000Y-88983072D01*
X116925000Y-88983072D01*
X117049482Y-88970812D01*
X117129211Y-88946626D01*
X117309561Y-88982500D01*
X117513439Y-88982500D01*
X117713398Y-88942726D01*
X117901756Y-88864705D01*
X118071274Y-88751437D01*
X118215437Y-88607274D01*
X118328705Y-88437756D01*
X118354758Y-88374858D01*
X118406963Y-88380000D01*
X118969184Y-88380000D01*
X118952518Y-88393677D01*
X118813766Y-88507548D01*
X118813764Y-88507550D01*
X118760919Y-88550919D01*
X118717550Y-88603764D01*
X117447548Y-89873767D01*
X117317844Y-90031812D01*
X117189236Y-90272420D01*
X117110040Y-90533493D01*
X117089569Y-90741348D01*
X117049482Y-90729188D01*
X116925000Y-90716928D01*
X116025000Y-90716928D01*
X115900518Y-90729188D01*
X115780820Y-90765498D01*
X115670506Y-90824463D01*
X115573815Y-90903815D01*
X115494463Y-91000506D01*
X115435498Y-91110820D01*
X115399188Y-91230518D01*
X115386928Y-91355000D01*
X115386928Y-92155000D01*
X115399188Y-92279482D01*
X115435498Y-92399180D01*
X115494463Y-92509494D01*
X115573815Y-92606185D01*
X115670506Y-92685537D01*
X115780820Y-92744502D01*
X115900518Y-92780812D01*
X116025000Y-92793072D01*
X116925000Y-92793072D01*
X117049482Y-92780812D01*
X117129211Y-92756626D01*
X117309561Y-92792500D01*
X117513439Y-92792500D01*
X117713398Y-92752726D01*
X117901756Y-92674705D01*
X118071274Y-92561437D01*
X118215437Y-92417274D01*
X118328705Y-92247756D01*
X118354759Y-92184858D01*
X118475000Y-92196700D01*
X118746507Y-92169960D01*
X119007580Y-92090764D01*
X119248188Y-91962156D01*
X119406233Y-91832452D01*
X119796928Y-91441757D01*
X119796928Y-92925000D01*
X119809188Y-93049482D01*
X119845498Y-93169180D01*
X119904463Y-93279494D01*
X119983815Y-93376185D01*
X120080506Y-93455537D01*
X120190820Y-93514502D01*
X120310518Y-93550812D01*
X120435000Y-93563072D01*
X122135000Y-93563072D01*
X122259482Y-93550812D01*
X122379180Y-93514502D01*
X122489494Y-93455537D01*
X122586185Y-93376185D01*
X122665537Y-93279494D01*
X122724502Y-93169180D01*
X122760812Y-93049482D01*
X122773072Y-92925000D01*
X122773072Y-91225000D01*
X123606928Y-91225000D01*
X123606928Y-92925000D01*
X123619188Y-93049482D01*
X123655498Y-93169180D01*
X123714463Y-93279494D01*
X123793815Y-93376185D01*
X123890506Y-93455537D01*
X124000820Y-93514502D01*
X124120518Y-93550812D01*
X124245000Y-93563072D01*
X125945000Y-93563072D01*
X126069482Y-93550812D01*
X126189180Y-93514502D01*
X126299494Y-93455537D01*
X126396185Y-93376185D01*
X126475537Y-93279494D01*
X126534502Y-93169180D01*
X126570812Y-93049482D01*
X126583072Y-92925000D01*
X126583072Y-91441758D01*
X126973766Y-91832452D01*
X127131811Y-91962156D01*
X127372419Y-92090763D01*
X127633492Y-92169959D01*
X127904999Y-92196700D01*
X128176506Y-92169959D01*
X128437580Y-92090763D01*
X128678187Y-91962156D01*
X128889081Y-91789081D01*
X129062156Y-91578187D01*
X129190763Y-91337580D01*
X129269959Y-91076506D01*
X129290431Y-90868652D01*
X129330518Y-90880812D01*
X129455000Y-90893072D01*
X130355000Y-90893072D01*
X130479482Y-90880812D01*
X130599180Y-90844502D01*
X130709494Y-90785537D01*
X130806185Y-90706185D01*
X130881018Y-90615000D01*
X133754678Y-90615000D01*
X133792000Y-90618676D01*
X133829322Y-90615000D01*
X133829333Y-90615000D01*
X133940986Y-90604003D01*
X134084247Y-90560546D01*
X134216276Y-90489974D01*
X134332001Y-90395001D01*
X134355804Y-90365997D01*
X135040802Y-89681000D01*
X135102939Y-89681000D01*
X135302898Y-89641226D01*
X135491256Y-89563205D01*
X135660774Y-89449937D01*
X135804937Y-89305774D01*
X135918205Y-89136256D01*
X135996226Y-88947898D01*
X136036000Y-88747939D01*
X136036000Y-88544061D01*
X135996226Y-88344102D01*
X135918205Y-88155744D01*
X135804937Y-87986226D01*
X135660774Y-87842063D01*
X135491256Y-87728795D01*
X135302898Y-87650774D01*
X135102939Y-87611000D01*
X134899061Y-87611000D01*
X134699102Y-87650774D01*
X134510744Y-87728795D01*
X134341226Y-87842063D01*
X134197063Y-87986226D01*
X134083795Y-88155744D01*
X134005774Y-88344102D01*
X133966000Y-88544061D01*
X133966000Y-88606198D01*
X133477199Y-89095000D01*
X130881018Y-89095000D01*
X130806185Y-89003815D01*
X130709494Y-88924463D01*
X130599180Y-88865498D01*
X130479482Y-88829188D01*
X130355000Y-88816928D01*
X129455000Y-88816928D01*
X129330518Y-88829188D01*
X129210820Y-88865498D01*
X129100506Y-88924463D01*
X129003815Y-89003815D01*
X128924463Y-89100506D01*
X128865498Y-89210820D01*
X128829188Y-89330518D01*
X128816928Y-89455000D01*
X128816928Y-89758242D01*
X127662454Y-88603769D01*
X127619081Y-88550919D01*
X127410816Y-88380000D01*
X127973037Y-88380000D01*
X128176507Y-88359960D01*
X128437581Y-88280764D01*
X128678188Y-88152157D01*
X128889081Y-87979081D01*
X129062157Y-87768188D01*
X129190764Y-87527581D01*
X129269960Y-87266507D01*
X129290432Y-87058652D01*
X129330518Y-87070812D01*
X129455000Y-87083072D01*
X130355000Y-87083072D01*
X130479482Y-87070812D01*
X130599180Y-87034502D01*
X130709494Y-86975537D01*
X130806185Y-86896185D01*
X130881018Y-86805000D01*
X132357678Y-86805000D01*
X132395000Y-86808676D01*
X132432322Y-86805000D01*
X132432333Y-86805000D01*
X132543986Y-86794003D01*
X132687247Y-86750546D01*
X132819276Y-86679974D01*
X132935001Y-86585001D01*
X132958803Y-86555998D01*
X133008801Y-86506000D01*
X133070939Y-86506000D01*
X133270898Y-86466226D01*
X133459256Y-86388205D01*
X133628774Y-86274937D01*
X133772937Y-86130774D01*
X133886205Y-85961256D01*
X133964226Y-85772898D01*
X134004000Y-85572939D01*
X134004000Y-85369061D01*
X133964226Y-85169102D01*
X133886205Y-84980744D01*
X133772937Y-84811226D01*
X133628774Y-84667063D01*
X133459256Y-84553795D01*
X133270898Y-84475774D01*
X133070939Y-84436000D01*
X132867061Y-84436000D01*
X132667102Y-84475774D01*
X132478744Y-84553795D01*
X132309226Y-84667063D01*
X132165063Y-84811226D01*
X132051795Y-84980744D01*
X131973774Y-85169102D01*
X131950721Y-85285000D01*
X130881018Y-85285000D01*
X130806185Y-85193815D01*
X130709494Y-85114463D01*
X130599180Y-85055498D01*
X130479482Y-85019188D01*
X130355000Y-85006928D01*
X129455000Y-85006928D01*
X129330518Y-85019188D01*
X129210820Y-85055498D01*
X129100506Y-85114463D01*
X129003815Y-85193815D01*
X128924463Y-85290506D01*
X128865498Y-85400820D01*
X128829188Y-85520518D01*
X128816928Y-85645000D01*
X128816928Y-85951704D01*
X128678188Y-85837843D01*
X128437581Y-85709236D01*
X128176507Y-85630040D01*
X127973037Y-85610000D01*
X127410816Y-85610000D01*
X127619081Y-85439081D01*
X127662454Y-85386231D01*
X128932452Y-84116234D01*
X129062156Y-83958189D01*
X129190763Y-83717581D01*
X129269959Y-83456508D01*
X129290431Y-83248652D01*
X129330518Y-83260812D01*
X129455000Y-83273072D01*
X130355000Y-83273072D01*
X130479482Y-83260812D01*
X130599180Y-83224502D01*
X130709494Y-83165537D01*
X130806185Y-83086185D01*
X130881018Y-82995000D01*
X131505789Y-82995000D01*
X131547226Y-83036437D01*
X131716744Y-83149705D01*
X131905102Y-83227726D01*
X132105061Y-83267500D01*
X132308939Y-83267500D01*
X132508898Y-83227726D01*
X132697256Y-83149705D01*
X132866774Y-83036437D01*
X133010937Y-82892274D01*
X133124205Y-82722756D01*
X133202226Y-82534398D01*
X133242000Y-82334439D01*
X133242000Y-82130561D01*
X133202226Y-81930602D01*
X133124205Y-81742244D01*
X133010937Y-81572726D01*
X132866774Y-81428563D01*
X132697256Y-81315295D01*
X132508898Y-81237274D01*
X132308939Y-81197500D01*
X132105061Y-81197500D01*
X131905102Y-81237274D01*
X131716744Y-81315295D01*
X131547226Y-81428563D01*
X131500789Y-81475000D01*
X130881018Y-81475000D01*
X130806185Y-81383815D01*
X130709494Y-81304463D01*
X130599180Y-81245498D01*
X130479482Y-81209188D01*
X130355000Y-81196928D01*
X129455000Y-81196928D01*
X129330518Y-81209188D01*
X129210820Y-81245498D01*
X129100506Y-81304463D01*
X129003815Y-81383815D01*
X128924463Y-81480506D01*
X128865498Y-81590820D01*
X128829188Y-81710518D01*
X128816928Y-81835000D01*
X128816928Y-82141705D01*
X128678187Y-82027844D01*
X128437580Y-81899237D01*
X128176506Y-81820041D01*
X127904999Y-81793300D01*
X127633492Y-81820041D01*
X127372419Y-81899237D01*
X127131811Y-82027844D01*
X126973766Y-82157548D01*
X126061315Y-83070000D01*
X126039350Y-83070000D01*
X126041632Y-83068475D01*
X126248475Y-82861632D01*
X126410990Y-82618411D01*
X126453922Y-82514763D01*
X128251463Y-80717222D01*
X128437581Y-80660764D01*
X128678188Y-80532157D01*
X128889081Y-80359081D01*
X129062157Y-80148188D01*
X129190764Y-79907581D01*
X129269960Y-79646507D01*
X129290432Y-79438652D01*
X129330518Y-79450812D01*
X129455000Y-79463072D01*
X130355000Y-79463072D01*
X130479482Y-79450812D01*
X130599180Y-79414502D01*
X130639189Y-79393116D01*
X130698602Y-79417726D01*
X130898561Y-79457500D01*
X131102439Y-79457500D01*
X131302398Y-79417726D01*
X131490756Y-79339705D01*
X131660274Y-79226437D01*
X131804437Y-79082274D01*
X131917705Y-78912756D01*
X131995726Y-78724398D01*
X132035500Y-78524439D01*
X132035500Y-78320561D01*
X131995726Y-78120602D01*
X131917705Y-77932244D01*
X131804437Y-77762726D01*
X131660274Y-77618563D01*
X131490756Y-77505295D01*
X131302398Y-77427274D01*
X131102439Y-77387500D01*
X130898561Y-77387500D01*
X130698602Y-77427274D01*
X130633919Y-77454067D01*
X130599180Y-77435498D01*
X130479482Y-77399188D01*
X130355000Y-77386928D01*
X129455000Y-77386928D01*
X129330518Y-77399188D01*
X129210820Y-77435498D01*
X129100506Y-77494463D01*
X129003815Y-77573815D01*
X128924463Y-77670506D01*
X128865498Y-77780820D01*
X128829188Y-77900518D01*
X128816928Y-78025000D01*
X128816928Y-78331704D01*
X128678188Y-78217843D01*
X128437581Y-78089236D01*
X128176507Y-78010040D01*
X127973037Y-77990000D01*
X127703026Y-77990000D01*
X127634999Y-77983300D01*
X127566972Y-77990000D01*
X127566963Y-77990000D01*
X127363493Y-78010040D01*
X127102419Y-78089236D01*
X126861812Y-78217843D01*
X126650919Y-78390919D01*
X126607546Y-78443769D01*
X124495237Y-80556078D01*
X124391589Y-80599010D01*
X124148368Y-80761525D01*
X123941525Y-80968368D01*
X123779010Y-81211589D01*
X123667068Y-81481842D01*
X123610000Y-81768740D01*
X123610000Y-82061260D01*
X123667068Y-82348158D01*
X123779010Y-82618411D01*
X123941525Y-82861632D01*
X124148368Y-83068475D01*
X124322760Y-83185000D01*
X124148368Y-83301525D01*
X123941525Y-83508368D01*
X123779010Y-83751589D01*
X123667068Y-84021842D01*
X123610000Y-84308740D01*
X123610000Y-84601260D01*
X123667068Y-84888158D01*
X123779010Y-85158411D01*
X123941525Y-85401632D01*
X124148368Y-85608475D01*
X124322760Y-85725000D01*
X124148368Y-85841525D01*
X123941525Y-86048368D01*
X123779010Y-86291589D01*
X123667068Y-86561842D01*
X123610000Y-86848740D01*
X123610000Y-87141260D01*
X123667068Y-87428158D01*
X123779010Y-87698411D01*
X123941525Y-87941632D01*
X124148368Y-88148475D01*
X124322760Y-88265000D01*
X124148368Y-88381525D01*
X123941525Y-88588368D01*
X123779010Y-88831589D01*
X123667068Y-89101842D01*
X123610000Y-89388740D01*
X123610000Y-89681260D01*
X123667068Y-89968158D01*
X123779010Y-90238411D01*
X123941525Y-90481632D01*
X124073380Y-90613487D01*
X124000820Y-90635498D01*
X123890506Y-90694463D01*
X123793815Y-90773815D01*
X123714463Y-90870506D01*
X123655498Y-90980820D01*
X123619188Y-91100518D01*
X123606928Y-91225000D01*
X122773072Y-91225000D01*
X122760812Y-91100518D01*
X122724502Y-90980820D01*
X122665537Y-90870506D01*
X122586185Y-90773815D01*
X122489494Y-90694463D01*
X122379180Y-90635498D01*
X122306620Y-90613487D01*
X122438475Y-90481632D01*
X122600990Y-90238411D01*
X122712932Y-89968158D01*
X122770000Y-89681260D01*
X122770000Y-89388740D01*
X122712932Y-89101842D01*
X122600990Y-88831589D01*
X122438475Y-88588368D01*
X122231632Y-88381525D01*
X122057240Y-88265000D01*
X122231632Y-88148475D01*
X122438475Y-87941632D01*
X122600990Y-87698411D01*
X122712932Y-87428158D01*
X122770000Y-87141260D01*
X122770000Y-86848740D01*
X122712932Y-86561842D01*
X122600990Y-86291589D01*
X122438475Y-86048368D01*
X122231632Y-85841525D01*
X122057240Y-85725000D01*
X122231632Y-85608475D01*
X122438475Y-85401632D01*
X122600990Y-85158411D01*
X122712932Y-84888158D01*
X122770000Y-84601260D01*
X122770000Y-84308740D01*
X122712932Y-84021842D01*
X122600990Y-83751589D01*
X122438475Y-83508368D01*
X122231632Y-83301525D01*
X122057240Y-83185000D01*
X122231632Y-83068475D01*
X122438475Y-82861632D01*
X122600990Y-82618411D01*
X122712932Y-82348158D01*
X122770000Y-82061260D01*
X122770000Y-81768740D01*
X122712932Y-81481842D01*
X122600990Y-81211589D01*
X122438475Y-80968368D01*
X122231632Y-80761525D01*
X121988411Y-80599010D01*
X121718158Y-80487068D01*
X121502944Y-80444259D01*
X119406233Y-78347548D01*
X119248188Y-78217844D01*
X119007580Y-78089236D01*
X118746507Y-78010040D01*
X118475000Y-77983300D01*
X118203493Y-78010040D01*
X117942420Y-78089236D01*
X117701812Y-78217844D01*
X117490919Y-78390919D01*
X117317844Y-78601812D01*
X117189236Y-78842420D01*
X117110040Y-79103493D01*
X117089569Y-79311348D01*
X117049482Y-79299188D01*
X116925000Y-79286928D01*
X116025000Y-79286928D01*
X115900518Y-79299188D01*
X115780820Y-79335498D01*
X115670506Y-79394463D01*
X115573815Y-79473815D01*
X115494463Y-79570506D01*
X115435498Y-79680820D01*
X115399188Y-79800518D01*
X115386928Y-79925000D01*
X111401453Y-79925000D01*
X111410764Y-79907581D01*
X111489960Y-79646507D01*
X111510432Y-79438652D01*
X111550518Y-79450812D01*
X111675000Y-79463072D01*
X112575000Y-79463072D01*
X112699482Y-79450812D01*
X112819180Y-79414502D01*
X112929494Y-79355537D01*
X113026185Y-79276185D01*
X113105537Y-79179494D01*
X113164502Y-79069180D01*
X113200812Y-78949482D01*
X113213072Y-78825000D01*
X113213072Y-78025000D01*
X113200812Y-77900518D01*
X113164502Y-77780820D01*
X113105537Y-77670506D01*
X113026185Y-77573815D01*
X112929494Y-77494463D01*
X112819180Y-77435498D01*
X112699482Y-77399188D01*
X112575000Y-77386928D01*
X111675000Y-77386928D01*
X111550518Y-77399188D01*
X111470789Y-77423374D01*
X111290439Y-77387500D01*
X111086561Y-77387500D01*
X110886602Y-77427274D01*
X110698244Y-77505295D01*
X110528726Y-77618563D01*
X110384563Y-77762726D01*
X110271295Y-77932244D01*
X110245242Y-77995142D01*
X110193037Y-77990000D01*
X109923026Y-77990000D01*
X109854999Y-77983300D01*
X109786972Y-77990000D01*
X109786963Y-77990000D01*
X109583493Y-78010040D01*
X109322419Y-78089236D01*
X109081812Y-78217843D01*
X108870919Y-78390919D01*
X108827546Y-78443769D01*
X106715237Y-80556078D01*
X106611589Y-80599010D01*
X106368368Y-80761525D01*
X106161525Y-80968368D01*
X105999010Y-81211589D01*
X105887068Y-81481842D01*
X105830000Y-81768740D01*
X105830000Y-82061260D01*
X105887068Y-82348158D01*
X105999010Y-82618411D01*
X106161525Y-82861632D01*
X106368368Y-83068475D01*
X106542760Y-83185000D01*
X106368368Y-83301525D01*
X106161525Y-83508368D01*
X105999010Y-83751589D01*
X105887068Y-84021842D01*
X105830000Y-84308740D01*
X105830000Y-84601260D01*
X105887068Y-84888158D01*
X105999010Y-85158411D01*
X106161525Y-85401632D01*
X106368368Y-85608475D01*
X106542760Y-85725000D01*
X106368368Y-85841525D01*
X106161525Y-86048368D01*
X105999010Y-86291589D01*
X105887068Y-86561842D01*
X105830000Y-86848740D01*
X105830000Y-87141260D01*
X105887068Y-87428158D01*
X105999010Y-87698411D01*
X106161525Y-87941632D01*
X106368368Y-88148475D01*
X106542760Y-88265000D01*
X106368368Y-88381525D01*
X106161525Y-88588368D01*
X105999010Y-88831589D01*
X105887068Y-89101842D01*
X105830000Y-89388740D01*
X105830000Y-89681260D01*
X105887068Y-89968158D01*
X105999010Y-90238411D01*
X106161525Y-90481632D01*
X106293380Y-90613487D01*
X106220820Y-90635498D01*
X106110506Y-90694463D01*
X106013815Y-90773815D01*
X105934463Y-90870506D01*
X105875498Y-90980820D01*
X105839188Y-91100518D01*
X105826928Y-91225000D01*
X104993072Y-91225000D01*
X104980812Y-91100518D01*
X104944502Y-90980820D01*
X104885537Y-90870506D01*
X104806185Y-90773815D01*
X104709494Y-90694463D01*
X104599180Y-90635498D01*
X104526620Y-90613487D01*
X104658475Y-90481632D01*
X104820990Y-90238411D01*
X104932932Y-89968158D01*
X104990000Y-89681260D01*
X104990000Y-89388740D01*
X104932932Y-89101842D01*
X104820990Y-88831589D01*
X104658475Y-88588368D01*
X104451632Y-88381525D01*
X104277240Y-88265000D01*
X104451632Y-88148475D01*
X104658475Y-87941632D01*
X104820990Y-87698411D01*
X104932932Y-87428158D01*
X104990000Y-87141260D01*
X104990000Y-86848740D01*
X104932932Y-86561842D01*
X104820990Y-86291589D01*
X104658475Y-86048368D01*
X104451632Y-85841525D01*
X104277240Y-85725000D01*
X104451632Y-85608475D01*
X104658475Y-85401632D01*
X104820990Y-85158411D01*
X104932932Y-84888158D01*
X104990000Y-84601260D01*
X104990000Y-84308740D01*
X104932932Y-84021842D01*
X104820990Y-83751589D01*
X104658475Y-83508368D01*
X104451632Y-83301525D01*
X104277240Y-83185000D01*
X104451632Y-83068475D01*
X104658475Y-82861632D01*
X104820990Y-82618411D01*
X104932932Y-82348158D01*
X104990000Y-82061260D01*
X104990000Y-81768740D01*
X104932932Y-81481842D01*
X104820990Y-81211589D01*
X104658475Y-80968368D01*
X104451632Y-80761525D01*
X104208411Y-80599010D01*
X104104763Y-80556078D01*
X101992454Y-78443769D01*
X101949081Y-78390919D01*
X101738188Y-78217843D01*
X101497581Y-78089236D01*
X101236507Y-78010040D01*
X101033037Y-77990000D01*
X101033029Y-77990000D01*
X100965000Y-77983300D01*
X100896971Y-77990000D01*
X100626963Y-77990000D01*
X100423493Y-78010040D01*
X100162419Y-78089236D01*
X99921812Y-78217843D01*
X99710919Y-78390919D01*
X99537843Y-78601812D01*
X99409236Y-78842419D01*
X99330040Y-79103493D01*
X99309568Y-79311348D01*
X99269482Y-79299188D01*
X99145000Y-79286928D01*
X98245000Y-79286928D01*
X98120518Y-79299188D01*
X98000820Y-79335498D01*
X97890506Y-79394463D01*
X97793815Y-79473815D01*
X97714463Y-79570506D01*
X97655498Y-79680820D01*
X97619188Y-79800518D01*
X97606928Y-79925000D01*
X96545000Y-79925000D01*
X96545000Y-77502278D01*
X96596002Y-76982116D01*
X96737694Y-76512812D01*
X96967837Y-76079975D01*
X97277678Y-75700073D01*
X97655397Y-75387597D01*
X98086627Y-75154431D01*
X98554928Y-75009468D01*
X99073153Y-74955000D01*
X165702722Y-74955000D01*
X166222884Y-75006002D01*
G36*
X147238012Y-85432814D02*
G01*
X147235718Y-85440377D01*
X147216596Y-85536510D01*
X147204336Y-85660991D01*
X147204336Y-85685550D01*
X147201928Y-85710000D01*
X147201928Y-86210000D01*
X147214188Y-86334482D01*
X147221929Y-86360000D01*
X147214188Y-86385518D01*
X147201928Y-86510000D01*
X147201928Y-87010000D01*
X147204336Y-87034450D01*
X147204336Y-87059009D01*
X147216596Y-87183490D01*
X147235718Y-87279623D01*
X147272027Y-87399319D01*
X147309536Y-87489875D01*
X147368502Y-87600192D01*
X147422958Y-87681691D01*
X147502310Y-87778382D01*
X147571618Y-87847690D01*
X147668309Y-87927042D01*
X147749808Y-87981498D01*
X147860125Y-88040464D01*
X147950681Y-88077973D01*
X148070377Y-88114282D01*
X148166510Y-88133404D01*
X148290991Y-88145664D01*
X148315550Y-88145664D01*
X148340000Y-88148072D01*
X148840000Y-88148072D01*
X148864450Y-88145664D01*
X148889009Y-88145664D01*
X149013490Y-88133404D01*
X149109623Y-88114282D01*
X149229319Y-88077973D01*
X149319875Y-88040464D01*
X149430192Y-87981498D01*
X149511691Y-87927042D01*
X149608382Y-87847690D01*
X149677690Y-87778382D01*
X149696879Y-87755000D01*
X154203827Y-87755000D01*
X154214053Y-87788709D01*
X154295542Y-87941164D01*
X154295721Y-87941383D01*
X154195744Y-87982795D01*
X154026226Y-88096063D01*
X153882063Y-88240226D01*
X153768795Y-88409744D01*
X153690774Y-88598102D01*
X153651000Y-88798061D01*
X153651000Y-89001939D01*
X153690774Y-89201898D01*
X153768795Y-89390256D01*
X153882063Y-89559774D01*
X154026226Y-89703937D01*
X154195744Y-89817205D01*
X154384102Y-89895226D01*
X154584061Y-89935000D01*
X154787939Y-89935000D01*
X154987898Y-89895226D01*
X155176256Y-89817205D01*
X155345774Y-89703937D01*
X155389711Y-89660000D01*
X158308199Y-89660000D01*
X159582199Y-90934000D01*
X154373711Y-90934000D01*
X154329774Y-90890063D01*
X154160256Y-90776795D01*
X153971898Y-90698774D01*
X153771939Y-90659000D01*
X153568061Y-90659000D01*
X153368102Y-90698774D01*
X153179744Y-90776795D01*
X153010226Y-90890063D01*
X152866063Y-91034226D01*
X152752795Y-91203744D01*
X152674774Y-91392102D01*
X152635000Y-91592061D01*
X152635000Y-91795939D01*
X152674774Y-91995898D01*
X152752795Y-92184256D01*
X152866063Y-92353774D01*
X153010226Y-92497937D01*
X153179744Y-92611205D01*
X153368102Y-92689226D01*
X153568061Y-92729000D01*
X153771939Y-92729000D01*
X153971898Y-92689226D01*
X154160256Y-92611205D01*
X154329774Y-92497937D01*
X154373711Y-92454000D01*
X155517846Y-92454000D01*
X155419795Y-92600744D01*
X155341774Y-92789102D01*
X155302000Y-92989061D01*
X155302000Y-93192939D01*
X155341774Y-93392898D01*
X155419795Y-93581256D01*
X155533063Y-93750774D01*
X155677226Y-93894937D01*
X155846744Y-94008205D01*
X156035102Y-94086226D01*
X156235061Y-94126000D01*
X156438939Y-94126000D01*
X156638898Y-94086226D01*
X156827256Y-94008205D01*
X156996774Y-93894937D01*
X157040711Y-93851000D01*
X160213199Y-93851000D01*
X162054000Y-95691802D01*
X162054001Y-98428849D01*
X162006595Y-98486613D01*
X161924528Y-98640149D01*
X161873992Y-98806745D01*
X161856928Y-98979999D01*
X161856928Y-99630001D01*
X161873992Y-99803255D01*
X161924528Y-99969851D01*
X162006595Y-100123387D01*
X162117038Y-100257962D01*
X162204816Y-100330000D01*
X162117038Y-100402038D01*
X162006595Y-100536613D01*
X161924528Y-100690149D01*
X161914742Y-100722410D01*
X161847312Y-100621495D01*
X161633505Y-100407688D01*
X161382095Y-100239701D01*
X161102743Y-100123989D01*
X160806184Y-100065000D01*
X160503816Y-100065000D01*
X160207257Y-100123989D01*
X159927905Y-100239701D01*
X159676495Y-100407688D01*
X159462688Y-100621495D01*
X159360049Y-100775105D01*
X159179080Y-100715525D01*
X158294605Y-101600000D01*
X159179080Y-102484475D01*
X159360049Y-102424895D01*
X159462688Y-102578505D01*
X159676495Y-102792312D01*
X159820001Y-102888199D01*
X159820001Y-103033706D01*
X159787708Y-103060208D01*
X159678042Y-103193836D01*
X159596553Y-103346291D01*
X159546372Y-103511715D01*
X159529428Y-103683750D01*
X159529428Y-104084704D01*
X157769133Y-105845000D01*
X157356274Y-105845000D01*
X157372000Y-105765939D01*
X157372000Y-105562061D01*
X157332226Y-105362102D01*
X157254205Y-105173744D01*
X157140937Y-105004226D01*
X156996774Y-104860063D01*
X156827256Y-104746795D01*
X156638898Y-104668774D01*
X156438939Y-104629000D01*
X156235061Y-104629000D01*
X156035102Y-104668774D01*
X155846744Y-104746795D01*
X155677226Y-104860063D01*
X155633289Y-104904000D01*
X152714802Y-104904000D01*
X152201803Y-104391002D01*
X152178001Y-104361999D01*
X152062276Y-104267026D01*
X151930247Y-104196454D01*
X151786986Y-104152997D01*
X151675333Y-104142000D01*
X151675322Y-104142000D01*
X151638000Y-104138324D01*
X151600678Y-104142000D01*
X148523803Y-104142000D01*
X146741802Y-102360000D01*
X154047782Y-102360000D01*
X154053996Y-102423093D01*
X154104544Y-102589727D01*
X154186629Y-102743297D01*
X154297097Y-102877903D01*
X154431703Y-102988371D01*
X154585273Y-103070456D01*
X154751907Y-103121004D01*
X154925200Y-103138072D01*
X156224800Y-103138072D01*
X156398093Y-103121004D01*
X156564727Y-103070456D01*
X156718297Y-102988371D01*
X156852903Y-102877903D01*
X156963371Y-102743297D01*
X157005713Y-102664080D01*
X157230525Y-102664080D01*
X157314208Y-102918261D01*
X157586775Y-103049158D01*
X157879642Y-103124365D01*
X158181553Y-103140991D01*
X158480907Y-103098397D01*
X158766199Y-102998222D01*
X158915792Y-102918261D01*
X158999475Y-102664080D01*
X158115000Y-101779605D01*
X157230525Y-102664080D01*
X157005713Y-102664080D01*
X157045456Y-102589727D01*
X157088907Y-102446488D01*
X157935395Y-101600000D01*
X157088907Y-100753512D01*
X157045456Y-100610273D01*
X157005714Y-100535920D01*
X157230525Y-100535920D01*
X158115000Y-101420395D01*
X158999475Y-100535920D01*
X158915792Y-100281739D01*
X158643225Y-100150842D01*
X158350358Y-100075635D01*
X158048447Y-100059009D01*
X157749093Y-100101603D01*
X157463801Y-100201778D01*
X157314208Y-100281739D01*
X157230525Y-100535920D01*
X157005714Y-100535920D01*
X156963371Y-100456703D01*
X156852903Y-100322097D01*
X156718297Y-100211629D01*
X156564727Y-100129544D01*
X156398093Y-100078996D01*
X156224800Y-100061928D01*
X154925200Y-100061928D01*
X154751907Y-100078996D01*
X154585273Y-100129544D01*
X154431703Y-100211629D01*
X154297097Y-100322097D01*
X154186629Y-100456703D01*
X154104544Y-100610273D01*
X154053996Y-100776907D01*
X154047782Y-100840000D01*
X146618802Y-100840000D01*
X146429000Y-100650199D01*
X146429000Y-84623802D01*
X147238012Y-85432814D01*
G37*
X147238012Y-85432814D02*
X147235718Y-85440377D01*
X147216596Y-85536510D01*
X147204336Y-85660991D01*
X147204336Y-85685550D01*
X147201928Y-85710000D01*
X147201928Y-86210000D01*
X147214188Y-86334482D01*
X147221929Y-86360000D01*
X147214188Y-86385518D01*
X147201928Y-86510000D01*
X147201928Y-87010000D01*
X147204336Y-87034450D01*
X147204336Y-87059009D01*
X147216596Y-87183490D01*
X147235718Y-87279623D01*
X147272027Y-87399319D01*
X147309536Y-87489875D01*
X147368502Y-87600192D01*
X147422958Y-87681691D01*
X147502310Y-87778382D01*
X147571618Y-87847690D01*
X147668309Y-87927042D01*
X147749808Y-87981498D01*
X147860125Y-88040464D01*
X147950681Y-88077973D01*
X148070377Y-88114282D01*
X148166510Y-88133404D01*
X148290991Y-88145664D01*
X148315550Y-88145664D01*
X148340000Y-88148072D01*
X148840000Y-88148072D01*
X148864450Y-88145664D01*
X148889009Y-88145664D01*
X149013490Y-88133404D01*
X149109623Y-88114282D01*
X149229319Y-88077973D01*
X149319875Y-88040464D01*
X149430192Y-87981498D01*
X149511691Y-87927042D01*
X149608382Y-87847690D01*
X149677690Y-87778382D01*
X149696879Y-87755000D01*
X154203827Y-87755000D01*
X154214053Y-87788709D01*
X154295542Y-87941164D01*
X154295721Y-87941383D01*
X154195744Y-87982795D01*
X154026226Y-88096063D01*
X153882063Y-88240226D01*
X153768795Y-88409744D01*
X153690774Y-88598102D01*
X153651000Y-88798061D01*
X153651000Y-89001939D01*
X153690774Y-89201898D01*
X153768795Y-89390256D01*
X153882063Y-89559774D01*
X154026226Y-89703937D01*
X154195744Y-89817205D01*
X154384102Y-89895226D01*
X154584061Y-89935000D01*
X154787939Y-89935000D01*
X154987898Y-89895226D01*
X155176256Y-89817205D01*
X155345774Y-89703937D01*
X155389711Y-89660000D01*
X158308199Y-89660000D01*
X159582199Y-90934000D01*
X154373711Y-90934000D01*
X154329774Y-90890063D01*
X154160256Y-90776795D01*
X153971898Y-90698774D01*
X153771939Y-90659000D01*
X153568061Y-90659000D01*
X153368102Y-90698774D01*
X153179744Y-90776795D01*
X153010226Y-90890063D01*
X152866063Y-91034226D01*
X152752795Y-91203744D01*
X152674774Y-91392102D01*
X152635000Y-91592061D01*
X152635000Y-91795939D01*
X152674774Y-91995898D01*
X152752795Y-92184256D01*
X152866063Y-92353774D01*
X153010226Y-92497937D01*
X153179744Y-92611205D01*
X153368102Y-92689226D01*
X153568061Y-92729000D01*
X153771939Y-92729000D01*
X153971898Y-92689226D01*
X154160256Y-92611205D01*
X154329774Y-92497937D01*
X154373711Y-92454000D01*
X155517846Y-92454000D01*
X155419795Y-92600744D01*
X155341774Y-92789102D01*
X155302000Y-92989061D01*
X155302000Y-93192939D01*
X155341774Y-93392898D01*
X155419795Y-93581256D01*
X155533063Y-93750774D01*
X155677226Y-93894937D01*
X155846744Y-94008205D01*
X156035102Y-94086226D01*
X156235061Y-94126000D01*
X156438939Y-94126000D01*
X156638898Y-94086226D01*
X156827256Y-94008205D01*
X156996774Y-93894937D01*
X157040711Y-93851000D01*
X160213199Y-93851000D01*
X162054000Y-95691802D01*
X162054001Y-98428849D01*
X162006595Y-98486613D01*
X161924528Y-98640149D01*
X161873992Y-98806745D01*
X161856928Y-98979999D01*
X161856928Y-99630001D01*
X161873992Y-99803255D01*
X161924528Y-99969851D01*
X162006595Y-100123387D01*
X162117038Y-100257962D01*
X162204816Y-100330000D01*
X162117038Y-100402038D01*
X162006595Y-100536613D01*
X161924528Y-100690149D01*
X161914742Y-100722410D01*
X161847312Y-100621495D01*
X161633505Y-100407688D01*
X161382095Y-100239701D01*
X161102743Y-100123989D01*
X160806184Y-100065000D01*
X160503816Y-100065000D01*
X160207257Y-100123989D01*
X159927905Y-100239701D01*
X159676495Y-100407688D01*
X159462688Y-100621495D01*
X159360049Y-100775105D01*
X159179080Y-100715525D01*
X158294605Y-101600000D01*
X159179080Y-102484475D01*
X159360049Y-102424895D01*
X159462688Y-102578505D01*
X159676495Y-102792312D01*
X159820001Y-102888199D01*
X159820001Y-103033706D01*
X159787708Y-103060208D01*
X159678042Y-103193836D01*
X159596553Y-103346291D01*
X159546372Y-103511715D01*
X159529428Y-103683750D01*
X159529428Y-104084704D01*
X157769133Y-105845000D01*
X157356274Y-105845000D01*
X157372000Y-105765939D01*
X157372000Y-105562061D01*
X157332226Y-105362102D01*
X157254205Y-105173744D01*
X157140937Y-105004226D01*
X156996774Y-104860063D01*
X156827256Y-104746795D01*
X156638898Y-104668774D01*
X156438939Y-104629000D01*
X156235061Y-104629000D01*
X156035102Y-104668774D01*
X155846744Y-104746795D01*
X155677226Y-104860063D01*
X155633289Y-104904000D01*
X152714802Y-104904000D01*
X152201803Y-104391002D01*
X152178001Y-104361999D01*
X152062276Y-104267026D01*
X151930247Y-104196454D01*
X151786986Y-104152997D01*
X151675333Y-104142000D01*
X151675322Y-104142000D01*
X151638000Y-104138324D01*
X151600678Y-104142000D01*
X148523803Y-104142000D01*
X146741802Y-102360000D01*
X154047782Y-102360000D01*
X154053996Y-102423093D01*
X154104544Y-102589727D01*
X154186629Y-102743297D01*
X154297097Y-102877903D01*
X154431703Y-102988371D01*
X154585273Y-103070456D01*
X154751907Y-103121004D01*
X154925200Y-103138072D01*
X156224800Y-103138072D01*
X156398093Y-103121004D01*
X156564727Y-103070456D01*
X156718297Y-102988371D01*
X156852903Y-102877903D01*
X156963371Y-102743297D01*
X157005713Y-102664080D01*
X157230525Y-102664080D01*
X157314208Y-102918261D01*
X157586775Y-103049158D01*
X157879642Y-103124365D01*
X158181553Y-103140991D01*
X158480907Y-103098397D01*
X158766199Y-102998222D01*
X158915792Y-102918261D01*
X158999475Y-102664080D01*
X158115000Y-101779605D01*
X157230525Y-102664080D01*
X157005713Y-102664080D01*
X157045456Y-102589727D01*
X157088907Y-102446488D01*
X157935395Y-101600000D01*
X157088907Y-100753512D01*
X157045456Y-100610273D01*
X157005714Y-100535920D01*
X157230525Y-100535920D01*
X158115000Y-101420395D01*
X158999475Y-100535920D01*
X158915792Y-100281739D01*
X158643225Y-100150842D01*
X158350358Y-100075635D01*
X158048447Y-100059009D01*
X157749093Y-100101603D01*
X157463801Y-100201778D01*
X157314208Y-100281739D01*
X157230525Y-100535920D01*
X157005714Y-100535920D01*
X156963371Y-100456703D01*
X156852903Y-100322097D01*
X156718297Y-100211629D01*
X156564727Y-100129544D01*
X156398093Y-100078996D01*
X156224800Y-100061928D01*
X154925200Y-100061928D01*
X154751907Y-100078996D01*
X154585273Y-100129544D01*
X154431703Y-100211629D01*
X154297097Y-100322097D01*
X154186629Y-100456703D01*
X154104544Y-100610273D01*
X154053996Y-100776907D01*
X154047782Y-100840000D01*
X146618802Y-100840000D01*
X146429000Y-100650199D01*
X146429000Y-84623802D01*
X147238012Y-85432814D01*
%TD*%
M02*
