%TF.GenerationSoftware,KiCad,Pcbnew,7.0.6-0*%
%TF.CreationDate,2023-08-15T02:22:11-05:00*%
%TF.ProjectId,kbxLEDController-16ch,6b62784c-4544-4436-9f6e-74726f6c6c65,rev?*%
%TF.SameCoordinates,Original*%
%TF.FileFunction,Paste,Bot*%
%TF.FilePolarity,Positive*%
%FSLAX46Y46*%
G04 Gerber Fmt 4.6, Leading zero omitted, Abs format (unit mm)*
G04 Created by KiCad (PCBNEW 7.0.6-0) date 2023-08-15 02:22:11*
%MOMM*%
%LPD*%
G01*
G04 APERTURE LIST*
G04 Aperture macros list*
%AMRoundRect*
0 Rectangle with rounded corners*
0 $1 Rounding radius*
0 $2 $3 $4 $5 $6 $7 $8 $9 X,Y pos of 4 corners*
0 Add a 4 corners polygon primitive as box body*
4,1,4,$2,$3,$4,$5,$6,$7,$8,$9,$2,$3,0*
0 Add four circle primitives for the rounded corners*
1,1,$1+$1,$2,$3*
1,1,$1+$1,$4,$5*
1,1,$1+$1,$6,$7*
1,1,$1+$1,$8,$9*
0 Add four rect primitives between the rounded corners*
20,1,$1+$1,$2,$3,$4,$5,0*
20,1,$1+$1,$4,$5,$6,$7,0*
20,1,$1+$1,$6,$7,$8,$9,0*
20,1,$1+$1,$8,$9,$2,$3,0*%
G04 Aperture macros list end*
%ADD10RoundRect,0.250000X-0.475000X0.250000X-0.475000X-0.250000X0.475000X-0.250000X0.475000X0.250000X0*%
%ADD11RoundRect,0.150000X0.587500X0.150000X-0.587500X0.150000X-0.587500X-0.150000X0.587500X-0.150000X0*%
%ADD12RoundRect,0.150000X-0.587500X-0.150000X0.587500X-0.150000X0.587500X0.150000X-0.587500X0.150000X0*%
%ADD13RoundRect,0.250000X-0.262500X-0.450000X0.262500X-0.450000X0.262500X0.450000X-0.262500X0.450000X0*%
%ADD14RoundRect,0.250000X0.250000X0.475000X-0.250000X0.475000X-0.250000X-0.475000X0.250000X-0.475000X0*%
%ADD15RoundRect,0.250000X0.475000X-0.250000X0.475000X0.250000X-0.475000X0.250000X-0.475000X-0.250000X0*%
G04 APERTURE END LIST*
D10*
%TO.C,C18*%
X109855000Y-105857000D03*
X109855000Y-107757000D03*
%TD*%
D11*
%TO.C,Q13*%
X129842500Y-89855000D03*
X129842500Y-91755000D03*
X127967500Y-90805000D03*
%TD*%
D12*
%TO.C,Q2*%
X98757500Y-87945000D03*
X98757500Y-86045000D03*
X100632500Y-86995000D03*
%TD*%
D11*
%TO.C,Q16*%
X129842500Y-78425000D03*
X129842500Y-80325000D03*
X127967500Y-79375000D03*
%TD*%
D12*
%TO.C,Q12*%
X116537500Y-80325000D03*
X116537500Y-78425000D03*
X118412500Y-79375000D03*
%TD*%
%TO.C,Q4*%
X98757500Y-80325000D03*
X98757500Y-78425000D03*
X100632500Y-79375000D03*
%TD*%
D11*
%TO.C,Q15*%
X129842500Y-82235000D03*
X129842500Y-84135000D03*
X127967500Y-83185000D03*
%TD*%
D12*
%TO.C,Q11*%
X116537500Y-84135000D03*
X116537500Y-82235000D03*
X118412500Y-83185000D03*
%TD*%
D11*
%TO.C,Q7*%
X112062500Y-82235000D03*
X112062500Y-84135000D03*
X110187500Y-83185000D03*
%TD*%
D12*
%TO.C,Q3*%
X98757500Y-84135000D03*
X98757500Y-82235000D03*
X100632500Y-83185000D03*
%TD*%
D11*
%TO.C,Q14*%
X129842500Y-86045000D03*
X129842500Y-87945000D03*
X127967500Y-86995000D03*
%TD*%
D12*
%TO.C,Q10*%
X116537500Y-87945000D03*
X116537500Y-86045000D03*
X118412500Y-86995000D03*
%TD*%
D11*
%TO.C,Q6*%
X112062500Y-86045000D03*
X112062500Y-87945000D03*
X110187500Y-86995000D03*
%TD*%
D12*
%TO.C,Q9*%
X116537500Y-91755000D03*
X116537500Y-89855000D03*
X118412500Y-90805000D03*
%TD*%
D11*
%TO.C,Q5*%
X112062500Y-89855000D03*
X112062500Y-91755000D03*
X110187500Y-90805000D03*
%TD*%
D12*
%TO.C,Q1*%
X98757500Y-91755000D03*
X98757500Y-89855000D03*
X100632500Y-90805000D03*
%TD*%
D11*
%TO.C,Q8*%
X112062500Y-78425000D03*
X112062500Y-80325000D03*
X110187500Y-79375000D03*
%TD*%
D13*
%TO.C,R8*%
X162663500Y-101600000D03*
X164488500Y-101600000D03*
%TD*%
%TO.C,R10*%
X140819500Y-87503000D03*
X142644500Y-87503000D03*
%TD*%
%TO.C,R9*%
X140819500Y-84963000D03*
X142644500Y-84963000D03*
%TD*%
%TO.C,R7*%
X140819500Y-77343000D03*
X142644500Y-77343000D03*
%TD*%
D14*
%TO.C,C17*%
X160655000Y-99060000D03*
X158755000Y-99060000D03*
%TD*%
D13*
%TO.C,R11*%
X140819500Y-79883000D03*
X142644500Y-79883000D03*
%TD*%
%TO.C,R12*%
X140819500Y-82423000D03*
X142644500Y-82423000D03*
%TD*%
D15*
%TO.C,C14*%
X109855000Y-104074000D03*
X109855000Y-102174000D03*
%TD*%
M02*
