%TF.GenerationSoftware,KiCad,Pcbnew,(5.1.6-0-10_14)*%
%TF.CreationDate,2020-11-11T01:37:45-06:00*%
%TF.ProjectId,kbxLEDController-16ch,6b62784c-4544-4436-9f6e-74726f6c6c65,rev?*%
%TF.SameCoordinates,Original*%
%TF.FileFunction,Copper,L1,Top*%
%TF.FilePolarity,Positive*%
%FSLAX46Y46*%
G04 Gerber Fmt 4.6, Leading zero omitted, Abs format (unit mm)*
G04 Created by KiCad (PCBNEW (5.1.6-0-10_14)) date 2020-11-11 01:37:45*
%MOMM*%
%LPD*%
G01*
G04 APERTURE LIST*
%TA.AperFunction,ComponentPad*%
%ADD10C,1.800000*%
%TD*%
%TA.AperFunction,ComponentPad*%
%ADD11O,1.700000X1.700000*%
%TD*%
%TA.AperFunction,ComponentPad*%
%ADD12R,1.700000X1.700000*%
%TD*%
%TA.AperFunction,ComponentPad*%
%ADD13C,4.400000*%
%TD*%
%TA.AperFunction,ComponentPad*%
%ADD14C,0.700000*%
%TD*%
%TA.AperFunction,SMDPad,CuDef*%
%ADD15R,2.000000X0.900000*%
%TD*%
%TA.AperFunction,SMDPad,CuDef*%
%ADD16R,0.900000X2.000000*%
%TD*%
%TA.AperFunction,SMDPad,CuDef*%
%ADD17R,5.000000X5.000000*%
%TD*%
%TA.AperFunction,SMDPad,CuDef*%
%ADD18R,1.000000X0.900000*%
%TD*%
%TA.AperFunction,ComponentPad*%
%ADD19R,3.500000X3.500000*%
%TD*%
%TA.AperFunction,ViaPad*%
%ADD20C,0.800000*%
%TD*%
%TA.AperFunction,ViaPad*%
%ADD21C,1.200000*%
%TD*%
%TA.AperFunction,ViaPad*%
%ADD22C,1.000000*%
%TD*%
%TA.AperFunction,Conductor*%
%ADD23C,0.650000*%
%TD*%
%TA.AperFunction,Conductor*%
%ADD24C,0.250000*%
%TD*%
%TA.AperFunction,Conductor*%
%ADD25C,0.400000*%
%TD*%
%TA.AperFunction,Conductor*%
%ADD26C,0.254000*%
%TD*%
G04 APERTURE END LIST*
%TO.P,C2,2*%
%TO.N,GND*%
%TA.AperFunction,SMDPad,CuDef*%
G36*
G01*
X134441250Y-75750000D02*
X133528750Y-75750000D01*
G75*
G02*
X133285000Y-75506250I0J243750D01*
G01*
X133285000Y-75018750D01*
G75*
G02*
X133528750Y-74775000I243750J0D01*
G01*
X134441250Y-74775000D01*
G75*
G02*
X134685000Y-75018750I0J-243750D01*
G01*
X134685000Y-75506250D01*
G75*
G02*
X134441250Y-75750000I-243750J0D01*
G01*
G37*
%TD.AperFunction*%
%TO.P,C2,1*%
%TO.N,+3V3*%
%TA.AperFunction,SMDPad,CuDef*%
G36*
G01*
X134441250Y-77625000D02*
X133528750Y-77625000D01*
G75*
G02*
X133285000Y-77381250I0J243750D01*
G01*
X133285000Y-76893750D01*
G75*
G02*
X133528750Y-76650000I243750J0D01*
G01*
X134441250Y-76650000D01*
G75*
G02*
X134685000Y-76893750I0J-243750D01*
G01*
X134685000Y-77381250D01*
G75*
G02*
X134441250Y-77625000I-243750J0D01*
G01*
G37*
%TD.AperFunction*%
%TD*%
%TO.P,U3,1*%
%TO.N,/GPI36*%
%TA.AperFunction,ComponentPad*%
G36*
G01*
X154675000Y-102249800D02*
X154675000Y-100950200D01*
G75*
G02*
X154925200Y-100700000I250200J0D01*
G01*
X156224800Y-100700000D01*
G75*
G02*
X156475000Y-100950200I0J-250200D01*
G01*
X156475000Y-102249800D01*
G75*
G02*
X156224800Y-102500000I-250200J0D01*
G01*
X154925200Y-102500000D01*
G75*
G02*
X154675000Y-102249800I0J250200D01*
G01*
G37*
%TD.AperFunction*%
D10*
%TO.P,U3,2*%
%TO.N,GND*%
X158115000Y-101600000D03*
%TO.P,U3,3*%
%TO.N,+3V3*%
X160655000Y-101600000D03*
%TD*%
D11*
%TO.P,J6,10*%
%TO.N,/GPIO0*%
X166370000Y-104775000D03*
%TO.P,J6,9*%
%TO.N,/GPIO2*%
X166370000Y-102235000D03*
%TO.P,J6,8*%
%TO.N,/GPIO4*%
X166370000Y-99695000D03*
%TO.P,J6,7*%
%TO.N,/GPIO5*%
X166370000Y-97155000D03*
%TO.P,J6,6*%
%TO.N,Net-(C7-Pad2)*%
X166370000Y-94615000D03*
%TO.P,J6,5*%
%TO.N,/GPIO1*%
X166370000Y-92075000D03*
%TO.P,J6,4*%
%TO.N,/GPIO3*%
X166370000Y-89535000D03*
%TO.P,J6,3*%
%TO.N,+3V3*%
X166370000Y-86995000D03*
%TO.P,J6,2*%
%TO.N,N/C*%
X166370000Y-84455000D03*
D12*
%TO.P,J6,1*%
%TO.N,GND*%
X166370000Y-81915000D03*
%TD*%
D13*
%TO.P,H4,1*%
%TO.N,GND*%
X165735000Y-109220000D03*
D14*
X167385000Y-109220000D03*
X166901726Y-110386726D03*
X165735000Y-110870000D03*
X164568274Y-110386726D03*
X164085000Y-109220000D03*
X164568274Y-108053274D03*
X165735000Y-107570000D03*
X166901726Y-108053274D03*
%TD*%
%TO.P,H3,1*%
%TO.N,GND*%
X100226726Y-108053274D03*
X99060000Y-107570000D03*
X97893274Y-108053274D03*
X97410000Y-109220000D03*
X97893274Y-110386726D03*
X99060000Y-110870000D03*
X100226726Y-110386726D03*
X100710000Y-109220000D03*
D13*
X99060000Y-109220000D03*
%TD*%
D14*
%TO.P,H2,1*%
%TO.N,GND*%
X166901726Y-76303274D03*
X165735000Y-75820000D03*
X164568274Y-76303274D03*
X164085000Y-77470000D03*
X164568274Y-78636726D03*
X165735000Y-79120000D03*
X166901726Y-78636726D03*
X167385000Y-77470000D03*
D13*
X165735000Y-77470000D03*
%TD*%
D14*
%TO.P,H1,1*%
%TO.N,GND*%
X106576726Y-76303274D03*
X105410000Y-75820000D03*
X104243274Y-76303274D03*
X103760000Y-77470000D03*
X104243274Y-78636726D03*
X105410000Y-79120000D03*
X106576726Y-78636726D03*
X107060000Y-77470000D03*
D13*
X105410000Y-77470000D03*
%TD*%
D15*
%TO.P,U1,38*%
%TO.N,GND*%
X156455000Y-75565000D03*
%TO.P,U1,37*%
%TO.N,/PWM_9*%
X156455000Y-76835000D03*
%TO.P,U1,36*%
%TO.N,/PWM_10*%
X156455000Y-78105000D03*
%TO.P,U1,35*%
%TO.N,/GPIO1*%
X156455000Y-79375000D03*
%TO.P,U1,34*%
%TO.N,/GPIO3*%
X156455000Y-80645000D03*
%TO.P,U1,33*%
%TO.N,/PWM_11*%
X156455000Y-81915000D03*
%TO.P,U1,32*%
%TO.N,N/C*%
X156455000Y-83185000D03*
%TO.P,U1,31*%
%TO.N,/PWM_12*%
X156455000Y-84455000D03*
%TO.P,U1,30*%
%TO.N,/PWM_5*%
X156455000Y-85725000D03*
%TO.P,U1,29*%
%TO.N,/GPIO5*%
X156455000Y-86995000D03*
%TO.P,U1,28*%
%TO.N,/PWM_1*%
X156455000Y-88265000D03*
%TO.P,U1,27*%
%TO.N,/PWM_6*%
X156455000Y-89535000D03*
%TO.P,U1,26*%
%TO.N,/GPIO4*%
X156455000Y-90805000D03*
%TO.P,U1,25*%
%TO.N,/GPIO0*%
X156455000Y-92075000D03*
D16*
%TO.P,U1,24*%
%TO.N,/GPIO2*%
X153670000Y-93075000D03*
%TO.P,U1,23*%
%TO.N,/PWM_2*%
X152400000Y-93075000D03*
%TO.P,U1,22*%
%TO.N,N/C*%
X151130000Y-93075000D03*
%TO.P,U1,21*%
X149860000Y-93075000D03*
%TO.P,U1,20*%
X148590000Y-93075000D03*
%TO.P,U1,19*%
X147320000Y-93075000D03*
%TO.P,U1,18*%
X146050000Y-93075000D03*
%TO.P,U1,17*%
X144780000Y-93075000D03*
%TO.P,U1,16*%
%TO.N,/PWM_7*%
X143510000Y-93075000D03*
%TO.P,U1,15*%
%TO.N,GND*%
X142240000Y-93075000D03*
D15*
%TO.P,U1,14*%
%TO.N,/PWM_3*%
X139455000Y-92075000D03*
%TO.P,U1,13*%
%TO.N,/PWM_4*%
X139455000Y-90805000D03*
%TO.P,U1,12*%
%TO.N,/PWM_8*%
X139455000Y-89535000D03*
%TO.P,U1,11*%
%TO.N,/PWM_13*%
X139455000Y-88265000D03*
%TO.P,U1,10*%
%TO.N,/PWM_14*%
X139455000Y-86995000D03*
%TO.P,U1,9*%
%TO.N,/PWM_15*%
X139455000Y-85725000D03*
%TO.P,U1,8*%
%TO.N,/PWM_16*%
X139455000Y-84455000D03*
%TO.P,U1,7*%
%TO.N,/GPI35*%
X139455000Y-83185000D03*
%TO.P,U1,6*%
%TO.N,/GPI34*%
X139455000Y-81915000D03*
%TO.P,U1,5*%
%TO.N,/GPI39*%
X139455000Y-80645000D03*
%TO.P,U1,4*%
%TO.N,/GPI36*%
X139455000Y-79375000D03*
%TO.P,U1,3*%
%TO.N,/~RESET*%
X139455000Y-78105000D03*
%TO.P,U1,2*%
%TO.N,+3V3*%
X139455000Y-76835000D03*
%TO.P,U1,1*%
%TO.N,GND*%
X139455000Y-75565000D03*
D17*
%TO.P,U1,39*%
X146955000Y-83065000D03*
%TD*%
D18*
%TO.P,SW6,1*%
%TO.N,/GPI39*%
X156375000Y-106535000D03*
%TO.P,SW6,2*%
%TO.N,GND*%
X154775000Y-106535000D03*
%TO.P,SW6,1*%
%TO.N,/GPI39*%
X156375000Y-110635000D03*
%TO.P,SW6,2*%
%TO.N,GND*%
X154775000Y-110635000D03*
%TD*%
%TO.P,SW5,1*%
%TO.N,/GPI36*%
X161455000Y-106535000D03*
%TO.P,SW5,2*%
%TO.N,GND*%
X159855000Y-106535000D03*
%TO.P,SW5,1*%
%TO.N,/GPI36*%
X161455000Y-110635000D03*
%TO.P,SW5,2*%
%TO.N,GND*%
X159855000Y-110635000D03*
%TD*%
%TO.P,SW4,1*%
%TO.N,/GPI35*%
X146215000Y-106535000D03*
%TO.P,SW4,2*%
%TO.N,GND*%
X144615000Y-106535000D03*
%TO.P,SW4,1*%
%TO.N,/GPI35*%
X146215000Y-110635000D03*
%TO.P,SW4,2*%
%TO.N,GND*%
X144615000Y-110635000D03*
%TD*%
%TO.P,SW3,1*%
%TO.N,/GPI34*%
X151295000Y-106535000D03*
%TO.P,SW3,2*%
%TO.N,GND*%
X149695000Y-106535000D03*
%TO.P,SW3,1*%
%TO.N,/GPI34*%
X151295000Y-110635000D03*
%TO.P,SW3,2*%
%TO.N,GND*%
X149695000Y-110635000D03*
%TD*%
%TO.P,SW2,1*%
%TO.N,/GPIO0*%
X141135000Y-106535000D03*
%TO.P,SW2,2*%
%TO.N,GND*%
X139535000Y-106535000D03*
%TO.P,SW2,1*%
%TO.N,/GPIO0*%
X141135000Y-110635000D03*
%TO.P,SW2,2*%
%TO.N,GND*%
X139535000Y-110635000D03*
%TD*%
%TO.P,SW1,1*%
%TO.N,/~RESET*%
X136055000Y-106535000D03*
%TO.P,SW1,2*%
%TO.N,GND*%
X134455000Y-106535000D03*
%TO.P,SW1,1*%
%TO.N,/~RESET*%
X136055000Y-110635000D03*
%TO.P,SW1,2*%
%TO.N,GND*%
X134455000Y-110635000D03*
%TD*%
%TO.P,R3,2*%
%TO.N,Net-(D4-Pad2)*%
%TA.AperFunction,SMDPad,CuDef*%
G36*
G01*
X130994999Y-106495000D02*
X131895001Y-106495000D01*
G75*
G02*
X132145000Y-106744999I0J-249999D01*
G01*
X132145000Y-107395001D01*
G75*
G02*
X131895001Y-107645000I-249999J0D01*
G01*
X130994999Y-107645000D01*
G75*
G02*
X130745000Y-107395001I0J249999D01*
G01*
X130745000Y-106744999D01*
G75*
G02*
X130994999Y-106495000I249999J0D01*
G01*
G37*
%TD.AperFunction*%
%TO.P,R3,1*%
%TO.N,+3V3*%
%TA.AperFunction,SMDPad,CuDef*%
G36*
G01*
X130994999Y-104445000D02*
X131895001Y-104445000D01*
G75*
G02*
X132145000Y-104694999I0J-249999D01*
G01*
X132145000Y-105345001D01*
G75*
G02*
X131895001Y-105595000I-249999J0D01*
G01*
X130994999Y-105595000D01*
G75*
G02*
X130745000Y-105345001I0J249999D01*
G01*
X130745000Y-104694999D01*
G75*
G02*
X130994999Y-104445000I249999J0D01*
G01*
G37*
%TD.AperFunction*%
%TD*%
%TO.P,R2,2*%
%TO.N,Net-(D3-Pad2)*%
%TA.AperFunction,SMDPad,CuDef*%
G36*
G01*
X127184999Y-106495000D02*
X128085001Y-106495000D01*
G75*
G02*
X128335000Y-106744999I0J-249999D01*
G01*
X128335000Y-107395001D01*
G75*
G02*
X128085001Y-107645000I-249999J0D01*
G01*
X127184999Y-107645000D01*
G75*
G02*
X126935000Y-107395001I0J249999D01*
G01*
X126935000Y-106744999D01*
G75*
G02*
X127184999Y-106495000I249999J0D01*
G01*
G37*
%TD.AperFunction*%
%TO.P,R2,1*%
%TO.N,+3V3*%
%TA.AperFunction,SMDPad,CuDef*%
G36*
G01*
X127184999Y-104445000D02*
X128085001Y-104445000D01*
G75*
G02*
X128335000Y-104694999I0J-249999D01*
G01*
X128335000Y-105345001D01*
G75*
G02*
X128085001Y-105595000I-249999J0D01*
G01*
X127184999Y-105595000D01*
G75*
G02*
X126935000Y-105345001I0J249999D01*
G01*
X126935000Y-104694999D01*
G75*
G02*
X127184999Y-104445000I249999J0D01*
G01*
G37*
%TD.AperFunction*%
%TD*%
%TO.P,R1,2*%
%TO.N,Net-(D2-Pad2)*%
%TA.AperFunction,SMDPad,CuDef*%
G36*
G01*
X123374999Y-106495000D02*
X124275001Y-106495000D01*
G75*
G02*
X124525000Y-106744999I0J-249999D01*
G01*
X124525000Y-107395001D01*
G75*
G02*
X124275001Y-107645000I-249999J0D01*
G01*
X123374999Y-107645000D01*
G75*
G02*
X123125000Y-107395001I0J249999D01*
G01*
X123125000Y-106744999D01*
G75*
G02*
X123374999Y-106495000I249999J0D01*
G01*
G37*
%TD.AperFunction*%
%TO.P,R1,1*%
%TO.N,Net-(C3-Pad1)*%
%TA.AperFunction,SMDPad,CuDef*%
G36*
G01*
X123374999Y-104445000D02*
X124275001Y-104445000D01*
G75*
G02*
X124525000Y-104694999I0J-249999D01*
G01*
X124525000Y-105345001D01*
G75*
G02*
X124275001Y-105595000I-249999J0D01*
G01*
X123374999Y-105595000D01*
G75*
G02*
X123125000Y-105345001I0J249999D01*
G01*
X123125000Y-104694999D01*
G75*
G02*
X123374999Y-104445000I249999J0D01*
G01*
G37*
%TD.AperFunction*%
%TD*%
D12*
%TO.P,J4,1*%
%TO.N,VDC*%
X125095000Y-92075000D03*
D11*
%TO.P,J4,2*%
%TO.N,/PWM_13_TERM*%
X125095000Y-89535000D03*
%TO.P,J4,3*%
%TO.N,/PWM_14_TERM*%
X125095000Y-86995000D03*
%TO.P,J4,4*%
%TO.N,/PWM_15_TERM*%
X125095000Y-84455000D03*
%TO.P,J4,5*%
%TO.N,/PWM_16_TERM*%
X125095000Y-81915000D03*
%TD*%
D12*
%TO.P,J3,1*%
%TO.N,VDC*%
X121285000Y-92075000D03*
D11*
%TO.P,J3,2*%
%TO.N,/PWM_9_TERM*%
X121285000Y-89535000D03*
%TO.P,J3,3*%
%TO.N,/PWM_10_TERM*%
X121285000Y-86995000D03*
%TO.P,J3,4*%
%TO.N,/PWM_11_TERM*%
X121285000Y-84455000D03*
%TO.P,J3,5*%
%TO.N,/PWM_12_TERM*%
X121285000Y-81915000D03*
%TD*%
%TO.P,J2,5*%
%TO.N,/PWM_8_TERM*%
X107315000Y-81915000D03*
%TO.P,J2,4*%
%TO.N,/PWM_7_TERM*%
X107315000Y-84455000D03*
%TO.P,J2,3*%
%TO.N,/PWM_6_TERM*%
X107315000Y-86995000D03*
%TO.P,J2,2*%
%TO.N,/PWM_5_TERM*%
X107315000Y-89535000D03*
D12*
%TO.P,J2,1*%
%TO.N,VDC*%
X107315000Y-92075000D03*
%TD*%
D11*
%TO.P,J1,5*%
%TO.N,/PWM_4_TERM*%
X103505000Y-81915000D03*
%TO.P,J1,4*%
%TO.N,/PWM_3_TERM*%
X103505000Y-84455000D03*
%TO.P,J1,3*%
%TO.N,/PWM_2_TERM*%
X103505000Y-86995000D03*
%TO.P,J1,2*%
%TO.N,/PWM_1_TERM*%
X103505000Y-89535000D03*
D12*
%TO.P,J1,1*%
%TO.N,VDC*%
X103505000Y-92075000D03*
%TD*%
D19*
%TO.P,J5,1*%
%TO.N,VDC*%
X112395000Y-100330000D03*
%TO.P,J5,2*%
%TO.N,GND*%
%TA.AperFunction,ComponentPad*%
G36*
G01*
X113395000Y-107830000D02*
X111395000Y-107830000D01*
G75*
G02*
X110645000Y-107080000I0J750000D01*
G01*
X110645000Y-105580000D01*
G75*
G02*
X111395000Y-104830000I750000J0D01*
G01*
X113395000Y-104830000D01*
G75*
G02*
X114145000Y-105580000I0J-750000D01*
G01*
X114145000Y-107080000D01*
G75*
G02*
X113395000Y-107830000I-750000J0D01*
G01*
G37*
%TD.AperFunction*%
%TO.P,J5,3*%
%TA.AperFunction,ComponentPad*%
G36*
G01*
X117970000Y-105080000D02*
X116220000Y-105080000D01*
G75*
G02*
X115345000Y-104205000I0J875000D01*
G01*
X115345000Y-102455000D01*
G75*
G02*
X116220000Y-101580000I875000J0D01*
G01*
X117970000Y-101580000D01*
G75*
G02*
X118845000Y-102455000I0J-875000D01*
G01*
X118845000Y-104205000D01*
G75*
G02*
X117970000Y-105080000I-875000J0D01*
G01*
G37*
%TD.AperFunction*%
%TD*%
%TO.P,D4,2*%
%TO.N,Net-(D4-Pad2)*%
%TA.AperFunction,SMDPad,CuDef*%
G36*
G01*
X131901250Y-109405000D02*
X130988750Y-109405000D01*
G75*
G02*
X130745000Y-109161250I0J243750D01*
G01*
X130745000Y-108673750D01*
G75*
G02*
X130988750Y-108430000I243750J0D01*
G01*
X131901250Y-108430000D01*
G75*
G02*
X132145000Y-108673750I0J-243750D01*
G01*
X132145000Y-109161250D01*
G75*
G02*
X131901250Y-109405000I-243750J0D01*
G01*
G37*
%TD.AperFunction*%
%TO.P,D4,1*%
%TO.N,/GPIO5*%
%TA.AperFunction,SMDPad,CuDef*%
G36*
G01*
X131901250Y-111280000D02*
X130988750Y-111280000D01*
G75*
G02*
X130745000Y-111036250I0J243750D01*
G01*
X130745000Y-110548750D01*
G75*
G02*
X130988750Y-110305000I243750J0D01*
G01*
X131901250Y-110305000D01*
G75*
G02*
X132145000Y-110548750I0J-243750D01*
G01*
X132145000Y-111036250D01*
G75*
G02*
X131901250Y-111280000I-243750J0D01*
G01*
G37*
%TD.AperFunction*%
%TD*%
%TO.P,D3,2*%
%TO.N,Net-(D3-Pad2)*%
%TA.AperFunction,SMDPad,CuDef*%
G36*
G01*
X128091250Y-109405000D02*
X127178750Y-109405000D01*
G75*
G02*
X126935000Y-109161250I0J243750D01*
G01*
X126935000Y-108673750D01*
G75*
G02*
X127178750Y-108430000I243750J0D01*
G01*
X128091250Y-108430000D01*
G75*
G02*
X128335000Y-108673750I0J-243750D01*
G01*
X128335000Y-109161250D01*
G75*
G02*
X128091250Y-109405000I-243750J0D01*
G01*
G37*
%TD.AperFunction*%
%TO.P,D3,1*%
%TO.N,GND*%
%TA.AperFunction,SMDPad,CuDef*%
G36*
G01*
X128091250Y-111280000D02*
X127178750Y-111280000D01*
G75*
G02*
X126935000Y-111036250I0J243750D01*
G01*
X126935000Y-110548750D01*
G75*
G02*
X127178750Y-110305000I243750J0D01*
G01*
X128091250Y-110305000D01*
G75*
G02*
X128335000Y-110548750I0J-243750D01*
G01*
X128335000Y-111036250D01*
G75*
G02*
X128091250Y-111280000I-243750J0D01*
G01*
G37*
%TD.AperFunction*%
%TD*%
%TO.P,D2,2*%
%TO.N,Net-(D2-Pad2)*%
%TA.AperFunction,SMDPad,CuDef*%
G36*
G01*
X124281250Y-109405000D02*
X123368750Y-109405000D01*
G75*
G02*
X123125000Y-109161250I0J243750D01*
G01*
X123125000Y-108673750D01*
G75*
G02*
X123368750Y-108430000I243750J0D01*
G01*
X124281250Y-108430000D01*
G75*
G02*
X124525000Y-108673750I0J-243750D01*
G01*
X124525000Y-109161250D01*
G75*
G02*
X124281250Y-109405000I-243750J0D01*
G01*
G37*
%TD.AperFunction*%
%TO.P,D2,1*%
%TO.N,GND*%
%TA.AperFunction,SMDPad,CuDef*%
G36*
G01*
X124281250Y-111280000D02*
X123368750Y-111280000D01*
G75*
G02*
X123125000Y-111036250I0J243750D01*
G01*
X123125000Y-110548750D01*
G75*
G02*
X123368750Y-110305000I243750J0D01*
G01*
X124281250Y-110305000D01*
G75*
G02*
X124525000Y-110548750I0J-243750D01*
G01*
X124525000Y-111036250D01*
G75*
G02*
X124281250Y-111280000I-243750J0D01*
G01*
G37*
%TD.AperFunction*%
%TD*%
%TO.P,C3,2*%
%TO.N,GND*%
%TA.AperFunction,SMDPad,CuDef*%
G36*
G01*
X128185000Y-99195000D02*
X127085000Y-99195000D01*
G75*
G02*
X126835000Y-98945000I0J250000D01*
G01*
X126835000Y-96845000D01*
G75*
G02*
X127085000Y-96595000I250000J0D01*
G01*
X128185000Y-96595000D01*
G75*
G02*
X128435000Y-96845000I0J-250000D01*
G01*
X128435000Y-98945000D01*
G75*
G02*
X128185000Y-99195000I-250000J0D01*
G01*
G37*
%TD.AperFunction*%
%TO.P,C3,1*%
%TO.N,Net-(C3-Pad1)*%
%TA.AperFunction,SMDPad,CuDef*%
G36*
G01*
X128185000Y-102795000D02*
X127085000Y-102795000D01*
G75*
G02*
X126835000Y-102545000I0J250000D01*
G01*
X126835000Y-100445000D01*
G75*
G02*
X127085000Y-100195000I250000J0D01*
G01*
X128185000Y-100195000D01*
G75*
G02*
X128435000Y-100445000I0J-250000D01*
G01*
X128435000Y-102545000D01*
G75*
G02*
X128185000Y-102795000I-250000J0D01*
G01*
G37*
%TD.AperFunction*%
%TD*%
%TO.P,C1,2*%
%TO.N,GND*%
%TA.AperFunction,SMDPad,CuDef*%
G36*
G01*
X136981250Y-75750000D02*
X136068750Y-75750000D01*
G75*
G02*
X135825000Y-75506250I0J243750D01*
G01*
X135825000Y-75018750D01*
G75*
G02*
X136068750Y-74775000I243750J0D01*
G01*
X136981250Y-74775000D01*
G75*
G02*
X137225000Y-75018750I0J-243750D01*
G01*
X137225000Y-75506250D01*
G75*
G02*
X136981250Y-75750000I-243750J0D01*
G01*
G37*
%TD.AperFunction*%
%TO.P,C1,1*%
%TO.N,+3V3*%
%TA.AperFunction,SMDPad,CuDef*%
G36*
G01*
X136981250Y-77625000D02*
X136068750Y-77625000D01*
G75*
G02*
X135825000Y-77381250I0J243750D01*
G01*
X135825000Y-76893750D01*
G75*
G02*
X136068750Y-76650000I243750J0D01*
G01*
X136981250Y-76650000D01*
G75*
G02*
X137225000Y-76893750I0J-243750D01*
G01*
X137225000Y-77381250D01*
G75*
G02*
X136981250Y-77625000I-243750J0D01*
G01*
G37*
%TD.AperFunction*%
%TD*%
%TO.P,C6,1*%
%TO.N,/~RESET*%
%TA.AperFunction,SMDPad,CuDef*%
G36*
G01*
X136680000Y-103048750D02*
X136680000Y-103961250D01*
G75*
G02*
X136436250Y-104205000I-243750J0D01*
G01*
X135948750Y-104205000D01*
G75*
G02*
X135705000Y-103961250I0J243750D01*
G01*
X135705000Y-103048750D01*
G75*
G02*
X135948750Y-102805000I243750J0D01*
G01*
X136436250Y-102805000D01*
G75*
G02*
X136680000Y-103048750I0J-243750D01*
G01*
G37*
%TD.AperFunction*%
%TO.P,C6,2*%
%TO.N,GND*%
%TA.AperFunction,SMDPad,CuDef*%
G36*
G01*
X134805000Y-103048750D02*
X134805000Y-103961250D01*
G75*
G02*
X134561250Y-104205000I-243750J0D01*
G01*
X134073750Y-104205000D01*
G75*
G02*
X133830000Y-103961250I0J243750D01*
G01*
X133830000Y-103048750D01*
G75*
G02*
X134073750Y-102805000I243750J0D01*
G01*
X134561250Y-102805000D01*
G75*
G02*
X134805000Y-103048750I0J-243750D01*
G01*
G37*
%TD.AperFunction*%
%TD*%
D20*
%TO.N,GND*%
X114300000Y-89535000D03*
X114300000Y-86360000D03*
X137795000Y-93345000D03*
X133985000Y-75565000D03*
X127635000Y-94615000D03*
X146685000Y-89535000D03*
X153035000Y-89535000D03*
X153035000Y-76835000D03*
X146685000Y-76835000D03*
X148590000Y-103505000D03*
X130175000Y-97155000D03*
X127635000Y-97155000D03*
%TO.N,/~RESET*%
X141986000Y-78994000D03*
X142621000Y-103505000D03*
D21*
%TO.N,+3V3*%
X140970000Y-76835000D03*
D20*
X131673600Y-99669600D03*
%TO.N,/GPIO5*%
X158496000Y-87757000D03*
X162433000Y-107696000D03*
X132334000Y-110109000D03*
%TO.N,/GPIO1*%
X159512000Y-81026000D03*
%TO.N,/GPIO3*%
X160401000Y-83312000D03*
%TO.N,/PWM_1*%
X99631500Y-91757500D03*
%TO.N,/PWM_5*%
X110363000Y-88773000D03*
%TO.N,/PWM_9*%
X117411500Y-91757500D03*
%TO.N,/PWM_13*%
X135001000Y-88646000D03*
%TO.N,/PWM_2*%
X99631500Y-87947500D03*
%TO.N,/PWM_6*%
X111188500Y-85280500D03*
%TO.N,/PWM_10*%
X117411500Y-87947500D03*
%TO.N,/PWM_14*%
X132969000Y-85471000D03*
%TO.N,/PWM_3*%
X99631500Y-84137500D03*
%TO.N,/PWM_7*%
X111188500Y-82232500D03*
%TO.N,/PWM_11*%
X118491000Y-85471000D03*
%TO.N,/PWM_15*%
X132207000Y-82232500D03*
%TO.N,/PWM_4*%
X99631500Y-80327500D03*
%TO.N,/PWM_8*%
X111188500Y-78422500D03*
%TO.N,/PWM_12*%
X118491000Y-81661000D03*
%TO.N,/PWM_16*%
X131000500Y-78422500D03*
%TO.N,/GPI34*%
X142645029Y-84820828D03*
X151257000Y-105664000D03*
%TO.N,/GPI35*%
X142591411Y-87412957D03*
X146177000Y-105664000D03*
%TO.N,/GPI36*%
X142875000Y-79502000D03*
%TO.N,/GPI39*%
X142621000Y-82169000D03*
X156337000Y-105664000D03*
%TO.N,/GPIO0*%
X156337000Y-93091000D03*
X141135000Y-109309000D03*
%TO.N,/GPIO4*%
X154686000Y-88900000D03*
%TO.N,/GPIO2*%
X153670000Y-91694000D03*
D22*
%TO.N,Net-(C3-Pad1)*%
X127635000Y-102235000D03*
X126365000Y-102235000D03*
%TD*%
D23*
%TO.N,GND*%
X136525000Y-75262500D02*
X137619500Y-75262500D01*
X137922000Y-75565000D02*
X139455000Y-75565000D01*
X137619500Y-75262500D02*
X137922000Y-75565000D01*
D24*
%TO.N,/~RESET*%
X141097000Y-78105000D02*
X141986000Y-78994000D01*
X139455000Y-78105000D02*
X141097000Y-78105000D01*
X136192500Y-103505000D02*
X136192500Y-103329500D01*
X136055000Y-106535000D02*
X136055000Y-103642500D01*
X136055000Y-103642500D02*
X136192500Y-103505000D01*
X136055000Y-110635000D02*
X136055000Y-106535000D01*
X142621000Y-103505000D02*
X136192500Y-103505000D01*
D23*
%TO.N,+3V3*%
X136525000Y-77137500D02*
X137619500Y-77137500D01*
X140970000Y-76835000D02*
X139455000Y-76835000D01*
X137619500Y-77137500D02*
X137922000Y-76835000D01*
X137922000Y-76835000D02*
X139455000Y-76835000D01*
D25*
X160655000Y-101600000D02*
X164846000Y-97409000D01*
X164846000Y-88519000D02*
X166370000Y-86995000D01*
X164846000Y-97409000D02*
X164846000Y-88519000D01*
D23*
X136525000Y-77137500D02*
X133985000Y-77137500D01*
D24*
X127635000Y-105020000D02*
X131445000Y-105020000D01*
X131673600Y-104791400D02*
X131445000Y-105020000D01*
X131673600Y-99669600D02*
X131673600Y-104791400D01*
%TO.N,Net-(D2-Pad2)*%
X123825000Y-107070000D02*
X123825000Y-108917500D01*
%TO.N,Net-(D3-Pad2)*%
X127635000Y-108917500D02*
X127635000Y-107070000D01*
%TO.N,Net-(D4-Pad2)*%
X131445000Y-107070000D02*
X131445000Y-108917500D01*
%TO.N,/GPIO5*%
X157734000Y-86995000D02*
X158496000Y-87757000D01*
X156455000Y-86995000D02*
X157734000Y-86995000D01*
X166370000Y-97155000D02*
X164973000Y-98552000D01*
X164973000Y-98552000D02*
X164973000Y-103251000D01*
X164973000Y-105156000D02*
X162433000Y-107696000D01*
X164973000Y-103251000D02*
X164973000Y-105156000D01*
X131650500Y-110792500D02*
X132334000Y-110109000D01*
X131445000Y-110792500D02*
X131650500Y-110792500D01*
%TO.N,/GPIO1*%
X157861000Y-79375000D02*
X156455000Y-79375000D01*
X159512000Y-81026000D02*
X157861000Y-79375000D01*
%TO.N,/GPIO3*%
X157734000Y-80645000D02*
X160401000Y-83312000D01*
X156455000Y-80645000D02*
X157734000Y-80645000D01*
%TO.N,/PWM_1*%
X158750000Y-92710000D02*
X158750000Y-89310000D01*
X154940000Y-96520000D02*
X158750000Y-92710000D01*
X136398000Y-96520000D02*
X154940000Y-96520000D01*
X158750000Y-89310000D02*
X157705000Y-88265000D01*
X128905000Y-89027000D02*
X136398000Y-96520000D01*
X128905000Y-87884000D02*
X128905000Y-89027000D01*
X128270000Y-87249000D02*
X128905000Y-87884000D01*
X157705000Y-88265000D02*
X156455000Y-88265000D01*
X109728000Y-88265000D02*
X117983000Y-80010000D01*
X125857000Y-80010000D02*
X127635000Y-81788000D01*
X127635000Y-84963000D02*
X128270000Y-85598000D01*
X127635000Y-81788000D02*
X127635000Y-84963000D01*
X128270000Y-85598000D02*
X128270000Y-87249000D01*
X117983000Y-80010000D02*
X125857000Y-80010000D01*
X102235000Y-88265000D02*
X109728000Y-88265000D01*
X99631500Y-90868500D02*
X102235000Y-88265000D01*
X99631500Y-91757500D02*
X99631500Y-90868500D01*
%TO.N,/PWM_5*%
X157705000Y-85725000D02*
X156455000Y-85725000D01*
X159385000Y-87405000D02*
X157705000Y-85725000D01*
X159385000Y-92964000D02*
X159385000Y-87405000D01*
X155194000Y-97155000D02*
X159385000Y-92964000D01*
X136144000Y-97155000D02*
X155194000Y-97155000D01*
X128270000Y-88138000D02*
X128270000Y-89281000D01*
X127635000Y-87503000D02*
X128270000Y-88138000D01*
X127635000Y-85852000D02*
X127635000Y-87503000D01*
X127000000Y-85217000D02*
X127635000Y-85852000D01*
X127000000Y-82042000D02*
X127000000Y-85217000D01*
X118364000Y-80645000D02*
X125603000Y-80645000D01*
X110871000Y-88138000D02*
X118364000Y-80645000D01*
X125603000Y-80645000D02*
X127000000Y-82042000D01*
X110363000Y-88773000D02*
X110871000Y-88265000D01*
X110871000Y-88265000D02*
X110871000Y-88138000D01*
X128270000Y-89281000D02*
X136144000Y-97155000D01*
%TO.N,/PWM_9*%
X157705000Y-76835000D02*
X156455000Y-76835000D01*
X161925000Y-81055000D02*
X157705000Y-76835000D01*
X118364000Y-90805000D02*
X126200002Y-90805000D01*
X135090002Y-99695000D02*
X156210000Y-99695000D01*
X161925000Y-93980000D02*
X161925000Y-81055000D01*
X126200002Y-90805000D02*
X135090002Y-99695000D01*
X156210000Y-99695000D02*
X161925000Y-93980000D01*
X117411500Y-91757500D02*
X118364000Y-90805000D01*
%TO.N,/PWM_13*%
X135382000Y-88265000D02*
X135001000Y-88646000D01*
X139455000Y-88265000D02*
X135382000Y-88265000D01*
%TO.N,/PWM_2*%
X152400000Y-94325000D02*
X152400000Y-93075000D01*
X151475000Y-95250000D02*
X152400000Y-94325000D01*
X136906000Y-95250000D02*
X151475000Y-95250000D01*
X130175000Y-88519000D02*
X136906000Y-95250000D01*
X129540000Y-86741000D02*
X130175000Y-87376000D01*
X130175000Y-87376000D02*
X130175000Y-88519000D01*
X101854000Y-85725000D02*
X109220000Y-85725000D01*
X128905000Y-81280000D02*
X128905000Y-84455000D01*
X129540000Y-85090000D02*
X129540000Y-86741000D01*
X128905000Y-84455000D02*
X129540000Y-85090000D01*
X116205000Y-78740000D02*
X126365000Y-78740000D01*
X126365000Y-78740000D02*
X128905000Y-81280000D01*
X109220000Y-85725000D02*
X116205000Y-78740000D01*
X99631500Y-87947500D02*
X101854000Y-85725000D01*
%TO.N,/PWM_6*%
X158115000Y-92450002D02*
X158115000Y-89945000D01*
X157705000Y-89535000D02*
X156455000Y-89535000D01*
X136652000Y-95885000D02*
X154680002Y-95885000D01*
X128905000Y-86995000D02*
X129540000Y-87630000D01*
X129540000Y-87630000D02*
X129540000Y-88773000D01*
X154680002Y-95885000D02*
X158115000Y-92450002D01*
X128905000Y-85344000D02*
X128905000Y-86995000D01*
X129540000Y-88773000D02*
X136652000Y-95885000D01*
X128270000Y-84709000D02*
X128905000Y-85344000D01*
X126111000Y-79375000D02*
X128270000Y-81534000D01*
X128270000Y-81534000D02*
X128270000Y-84709000D01*
X117094000Y-79375000D02*
X126111000Y-79375000D01*
X158115000Y-89945000D02*
X157705000Y-89535000D01*
X111188500Y-85280500D02*
X117094000Y-79375000D01*
%TO.N,/PWM_10*%
X161290000Y-81690000D02*
X157705000Y-78105000D01*
X157705000Y-78105000D02*
X156455000Y-78105000D01*
X161290000Y-93726000D02*
X161290000Y-81690000D01*
X155956000Y-99060000D02*
X161290000Y-93726000D01*
X126365000Y-90043000D02*
X135382000Y-99060000D01*
X135382000Y-99060000D02*
X155956000Y-99060000D01*
X118427500Y-87947500D02*
X118789999Y-88309999D01*
X118789999Y-88309999D02*
X125774999Y-88309999D01*
X125774999Y-88309999D02*
X126365000Y-88900000D01*
X126365000Y-88900000D02*
X126365000Y-90043000D01*
X117411500Y-87947500D02*
X118427500Y-87947500D01*
%TO.N,/PWM_14*%
X134493000Y-86995000D02*
X139455000Y-86995000D01*
X132969000Y-85471000D02*
X134493000Y-86995000D01*
%TO.N,/PWM_3*%
X100584000Y-83185000D02*
X99631500Y-84137500D01*
X130175000Y-83947000D02*
X130175000Y-80772000D01*
X114554000Y-77470000D02*
X108839000Y-83185000D01*
X130175000Y-80772000D02*
X126873000Y-77470000D01*
X135509000Y-92075000D02*
X131445000Y-88011000D01*
X131445000Y-86868000D02*
X130810000Y-86233000D01*
X131445000Y-88011000D02*
X131445000Y-86868000D01*
X130810000Y-84582000D02*
X130175000Y-83947000D01*
X126873000Y-77470000D02*
X114554000Y-77470000D01*
X130810000Y-86233000D02*
X130810000Y-84582000D01*
X108839000Y-83185000D02*
X100584000Y-83185000D01*
X139455000Y-92075000D02*
X135509000Y-92075000D01*
%TO.N,/PWM_7*%
X143510000Y-94325000D02*
X143220000Y-94615000D01*
X143510000Y-93075000D02*
X143510000Y-94325000D01*
X115316000Y-78105000D02*
X111188500Y-82232500D01*
X126619000Y-78105000D02*
X115316000Y-78105000D01*
X130175000Y-84836000D02*
X129540000Y-84201000D01*
X130810000Y-87122000D02*
X130175000Y-86487000D01*
X129540000Y-84201000D02*
X129540000Y-81026000D01*
X130175000Y-86487000D02*
X130175000Y-84836000D01*
X130810000Y-88265000D02*
X130810000Y-87122000D01*
X129540000Y-81026000D02*
X126619000Y-78105000D01*
X137160000Y-94615000D02*
X130810000Y-88265000D01*
X137160000Y-94615000D02*
X143220000Y-94615000D01*
%TO.N,/PWM_11*%
X160655000Y-84865000D02*
X157705000Y-81915000D01*
X127000000Y-88646000D02*
X127000000Y-89789000D01*
X160655000Y-93472000D02*
X160655000Y-84865000D01*
X127000000Y-89789000D02*
X135636000Y-98425000D01*
X126365000Y-88011000D02*
X127000000Y-88646000D01*
X125685001Y-85680001D02*
X126365000Y-86360000D01*
X126365000Y-86360000D02*
X126365000Y-88011000D01*
X155702000Y-98425000D02*
X160655000Y-93472000D01*
X118491000Y-85471000D02*
X120015000Y-85471000D01*
X157705000Y-81915000D02*
X156455000Y-81915000D01*
X120224001Y-85680001D02*
X125685001Y-85680001D01*
X135636000Y-98425000D02*
X155702000Y-98425000D01*
X120015000Y-85471000D02*
X120224001Y-85680001D01*
%TO.N,/PWM_15*%
X135699500Y-85725000D02*
X139455000Y-85725000D01*
X132207000Y-82232500D02*
X135699500Y-85725000D01*
%TO.N,/PWM_4*%
X113919000Y-76835000D02*
X110426500Y-80327500D01*
X127127000Y-76835000D02*
X113919000Y-76835000D01*
X110426500Y-80327500D02*
X99631500Y-80327500D01*
X130810000Y-80518000D02*
X127127000Y-76835000D01*
X130810000Y-83693000D02*
X130810000Y-80518000D01*
X131445000Y-84328000D02*
X130810000Y-83693000D01*
X132080000Y-87757000D02*
X132080000Y-86614000D01*
X131445000Y-85979000D02*
X131445000Y-84328000D01*
X132080000Y-86614000D02*
X131445000Y-85979000D01*
X135128000Y-90805000D02*
X132080000Y-87757000D01*
X139455000Y-90805000D02*
X135128000Y-90805000D01*
%TO.N,/PWM_8*%
X131445000Y-80264000D02*
X127381000Y-76200000D01*
X132080000Y-84074000D02*
X131445000Y-83439000D01*
X132080000Y-85725000D02*
X132080000Y-84074000D01*
X113411000Y-76200000D02*
X111188500Y-78422500D01*
X132715000Y-86360000D02*
X132080000Y-85725000D01*
X127381000Y-76200000D02*
X113411000Y-76200000D01*
X134747000Y-89535000D02*
X132715000Y-87503000D01*
X131445000Y-83439000D02*
X131445000Y-80264000D01*
X132715000Y-87503000D02*
X132715000Y-86360000D01*
X139455000Y-89535000D02*
X134747000Y-89535000D01*
%TO.N,/PWM_12*%
X157705000Y-84455000D02*
X156455000Y-84455000D01*
X160020000Y-93218000D02*
X160020000Y-86770000D01*
X135890000Y-97790000D02*
X155448000Y-97790000D01*
X155448000Y-97790000D02*
X160020000Y-93218000D01*
X160020000Y-86770000D02*
X157705000Y-84455000D01*
X127000000Y-86106000D02*
X127000000Y-87757000D01*
X127000000Y-87757000D02*
X127635000Y-88392000D01*
X126365000Y-85471000D02*
X127000000Y-86106000D01*
X127635000Y-89535000D02*
X135890000Y-97790000D01*
X127635000Y-88392000D02*
X127635000Y-89535000D01*
X126365000Y-83820000D02*
X126365000Y-85471000D01*
X125730000Y-83185000D02*
X126365000Y-83820000D01*
X120015000Y-83185000D02*
X125730000Y-83185000D01*
X118491000Y-81661000D02*
X120015000Y-83185000D01*
%TO.N,/PWM_16*%
X132080000Y-79502000D02*
X131000500Y-78422500D01*
X135890000Y-84455000D02*
X132080000Y-80645000D01*
X132080000Y-80645000D02*
X132080000Y-79502000D01*
X139455000Y-84455000D02*
X135890000Y-84455000D01*
%TO.N,/GPI34*%
X139455000Y-81915000D02*
X141224000Y-81915000D01*
X142645029Y-83336029D02*
X142645029Y-84820828D01*
X141224000Y-81915000D02*
X142645029Y-83336029D01*
X151295000Y-110635000D02*
X151295000Y-106535000D01*
X151257000Y-106497000D02*
X151295000Y-106535000D01*
X151257000Y-105664000D02*
X151257000Y-106497000D01*
%TO.N,/GPI35*%
X140705000Y-83185000D02*
X141859000Y-84339000D01*
X139455000Y-83185000D02*
X140705000Y-83185000D01*
X141859000Y-86680546D02*
X142591411Y-87412957D01*
X141859000Y-84339000D02*
X141859000Y-86680546D01*
X146177000Y-106497000D02*
X146215000Y-106535000D01*
X146177000Y-105664000D02*
X146177000Y-106497000D01*
X146215000Y-106535000D02*
X146215000Y-110635000D01*
%TO.N,/GPI36*%
X139455000Y-79375000D02*
X141097000Y-79375000D01*
X141097000Y-79375000D02*
X141605000Y-79883000D01*
X142494000Y-79883000D02*
X142875000Y-79502000D01*
X141605000Y-79883000D02*
X142494000Y-79883000D01*
X161455000Y-110635000D02*
X161455000Y-106535000D01*
X155575000Y-101600000D02*
X157861000Y-103886000D01*
X157861000Y-103886000D02*
X159512000Y-103886000D01*
X161455000Y-105829000D02*
X161455000Y-106535000D01*
X159512000Y-103886000D02*
X161455000Y-105829000D01*
%TO.N,/GPI39*%
X141097000Y-80645000D02*
X142621000Y-82169000D01*
X139455000Y-80645000D02*
X141097000Y-80645000D01*
X156375000Y-110635000D02*
X156375000Y-106535000D01*
X156337000Y-106497000D02*
X156375000Y-106535000D01*
X156337000Y-105664000D02*
X156337000Y-106497000D01*
%TO.N,/GPIO0*%
X156337000Y-92193000D02*
X156455000Y-92075000D01*
X156337000Y-93091000D02*
X156337000Y-92193000D01*
X141135000Y-109309000D02*
X141135000Y-110635000D01*
X141135000Y-106535000D02*
X141135000Y-109309000D01*
%TO.N,/GPIO4*%
X156455000Y-90805000D02*
X155702000Y-90805000D01*
X154686000Y-89789000D02*
X154686000Y-88900000D01*
X155702000Y-90805000D02*
X154686000Y-89789000D01*
%TO.N,/GPIO2*%
X153670000Y-93075000D02*
X153670000Y-91694000D01*
%TO.N,Net-(C3-Pad1)*%
X123825000Y-104775000D02*
X126365000Y-102235000D01*
X123825000Y-105020000D02*
X123825000Y-104775000D01*
%TD*%
D26*
%TO.N,GND*%
G36*
X132650000Y-74976750D02*
G01*
X132808750Y-75135500D01*
X133858000Y-75135500D01*
X133858000Y-75115500D01*
X134112000Y-75115500D01*
X134112000Y-75135500D01*
X135161250Y-75135500D01*
X135255000Y-75041750D01*
X135348750Y-75135500D01*
X136398000Y-75135500D01*
X136398000Y-75115500D01*
X136652000Y-75115500D01*
X136652000Y-75135500D01*
X136672000Y-75135500D01*
X136672000Y-75389500D01*
X136652000Y-75389500D01*
X136652000Y-75409500D01*
X136398000Y-75409500D01*
X136398000Y-75389500D01*
X135348750Y-75389500D01*
X135255000Y-75483250D01*
X135161250Y-75389500D01*
X134112000Y-75389500D01*
X134112000Y-75409500D01*
X133858000Y-75409500D01*
X133858000Y-75389500D01*
X132808750Y-75389500D01*
X132650000Y-75548250D01*
X132646928Y-75750000D01*
X132659188Y-75874482D01*
X132695498Y-75994180D01*
X132754463Y-76104494D01*
X132833815Y-76201185D01*
X132911564Y-76264992D01*
X132905208Y-76270208D01*
X132795542Y-76403836D01*
X132714053Y-76556291D01*
X132663872Y-76721715D01*
X132646928Y-76893750D01*
X132646928Y-77381250D01*
X132663872Y-77553285D01*
X132714053Y-77718709D01*
X132795542Y-77871164D01*
X132905208Y-78004792D01*
X133038836Y-78114458D01*
X133191291Y-78195947D01*
X133356715Y-78246128D01*
X133528750Y-78263072D01*
X134441250Y-78263072D01*
X134613285Y-78246128D01*
X134778709Y-78195947D01*
X134931164Y-78114458D01*
X134951827Y-78097500D01*
X135558173Y-78097500D01*
X135578836Y-78114458D01*
X135731291Y-78195947D01*
X135896715Y-78246128D01*
X136068750Y-78263072D01*
X136981250Y-78263072D01*
X137153285Y-78246128D01*
X137318709Y-78195947D01*
X137471164Y-78114458D01*
X137491827Y-78097500D01*
X137572348Y-78097500D01*
X137619500Y-78102144D01*
X137666652Y-78097500D01*
X137666662Y-78097500D01*
X137807693Y-78083610D01*
X137816928Y-78080809D01*
X137816928Y-78555000D01*
X137829188Y-78679482D01*
X137847546Y-78740000D01*
X137829188Y-78800518D01*
X137816928Y-78925000D01*
X137816928Y-79825000D01*
X137829188Y-79949482D01*
X137847546Y-80010000D01*
X137829188Y-80070518D01*
X137816928Y-80195000D01*
X137816928Y-81095000D01*
X137829188Y-81219482D01*
X137847546Y-81279999D01*
X137829188Y-81340518D01*
X137816928Y-81465000D01*
X137816928Y-82365000D01*
X137829188Y-82489482D01*
X137847546Y-82550000D01*
X137829188Y-82610518D01*
X137816928Y-82735000D01*
X137816928Y-83635000D01*
X137822837Y-83695000D01*
X136204802Y-83695000D01*
X132840000Y-80330199D01*
X132840000Y-79539333D01*
X132843677Y-79502000D01*
X132829003Y-79353014D01*
X132785546Y-79209753D01*
X132714974Y-79077724D01*
X132656263Y-79006185D01*
X132620001Y-78961999D01*
X132591003Y-78938201D01*
X132035500Y-78382699D01*
X132035500Y-78320561D01*
X131995726Y-78120602D01*
X131917705Y-77932244D01*
X131804437Y-77762726D01*
X131660274Y-77618563D01*
X131490756Y-77505295D01*
X131302398Y-77427274D01*
X131102439Y-77387500D01*
X130898561Y-77387500D01*
X130698602Y-77427274D01*
X130510244Y-77505295D01*
X130340726Y-77618563D01*
X130196563Y-77762726D01*
X130125252Y-77869451D01*
X127944804Y-75689003D01*
X127921001Y-75659999D01*
X127805276Y-75565026D01*
X127673247Y-75494454D01*
X127529986Y-75450997D01*
X127418333Y-75440000D01*
X127418322Y-75440000D01*
X127381000Y-75436324D01*
X127343678Y-75440000D01*
X113448325Y-75440000D01*
X113411000Y-75436324D01*
X113373675Y-75440000D01*
X113373667Y-75440000D01*
X113262014Y-75450997D01*
X113118753Y-75494454D01*
X112986724Y-75565026D01*
X112870999Y-75659999D01*
X112847201Y-75688997D01*
X111148699Y-77387500D01*
X111086561Y-77387500D01*
X110886602Y-77427274D01*
X110698244Y-77505295D01*
X110528726Y-77618563D01*
X110384563Y-77762726D01*
X110271295Y-77932244D01*
X110193274Y-78120602D01*
X110153500Y-78320561D01*
X110153500Y-78524439D01*
X110193274Y-78724398D01*
X110271295Y-78912756D01*
X110384563Y-79082274D01*
X110490744Y-79188455D01*
X110111699Y-79567500D01*
X100335211Y-79567500D01*
X100291274Y-79523563D01*
X100121756Y-79410295D01*
X99933398Y-79332274D01*
X99733439Y-79292500D01*
X99529561Y-79292500D01*
X99329602Y-79332274D01*
X99141244Y-79410295D01*
X98971726Y-79523563D01*
X98827563Y-79667726D01*
X98714295Y-79837244D01*
X98636274Y-80025602D01*
X98596500Y-80225561D01*
X98596500Y-80429439D01*
X98636274Y-80629398D01*
X98714295Y-80817756D01*
X98827563Y-80987274D01*
X98971726Y-81131437D01*
X99141244Y-81244705D01*
X99329602Y-81322726D01*
X99529561Y-81362500D01*
X99733439Y-81362500D01*
X99933398Y-81322726D01*
X100121756Y-81244705D01*
X100291274Y-81131437D01*
X100335211Y-81087500D01*
X102271924Y-81087500D01*
X102189010Y-81211589D01*
X102077068Y-81481842D01*
X102020000Y-81768740D01*
X102020000Y-82061260D01*
X102077068Y-82348158D01*
X102108897Y-82425000D01*
X100621322Y-82425000D01*
X100583999Y-82421324D01*
X100546676Y-82425000D01*
X100546667Y-82425000D01*
X100435014Y-82435997D01*
X100291753Y-82479454D01*
X100159724Y-82550026D01*
X100143685Y-82563189D01*
X100072996Y-82621201D01*
X100072992Y-82621205D01*
X100043999Y-82644999D01*
X100020205Y-82673992D01*
X99591698Y-83102500D01*
X99529561Y-83102500D01*
X99329602Y-83142274D01*
X99141244Y-83220295D01*
X98971726Y-83333563D01*
X98827563Y-83477726D01*
X98714295Y-83647244D01*
X98636274Y-83835602D01*
X98596500Y-84035561D01*
X98596500Y-84239439D01*
X98636274Y-84439398D01*
X98714295Y-84627756D01*
X98827563Y-84797274D01*
X98971726Y-84941437D01*
X99141244Y-85054705D01*
X99329602Y-85132726D01*
X99529561Y-85172500D01*
X99733439Y-85172500D01*
X99933398Y-85132726D01*
X100121756Y-85054705D01*
X100291274Y-84941437D01*
X100435437Y-84797274D01*
X100548705Y-84627756D01*
X100626726Y-84439398D01*
X100666500Y-84239439D01*
X100666500Y-84177302D01*
X100898803Y-83945000D01*
X102108897Y-83945000D01*
X102077068Y-84021842D01*
X102020000Y-84308740D01*
X102020000Y-84601260D01*
X102077068Y-84888158D01*
X102108897Y-84965000D01*
X101891325Y-84965000D01*
X101854000Y-84961324D01*
X101816675Y-84965000D01*
X101816667Y-84965000D01*
X101705014Y-84975997D01*
X101561753Y-85019454D01*
X101429724Y-85090026D01*
X101313999Y-85184999D01*
X101290201Y-85213997D01*
X99591699Y-86912500D01*
X99529561Y-86912500D01*
X99329602Y-86952274D01*
X99141244Y-87030295D01*
X98971726Y-87143563D01*
X98827563Y-87287726D01*
X98714295Y-87457244D01*
X98636274Y-87645602D01*
X98596500Y-87845561D01*
X98596500Y-88049439D01*
X98636274Y-88249398D01*
X98714295Y-88437756D01*
X98827563Y-88607274D01*
X98971726Y-88751437D01*
X99141244Y-88864705D01*
X99329602Y-88942726D01*
X99529561Y-88982500D01*
X99733439Y-88982500D01*
X99933398Y-88942726D01*
X100121756Y-88864705D01*
X100291274Y-88751437D01*
X100435437Y-88607274D01*
X100548705Y-88437756D01*
X100626726Y-88249398D01*
X100666500Y-88049439D01*
X100666500Y-87987301D01*
X102073370Y-86580432D01*
X102020000Y-86848740D01*
X102020000Y-87141260D01*
X102077068Y-87428158D01*
X102112376Y-87513400D01*
X102086014Y-87515997D01*
X101960779Y-87553986D01*
X101942753Y-87559454D01*
X101810723Y-87630026D01*
X101737014Y-87690518D01*
X101694999Y-87724999D01*
X101671201Y-87753997D01*
X99120498Y-90304701D01*
X99091500Y-90328499D01*
X99067702Y-90357497D01*
X99067701Y-90357498D01*
X98996526Y-90444224D01*
X98925954Y-90576254D01*
X98904474Y-90647068D01*
X98882498Y-90719514D01*
X98871500Y-90831167D01*
X98871500Y-90831178D01*
X98867824Y-90868500D01*
X98871500Y-90905822D01*
X98871500Y-91053789D01*
X98827563Y-91097726D01*
X98714295Y-91267244D01*
X98636274Y-91455602D01*
X98596500Y-91655561D01*
X98596500Y-91859439D01*
X98636274Y-92059398D01*
X98714295Y-92247756D01*
X98827563Y-92417274D01*
X98971726Y-92561437D01*
X99141244Y-92674705D01*
X99329602Y-92752726D01*
X99529561Y-92792500D01*
X99733439Y-92792500D01*
X99933398Y-92752726D01*
X100121756Y-92674705D01*
X100291274Y-92561437D01*
X100435437Y-92417274D01*
X100548705Y-92247756D01*
X100626726Y-92059398D01*
X100666500Y-91859439D01*
X100666500Y-91655561D01*
X100626726Y-91455602D01*
X100548705Y-91267244D01*
X100452115Y-91122686D01*
X102020000Y-89554802D01*
X102020000Y-89681260D01*
X102077068Y-89968158D01*
X102163587Y-90177033D01*
X102111118Y-90182201D01*
X101991996Y-90218336D01*
X101882213Y-90277017D01*
X101785987Y-90355987D01*
X101707017Y-90452213D01*
X101648336Y-90561996D01*
X101612201Y-90681118D01*
X101600000Y-90805000D01*
X101600000Y-93980000D01*
X101612201Y-94103882D01*
X101648336Y-94223004D01*
X101707017Y-94332787D01*
X101785987Y-94429013D01*
X110040987Y-102684013D01*
X110137213Y-102762983D01*
X110246996Y-102821664D01*
X110366118Y-102857799D01*
X110490000Y-102870000D01*
X114709634Y-102870000D01*
X114710000Y-103044250D01*
X114868750Y-103203000D01*
X116968000Y-103203000D01*
X116968000Y-103183000D01*
X117222000Y-103183000D01*
X117222000Y-103203000D01*
X119321250Y-103203000D01*
X119480000Y-103044250D01*
X119482694Y-101760332D01*
X124648026Y-96595000D01*
X126196928Y-96595000D01*
X126200000Y-97609250D01*
X126358750Y-97768000D01*
X127508000Y-97768000D01*
X127508000Y-96118750D01*
X127762000Y-96118750D01*
X127762000Y-97768000D01*
X128911250Y-97768000D01*
X129070000Y-97609250D01*
X129073072Y-96595000D01*
X129060812Y-96470518D01*
X129024502Y-96350820D01*
X128965537Y-96240506D01*
X128886185Y-96143815D01*
X128789494Y-96064463D01*
X128679180Y-96005498D01*
X128559482Y-95969188D01*
X128435000Y-95956928D01*
X127920750Y-95960000D01*
X127762000Y-96118750D01*
X127508000Y-96118750D01*
X127349250Y-95960000D01*
X126835000Y-95956928D01*
X126710518Y-95969188D01*
X126590820Y-96005498D01*
X126480506Y-96064463D01*
X126383815Y-96143815D01*
X126304463Y-96240506D01*
X126245498Y-96350820D01*
X126209188Y-96470518D01*
X126196928Y-96595000D01*
X124648026Y-96595000D01*
X126814013Y-94429013D01*
X126892983Y-94332787D01*
X126951664Y-94223004D01*
X126987799Y-94103882D01*
X127000000Y-93980000D01*
X127000000Y-92679799D01*
X134526203Y-100206003D01*
X134550001Y-100235001D01*
X134578999Y-100258799D01*
X134665726Y-100329974D01*
X134797755Y-100400546D01*
X134941016Y-100444003D01*
X135090002Y-100458677D01*
X135127335Y-100455000D01*
X154188027Y-100455000D01*
X154186629Y-100456703D01*
X154104544Y-100610273D01*
X154053996Y-100776907D01*
X154036928Y-100950200D01*
X154036928Y-102249800D01*
X154053996Y-102423093D01*
X154104544Y-102589727D01*
X154186629Y-102743297D01*
X154297097Y-102877903D01*
X154431703Y-102988371D01*
X154585273Y-103070456D01*
X154751907Y-103121004D01*
X154925200Y-103138072D01*
X156038271Y-103138072D01*
X157297200Y-104397002D01*
X157320999Y-104426001D01*
X157436724Y-104520974D01*
X157568753Y-104591546D01*
X157712014Y-104635003D01*
X157823667Y-104646000D01*
X157823676Y-104646000D01*
X157860999Y-104649676D01*
X157898322Y-104646000D01*
X159197199Y-104646000D01*
X160070974Y-105519776D01*
X159982000Y-105608750D01*
X159982000Y-106408000D01*
X160002000Y-106408000D01*
X160002000Y-106662000D01*
X159982000Y-106662000D01*
X159982000Y-107461250D01*
X160140750Y-107620000D01*
X160355000Y-107623072D01*
X160479482Y-107610812D01*
X160599180Y-107574502D01*
X160655000Y-107544665D01*
X160695001Y-107566046D01*
X160695000Y-109603954D01*
X160655000Y-109625335D01*
X160599180Y-109595498D01*
X160479482Y-109559188D01*
X160355000Y-109546928D01*
X160140750Y-109550000D01*
X159982000Y-109708750D01*
X159982000Y-110508000D01*
X160002000Y-110508000D01*
X160002000Y-110762000D01*
X159982000Y-110762000D01*
X159982000Y-111561250D01*
X160140750Y-111720000D01*
X160355000Y-111723072D01*
X160479482Y-111710812D01*
X160599180Y-111674502D01*
X160655000Y-111644665D01*
X160710820Y-111674502D01*
X160830518Y-111710812D01*
X160955000Y-111723072D01*
X161955000Y-111723072D01*
X162079482Y-111710812D01*
X162199180Y-111674502D01*
X162309494Y-111615537D01*
X162406185Y-111536185D01*
X162485537Y-111439494D01*
X162544502Y-111329180D01*
X162580812Y-111209482D01*
X162593072Y-111085000D01*
X162593072Y-110185000D01*
X162580812Y-110060518D01*
X162544502Y-109940820D01*
X162485537Y-109830506D01*
X162406185Y-109733815D01*
X162309494Y-109654463D01*
X162215000Y-109603954D01*
X162215000Y-108707914D01*
X162331061Y-108731000D01*
X162534939Y-108731000D01*
X162734898Y-108691226D01*
X162923256Y-108613205D01*
X163092774Y-108499937D01*
X163236937Y-108355774D01*
X163350205Y-108186256D01*
X163428226Y-107997898D01*
X163468000Y-107797939D01*
X163468000Y-107735801D01*
X165349348Y-105854455D01*
X165423368Y-105928475D01*
X165666589Y-106090990D01*
X165936842Y-106202932D01*
X166223740Y-106260000D01*
X166516260Y-106260000D01*
X166803158Y-106202932D01*
X167073411Y-106090990D01*
X167316632Y-105928475D01*
X167523475Y-105721632D01*
X167685990Y-105478411D01*
X167797932Y-105208158D01*
X167855000Y-104921260D01*
X167855000Y-104628740D01*
X167797932Y-104341842D01*
X167685990Y-104071589D01*
X167523475Y-103828368D01*
X167316632Y-103621525D01*
X167142240Y-103505000D01*
X167316632Y-103388475D01*
X167523475Y-103181632D01*
X167685990Y-102938411D01*
X167797932Y-102668158D01*
X167855000Y-102381260D01*
X167855000Y-102088740D01*
X167797932Y-101801842D01*
X167685990Y-101531589D01*
X167523475Y-101288368D01*
X167316632Y-101081525D01*
X167142240Y-100965000D01*
X167316632Y-100848475D01*
X167523475Y-100641632D01*
X167685990Y-100398411D01*
X167797932Y-100128158D01*
X167855000Y-99841260D01*
X167855000Y-99548740D01*
X167797932Y-99261842D01*
X167685990Y-98991589D01*
X167523475Y-98748368D01*
X167316632Y-98541525D01*
X167142240Y-98425000D01*
X167316632Y-98308475D01*
X167523475Y-98101632D01*
X167685990Y-97858411D01*
X167797932Y-97588158D01*
X167855000Y-97301260D01*
X167855000Y-97008740D01*
X167797932Y-96721842D01*
X167685990Y-96451589D01*
X167523475Y-96208368D01*
X167316632Y-96001525D01*
X167142240Y-95885000D01*
X167316632Y-95768475D01*
X167523475Y-95561632D01*
X167685990Y-95318411D01*
X167797932Y-95048158D01*
X167855000Y-94761260D01*
X167855000Y-94468740D01*
X167797932Y-94181842D01*
X167685990Y-93911589D01*
X167523475Y-93668368D01*
X167316632Y-93461525D01*
X167142240Y-93345000D01*
X167316632Y-93228475D01*
X167523475Y-93021632D01*
X167685990Y-92778411D01*
X167797932Y-92508158D01*
X167855000Y-92221260D01*
X167855000Y-91928740D01*
X167797932Y-91641842D01*
X167685990Y-91371589D01*
X167523475Y-91128368D01*
X167316632Y-90921525D01*
X167142240Y-90805000D01*
X167316632Y-90688475D01*
X167523475Y-90481632D01*
X167685990Y-90238411D01*
X167797932Y-89968158D01*
X167855000Y-89681260D01*
X167855000Y-89388740D01*
X167797932Y-89101842D01*
X167685990Y-88831589D01*
X167523475Y-88588368D01*
X167316632Y-88381525D01*
X167142240Y-88265000D01*
X167316632Y-88148475D01*
X167523475Y-87941632D01*
X167685990Y-87698411D01*
X167797932Y-87428158D01*
X167855000Y-87141260D01*
X167855000Y-86848740D01*
X167797932Y-86561842D01*
X167685990Y-86291589D01*
X167523475Y-86048368D01*
X167316632Y-85841525D01*
X167142240Y-85725000D01*
X167316632Y-85608475D01*
X167523475Y-85401632D01*
X167685990Y-85158411D01*
X167797932Y-84888158D01*
X167855000Y-84601260D01*
X167855000Y-84308740D01*
X167797932Y-84021842D01*
X167685990Y-83751589D01*
X167523475Y-83508368D01*
X167391620Y-83376513D01*
X167464180Y-83354502D01*
X167574494Y-83295537D01*
X167671185Y-83216185D01*
X167750537Y-83119494D01*
X167809502Y-83009180D01*
X167845812Y-82889482D01*
X167858072Y-82765000D01*
X167855000Y-82200750D01*
X167696250Y-82042000D01*
X166497000Y-82042000D01*
X166497000Y-82062000D01*
X166243000Y-82062000D01*
X166243000Y-82042000D01*
X165043750Y-82042000D01*
X164885000Y-82200750D01*
X164881928Y-82765000D01*
X164894188Y-82889482D01*
X164930498Y-83009180D01*
X164989463Y-83119494D01*
X165068815Y-83216185D01*
X165165506Y-83295537D01*
X165275820Y-83354502D01*
X165348380Y-83376513D01*
X165216525Y-83508368D01*
X165054010Y-83751589D01*
X164942068Y-84021842D01*
X164885000Y-84308740D01*
X164885000Y-84601260D01*
X164942068Y-84888158D01*
X165054010Y-85158411D01*
X165216525Y-85401632D01*
X165423368Y-85608475D01*
X165597760Y-85725000D01*
X165423368Y-85841525D01*
X165216525Y-86048368D01*
X165054010Y-86291589D01*
X164942068Y-86561842D01*
X164885000Y-86848740D01*
X164885000Y-87141260D01*
X164911193Y-87272940D01*
X164284574Y-87899559D01*
X164252710Y-87925709D01*
X164210817Y-87976756D01*
X164148364Y-88052855D01*
X164070828Y-88197914D01*
X164023082Y-88355312D01*
X164006960Y-88519000D01*
X164011001Y-88560029D01*
X164011000Y-97063132D01*
X160975462Y-100098671D01*
X160806184Y-100065000D01*
X160503816Y-100065000D01*
X160207257Y-100123989D01*
X159927905Y-100239701D01*
X159676495Y-100407688D01*
X159462688Y-100621495D01*
X159360049Y-100775105D01*
X159179080Y-100715525D01*
X158294605Y-101600000D01*
X159179080Y-102484475D01*
X159360049Y-102424895D01*
X159462688Y-102578505D01*
X159676495Y-102792312D01*
X159927905Y-102960299D01*
X160207257Y-103076011D01*
X160503816Y-103135000D01*
X160806184Y-103135000D01*
X161102743Y-103076011D01*
X161382095Y-102960299D01*
X161633505Y-102792312D01*
X161847312Y-102578505D01*
X162015299Y-102327095D01*
X162131011Y-102047743D01*
X162190000Y-101751184D01*
X162190000Y-101448816D01*
X162156329Y-101279538D01*
X164213000Y-99222868D01*
X164213001Y-103213658D01*
X164213000Y-103213668D01*
X164213001Y-104841196D01*
X162593072Y-106461126D01*
X162593072Y-106085000D01*
X162580812Y-105960518D01*
X162544502Y-105840820D01*
X162485537Y-105730506D01*
X162406185Y-105633815D01*
X162309494Y-105554463D01*
X162199180Y-105495498D01*
X162126751Y-105473527D01*
X162089974Y-105404723D01*
X162018799Y-105317997D01*
X161995001Y-105288999D01*
X161966004Y-105265202D01*
X160075804Y-103375003D01*
X160052001Y-103345999D01*
X159936276Y-103251026D01*
X159804247Y-103180454D01*
X159660986Y-103136997D01*
X159549333Y-103126000D01*
X159549322Y-103126000D01*
X159512000Y-103122324D01*
X159474678Y-103126000D01*
X158286911Y-103126000D01*
X158480907Y-103098397D01*
X158766199Y-102998222D01*
X158915792Y-102918261D01*
X158999475Y-102664080D01*
X158115000Y-101779605D01*
X158100858Y-101793748D01*
X157921253Y-101614143D01*
X157935395Y-101600000D01*
X157088907Y-100753512D01*
X157045456Y-100610273D01*
X157005714Y-100535920D01*
X157230525Y-100535920D01*
X158115000Y-101420395D01*
X158999475Y-100535920D01*
X158915792Y-100281739D01*
X158643225Y-100150842D01*
X158350358Y-100075635D01*
X158048447Y-100059009D01*
X157749093Y-100101603D01*
X157463801Y-100201778D01*
X157314208Y-100281739D01*
X157230525Y-100535920D01*
X157005714Y-100535920D01*
X156963371Y-100456703D01*
X156852903Y-100322097D01*
X156748388Y-100236324D01*
X156750001Y-100235001D01*
X156773804Y-100205997D01*
X162436004Y-94543798D01*
X162465001Y-94520001D01*
X162559974Y-94404276D01*
X162630546Y-94272247D01*
X162674003Y-94128986D01*
X162685000Y-94017333D01*
X162685000Y-94017332D01*
X162688677Y-93980000D01*
X162685000Y-93942667D01*
X162685000Y-81092322D01*
X162687690Y-81065000D01*
X164881928Y-81065000D01*
X164885000Y-81629250D01*
X165043750Y-81788000D01*
X166243000Y-81788000D01*
X166243000Y-80588750D01*
X166497000Y-80588750D01*
X166497000Y-81788000D01*
X167696250Y-81788000D01*
X167855000Y-81629250D01*
X167858072Y-81065000D01*
X167845812Y-80940518D01*
X167809502Y-80820820D01*
X167750537Y-80710506D01*
X167671185Y-80613815D01*
X167574494Y-80534463D01*
X167464180Y-80475498D01*
X167344482Y-80439188D01*
X167220000Y-80426928D01*
X166655750Y-80430000D01*
X166497000Y-80588750D01*
X166243000Y-80588750D01*
X166084250Y-80430000D01*
X165520000Y-80426928D01*
X165395518Y-80439188D01*
X165275820Y-80475498D01*
X165165506Y-80534463D01*
X165068815Y-80613815D01*
X164989463Y-80710506D01*
X164930498Y-80820820D01*
X164894188Y-80940518D01*
X164881928Y-81065000D01*
X162687690Y-81065000D01*
X162688676Y-81054999D01*
X162685000Y-81017676D01*
X162685000Y-81017667D01*
X162674003Y-80906014D01*
X162630546Y-80762753D01*
X162559974Y-80630724D01*
X162465001Y-80514999D01*
X162436003Y-80491201D01*
X158268804Y-76324003D01*
X158245001Y-76294999D01*
X158129276Y-76200026D01*
X158071770Y-76169288D01*
X158080812Y-76139482D01*
X158093072Y-76015000D01*
X158090000Y-75850750D01*
X157931250Y-75692000D01*
X156582000Y-75692000D01*
X156582000Y-75712000D01*
X156328000Y-75712000D01*
X156328000Y-75692000D01*
X154978750Y-75692000D01*
X154820000Y-75850750D01*
X154816928Y-76015000D01*
X154829188Y-76139482D01*
X154847546Y-76200000D01*
X154829188Y-76260518D01*
X154816928Y-76385000D01*
X154816928Y-77285000D01*
X154829188Y-77409482D01*
X154847546Y-77470000D01*
X154829188Y-77530518D01*
X154816928Y-77655000D01*
X154816928Y-78555000D01*
X154829188Y-78679482D01*
X154847546Y-78740000D01*
X154829188Y-78800518D01*
X154816928Y-78925000D01*
X154816928Y-79825000D01*
X154829188Y-79949482D01*
X154847546Y-80010000D01*
X154829188Y-80070518D01*
X154816928Y-80195000D01*
X154816928Y-81095000D01*
X154829188Y-81219482D01*
X154847546Y-81279999D01*
X154829188Y-81340518D01*
X154816928Y-81465000D01*
X154816928Y-82365000D01*
X154829188Y-82489482D01*
X154847546Y-82550000D01*
X154829188Y-82610518D01*
X154816928Y-82735000D01*
X154816928Y-83635000D01*
X154829188Y-83759482D01*
X154847546Y-83820000D01*
X154829188Y-83880518D01*
X154816928Y-84005000D01*
X154816928Y-84905000D01*
X154829188Y-85029482D01*
X154847546Y-85090000D01*
X154829188Y-85150518D01*
X154816928Y-85275000D01*
X154816928Y-86175000D01*
X154829188Y-86299482D01*
X154847546Y-86360000D01*
X154829188Y-86420518D01*
X154816928Y-86545000D01*
X154816928Y-87445000D01*
X154829188Y-87569482D01*
X154847546Y-87630000D01*
X154829188Y-87690518D01*
X154816928Y-87815000D01*
X154816928Y-87870766D01*
X154787939Y-87865000D01*
X154584061Y-87865000D01*
X154384102Y-87904774D01*
X154195744Y-87982795D01*
X154026226Y-88096063D01*
X153882063Y-88240226D01*
X153768795Y-88409744D01*
X153690774Y-88598102D01*
X153651000Y-88798061D01*
X153651000Y-89001939D01*
X153690774Y-89201898D01*
X153768795Y-89390256D01*
X153882063Y-89559774D01*
X153926000Y-89603711D01*
X153926000Y-89751678D01*
X153922324Y-89789000D01*
X153926000Y-89826322D01*
X153926000Y-89826332D01*
X153936997Y-89937985D01*
X153978158Y-90073676D01*
X153980454Y-90081246D01*
X154051026Y-90213276D01*
X154073944Y-90241201D01*
X154145999Y-90329001D01*
X154175002Y-90352804D01*
X154816928Y-90994730D01*
X154816928Y-91255000D01*
X154829188Y-91379482D01*
X154847546Y-91440000D01*
X154829188Y-91500518D01*
X154816928Y-91625000D01*
X154816928Y-92525000D01*
X154829188Y-92649482D01*
X154865498Y-92769180D01*
X154924463Y-92879494D01*
X155003815Y-92976185D01*
X155100506Y-93055537D01*
X155210820Y-93114502D01*
X155302000Y-93142161D01*
X155302000Y-93192939D01*
X155341774Y-93392898D01*
X155419795Y-93581256D01*
X155533063Y-93750774D01*
X155636245Y-93853956D01*
X154365201Y-95125000D01*
X152674802Y-95125000D01*
X152911004Y-94888798D01*
X152940001Y-94865001D01*
X153034974Y-94749276D01*
X153065712Y-94691770D01*
X153095518Y-94700812D01*
X153220000Y-94713072D01*
X154120000Y-94713072D01*
X154244482Y-94700812D01*
X154364180Y-94664502D01*
X154474494Y-94605537D01*
X154571185Y-94526185D01*
X154650537Y-94429494D01*
X154709502Y-94319180D01*
X154745812Y-94199482D01*
X154758072Y-94075000D01*
X154758072Y-92075000D01*
X154745812Y-91950518D01*
X154709502Y-91830820D01*
X154701164Y-91815222D01*
X154705000Y-91795939D01*
X154705000Y-91592061D01*
X154665226Y-91392102D01*
X154587205Y-91203744D01*
X154473937Y-91034226D01*
X154329774Y-90890063D01*
X154160256Y-90776795D01*
X153971898Y-90698774D01*
X153771939Y-90659000D01*
X153568061Y-90659000D01*
X153368102Y-90698774D01*
X153179744Y-90776795D01*
X153010226Y-90890063D01*
X152866063Y-91034226D01*
X152752795Y-91203744D01*
X152674774Y-91392102D01*
X152665858Y-91436928D01*
X151950000Y-91436928D01*
X151825518Y-91449188D01*
X151765000Y-91467546D01*
X151704482Y-91449188D01*
X151580000Y-91436928D01*
X150680000Y-91436928D01*
X150555518Y-91449188D01*
X150495000Y-91467546D01*
X150434482Y-91449188D01*
X150310000Y-91436928D01*
X149410000Y-91436928D01*
X149285518Y-91449188D01*
X149225000Y-91467546D01*
X149164482Y-91449188D01*
X149040000Y-91436928D01*
X148140000Y-91436928D01*
X148015518Y-91449188D01*
X147955000Y-91467546D01*
X147894482Y-91449188D01*
X147770000Y-91436928D01*
X146870000Y-91436928D01*
X146745518Y-91449188D01*
X146685000Y-91467546D01*
X146624482Y-91449188D01*
X146500000Y-91436928D01*
X145600000Y-91436928D01*
X145475518Y-91449188D01*
X145415000Y-91467546D01*
X145354482Y-91449188D01*
X145230000Y-91436928D01*
X144330000Y-91436928D01*
X144205518Y-91449188D01*
X144145000Y-91467546D01*
X144084482Y-91449188D01*
X143960000Y-91436928D01*
X143060000Y-91436928D01*
X142935518Y-91449188D01*
X142875000Y-91467546D01*
X142814482Y-91449188D01*
X142690000Y-91436928D01*
X142525750Y-91440000D01*
X142367000Y-91598750D01*
X142367000Y-92948000D01*
X142387000Y-92948000D01*
X142387000Y-93202000D01*
X142367000Y-93202000D01*
X142367000Y-93222000D01*
X142113000Y-93222000D01*
X142113000Y-93202000D01*
X141313750Y-93202000D01*
X141155000Y-93360750D01*
X141152874Y-93855000D01*
X137474802Y-93855000D01*
X136454802Y-92835000D01*
X137900680Y-92835000D01*
X137924463Y-92879494D01*
X138003815Y-92976185D01*
X138100506Y-93055537D01*
X138210820Y-93114502D01*
X138330518Y-93150812D01*
X138455000Y-93163072D01*
X140455000Y-93163072D01*
X140579482Y-93150812D01*
X140699180Y-93114502D01*
X140809494Y-93055537D01*
X140906185Y-92976185D01*
X140985537Y-92879494D01*
X141044502Y-92769180D01*
X141080812Y-92649482D01*
X141093072Y-92525000D01*
X141093072Y-92075000D01*
X141151928Y-92075000D01*
X141155000Y-92789250D01*
X141313750Y-92948000D01*
X142113000Y-92948000D01*
X142113000Y-91598750D01*
X141954250Y-91440000D01*
X141790000Y-91436928D01*
X141665518Y-91449188D01*
X141545820Y-91485498D01*
X141435506Y-91544463D01*
X141338815Y-91623815D01*
X141259463Y-91720506D01*
X141200498Y-91830820D01*
X141164188Y-91950518D01*
X141151928Y-92075000D01*
X141093072Y-92075000D01*
X141093072Y-91625000D01*
X141080812Y-91500518D01*
X141062454Y-91440000D01*
X141080812Y-91379482D01*
X141093072Y-91255000D01*
X141093072Y-90355000D01*
X141080812Y-90230518D01*
X141062454Y-90170000D01*
X141080812Y-90109482D01*
X141093072Y-89985000D01*
X141093072Y-89085000D01*
X141080812Y-88960518D01*
X141062454Y-88899999D01*
X141080812Y-88839482D01*
X141093072Y-88715000D01*
X141093072Y-87815000D01*
X141080812Y-87690518D01*
X141062454Y-87630000D01*
X141080812Y-87569482D01*
X141093072Y-87445000D01*
X141093072Y-86545000D01*
X141080812Y-86420518D01*
X141062454Y-86360000D01*
X141080812Y-86299482D01*
X141093072Y-86175000D01*
X141093072Y-85275000D01*
X141080812Y-85150518D01*
X141062454Y-85090000D01*
X141080812Y-85029482D01*
X141093072Y-84905000D01*
X141093072Y-84647875D01*
X141099000Y-84653803D01*
X141099001Y-86643214D01*
X141095324Y-86680546D01*
X141099001Y-86717879D01*
X141109998Y-86829532D01*
X141120756Y-86864997D01*
X141153454Y-86972792D01*
X141224026Y-87104822D01*
X141284455Y-87178454D01*
X141319000Y-87220547D01*
X141347998Y-87244345D01*
X141556411Y-87452758D01*
X141556411Y-87514896D01*
X141596185Y-87714855D01*
X141674206Y-87903213D01*
X141787474Y-88072731D01*
X141931637Y-88216894D01*
X142101155Y-88330162D01*
X142289513Y-88408183D01*
X142489472Y-88447957D01*
X142693350Y-88447957D01*
X142893309Y-88408183D01*
X143081667Y-88330162D01*
X143251185Y-88216894D01*
X143395348Y-88072731D01*
X143508616Y-87903213D01*
X143586637Y-87714855D01*
X143626411Y-87514896D01*
X143626411Y-87311018D01*
X143586637Y-87111059D01*
X143508616Y-86922701D01*
X143395348Y-86753183D01*
X143251185Y-86609020D01*
X143081667Y-86495752D01*
X142893309Y-86417731D01*
X142693350Y-86377957D01*
X142631212Y-86377957D01*
X142619000Y-86365745D01*
X142619000Y-85855828D01*
X142746968Y-85855828D01*
X142946927Y-85816054D01*
X143135285Y-85738033D01*
X143304803Y-85624765D01*
X143364568Y-85565000D01*
X143816928Y-85565000D01*
X143829188Y-85689482D01*
X143865498Y-85809180D01*
X143924463Y-85919494D01*
X144003815Y-86016185D01*
X144100506Y-86095537D01*
X144210820Y-86154502D01*
X144330518Y-86190812D01*
X144455000Y-86203072D01*
X146669250Y-86200000D01*
X146828000Y-86041250D01*
X146828000Y-83192000D01*
X147082000Y-83192000D01*
X147082000Y-86041250D01*
X147240750Y-86200000D01*
X149455000Y-86203072D01*
X149579482Y-86190812D01*
X149699180Y-86154502D01*
X149809494Y-86095537D01*
X149906185Y-86016185D01*
X149985537Y-85919494D01*
X150044502Y-85809180D01*
X150080812Y-85689482D01*
X150093072Y-85565000D01*
X150090000Y-83350750D01*
X149931250Y-83192000D01*
X147082000Y-83192000D01*
X146828000Y-83192000D01*
X143978750Y-83192000D01*
X143820000Y-83350750D01*
X143816928Y-85565000D01*
X143364568Y-85565000D01*
X143448966Y-85480602D01*
X143562234Y-85311084D01*
X143640255Y-85122726D01*
X143680029Y-84922767D01*
X143680029Y-84718889D01*
X143640255Y-84518930D01*
X143562234Y-84330572D01*
X143448966Y-84161054D01*
X143405029Y-84117117D01*
X143405029Y-83373351D01*
X143408705Y-83336028D01*
X143405029Y-83298705D01*
X143405029Y-83298696D01*
X143394032Y-83187043D01*
X143350575Y-83043782D01*
X143301584Y-82952127D01*
X143424937Y-82828774D01*
X143538205Y-82659256D01*
X143616226Y-82470898D01*
X143656000Y-82270939D01*
X143656000Y-82067061D01*
X143616226Y-81867102D01*
X143538205Y-81678744D01*
X143424937Y-81509226D01*
X143280774Y-81365063D01*
X143111256Y-81251795D01*
X142922898Y-81173774D01*
X142722939Y-81134000D01*
X142660802Y-81134000D01*
X142169802Y-80643000D01*
X142456678Y-80643000D01*
X142494000Y-80646676D01*
X142531322Y-80643000D01*
X142531333Y-80643000D01*
X142642986Y-80632003D01*
X142786247Y-80588546D01*
X142830297Y-80565000D01*
X143816928Y-80565000D01*
X143820000Y-82779250D01*
X143978750Y-82938000D01*
X146828000Y-82938000D01*
X146828000Y-80088750D01*
X147082000Y-80088750D01*
X147082000Y-82938000D01*
X149931250Y-82938000D01*
X150090000Y-82779250D01*
X150093072Y-80565000D01*
X150080812Y-80440518D01*
X150044502Y-80320820D01*
X149985537Y-80210506D01*
X149906185Y-80113815D01*
X149809494Y-80034463D01*
X149699180Y-79975498D01*
X149579482Y-79939188D01*
X149455000Y-79926928D01*
X147240750Y-79930000D01*
X147082000Y-80088750D01*
X146828000Y-80088750D01*
X146669250Y-79930000D01*
X144455000Y-79926928D01*
X144330518Y-79939188D01*
X144210820Y-79975498D01*
X144100506Y-80034463D01*
X144003815Y-80113815D01*
X143924463Y-80210506D01*
X143865498Y-80320820D01*
X143829188Y-80440518D01*
X143816928Y-80565000D01*
X142830297Y-80565000D01*
X142882681Y-80537000D01*
X142976939Y-80537000D01*
X143176898Y-80497226D01*
X143365256Y-80419205D01*
X143534774Y-80305937D01*
X143678937Y-80161774D01*
X143792205Y-79992256D01*
X143870226Y-79803898D01*
X143910000Y-79603939D01*
X143910000Y-79400061D01*
X143870226Y-79200102D01*
X143792205Y-79011744D01*
X143678937Y-78842226D01*
X143534774Y-78698063D01*
X143365256Y-78584795D01*
X143176898Y-78506774D01*
X142976939Y-78467000D01*
X142878654Y-78467000D01*
X142789937Y-78334226D01*
X142645774Y-78190063D01*
X142476256Y-78076795D01*
X142287898Y-77998774D01*
X142087939Y-77959000D01*
X142025801Y-77959000D01*
X141809178Y-77742376D01*
X141929287Y-77622267D01*
X142064443Y-77419992D01*
X142157540Y-77195236D01*
X142205000Y-76956637D01*
X142205000Y-76713363D01*
X142157540Y-76474764D01*
X142064443Y-76250008D01*
X141929287Y-76047733D01*
X141757267Y-75875713D01*
X141554992Y-75740557D01*
X141330236Y-75647460D01*
X141091637Y-75600000D01*
X140848363Y-75600000D01*
X140609764Y-75647460D01*
X140502235Y-75692000D01*
X139582000Y-75692000D01*
X139582000Y-75712000D01*
X139328000Y-75712000D01*
X139328000Y-75692000D01*
X139308000Y-75692000D01*
X139308000Y-75438000D01*
X139328000Y-75438000D01*
X139328000Y-75418000D01*
X139582000Y-75418000D01*
X139582000Y-75438000D01*
X140931250Y-75438000D01*
X141090000Y-75279250D01*
X141093072Y-75115000D01*
X141080812Y-74990518D01*
X141070038Y-74955000D01*
X154839962Y-74955000D01*
X154829188Y-74990518D01*
X154816928Y-75115000D01*
X154820000Y-75279250D01*
X154978750Y-75438000D01*
X156328000Y-75438000D01*
X156328000Y-75418000D01*
X156582000Y-75418000D01*
X156582000Y-75438000D01*
X157931250Y-75438000D01*
X158090000Y-75279250D01*
X158093072Y-75115000D01*
X158080812Y-74990518D01*
X158070038Y-74955000D01*
X165702722Y-74955000D01*
X166222884Y-75006002D01*
X166692188Y-75147694D01*
X167125025Y-75377837D01*
X167504927Y-75687678D01*
X167817403Y-76065397D01*
X168050569Y-76496627D01*
X168195532Y-76964928D01*
X168250000Y-77483153D01*
X168250001Y-109187712D01*
X168198998Y-109707883D01*
X168057307Y-110177186D01*
X167827161Y-110610028D01*
X167517323Y-110989927D01*
X167139600Y-111302406D01*
X166708373Y-111535569D01*
X166240073Y-111680532D01*
X165721847Y-111735000D01*
X132433151Y-111735000D01*
X132524792Y-111659792D01*
X132634458Y-111526164D01*
X132715947Y-111373709D01*
X132766128Y-111208285D01*
X132778270Y-111085000D01*
X133316928Y-111085000D01*
X133329188Y-111209482D01*
X133365498Y-111329180D01*
X133424463Y-111439494D01*
X133503815Y-111536185D01*
X133600506Y-111615537D01*
X133710820Y-111674502D01*
X133830518Y-111710812D01*
X133955000Y-111723072D01*
X134169250Y-111720000D01*
X134328000Y-111561250D01*
X134328000Y-110762000D01*
X133478750Y-110762000D01*
X133320000Y-110920750D01*
X133316928Y-111085000D01*
X132778270Y-111085000D01*
X132782352Y-111043562D01*
X132824256Y-111026205D01*
X132993774Y-110912937D01*
X133137937Y-110768774D01*
X133251205Y-110599256D01*
X133329226Y-110410898D01*
X133337923Y-110367173D01*
X133478750Y-110508000D01*
X134328000Y-110508000D01*
X134328000Y-109708750D01*
X134169250Y-109550000D01*
X133955000Y-109546928D01*
X133830518Y-109559188D01*
X133710820Y-109595498D01*
X133600506Y-109654463D01*
X133503815Y-109733815D01*
X133424463Y-109830506D01*
X133365498Y-109940820D01*
X133359655Y-109960081D01*
X133329226Y-109807102D01*
X133251205Y-109618744D01*
X133137937Y-109449226D01*
X132993774Y-109305063D01*
X132824256Y-109191795D01*
X132781796Y-109174207D01*
X132783072Y-109161250D01*
X132783072Y-108673750D01*
X132766128Y-108501715D01*
X132715947Y-108336291D01*
X132634458Y-108183836D01*
X132524792Y-108050208D01*
X132507277Y-108035834D01*
X132522962Y-108022962D01*
X132633405Y-107888387D01*
X132715472Y-107734851D01*
X132766008Y-107568255D01*
X132783072Y-107395001D01*
X132783072Y-106985000D01*
X133316928Y-106985000D01*
X133329188Y-107109482D01*
X133365498Y-107229180D01*
X133424463Y-107339494D01*
X133503815Y-107436185D01*
X133600506Y-107515537D01*
X133710820Y-107574502D01*
X133830518Y-107610812D01*
X133955000Y-107623072D01*
X134169250Y-107620000D01*
X134328000Y-107461250D01*
X134328000Y-106662000D01*
X133478750Y-106662000D01*
X133320000Y-106820750D01*
X133316928Y-106985000D01*
X132783072Y-106985000D01*
X132783072Y-106744999D01*
X132766008Y-106571745D01*
X132715472Y-106405149D01*
X132633405Y-106251613D01*
X132522962Y-106117038D01*
X132483924Y-106085000D01*
X133316928Y-106085000D01*
X133320000Y-106249250D01*
X133478750Y-106408000D01*
X134328000Y-106408000D01*
X134328000Y-105608750D01*
X134169250Y-105450000D01*
X133955000Y-105446928D01*
X133830518Y-105459188D01*
X133710820Y-105495498D01*
X133600506Y-105554463D01*
X133503815Y-105633815D01*
X133424463Y-105730506D01*
X133365498Y-105840820D01*
X133329188Y-105960518D01*
X133316928Y-106085000D01*
X132483924Y-106085000D01*
X132435184Y-106045000D01*
X132522962Y-105972962D01*
X132633405Y-105838387D01*
X132715472Y-105684851D01*
X132766008Y-105518255D01*
X132783072Y-105345001D01*
X132783072Y-104694999D01*
X132766008Y-104521745D01*
X132715472Y-104355149D01*
X132635216Y-104205000D01*
X133191928Y-104205000D01*
X133204188Y-104329482D01*
X133240498Y-104449180D01*
X133299463Y-104559494D01*
X133378815Y-104656185D01*
X133475506Y-104735537D01*
X133585820Y-104794502D01*
X133705518Y-104830812D01*
X133830000Y-104843072D01*
X134031750Y-104840000D01*
X134190500Y-104681250D01*
X134190500Y-103632000D01*
X133353750Y-103632000D01*
X133195000Y-103790750D01*
X133191928Y-104205000D01*
X132635216Y-104205000D01*
X132633405Y-104201613D01*
X132522962Y-104067038D01*
X132433600Y-103993700D01*
X132433600Y-102805000D01*
X133191928Y-102805000D01*
X133195000Y-103219250D01*
X133353750Y-103378000D01*
X134190500Y-103378000D01*
X134190500Y-102328750D01*
X134444500Y-102328750D01*
X134444500Y-103378000D01*
X134464500Y-103378000D01*
X134464500Y-103632000D01*
X134444500Y-103632000D01*
X134444500Y-104681250D01*
X134603250Y-104840000D01*
X134805000Y-104843072D01*
X134929482Y-104830812D01*
X135049180Y-104794502D01*
X135159494Y-104735537D01*
X135256185Y-104656185D01*
X135295001Y-104608888D01*
X135295000Y-105503954D01*
X135255000Y-105525335D01*
X135199180Y-105495498D01*
X135079482Y-105459188D01*
X134955000Y-105446928D01*
X134740750Y-105450000D01*
X134582000Y-105608750D01*
X134582000Y-106408000D01*
X134602000Y-106408000D01*
X134602000Y-106662000D01*
X134582000Y-106662000D01*
X134582000Y-107461250D01*
X134740750Y-107620000D01*
X134955000Y-107623072D01*
X135079482Y-107610812D01*
X135199180Y-107574502D01*
X135255000Y-107544665D01*
X135295001Y-107566046D01*
X135295000Y-109603954D01*
X135255000Y-109625335D01*
X135199180Y-109595498D01*
X135079482Y-109559188D01*
X134955000Y-109546928D01*
X134740750Y-109550000D01*
X134582000Y-109708750D01*
X134582000Y-110508000D01*
X134602000Y-110508000D01*
X134602000Y-110762000D01*
X134582000Y-110762000D01*
X134582000Y-111561250D01*
X134740750Y-111720000D01*
X134955000Y-111723072D01*
X135079482Y-111710812D01*
X135199180Y-111674502D01*
X135255000Y-111644665D01*
X135310820Y-111674502D01*
X135430518Y-111710812D01*
X135555000Y-111723072D01*
X136555000Y-111723072D01*
X136679482Y-111710812D01*
X136799180Y-111674502D01*
X136909494Y-111615537D01*
X137006185Y-111536185D01*
X137085537Y-111439494D01*
X137144502Y-111329180D01*
X137180812Y-111209482D01*
X137193072Y-111085000D01*
X138396928Y-111085000D01*
X138409188Y-111209482D01*
X138445498Y-111329180D01*
X138504463Y-111439494D01*
X138583815Y-111536185D01*
X138680506Y-111615537D01*
X138790820Y-111674502D01*
X138910518Y-111710812D01*
X139035000Y-111723072D01*
X139249250Y-111720000D01*
X139408000Y-111561250D01*
X139408000Y-110762000D01*
X138558750Y-110762000D01*
X138400000Y-110920750D01*
X138396928Y-111085000D01*
X137193072Y-111085000D01*
X137193072Y-110185000D01*
X138396928Y-110185000D01*
X138400000Y-110349250D01*
X138558750Y-110508000D01*
X139408000Y-110508000D01*
X139408000Y-109708750D01*
X139249250Y-109550000D01*
X139035000Y-109546928D01*
X138910518Y-109559188D01*
X138790820Y-109595498D01*
X138680506Y-109654463D01*
X138583815Y-109733815D01*
X138504463Y-109830506D01*
X138445498Y-109940820D01*
X138409188Y-110060518D01*
X138396928Y-110185000D01*
X137193072Y-110185000D01*
X137180812Y-110060518D01*
X137144502Y-109940820D01*
X137085537Y-109830506D01*
X137006185Y-109733815D01*
X136909494Y-109654463D01*
X136815000Y-109603954D01*
X136815000Y-107566046D01*
X136909494Y-107515537D01*
X137006185Y-107436185D01*
X137085537Y-107339494D01*
X137144502Y-107229180D01*
X137180812Y-107109482D01*
X137193072Y-106985000D01*
X138396928Y-106985000D01*
X138409188Y-107109482D01*
X138445498Y-107229180D01*
X138504463Y-107339494D01*
X138583815Y-107436185D01*
X138680506Y-107515537D01*
X138790820Y-107574502D01*
X138910518Y-107610812D01*
X139035000Y-107623072D01*
X139249250Y-107620000D01*
X139408000Y-107461250D01*
X139408000Y-106662000D01*
X138558750Y-106662000D01*
X138400000Y-106820750D01*
X138396928Y-106985000D01*
X137193072Y-106985000D01*
X137193072Y-106085000D01*
X138396928Y-106085000D01*
X138400000Y-106249250D01*
X138558750Y-106408000D01*
X139408000Y-106408000D01*
X139408000Y-105608750D01*
X139662000Y-105608750D01*
X139662000Y-106408000D01*
X139682000Y-106408000D01*
X139682000Y-106662000D01*
X139662000Y-106662000D01*
X139662000Y-107461250D01*
X139820750Y-107620000D01*
X140035000Y-107623072D01*
X140159482Y-107610812D01*
X140279180Y-107574502D01*
X140335000Y-107544665D01*
X140375000Y-107566046D01*
X140375001Y-108605288D01*
X140331063Y-108649226D01*
X140217795Y-108818744D01*
X140139774Y-109007102D01*
X140100000Y-109207061D01*
X140100000Y-109410939D01*
X140128889Y-109556175D01*
X140035000Y-109546928D01*
X139820750Y-109550000D01*
X139662000Y-109708750D01*
X139662000Y-110508000D01*
X139682000Y-110508000D01*
X139682000Y-110762000D01*
X139662000Y-110762000D01*
X139662000Y-111561250D01*
X139820750Y-111720000D01*
X140035000Y-111723072D01*
X140159482Y-111710812D01*
X140279180Y-111674502D01*
X140335000Y-111644665D01*
X140390820Y-111674502D01*
X140510518Y-111710812D01*
X140635000Y-111723072D01*
X141635000Y-111723072D01*
X141759482Y-111710812D01*
X141879180Y-111674502D01*
X141989494Y-111615537D01*
X142086185Y-111536185D01*
X142165537Y-111439494D01*
X142224502Y-111329180D01*
X142260812Y-111209482D01*
X142273072Y-111085000D01*
X143476928Y-111085000D01*
X143489188Y-111209482D01*
X143525498Y-111329180D01*
X143584463Y-111439494D01*
X143663815Y-111536185D01*
X143760506Y-111615537D01*
X143870820Y-111674502D01*
X143990518Y-111710812D01*
X144115000Y-111723072D01*
X144329250Y-111720000D01*
X144488000Y-111561250D01*
X144488000Y-110762000D01*
X143638750Y-110762000D01*
X143480000Y-110920750D01*
X143476928Y-111085000D01*
X142273072Y-111085000D01*
X142273072Y-110185000D01*
X143476928Y-110185000D01*
X143480000Y-110349250D01*
X143638750Y-110508000D01*
X144488000Y-110508000D01*
X144488000Y-109708750D01*
X144329250Y-109550000D01*
X144115000Y-109546928D01*
X143990518Y-109559188D01*
X143870820Y-109595498D01*
X143760506Y-109654463D01*
X143663815Y-109733815D01*
X143584463Y-109830506D01*
X143525498Y-109940820D01*
X143489188Y-110060518D01*
X143476928Y-110185000D01*
X142273072Y-110185000D01*
X142260812Y-110060518D01*
X142224502Y-109940820D01*
X142165537Y-109830506D01*
X142086185Y-109733815D01*
X142081055Y-109729605D01*
X142130226Y-109610898D01*
X142170000Y-109410939D01*
X142170000Y-109207061D01*
X142130226Y-109007102D01*
X142052205Y-108818744D01*
X141938937Y-108649226D01*
X141895000Y-108605289D01*
X141895000Y-107566046D01*
X141989494Y-107515537D01*
X142086185Y-107436185D01*
X142165537Y-107339494D01*
X142224502Y-107229180D01*
X142260812Y-107109482D01*
X142273072Y-106985000D01*
X143476928Y-106985000D01*
X143489188Y-107109482D01*
X143525498Y-107229180D01*
X143584463Y-107339494D01*
X143663815Y-107436185D01*
X143760506Y-107515537D01*
X143870820Y-107574502D01*
X143990518Y-107610812D01*
X144115000Y-107623072D01*
X144329250Y-107620000D01*
X144488000Y-107461250D01*
X144488000Y-106662000D01*
X143638750Y-106662000D01*
X143480000Y-106820750D01*
X143476928Y-106985000D01*
X142273072Y-106985000D01*
X142273072Y-106085000D01*
X143476928Y-106085000D01*
X143480000Y-106249250D01*
X143638750Y-106408000D01*
X144488000Y-106408000D01*
X144488000Y-105608750D01*
X144742000Y-105608750D01*
X144742000Y-106408000D01*
X144762000Y-106408000D01*
X144762000Y-106662000D01*
X144742000Y-106662000D01*
X144742000Y-107461250D01*
X144900750Y-107620000D01*
X145115000Y-107623072D01*
X145239482Y-107610812D01*
X145359180Y-107574502D01*
X145415000Y-107544665D01*
X145455000Y-107566046D01*
X145455001Y-109603954D01*
X145415000Y-109625335D01*
X145359180Y-109595498D01*
X145239482Y-109559188D01*
X145115000Y-109546928D01*
X144900750Y-109550000D01*
X144742000Y-109708750D01*
X144742000Y-110508000D01*
X144762000Y-110508000D01*
X144762000Y-110762000D01*
X144742000Y-110762000D01*
X144742000Y-111561250D01*
X144900750Y-111720000D01*
X145115000Y-111723072D01*
X145239482Y-111710812D01*
X145359180Y-111674502D01*
X145415000Y-111644665D01*
X145470820Y-111674502D01*
X145590518Y-111710812D01*
X145715000Y-111723072D01*
X146715000Y-111723072D01*
X146839482Y-111710812D01*
X146959180Y-111674502D01*
X147069494Y-111615537D01*
X147166185Y-111536185D01*
X147245537Y-111439494D01*
X147304502Y-111329180D01*
X147340812Y-111209482D01*
X147353072Y-111085000D01*
X148556928Y-111085000D01*
X148569188Y-111209482D01*
X148605498Y-111329180D01*
X148664463Y-111439494D01*
X148743815Y-111536185D01*
X148840506Y-111615537D01*
X148950820Y-111674502D01*
X149070518Y-111710812D01*
X149195000Y-111723072D01*
X149409250Y-111720000D01*
X149568000Y-111561250D01*
X149568000Y-110762000D01*
X148718750Y-110762000D01*
X148560000Y-110920750D01*
X148556928Y-111085000D01*
X147353072Y-111085000D01*
X147353072Y-110185000D01*
X148556928Y-110185000D01*
X148560000Y-110349250D01*
X148718750Y-110508000D01*
X149568000Y-110508000D01*
X149568000Y-109708750D01*
X149409250Y-109550000D01*
X149195000Y-109546928D01*
X149070518Y-109559188D01*
X148950820Y-109595498D01*
X148840506Y-109654463D01*
X148743815Y-109733815D01*
X148664463Y-109830506D01*
X148605498Y-109940820D01*
X148569188Y-110060518D01*
X148556928Y-110185000D01*
X147353072Y-110185000D01*
X147340812Y-110060518D01*
X147304502Y-109940820D01*
X147245537Y-109830506D01*
X147166185Y-109733815D01*
X147069494Y-109654463D01*
X146975000Y-109603954D01*
X146975000Y-107566046D01*
X147069494Y-107515537D01*
X147166185Y-107436185D01*
X147245537Y-107339494D01*
X147304502Y-107229180D01*
X147340812Y-107109482D01*
X147353072Y-106985000D01*
X148556928Y-106985000D01*
X148569188Y-107109482D01*
X148605498Y-107229180D01*
X148664463Y-107339494D01*
X148743815Y-107436185D01*
X148840506Y-107515537D01*
X148950820Y-107574502D01*
X149070518Y-107610812D01*
X149195000Y-107623072D01*
X149409250Y-107620000D01*
X149568000Y-107461250D01*
X149568000Y-106662000D01*
X148718750Y-106662000D01*
X148560000Y-106820750D01*
X148556928Y-106985000D01*
X147353072Y-106985000D01*
X147353072Y-106085000D01*
X148556928Y-106085000D01*
X148560000Y-106249250D01*
X148718750Y-106408000D01*
X149568000Y-106408000D01*
X149568000Y-105608750D01*
X149822000Y-105608750D01*
X149822000Y-106408000D01*
X149842000Y-106408000D01*
X149842000Y-106662000D01*
X149822000Y-106662000D01*
X149822000Y-107461250D01*
X149980750Y-107620000D01*
X150195000Y-107623072D01*
X150319482Y-107610812D01*
X150439180Y-107574502D01*
X150495000Y-107544665D01*
X150535001Y-107566046D01*
X150535000Y-109603954D01*
X150495000Y-109625335D01*
X150439180Y-109595498D01*
X150319482Y-109559188D01*
X150195000Y-109546928D01*
X149980750Y-109550000D01*
X149822000Y-109708750D01*
X149822000Y-110508000D01*
X149842000Y-110508000D01*
X149842000Y-110762000D01*
X149822000Y-110762000D01*
X149822000Y-111561250D01*
X149980750Y-111720000D01*
X150195000Y-111723072D01*
X150319482Y-111710812D01*
X150439180Y-111674502D01*
X150495000Y-111644665D01*
X150550820Y-111674502D01*
X150670518Y-111710812D01*
X150795000Y-111723072D01*
X151795000Y-111723072D01*
X151919482Y-111710812D01*
X152039180Y-111674502D01*
X152149494Y-111615537D01*
X152246185Y-111536185D01*
X152325537Y-111439494D01*
X152384502Y-111329180D01*
X152420812Y-111209482D01*
X152433072Y-111085000D01*
X153636928Y-111085000D01*
X153649188Y-111209482D01*
X153685498Y-111329180D01*
X153744463Y-111439494D01*
X153823815Y-111536185D01*
X153920506Y-111615537D01*
X154030820Y-111674502D01*
X154150518Y-111710812D01*
X154275000Y-111723072D01*
X154489250Y-111720000D01*
X154648000Y-111561250D01*
X154648000Y-110762000D01*
X153798750Y-110762000D01*
X153640000Y-110920750D01*
X153636928Y-111085000D01*
X152433072Y-111085000D01*
X152433072Y-110185000D01*
X153636928Y-110185000D01*
X153640000Y-110349250D01*
X153798750Y-110508000D01*
X154648000Y-110508000D01*
X154648000Y-109708750D01*
X154489250Y-109550000D01*
X154275000Y-109546928D01*
X154150518Y-109559188D01*
X154030820Y-109595498D01*
X153920506Y-109654463D01*
X153823815Y-109733815D01*
X153744463Y-109830506D01*
X153685498Y-109940820D01*
X153649188Y-110060518D01*
X153636928Y-110185000D01*
X152433072Y-110185000D01*
X152420812Y-110060518D01*
X152384502Y-109940820D01*
X152325537Y-109830506D01*
X152246185Y-109733815D01*
X152149494Y-109654463D01*
X152055000Y-109603954D01*
X152055000Y-107566046D01*
X152149494Y-107515537D01*
X152246185Y-107436185D01*
X152325537Y-107339494D01*
X152384502Y-107229180D01*
X152420812Y-107109482D01*
X152433072Y-106985000D01*
X153636928Y-106985000D01*
X153649188Y-107109482D01*
X153685498Y-107229180D01*
X153744463Y-107339494D01*
X153823815Y-107436185D01*
X153920506Y-107515537D01*
X154030820Y-107574502D01*
X154150518Y-107610812D01*
X154275000Y-107623072D01*
X154489250Y-107620000D01*
X154648000Y-107461250D01*
X154648000Y-106662000D01*
X153798750Y-106662000D01*
X153640000Y-106820750D01*
X153636928Y-106985000D01*
X152433072Y-106985000D01*
X152433072Y-106085000D01*
X153636928Y-106085000D01*
X153640000Y-106249250D01*
X153798750Y-106408000D01*
X154648000Y-106408000D01*
X154648000Y-105608750D01*
X154902000Y-105608750D01*
X154902000Y-106408000D01*
X154922000Y-106408000D01*
X154922000Y-106662000D01*
X154902000Y-106662000D01*
X154902000Y-107461250D01*
X155060750Y-107620000D01*
X155275000Y-107623072D01*
X155399482Y-107610812D01*
X155519180Y-107574502D01*
X155575000Y-107544665D01*
X155615001Y-107566046D01*
X155615000Y-109603954D01*
X155575000Y-109625335D01*
X155519180Y-109595498D01*
X155399482Y-109559188D01*
X155275000Y-109546928D01*
X155060750Y-109550000D01*
X154902000Y-109708750D01*
X154902000Y-110508000D01*
X154922000Y-110508000D01*
X154922000Y-110762000D01*
X154902000Y-110762000D01*
X154902000Y-111561250D01*
X155060750Y-111720000D01*
X155275000Y-111723072D01*
X155399482Y-111710812D01*
X155519180Y-111674502D01*
X155575000Y-111644665D01*
X155630820Y-111674502D01*
X155750518Y-111710812D01*
X155875000Y-111723072D01*
X156875000Y-111723072D01*
X156999482Y-111710812D01*
X157119180Y-111674502D01*
X157229494Y-111615537D01*
X157326185Y-111536185D01*
X157405537Y-111439494D01*
X157464502Y-111329180D01*
X157500812Y-111209482D01*
X157513072Y-111085000D01*
X158716928Y-111085000D01*
X158729188Y-111209482D01*
X158765498Y-111329180D01*
X158824463Y-111439494D01*
X158903815Y-111536185D01*
X159000506Y-111615537D01*
X159110820Y-111674502D01*
X159230518Y-111710812D01*
X159355000Y-111723072D01*
X159569250Y-111720000D01*
X159728000Y-111561250D01*
X159728000Y-110762000D01*
X158878750Y-110762000D01*
X158720000Y-110920750D01*
X158716928Y-111085000D01*
X157513072Y-111085000D01*
X157513072Y-110185000D01*
X158716928Y-110185000D01*
X158720000Y-110349250D01*
X158878750Y-110508000D01*
X159728000Y-110508000D01*
X159728000Y-109708750D01*
X159569250Y-109550000D01*
X159355000Y-109546928D01*
X159230518Y-109559188D01*
X159110820Y-109595498D01*
X159000506Y-109654463D01*
X158903815Y-109733815D01*
X158824463Y-109830506D01*
X158765498Y-109940820D01*
X158729188Y-110060518D01*
X158716928Y-110185000D01*
X157513072Y-110185000D01*
X157500812Y-110060518D01*
X157464502Y-109940820D01*
X157405537Y-109830506D01*
X157326185Y-109733815D01*
X157229494Y-109654463D01*
X157135000Y-109603954D01*
X157135000Y-107566046D01*
X157229494Y-107515537D01*
X157326185Y-107436185D01*
X157405537Y-107339494D01*
X157464502Y-107229180D01*
X157500812Y-107109482D01*
X157513072Y-106985000D01*
X158716928Y-106985000D01*
X158729188Y-107109482D01*
X158765498Y-107229180D01*
X158824463Y-107339494D01*
X158903815Y-107436185D01*
X159000506Y-107515537D01*
X159110820Y-107574502D01*
X159230518Y-107610812D01*
X159355000Y-107623072D01*
X159569250Y-107620000D01*
X159728000Y-107461250D01*
X159728000Y-106662000D01*
X158878750Y-106662000D01*
X158720000Y-106820750D01*
X158716928Y-106985000D01*
X157513072Y-106985000D01*
X157513072Y-106085000D01*
X158716928Y-106085000D01*
X158720000Y-106249250D01*
X158878750Y-106408000D01*
X159728000Y-106408000D01*
X159728000Y-105608750D01*
X159569250Y-105450000D01*
X159355000Y-105446928D01*
X159230518Y-105459188D01*
X159110820Y-105495498D01*
X159000506Y-105554463D01*
X158903815Y-105633815D01*
X158824463Y-105730506D01*
X158765498Y-105840820D01*
X158729188Y-105960518D01*
X158716928Y-106085000D01*
X157513072Y-106085000D01*
X157500812Y-105960518D01*
X157464502Y-105840820D01*
X157405537Y-105730506D01*
X157372000Y-105689641D01*
X157372000Y-105562061D01*
X157332226Y-105362102D01*
X157254205Y-105173744D01*
X157140937Y-105004226D01*
X156996774Y-104860063D01*
X156827256Y-104746795D01*
X156638898Y-104668774D01*
X156438939Y-104629000D01*
X156235061Y-104629000D01*
X156035102Y-104668774D01*
X155846744Y-104746795D01*
X155677226Y-104860063D01*
X155533063Y-105004226D01*
X155419795Y-105173744D01*
X155341774Y-105362102D01*
X155323942Y-105451748D01*
X155275000Y-105446928D01*
X155060750Y-105450000D01*
X154902000Y-105608750D01*
X154648000Y-105608750D01*
X154489250Y-105450000D01*
X154275000Y-105446928D01*
X154150518Y-105459188D01*
X154030820Y-105495498D01*
X153920506Y-105554463D01*
X153823815Y-105633815D01*
X153744463Y-105730506D01*
X153685498Y-105840820D01*
X153649188Y-105960518D01*
X153636928Y-106085000D01*
X152433072Y-106085000D01*
X152420812Y-105960518D01*
X152384502Y-105840820D01*
X152325537Y-105730506D01*
X152292000Y-105689641D01*
X152292000Y-105562061D01*
X152252226Y-105362102D01*
X152174205Y-105173744D01*
X152060937Y-105004226D01*
X151916774Y-104860063D01*
X151747256Y-104746795D01*
X151558898Y-104668774D01*
X151358939Y-104629000D01*
X151155061Y-104629000D01*
X150955102Y-104668774D01*
X150766744Y-104746795D01*
X150597226Y-104860063D01*
X150453063Y-105004226D01*
X150339795Y-105173744D01*
X150261774Y-105362102D01*
X150243942Y-105451748D01*
X150195000Y-105446928D01*
X149980750Y-105450000D01*
X149822000Y-105608750D01*
X149568000Y-105608750D01*
X149409250Y-105450000D01*
X149195000Y-105446928D01*
X149070518Y-105459188D01*
X148950820Y-105495498D01*
X148840506Y-105554463D01*
X148743815Y-105633815D01*
X148664463Y-105730506D01*
X148605498Y-105840820D01*
X148569188Y-105960518D01*
X148556928Y-106085000D01*
X147353072Y-106085000D01*
X147340812Y-105960518D01*
X147304502Y-105840820D01*
X147245537Y-105730506D01*
X147212000Y-105689641D01*
X147212000Y-105562061D01*
X147172226Y-105362102D01*
X147094205Y-105173744D01*
X146980937Y-105004226D01*
X146836774Y-104860063D01*
X146667256Y-104746795D01*
X146478898Y-104668774D01*
X146278939Y-104629000D01*
X146075061Y-104629000D01*
X145875102Y-104668774D01*
X145686744Y-104746795D01*
X145517226Y-104860063D01*
X145373063Y-105004226D01*
X145259795Y-105173744D01*
X145181774Y-105362102D01*
X145163942Y-105451748D01*
X145115000Y-105446928D01*
X144900750Y-105450000D01*
X144742000Y-105608750D01*
X144488000Y-105608750D01*
X144329250Y-105450000D01*
X144115000Y-105446928D01*
X143990518Y-105459188D01*
X143870820Y-105495498D01*
X143760506Y-105554463D01*
X143663815Y-105633815D01*
X143584463Y-105730506D01*
X143525498Y-105840820D01*
X143489188Y-105960518D01*
X143476928Y-106085000D01*
X142273072Y-106085000D01*
X142260812Y-105960518D01*
X142224502Y-105840820D01*
X142165537Y-105730506D01*
X142086185Y-105633815D01*
X141989494Y-105554463D01*
X141879180Y-105495498D01*
X141759482Y-105459188D01*
X141635000Y-105446928D01*
X140635000Y-105446928D01*
X140510518Y-105459188D01*
X140390820Y-105495498D01*
X140335000Y-105525335D01*
X140279180Y-105495498D01*
X140159482Y-105459188D01*
X140035000Y-105446928D01*
X139820750Y-105450000D01*
X139662000Y-105608750D01*
X139408000Y-105608750D01*
X139249250Y-105450000D01*
X139035000Y-105446928D01*
X138910518Y-105459188D01*
X138790820Y-105495498D01*
X138680506Y-105554463D01*
X138583815Y-105633815D01*
X138504463Y-105730506D01*
X138445498Y-105840820D01*
X138409188Y-105960518D01*
X138396928Y-106085000D01*
X137193072Y-106085000D01*
X137180812Y-105960518D01*
X137144502Y-105840820D01*
X137085537Y-105730506D01*
X137006185Y-105633815D01*
X136909494Y-105554463D01*
X136815000Y-105503954D01*
X136815000Y-104753876D01*
X136926164Y-104694458D01*
X137059792Y-104584792D01*
X137169458Y-104451164D01*
X137250947Y-104298709D01*
X137261173Y-104265000D01*
X141917289Y-104265000D01*
X141961226Y-104308937D01*
X142130744Y-104422205D01*
X142319102Y-104500226D01*
X142519061Y-104540000D01*
X142722939Y-104540000D01*
X142922898Y-104500226D01*
X143111256Y-104422205D01*
X143280774Y-104308937D01*
X143424937Y-104164774D01*
X143538205Y-103995256D01*
X143616226Y-103806898D01*
X143656000Y-103606939D01*
X143656000Y-103403061D01*
X143616226Y-103203102D01*
X143538205Y-103014744D01*
X143424937Y-102845226D01*
X143280774Y-102701063D01*
X143111256Y-102587795D01*
X142922898Y-102509774D01*
X142722939Y-102470000D01*
X142519061Y-102470000D01*
X142319102Y-102509774D01*
X142130744Y-102587795D01*
X141961226Y-102701063D01*
X141917289Y-102745000D01*
X137261173Y-102745000D01*
X137250947Y-102711291D01*
X137169458Y-102558836D01*
X137059792Y-102425208D01*
X136926164Y-102315542D01*
X136773709Y-102234053D01*
X136608285Y-102183872D01*
X136436250Y-102166928D01*
X135948750Y-102166928D01*
X135776715Y-102183872D01*
X135611291Y-102234053D01*
X135458836Y-102315542D01*
X135325208Y-102425208D01*
X135319992Y-102431564D01*
X135256185Y-102353815D01*
X135159494Y-102274463D01*
X135049180Y-102215498D01*
X134929482Y-102179188D01*
X134805000Y-102166928D01*
X134603250Y-102170000D01*
X134444500Y-102328750D01*
X134190500Y-102328750D01*
X134031750Y-102170000D01*
X133830000Y-102166928D01*
X133705518Y-102179188D01*
X133585820Y-102215498D01*
X133475506Y-102274463D01*
X133378815Y-102353815D01*
X133299463Y-102450506D01*
X133240498Y-102560820D01*
X133204188Y-102680518D01*
X133191928Y-102805000D01*
X132433600Y-102805000D01*
X132433600Y-100373311D01*
X132477537Y-100329374D01*
X132590805Y-100159856D01*
X132668826Y-99971498D01*
X132708600Y-99771539D01*
X132708600Y-99567661D01*
X132668826Y-99367702D01*
X132590805Y-99179344D01*
X132477537Y-99009826D01*
X132333374Y-98865663D01*
X132163856Y-98752395D01*
X131975498Y-98674374D01*
X131775539Y-98634600D01*
X131571661Y-98634600D01*
X131371702Y-98674374D01*
X131183344Y-98752395D01*
X131013826Y-98865663D01*
X130869663Y-99009826D01*
X130756395Y-99179344D01*
X130678374Y-99367702D01*
X130638600Y-99567661D01*
X130638600Y-99771539D01*
X130678374Y-99971498D01*
X130756395Y-100159856D01*
X130869663Y-100329374D01*
X130913600Y-100373311D01*
X130913601Y-103814945D01*
X130821745Y-103823992D01*
X130655149Y-103874528D01*
X130501613Y-103956595D01*
X130367038Y-104067038D01*
X130256595Y-104201613D01*
X130225386Y-104260000D01*
X128854614Y-104260000D01*
X128823405Y-104201613D01*
X128712962Y-104067038D01*
X128578387Y-103956595D01*
X128424851Y-103874528D01*
X128258255Y-103823992D01*
X128085001Y-103806928D01*
X127184999Y-103806928D01*
X127011745Y-103823992D01*
X126845149Y-103874528D01*
X126691613Y-103956595D01*
X126557038Y-104067038D01*
X126446595Y-104201613D01*
X126364528Y-104355149D01*
X126313992Y-104521745D01*
X126296928Y-104694999D01*
X126296928Y-105345001D01*
X126313992Y-105518255D01*
X126364528Y-105684851D01*
X126446595Y-105838387D01*
X126557038Y-105972962D01*
X126644816Y-106045000D01*
X126557038Y-106117038D01*
X126446595Y-106251613D01*
X126364528Y-106405149D01*
X126313992Y-106571745D01*
X126296928Y-106744999D01*
X126296928Y-107395001D01*
X126313992Y-107568255D01*
X126364528Y-107734851D01*
X126446595Y-107888387D01*
X126557038Y-108022962D01*
X126572723Y-108035834D01*
X126555208Y-108050208D01*
X126445542Y-108183836D01*
X126364053Y-108336291D01*
X126313872Y-108501715D01*
X126296928Y-108673750D01*
X126296928Y-109161250D01*
X126313872Y-109333285D01*
X126364053Y-109498709D01*
X126445542Y-109651164D01*
X126555208Y-109784792D01*
X126561564Y-109790008D01*
X126483815Y-109853815D01*
X126404463Y-109950506D01*
X126345498Y-110060820D01*
X126309188Y-110180518D01*
X126296928Y-110305000D01*
X126300000Y-110506750D01*
X126458750Y-110665500D01*
X127508000Y-110665500D01*
X127508000Y-110645500D01*
X127762000Y-110645500D01*
X127762000Y-110665500D01*
X128811250Y-110665500D01*
X128970000Y-110506750D01*
X128973072Y-110305000D01*
X128960812Y-110180518D01*
X128924502Y-110060820D01*
X128865537Y-109950506D01*
X128786185Y-109853815D01*
X128708436Y-109790008D01*
X128714792Y-109784792D01*
X128824458Y-109651164D01*
X128905947Y-109498709D01*
X128956128Y-109333285D01*
X128973072Y-109161250D01*
X128973072Y-108673750D01*
X128956128Y-108501715D01*
X128905947Y-108336291D01*
X128824458Y-108183836D01*
X128714792Y-108050208D01*
X128697277Y-108035834D01*
X128712962Y-108022962D01*
X128823405Y-107888387D01*
X128905472Y-107734851D01*
X128956008Y-107568255D01*
X128973072Y-107395001D01*
X128973072Y-106744999D01*
X128956008Y-106571745D01*
X128905472Y-106405149D01*
X128823405Y-106251613D01*
X128712962Y-106117038D01*
X128625184Y-106045000D01*
X128712962Y-105972962D01*
X128823405Y-105838387D01*
X128854614Y-105780000D01*
X130225386Y-105780000D01*
X130256595Y-105838387D01*
X130367038Y-105972962D01*
X130454816Y-106045000D01*
X130367038Y-106117038D01*
X130256595Y-106251613D01*
X130174528Y-106405149D01*
X130123992Y-106571745D01*
X130106928Y-106744999D01*
X130106928Y-107395001D01*
X130123992Y-107568255D01*
X130174528Y-107734851D01*
X130256595Y-107888387D01*
X130367038Y-108022962D01*
X130382723Y-108035834D01*
X130365208Y-108050208D01*
X130255542Y-108183836D01*
X130174053Y-108336291D01*
X130123872Y-108501715D01*
X130106928Y-108673750D01*
X130106928Y-109161250D01*
X130123872Y-109333285D01*
X130174053Y-109498709D01*
X130255542Y-109651164D01*
X130365208Y-109784792D01*
X130450756Y-109855000D01*
X130365208Y-109925208D01*
X130255542Y-110058836D01*
X130174053Y-110211291D01*
X130123872Y-110376715D01*
X130106928Y-110548750D01*
X130106928Y-111036250D01*
X130123872Y-111208285D01*
X130174053Y-111373709D01*
X130255542Y-111526164D01*
X130365208Y-111659792D01*
X130456849Y-111735000D01*
X128781536Y-111735000D01*
X128786185Y-111731185D01*
X128865537Y-111634494D01*
X128924502Y-111524180D01*
X128960812Y-111404482D01*
X128973072Y-111280000D01*
X128970000Y-111078250D01*
X128811250Y-110919500D01*
X127762000Y-110919500D01*
X127762000Y-110939500D01*
X127508000Y-110939500D01*
X127508000Y-110919500D01*
X126458750Y-110919500D01*
X126300000Y-111078250D01*
X126296928Y-111280000D01*
X126309188Y-111404482D01*
X126345498Y-111524180D01*
X126404463Y-111634494D01*
X126483815Y-111731185D01*
X126488464Y-111735000D01*
X124971536Y-111735000D01*
X124976185Y-111731185D01*
X125055537Y-111634494D01*
X125114502Y-111524180D01*
X125150812Y-111404482D01*
X125163072Y-111280000D01*
X125160000Y-111078250D01*
X125001250Y-110919500D01*
X123952000Y-110919500D01*
X123952000Y-110939500D01*
X123698000Y-110939500D01*
X123698000Y-110919500D01*
X122648750Y-110919500D01*
X122490000Y-111078250D01*
X122486928Y-111280000D01*
X122499188Y-111404482D01*
X122535498Y-111524180D01*
X122594463Y-111634494D01*
X122673815Y-111731185D01*
X122678464Y-111735000D01*
X99092278Y-111735000D01*
X98572117Y-111683998D01*
X98102814Y-111542307D01*
X97669972Y-111312161D01*
X97290073Y-111002323D01*
X96977594Y-110624600D01*
X96744431Y-110193373D01*
X96599468Y-109725073D01*
X96545000Y-109206847D01*
X96545000Y-107830000D01*
X110006928Y-107830000D01*
X110019188Y-107954482D01*
X110055498Y-108074180D01*
X110114463Y-108184494D01*
X110193815Y-108281185D01*
X110290506Y-108360537D01*
X110400820Y-108419502D01*
X110520518Y-108455812D01*
X110645000Y-108468072D01*
X112109250Y-108465000D01*
X112268000Y-108306250D01*
X112268000Y-106457000D01*
X112522000Y-106457000D01*
X112522000Y-108306250D01*
X112680750Y-108465000D01*
X114145000Y-108468072D01*
X114269482Y-108455812D01*
X114389180Y-108419502D01*
X114499494Y-108360537D01*
X114596185Y-108281185D01*
X114675537Y-108184494D01*
X114734502Y-108074180D01*
X114770812Y-107954482D01*
X114783072Y-107830000D01*
X114780000Y-106615750D01*
X114621250Y-106457000D01*
X112522000Y-106457000D01*
X112268000Y-106457000D01*
X110168750Y-106457000D01*
X110010000Y-106615750D01*
X110006928Y-107830000D01*
X96545000Y-107830000D01*
X96545000Y-104830000D01*
X110006928Y-104830000D01*
X110010000Y-106044250D01*
X110168750Y-106203000D01*
X112268000Y-106203000D01*
X112268000Y-104353750D01*
X112522000Y-104353750D01*
X112522000Y-106203000D01*
X114621250Y-106203000D01*
X114780000Y-106044250D01*
X114781698Y-105373195D01*
X114814463Y-105434494D01*
X114893815Y-105531185D01*
X114990506Y-105610537D01*
X115100820Y-105669502D01*
X115220518Y-105705812D01*
X115345000Y-105718072D01*
X116809250Y-105715000D01*
X116968000Y-105556250D01*
X116968000Y-103457000D01*
X117222000Y-103457000D01*
X117222000Y-105556250D01*
X117380750Y-105715000D01*
X118845000Y-105718072D01*
X118969482Y-105705812D01*
X119089180Y-105669502D01*
X119199494Y-105610537D01*
X119296185Y-105531185D01*
X119375537Y-105434494D01*
X119434502Y-105324180D01*
X119470812Y-105204482D01*
X119483072Y-105080000D01*
X119482265Y-104694999D01*
X122486928Y-104694999D01*
X122486928Y-105345001D01*
X122503992Y-105518255D01*
X122554528Y-105684851D01*
X122636595Y-105838387D01*
X122747038Y-105972962D01*
X122834816Y-106045000D01*
X122747038Y-106117038D01*
X122636595Y-106251613D01*
X122554528Y-106405149D01*
X122503992Y-106571745D01*
X122486928Y-106744999D01*
X122486928Y-107395001D01*
X122503992Y-107568255D01*
X122554528Y-107734851D01*
X122636595Y-107888387D01*
X122747038Y-108022962D01*
X122762723Y-108035834D01*
X122745208Y-108050208D01*
X122635542Y-108183836D01*
X122554053Y-108336291D01*
X122503872Y-108501715D01*
X122486928Y-108673750D01*
X122486928Y-109161250D01*
X122503872Y-109333285D01*
X122554053Y-109498709D01*
X122635542Y-109651164D01*
X122745208Y-109784792D01*
X122751564Y-109790008D01*
X122673815Y-109853815D01*
X122594463Y-109950506D01*
X122535498Y-110060820D01*
X122499188Y-110180518D01*
X122486928Y-110305000D01*
X122490000Y-110506750D01*
X122648750Y-110665500D01*
X123698000Y-110665500D01*
X123698000Y-110645500D01*
X123952000Y-110645500D01*
X123952000Y-110665500D01*
X125001250Y-110665500D01*
X125160000Y-110506750D01*
X125163072Y-110305000D01*
X125150812Y-110180518D01*
X125114502Y-110060820D01*
X125055537Y-109950506D01*
X124976185Y-109853815D01*
X124898436Y-109790008D01*
X124904792Y-109784792D01*
X125014458Y-109651164D01*
X125095947Y-109498709D01*
X125146128Y-109333285D01*
X125163072Y-109161250D01*
X125163072Y-108673750D01*
X125146128Y-108501715D01*
X125095947Y-108336291D01*
X125014458Y-108183836D01*
X124904792Y-108050208D01*
X124887277Y-108035834D01*
X124902962Y-108022962D01*
X125013405Y-107888387D01*
X125095472Y-107734851D01*
X125146008Y-107568255D01*
X125163072Y-107395001D01*
X125163072Y-106744999D01*
X125146008Y-106571745D01*
X125095472Y-106405149D01*
X125013405Y-106251613D01*
X124902962Y-106117038D01*
X124815184Y-106045000D01*
X124902962Y-105972962D01*
X125013405Y-105838387D01*
X125095472Y-105684851D01*
X125146008Y-105518255D01*
X125163072Y-105345001D01*
X125163072Y-104694999D01*
X125146640Y-104528162D01*
X126304803Y-103370000D01*
X126476788Y-103370000D01*
X126678542Y-103329869D01*
X126745150Y-103365472D01*
X126911746Y-103416008D01*
X127085000Y-103433072D01*
X128185000Y-103433072D01*
X128358254Y-103416008D01*
X128524850Y-103365472D01*
X128678386Y-103283405D01*
X128812962Y-103172962D01*
X128923405Y-103038386D01*
X129005472Y-102884850D01*
X129056008Y-102718254D01*
X129073072Y-102545000D01*
X129073072Y-100445000D01*
X129056008Y-100271746D01*
X129005472Y-100105150D01*
X128923405Y-99951614D01*
X128812962Y-99817038D01*
X128736187Y-99754031D01*
X128789494Y-99725537D01*
X128886185Y-99646185D01*
X128965537Y-99549494D01*
X129024502Y-99439180D01*
X129060812Y-99319482D01*
X129073072Y-99195000D01*
X129070000Y-98180750D01*
X128911250Y-98022000D01*
X127762000Y-98022000D01*
X127762000Y-98042000D01*
X127508000Y-98042000D01*
X127508000Y-98022000D01*
X126358750Y-98022000D01*
X126200000Y-98180750D01*
X126196928Y-99195000D01*
X126209188Y-99319482D01*
X126245498Y-99439180D01*
X126304463Y-99549494D01*
X126383815Y-99646185D01*
X126480506Y-99725537D01*
X126533813Y-99754031D01*
X126457038Y-99817038D01*
X126346595Y-99951614D01*
X126264528Y-100105150D01*
X126213992Y-100271746D01*
X126196928Y-100445000D01*
X126196928Y-101111196D01*
X126033933Y-101143617D01*
X125827376Y-101229176D01*
X125641480Y-101353388D01*
X125483388Y-101511480D01*
X125359176Y-101697376D01*
X125273617Y-101903933D01*
X125230000Y-102123212D01*
X125230000Y-102295197D01*
X123718271Y-103806928D01*
X123374999Y-103806928D01*
X123201745Y-103823992D01*
X123035149Y-103874528D01*
X122881613Y-103956595D01*
X122747038Y-104067038D01*
X122636595Y-104201613D01*
X122554528Y-104355149D01*
X122503992Y-104521745D01*
X122486928Y-104694999D01*
X119482265Y-104694999D01*
X119480000Y-103615750D01*
X119321250Y-103457000D01*
X117222000Y-103457000D01*
X116968000Y-103457000D01*
X114868750Y-103457000D01*
X114710000Y-103615750D01*
X114708069Y-104536367D01*
X114675537Y-104475506D01*
X114596185Y-104378815D01*
X114499494Y-104299463D01*
X114389180Y-104240498D01*
X114269482Y-104204188D01*
X114145000Y-104191928D01*
X112680750Y-104195000D01*
X112522000Y-104353750D01*
X112268000Y-104353750D01*
X112109250Y-104195000D01*
X110645000Y-104191928D01*
X110520518Y-104204188D01*
X110400820Y-104240498D01*
X110290506Y-104299463D01*
X110193815Y-104378815D01*
X110114463Y-104475506D01*
X110055498Y-104585820D01*
X110019188Y-104705518D01*
X110006928Y-104830000D01*
X96545000Y-104830000D01*
X96545000Y-77502278D01*
X96596002Y-76982116D01*
X96737694Y-76512812D01*
X96967837Y-76079975D01*
X97277678Y-75700073D01*
X97655397Y-75387597D01*
X98086627Y-75154431D01*
X98554928Y-75009468D01*
X99073153Y-74955000D01*
X132649669Y-74955000D01*
X132650000Y-74976750D01*
G37*
X132650000Y-74976750D02*
X132808750Y-75135500D01*
X133858000Y-75135500D01*
X133858000Y-75115500D01*
X134112000Y-75115500D01*
X134112000Y-75135500D01*
X135161250Y-75135500D01*
X135255000Y-75041750D01*
X135348750Y-75135500D01*
X136398000Y-75135500D01*
X136398000Y-75115500D01*
X136652000Y-75115500D01*
X136652000Y-75135500D01*
X136672000Y-75135500D01*
X136672000Y-75389500D01*
X136652000Y-75389500D01*
X136652000Y-75409500D01*
X136398000Y-75409500D01*
X136398000Y-75389500D01*
X135348750Y-75389500D01*
X135255000Y-75483250D01*
X135161250Y-75389500D01*
X134112000Y-75389500D01*
X134112000Y-75409500D01*
X133858000Y-75409500D01*
X133858000Y-75389500D01*
X132808750Y-75389500D01*
X132650000Y-75548250D01*
X132646928Y-75750000D01*
X132659188Y-75874482D01*
X132695498Y-75994180D01*
X132754463Y-76104494D01*
X132833815Y-76201185D01*
X132911564Y-76264992D01*
X132905208Y-76270208D01*
X132795542Y-76403836D01*
X132714053Y-76556291D01*
X132663872Y-76721715D01*
X132646928Y-76893750D01*
X132646928Y-77381250D01*
X132663872Y-77553285D01*
X132714053Y-77718709D01*
X132795542Y-77871164D01*
X132905208Y-78004792D01*
X133038836Y-78114458D01*
X133191291Y-78195947D01*
X133356715Y-78246128D01*
X133528750Y-78263072D01*
X134441250Y-78263072D01*
X134613285Y-78246128D01*
X134778709Y-78195947D01*
X134931164Y-78114458D01*
X134951827Y-78097500D01*
X135558173Y-78097500D01*
X135578836Y-78114458D01*
X135731291Y-78195947D01*
X135896715Y-78246128D01*
X136068750Y-78263072D01*
X136981250Y-78263072D01*
X137153285Y-78246128D01*
X137318709Y-78195947D01*
X137471164Y-78114458D01*
X137491827Y-78097500D01*
X137572348Y-78097500D01*
X137619500Y-78102144D01*
X137666652Y-78097500D01*
X137666662Y-78097500D01*
X137807693Y-78083610D01*
X137816928Y-78080809D01*
X137816928Y-78555000D01*
X137829188Y-78679482D01*
X137847546Y-78740000D01*
X137829188Y-78800518D01*
X137816928Y-78925000D01*
X137816928Y-79825000D01*
X137829188Y-79949482D01*
X137847546Y-80010000D01*
X137829188Y-80070518D01*
X137816928Y-80195000D01*
X137816928Y-81095000D01*
X137829188Y-81219482D01*
X137847546Y-81279999D01*
X137829188Y-81340518D01*
X137816928Y-81465000D01*
X137816928Y-82365000D01*
X137829188Y-82489482D01*
X137847546Y-82550000D01*
X137829188Y-82610518D01*
X137816928Y-82735000D01*
X137816928Y-83635000D01*
X137822837Y-83695000D01*
X136204802Y-83695000D01*
X132840000Y-80330199D01*
X132840000Y-79539333D01*
X132843677Y-79502000D01*
X132829003Y-79353014D01*
X132785546Y-79209753D01*
X132714974Y-79077724D01*
X132656263Y-79006185D01*
X132620001Y-78961999D01*
X132591003Y-78938201D01*
X132035500Y-78382699D01*
X132035500Y-78320561D01*
X131995726Y-78120602D01*
X131917705Y-77932244D01*
X131804437Y-77762726D01*
X131660274Y-77618563D01*
X131490756Y-77505295D01*
X131302398Y-77427274D01*
X131102439Y-77387500D01*
X130898561Y-77387500D01*
X130698602Y-77427274D01*
X130510244Y-77505295D01*
X130340726Y-77618563D01*
X130196563Y-77762726D01*
X130125252Y-77869451D01*
X127944804Y-75689003D01*
X127921001Y-75659999D01*
X127805276Y-75565026D01*
X127673247Y-75494454D01*
X127529986Y-75450997D01*
X127418333Y-75440000D01*
X127418322Y-75440000D01*
X127381000Y-75436324D01*
X127343678Y-75440000D01*
X113448325Y-75440000D01*
X113411000Y-75436324D01*
X113373675Y-75440000D01*
X113373667Y-75440000D01*
X113262014Y-75450997D01*
X113118753Y-75494454D01*
X112986724Y-75565026D01*
X112870999Y-75659999D01*
X112847201Y-75688997D01*
X111148699Y-77387500D01*
X111086561Y-77387500D01*
X110886602Y-77427274D01*
X110698244Y-77505295D01*
X110528726Y-77618563D01*
X110384563Y-77762726D01*
X110271295Y-77932244D01*
X110193274Y-78120602D01*
X110153500Y-78320561D01*
X110153500Y-78524439D01*
X110193274Y-78724398D01*
X110271295Y-78912756D01*
X110384563Y-79082274D01*
X110490744Y-79188455D01*
X110111699Y-79567500D01*
X100335211Y-79567500D01*
X100291274Y-79523563D01*
X100121756Y-79410295D01*
X99933398Y-79332274D01*
X99733439Y-79292500D01*
X99529561Y-79292500D01*
X99329602Y-79332274D01*
X99141244Y-79410295D01*
X98971726Y-79523563D01*
X98827563Y-79667726D01*
X98714295Y-79837244D01*
X98636274Y-80025602D01*
X98596500Y-80225561D01*
X98596500Y-80429439D01*
X98636274Y-80629398D01*
X98714295Y-80817756D01*
X98827563Y-80987274D01*
X98971726Y-81131437D01*
X99141244Y-81244705D01*
X99329602Y-81322726D01*
X99529561Y-81362500D01*
X99733439Y-81362500D01*
X99933398Y-81322726D01*
X100121756Y-81244705D01*
X100291274Y-81131437D01*
X100335211Y-81087500D01*
X102271924Y-81087500D01*
X102189010Y-81211589D01*
X102077068Y-81481842D01*
X102020000Y-81768740D01*
X102020000Y-82061260D01*
X102077068Y-82348158D01*
X102108897Y-82425000D01*
X100621322Y-82425000D01*
X100583999Y-82421324D01*
X100546676Y-82425000D01*
X100546667Y-82425000D01*
X100435014Y-82435997D01*
X100291753Y-82479454D01*
X100159724Y-82550026D01*
X100143685Y-82563189D01*
X100072996Y-82621201D01*
X100072992Y-82621205D01*
X100043999Y-82644999D01*
X100020205Y-82673992D01*
X99591698Y-83102500D01*
X99529561Y-83102500D01*
X99329602Y-83142274D01*
X99141244Y-83220295D01*
X98971726Y-83333563D01*
X98827563Y-83477726D01*
X98714295Y-83647244D01*
X98636274Y-83835602D01*
X98596500Y-84035561D01*
X98596500Y-84239439D01*
X98636274Y-84439398D01*
X98714295Y-84627756D01*
X98827563Y-84797274D01*
X98971726Y-84941437D01*
X99141244Y-85054705D01*
X99329602Y-85132726D01*
X99529561Y-85172500D01*
X99733439Y-85172500D01*
X99933398Y-85132726D01*
X100121756Y-85054705D01*
X100291274Y-84941437D01*
X100435437Y-84797274D01*
X100548705Y-84627756D01*
X100626726Y-84439398D01*
X100666500Y-84239439D01*
X100666500Y-84177302D01*
X100898803Y-83945000D01*
X102108897Y-83945000D01*
X102077068Y-84021842D01*
X102020000Y-84308740D01*
X102020000Y-84601260D01*
X102077068Y-84888158D01*
X102108897Y-84965000D01*
X101891325Y-84965000D01*
X101854000Y-84961324D01*
X101816675Y-84965000D01*
X101816667Y-84965000D01*
X101705014Y-84975997D01*
X101561753Y-85019454D01*
X101429724Y-85090026D01*
X101313999Y-85184999D01*
X101290201Y-85213997D01*
X99591699Y-86912500D01*
X99529561Y-86912500D01*
X99329602Y-86952274D01*
X99141244Y-87030295D01*
X98971726Y-87143563D01*
X98827563Y-87287726D01*
X98714295Y-87457244D01*
X98636274Y-87645602D01*
X98596500Y-87845561D01*
X98596500Y-88049439D01*
X98636274Y-88249398D01*
X98714295Y-88437756D01*
X98827563Y-88607274D01*
X98971726Y-88751437D01*
X99141244Y-88864705D01*
X99329602Y-88942726D01*
X99529561Y-88982500D01*
X99733439Y-88982500D01*
X99933398Y-88942726D01*
X100121756Y-88864705D01*
X100291274Y-88751437D01*
X100435437Y-88607274D01*
X100548705Y-88437756D01*
X100626726Y-88249398D01*
X100666500Y-88049439D01*
X100666500Y-87987301D01*
X102073370Y-86580432D01*
X102020000Y-86848740D01*
X102020000Y-87141260D01*
X102077068Y-87428158D01*
X102112376Y-87513400D01*
X102086014Y-87515997D01*
X101960779Y-87553986D01*
X101942753Y-87559454D01*
X101810723Y-87630026D01*
X101737014Y-87690518D01*
X101694999Y-87724999D01*
X101671201Y-87753997D01*
X99120498Y-90304701D01*
X99091500Y-90328499D01*
X99067702Y-90357497D01*
X99067701Y-90357498D01*
X98996526Y-90444224D01*
X98925954Y-90576254D01*
X98904474Y-90647068D01*
X98882498Y-90719514D01*
X98871500Y-90831167D01*
X98871500Y-90831178D01*
X98867824Y-90868500D01*
X98871500Y-90905822D01*
X98871500Y-91053789D01*
X98827563Y-91097726D01*
X98714295Y-91267244D01*
X98636274Y-91455602D01*
X98596500Y-91655561D01*
X98596500Y-91859439D01*
X98636274Y-92059398D01*
X98714295Y-92247756D01*
X98827563Y-92417274D01*
X98971726Y-92561437D01*
X99141244Y-92674705D01*
X99329602Y-92752726D01*
X99529561Y-92792500D01*
X99733439Y-92792500D01*
X99933398Y-92752726D01*
X100121756Y-92674705D01*
X100291274Y-92561437D01*
X100435437Y-92417274D01*
X100548705Y-92247756D01*
X100626726Y-92059398D01*
X100666500Y-91859439D01*
X100666500Y-91655561D01*
X100626726Y-91455602D01*
X100548705Y-91267244D01*
X100452115Y-91122686D01*
X102020000Y-89554802D01*
X102020000Y-89681260D01*
X102077068Y-89968158D01*
X102163587Y-90177033D01*
X102111118Y-90182201D01*
X101991996Y-90218336D01*
X101882213Y-90277017D01*
X101785987Y-90355987D01*
X101707017Y-90452213D01*
X101648336Y-90561996D01*
X101612201Y-90681118D01*
X101600000Y-90805000D01*
X101600000Y-93980000D01*
X101612201Y-94103882D01*
X101648336Y-94223004D01*
X101707017Y-94332787D01*
X101785987Y-94429013D01*
X110040987Y-102684013D01*
X110137213Y-102762983D01*
X110246996Y-102821664D01*
X110366118Y-102857799D01*
X110490000Y-102870000D01*
X114709634Y-102870000D01*
X114710000Y-103044250D01*
X114868750Y-103203000D01*
X116968000Y-103203000D01*
X116968000Y-103183000D01*
X117222000Y-103183000D01*
X117222000Y-103203000D01*
X119321250Y-103203000D01*
X119480000Y-103044250D01*
X119482694Y-101760332D01*
X124648026Y-96595000D01*
X126196928Y-96595000D01*
X126200000Y-97609250D01*
X126358750Y-97768000D01*
X127508000Y-97768000D01*
X127508000Y-96118750D01*
X127762000Y-96118750D01*
X127762000Y-97768000D01*
X128911250Y-97768000D01*
X129070000Y-97609250D01*
X129073072Y-96595000D01*
X129060812Y-96470518D01*
X129024502Y-96350820D01*
X128965537Y-96240506D01*
X128886185Y-96143815D01*
X128789494Y-96064463D01*
X128679180Y-96005498D01*
X128559482Y-95969188D01*
X128435000Y-95956928D01*
X127920750Y-95960000D01*
X127762000Y-96118750D01*
X127508000Y-96118750D01*
X127349250Y-95960000D01*
X126835000Y-95956928D01*
X126710518Y-95969188D01*
X126590820Y-96005498D01*
X126480506Y-96064463D01*
X126383815Y-96143815D01*
X126304463Y-96240506D01*
X126245498Y-96350820D01*
X126209188Y-96470518D01*
X126196928Y-96595000D01*
X124648026Y-96595000D01*
X126814013Y-94429013D01*
X126892983Y-94332787D01*
X126951664Y-94223004D01*
X126987799Y-94103882D01*
X127000000Y-93980000D01*
X127000000Y-92679799D01*
X134526203Y-100206003D01*
X134550001Y-100235001D01*
X134578999Y-100258799D01*
X134665726Y-100329974D01*
X134797755Y-100400546D01*
X134941016Y-100444003D01*
X135090002Y-100458677D01*
X135127335Y-100455000D01*
X154188027Y-100455000D01*
X154186629Y-100456703D01*
X154104544Y-100610273D01*
X154053996Y-100776907D01*
X154036928Y-100950200D01*
X154036928Y-102249800D01*
X154053996Y-102423093D01*
X154104544Y-102589727D01*
X154186629Y-102743297D01*
X154297097Y-102877903D01*
X154431703Y-102988371D01*
X154585273Y-103070456D01*
X154751907Y-103121004D01*
X154925200Y-103138072D01*
X156038271Y-103138072D01*
X157297200Y-104397002D01*
X157320999Y-104426001D01*
X157436724Y-104520974D01*
X157568753Y-104591546D01*
X157712014Y-104635003D01*
X157823667Y-104646000D01*
X157823676Y-104646000D01*
X157860999Y-104649676D01*
X157898322Y-104646000D01*
X159197199Y-104646000D01*
X160070974Y-105519776D01*
X159982000Y-105608750D01*
X159982000Y-106408000D01*
X160002000Y-106408000D01*
X160002000Y-106662000D01*
X159982000Y-106662000D01*
X159982000Y-107461250D01*
X160140750Y-107620000D01*
X160355000Y-107623072D01*
X160479482Y-107610812D01*
X160599180Y-107574502D01*
X160655000Y-107544665D01*
X160695001Y-107566046D01*
X160695000Y-109603954D01*
X160655000Y-109625335D01*
X160599180Y-109595498D01*
X160479482Y-109559188D01*
X160355000Y-109546928D01*
X160140750Y-109550000D01*
X159982000Y-109708750D01*
X159982000Y-110508000D01*
X160002000Y-110508000D01*
X160002000Y-110762000D01*
X159982000Y-110762000D01*
X159982000Y-111561250D01*
X160140750Y-111720000D01*
X160355000Y-111723072D01*
X160479482Y-111710812D01*
X160599180Y-111674502D01*
X160655000Y-111644665D01*
X160710820Y-111674502D01*
X160830518Y-111710812D01*
X160955000Y-111723072D01*
X161955000Y-111723072D01*
X162079482Y-111710812D01*
X162199180Y-111674502D01*
X162309494Y-111615537D01*
X162406185Y-111536185D01*
X162485537Y-111439494D01*
X162544502Y-111329180D01*
X162580812Y-111209482D01*
X162593072Y-111085000D01*
X162593072Y-110185000D01*
X162580812Y-110060518D01*
X162544502Y-109940820D01*
X162485537Y-109830506D01*
X162406185Y-109733815D01*
X162309494Y-109654463D01*
X162215000Y-109603954D01*
X162215000Y-108707914D01*
X162331061Y-108731000D01*
X162534939Y-108731000D01*
X162734898Y-108691226D01*
X162923256Y-108613205D01*
X163092774Y-108499937D01*
X163236937Y-108355774D01*
X163350205Y-108186256D01*
X163428226Y-107997898D01*
X163468000Y-107797939D01*
X163468000Y-107735801D01*
X165349348Y-105854455D01*
X165423368Y-105928475D01*
X165666589Y-106090990D01*
X165936842Y-106202932D01*
X166223740Y-106260000D01*
X166516260Y-106260000D01*
X166803158Y-106202932D01*
X167073411Y-106090990D01*
X167316632Y-105928475D01*
X167523475Y-105721632D01*
X167685990Y-105478411D01*
X167797932Y-105208158D01*
X167855000Y-104921260D01*
X167855000Y-104628740D01*
X167797932Y-104341842D01*
X167685990Y-104071589D01*
X167523475Y-103828368D01*
X167316632Y-103621525D01*
X167142240Y-103505000D01*
X167316632Y-103388475D01*
X167523475Y-103181632D01*
X167685990Y-102938411D01*
X167797932Y-102668158D01*
X167855000Y-102381260D01*
X167855000Y-102088740D01*
X167797932Y-101801842D01*
X167685990Y-101531589D01*
X167523475Y-101288368D01*
X167316632Y-101081525D01*
X167142240Y-100965000D01*
X167316632Y-100848475D01*
X167523475Y-100641632D01*
X167685990Y-100398411D01*
X167797932Y-100128158D01*
X167855000Y-99841260D01*
X167855000Y-99548740D01*
X167797932Y-99261842D01*
X167685990Y-98991589D01*
X167523475Y-98748368D01*
X167316632Y-98541525D01*
X167142240Y-98425000D01*
X167316632Y-98308475D01*
X167523475Y-98101632D01*
X167685990Y-97858411D01*
X167797932Y-97588158D01*
X167855000Y-97301260D01*
X167855000Y-97008740D01*
X167797932Y-96721842D01*
X167685990Y-96451589D01*
X167523475Y-96208368D01*
X167316632Y-96001525D01*
X167142240Y-95885000D01*
X167316632Y-95768475D01*
X167523475Y-95561632D01*
X167685990Y-95318411D01*
X167797932Y-95048158D01*
X167855000Y-94761260D01*
X167855000Y-94468740D01*
X167797932Y-94181842D01*
X167685990Y-93911589D01*
X167523475Y-93668368D01*
X167316632Y-93461525D01*
X167142240Y-93345000D01*
X167316632Y-93228475D01*
X167523475Y-93021632D01*
X167685990Y-92778411D01*
X167797932Y-92508158D01*
X167855000Y-92221260D01*
X167855000Y-91928740D01*
X167797932Y-91641842D01*
X167685990Y-91371589D01*
X167523475Y-91128368D01*
X167316632Y-90921525D01*
X167142240Y-90805000D01*
X167316632Y-90688475D01*
X167523475Y-90481632D01*
X167685990Y-90238411D01*
X167797932Y-89968158D01*
X167855000Y-89681260D01*
X167855000Y-89388740D01*
X167797932Y-89101842D01*
X167685990Y-88831589D01*
X167523475Y-88588368D01*
X167316632Y-88381525D01*
X167142240Y-88265000D01*
X167316632Y-88148475D01*
X167523475Y-87941632D01*
X167685990Y-87698411D01*
X167797932Y-87428158D01*
X167855000Y-87141260D01*
X167855000Y-86848740D01*
X167797932Y-86561842D01*
X167685990Y-86291589D01*
X167523475Y-86048368D01*
X167316632Y-85841525D01*
X167142240Y-85725000D01*
X167316632Y-85608475D01*
X167523475Y-85401632D01*
X167685990Y-85158411D01*
X167797932Y-84888158D01*
X167855000Y-84601260D01*
X167855000Y-84308740D01*
X167797932Y-84021842D01*
X167685990Y-83751589D01*
X167523475Y-83508368D01*
X167391620Y-83376513D01*
X167464180Y-83354502D01*
X167574494Y-83295537D01*
X167671185Y-83216185D01*
X167750537Y-83119494D01*
X167809502Y-83009180D01*
X167845812Y-82889482D01*
X167858072Y-82765000D01*
X167855000Y-82200750D01*
X167696250Y-82042000D01*
X166497000Y-82042000D01*
X166497000Y-82062000D01*
X166243000Y-82062000D01*
X166243000Y-82042000D01*
X165043750Y-82042000D01*
X164885000Y-82200750D01*
X164881928Y-82765000D01*
X164894188Y-82889482D01*
X164930498Y-83009180D01*
X164989463Y-83119494D01*
X165068815Y-83216185D01*
X165165506Y-83295537D01*
X165275820Y-83354502D01*
X165348380Y-83376513D01*
X165216525Y-83508368D01*
X165054010Y-83751589D01*
X164942068Y-84021842D01*
X164885000Y-84308740D01*
X164885000Y-84601260D01*
X164942068Y-84888158D01*
X165054010Y-85158411D01*
X165216525Y-85401632D01*
X165423368Y-85608475D01*
X165597760Y-85725000D01*
X165423368Y-85841525D01*
X165216525Y-86048368D01*
X165054010Y-86291589D01*
X164942068Y-86561842D01*
X164885000Y-86848740D01*
X164885000Y-87141260D01*
X164911193Y-87272940D01*
X164284574Y-87899559D01*
X164252710Y-87925709D01*
X164210817Y-87976756D01*
X164148364Y-88052855D01*
X164070828Y-88197914D01*
X164023082Y-88355312D01*
X164006960Y-88519000D01*
X164011001Y-88560029D01*
X164011000Y-97063132D01*
X160975462Y-100098671D01*
X160806184Y-100065000D01*
X160503816Y-100065000D01*
X160207257Y-100123989D01*
X159927905Y-100239701D01*
X159676495Y-100407688D01*
X159462688Y-100621495D01*
X159360049Y-100775105D01*
X159179080Y-100715525D01*
X158294605Y-101600000D01*
X159179080Y-102484475D01*
X159360049Y-102424895D01*
X159462688Y-102578505D01*
X159676495Y-102792312D01*
X159927905Y-102960299D01*
X160207257Y-103076011D01*
X160503816Y-103135000D01*
X160806184Y-103135000D01*
X161102743Y-103076011D01*
X161382095Y-102960299D01*
X161633505Y-102792312D01*
X161847312Y-102578505D01*
X162015299Y-102327095D01*
X162131011Y-102047743D01*
X162190000Y-101751184D01*
X162190000Y-101448816D01*
X162156329Y-101279538D01*
X164213000Y-99222868D01*
X164213001Y-103213658D01*
X164213000Y-103213668D01*
X164213001Y-104841196D01*
X162593072Y-106461126D01*
X162593072Y-106085000D01*
X162580812Y-105960518D01*
X162544502Y-105840820D01*
X162485537Y-105730506D01*
X162406185Y-105633815D01*
X162309494Y-105554463D01*
X162199180Y-105495498D01*
X162126751Y-105473527D01*
X162089974Y-105404723D01*
X162018799Y-105317997D01*
X161995001Y-105288999D01*
X161966004Y-105265202D01*
X160075804Y-103375003D01*
X160052001Y-103345999D01*
X159936276Y-103251026D01*
X159804247Y-103180454D01*
X159660986Y-103136997D01*
X159549333Y-103126000D01*
X159549322Y-103126000D01*
X159512000Y-103122324D01*
X159474678Y-103126000D01*
X158286911Y-103126000D01*
X158480907Y-103098397D01*
X158766199Y-102998222D01*
X158915792Y-102918261D01*
X158999475Y-102664080D01*
X158115000Y-101779605D01*
X158100858Y-101793748D01*
X157921253Y-101614143D01*
X157935395Y-101600000D01*
X157088907Y-100753512D01*
X157045456Y-100610273D01*
X157005714Y-100535920D01*
X157230525Y-100535920D01*
X158115000Y-101420395D01*
X158999475Y-100535920D01*
X158915792Y-100281739D01*
X158643225Y-100150842D01*
X158350358Y-100075635D01*
X158048447Y-100059009D01*
X157749093Y-100101603D01*
X157463801Y-100201778D01*
X157314208Y-100281739D01*
X157230525Y-100535920D01*
X157005714Y-100535920D01*
X156963371Y-100456703D01*
X156852903Y-100322097D01*
X156748388Y-100236324D01*
X156750001Y-100235001D01*
X156773804Y-100205997D01*
X162436004Y-94543798D01*
X162465001Y-94520001D01*
X162559974Y-94404276D01*
X162630546Y-94272247D01*
X162674003Y-94128986D01*
X162685000Y-94017333D01*
X162685000Y-94017332D01*
X162688677Y-93980000D01*
X162685000Y-93942667D01*
X162685000Y-81092322D01*
X162687690Y-81065000D01*
X164881928Y-81065000D01*
X164885000Y-81629250D01*
X165043750Y-81788000D01*
X166243000Y-81788000D01*
X166243000Y-80588750D01*
X166497000Y-80588750D01*
X166497000Y-81788000D01*
X167696250Y-81788000D01*
X167855000Y-81629250D01*
X167858072Y-81065000D01*
X167845812Y-80940518D01*
X167809502Y-80820820D01*
X167750537Y-80710506D01*
X167671185Y-80613815D01*
X167574494Y-80534463D01*
X167464180Y-80475498D01*
X167344482Y-80439188D01*
X167220000Y-80426928D01*
X166655750Y-80430000D01*
X166497000Y-80588750D01*
X166243000Y-80588750D01*
X166084250Y-80430000D01*
X165520000Y-80426928D01*
X165395518Y-80439188D01*
X165275820Y-80475498D01*
X165165506Y-80534463D01*
X165068815Y-80613815D01*
X164989463Y-80710506D01*
X164930498Y-80820820D01*
X164894188Y-80940518D01*
X164881928Y-81065000D01*
X162687690Y-81065000D01*
X162688676Y-81054999D01*
X162685000Y-81017676D01*
X162685000Y-81017667D01*
X162674003Y-80906014D01*
X162630546Y-80762753D01*
X162559974Y-80630724D01*
X162465001Y-80514999D01*
X162436003Y-80491201D01*
X158268804Y-76324003D01*
X158245001Y-76294999D01*
X158129276Y-76200026D01*
X158071770Y-76169288D01*
X158080812Y-76139482D01*
X158093072Y-76015000D01*
X158090000Y-75850750D01*
X157931250Y-75692000D01*
X156582000Y-75692000D01*
X156582000Y-75712000D01*
X156328000Y-75712000D01*
X156328000Y-75692000D01*
X154978750Y-75692000D01*
X154820000Y-75850750D01*
X154816928Y-76015000D01*
X154829188Y-76139482D01*
X154847546Y-76200000D01*
X154829188Y-76260518D01*
X154816928Y-76385000D01*
X154816928Y-77285000D01*
X154829188Y-77409482D01*
X154847546Y-77470000D01*
X154829188Y-77530518D01*
X154816928Y-77655000D01*
X154816928Y-78555000D01*
X154829188Y-78679482D01*
X154847546Y-78740000D01*
X154829188Y-78800518D01*
X154816928Y-78925000D01*
X154816928Y-79825000D01*
X154829188Y-79949482D01*
X154847546Y-80010000D01*
X154829188Y-80070518D01*
X154816928Y-80195000D01*
X154816928Y-81095000D01*
X154829188Y-81219482D01*
X154847546Y-81279999D01*
X154829188Y-81340518D01*
X154816928Y-81465000D01*
X154816928Y-82365000D01*
X154829188Y-82489482D01*
X154847546Y-82550000D01*
X154829188Y-82610518D01*
X154816928Y-82735000D01*
X154816928Y-83635000D01*
X154829188Y-83759482D01*
X154847546Y-83820000D01*
X154829188Y-83880518D01*
X154816928Y-84005000D01*
X154816928Y-84905000D01*
X154829188Y-85029482D01*
X154847546Y-85090000D01*
X154829188Y-85150518D01*
X154816928Y-85275000D01*
X154816928Y-86175000D01*
X154829188Y-86299482D01*
X154847546Y-86360000D01*
X154829188Y-86420518D01*
X154816928Y-86545000D01*
X154816928Y-87445000D01*
X154829188Y-87569482D01*
X154847546Y-87630000D01*
X154829188Y-87690518D01*
X154816928Y-87815000D01*
X154816928Y-87870766D01*
X154787939Y-87865000D01*
X154584061Y-87865000D01*
X154384102Y-87904774D01*
X154195744Y-87982795D01*
X154026226Y-88096063D01*
X153882063Y-88240226D01*
X153768795Y-88409744D01*
X153690774Y-88598102D01*
X153651000Y-88798061D01*
X153651000Y-89001939D01*
X153690774Y-89201898D01*
X153768795Y-89390256D01*
X153882063Y-89559774D01*
X153926000Y-89603711D01*
X153926000Y-89751678D01*
X153922324Y-89789000D01*
X153926000Y-89826322D01*
X153926000Y-89826332D01*
X153936997Y-89937985D01*
X153978158Y-90073676D01*
X153980454Y-90081246D01*
X154051026Y-90213276D01*
X154073944Y-90241201D01*
X154145999Y-90329001D01*
X154175002Y-90352804D01*
X154816928Y-90994730D01*
X154816928Y-91255000D01*
X154829188Y-91379482D01*
X154847546Y-91440000D01*
X154829188Y-91500518D01*
X154816928Y-91625000D01*
X154816928Y-92525000D01*
X154829188Y-92649482D01*
X154865498Y-92769180D01*
X154924463Y-92879494D01*
X155003815Y-92976185D01*
X155100506Y-93055537D01*
X155210820Y-93114502D01*
X155302000Y-93142161D01*
X155302000Y-93192939D01*
X155341774Y-93392898D01*
X155419795Y-93581256D01*
X155533063Y-93750774D01*
X155636245Y-93853956D01*
X154365201Y-95125000D01*
X152674802Y-95125000D01*
X152911004Y-94888798D01*
X152940001Y-94865001D01*
X153034974Y-94749276D01*
X153065712Y-94691770D01*
X153095518Y-94700812D01*
X153220000Y-94713072D01*
X154120000Y-94713072D01*
X154244482Y-94700812D01*
X154364180Y-94664502D01*
X154474494Y-94605537D01*
X154571185Y-94526185D01*
X154650537Y-94429494D01*
X154709502Y-94319180D01*
X154745812Y-94199482D01*
X154758072Y-94075000D01*
X154758072Y-92075000D01*
X154745812Y-91950518D01*
X154709502Y-91830820D01*
X154701164Y-91815222D01*
X154705000Y-91795939D01*
X154705000Y-91592061D01*
X154665226Y-91392102D01*
X154587205Y-91203744D01*
X154473937Y-91034226D01*
X154329774Y-90890063D01*
X154160256Y-90776795D01*
X153971898Y-90698774D01*
X153771939Y-90659000D01*
X153568061Y-90659000D01*
X153368102Y-90698774D01*
X153179744Y-90776795D01*
X153010226Y-90890063D01*
X152866063Y-91034226D01*
X152752795Y-91203744D01*
X152674774Y-91392102D01*
X152665858Y-91436928D01*
X151950000Y-91436928D01*
X151825518Y-91449188D01*
X151765000Y-91467546D01*
X151704482Y-91449188D01*
X151580000Y-91436928D01*
X150680000Y-91436928D01*
X150555518Y-91449188D01*
X150495000Y-91467546D01*
X150434482Y-91449188D01*
X150310000Y-91436928D01*
X149410000Y-91436928D01*
X149285518Y-91449188D01*
X149225000Y-91467546D01*
X149164482Y-91449188D01*
X149040000Y-91436928D01*
X148140000Y-91436928D01*
X148015518Y-91449188D01*
X147955000Y-91467546D01*
X147894482Y-91449188D01*
X147770000Y-91436928D01*
X146870000Y-91436928D01*
X146745518Y-91449188D01*
X146685000Y-91467546D01*
X146624482Y-91449188D01*
X146500000Y-91436928D01*
X145600000Y-91436928D01*
X145475518Y-91449188D01*
X145415000Y-91467546D01*
X145354482Y-91449188D01*
X145230000Y-91436928D01*
X144330000Y-91436928D01*
X144205518Y-91449188D01*
X144145000Y-91467546D01*
X144084482Y-91449188D01*
X143960000Y-91436928D01*
X143060000Y-91436928D01*
X142935518Y-91449188D01*
X142875000Y-91467546D01*
X142814482Y-91449188D01*
X142690000Y-91436928D01*
X142525750Y-91440000D01*
X142367000Y-91598750D01*
X142367000Y-92948000D01*
X142387000Y-92948000D01*
X142387000Y-93202000D01*
X142367000Y-93202000D01*
X142367000Y-93222000D01*
X142113000Y-93222000D01*
X142113000Y-93202000D01*
X141313750Y-93202000D01*
X141155000Y-93360750D01*
X141152874Y-93855000D01*
X137474802Y-93855000D01*
X136454802Y-92835000D01*
X137900680Y-92835000D01*
X137924463Y-92879494D01*
X138003815Y-92976185D01*
X138100506Y-93055537D01*
X138210820Y-93114502D01*
X138330518Y-93150812D01*
X138455000Y-93163072D01*
X140455000Y-93163072D01*
X140579482Y-93150812D01*
X140699180Y-93114502D01*
X140809494Y-93055537D01*
X140906185Y-92976185D01*
X140985537Y-92879494D01*
X141044502Y-92769180D01*
X141080812Y-92649482D01*
X141093072Y-92525000D01*
X141093072Y-92075000D01*
X141151928Y-92075000D01*
X141155000Y-92789250D01*
X141313750Y-92948000D01*
X142113000Y-92948000D01*
X142113000Y-91598750D01*
X141954250Y-91440000D01*
X141790000Y-91436928D01*
X141665518Y-91449188D01*
X141545820Y-91485498D01*
X141435506Y-91544463D01*
X141338815Y-91623815D01*
X141259463Y-91720506D01*
X141200498Y-91830820D01*
X141164188Y-91950518D01*
X141151928Y-92075000D01*
X141093072Y-92075000D01*
X141093072Y-91625000D01*
X141080812Y-91500518D01*
X141062454Y-91440000D01*
X141080812Y-91379482D01*
X141093072Y-91255000D01*
X141093072Y-90355000D01*
X141080812Y-90230518D01*
X141062454Y-90170000D01*
X141080812Y-90109482D01*
X141093072Y-89985000D01*
X141093072Y-89085000D01*
X141080812Y-88960518D01*
X141062454Y-88899999D01*
X141080812Y-88839482D01*
X141093072Y-88715000D01*
X141093072Y-87815000D01*
X141080812Y-87690518D01*
X141062454Y-87630000D01*
X141080812Y-87569482D01*
X141093072Y-87445000D01*
X141093072Y-86545000D01*
X141080812Y-86420518D01*
X141062454Y-86360000D01*
X141080812Y-86299482D01*
X141093072Y-86175000D01*
X141093072Y-85275000D01*
X141080812Y-85150518D01*
X141062454Y-85090000D01*
X141080812Y-85029482D01*
X141093072Y-84905000D01*
X141093072Y-84647875D01*
X141099000Y-84653803D01*
X141099001Y-86643214D01*
X141095324Y-86680546D01*
X141099001Y-86717879D01*
X141109998Y-86829532D01*
X141120756Y-86864997D01*
X141153454Y-86972792D01*
X141224026Y-87104822D01*
X141284455Y-87178454D01*
X141319000Y-87220547D01*
X141347998Y-87244345D01*
X141556411Y-87452758D01*
X141556411Y-87514896D01*
X141596185Y-87714855D01*
X141674206Y-87903213D01*
X141787474Y-88072731D01*
X141931637Y-88216894D01*
X142101155Y-88330162D01*
X142289513Y-88408183D01*
X142489472Y-88447957D01*
X142693350Y-88447957D01*
X142893309Y-88408183D01*
X143081667Y-88330162D01*
X143251185Y-88216894D01*
X143395348Y-88072731D01*
X143508616Y-87903213D01*
X143586637Y-87714855D01*
X143626411Y-87514896D01*
X143626411Y-87311018D01*
X143586637Y-87111059D01*
X143508616Y-86922701D01*
X143395348Y-86753183D01*
X143251185Y-86609020D01*
X143081667Y-86495752D01*
X142893309Y-86417731D01*
X142693350Y-86377957D01*
X142631212Y-86377957D01*
X142619000Y-86365745D01*
X142619000Y-85855828D01*
X142746968Y-85855828D01*
X142946927Y-85816054D01*
X143135285Y-85738033D01*
X143304803Y-85624765D01*
X143364568Y-85565000D01*
X143816928Y-85565000D01*
X143829188Y-85689482D01*
X143865498Y-85809180D01*
X143924463Y-85919494D01*
X144003815Y-86016185D01*
X144100506Y-86095537D01*
X144210820Y-86154502D01*
X144330518Y-86190812D01*
X144455000Y-86203072D01*
X146669250Y-86200000D01*
X146828000Y-86041250D01*
X146828000Y-83192000D01*
X147082000Y-83192000D01*
X147082000Y-86041250D01*
X147240750Y-86200000D01*
X149455000Y-86203072D01*
X149579482Y-86190812D01*
X149699180Y-86154502D01*
X149809494Y-86095537D01*
X149906185Y-86016185D01*
X149985537Y-85919494D01*
X150044502Y-85809180D01*
X150080812Y-85689482D01*
X150093072Y-85565000D01*
X150090000Y-83350750D01*
X149931250Y-83192000D01*
X147082000Y-83192000D01*
X146828000Y-83192000D01*
X143978750Y-83192000D01*
X143820000Y-83350750D01*
X143816928Y-85565000D01*
X143364568Y-85565000D01*
X143448966Y-85480602D01*
X143562234Y-85311084D01*
X143640255Y-85122726D01*
X143680029Y-84922767D01*
X143680029Y-84718889D01*
X143640255Y-84518930D01*
X143562234Y-84330572D01*
X143448966Y-84161054D01*
X143405029Y-84117117D01*
X143405029Y-83373351D01*
X143408705Y-83336028D01*
X143405029Y-83298705D01*
X143405029Y-83298696D01*
X143394032Y-83187043D01*
X143350575Y-83043782D01*
X143301584Y-82952127D01*
X143424937Y-82828774D01*
X143538205Y-82659256D01*
X143616226Y-82470898D01*
X143656000Y-82270939D01*
X143656000Y-82067061D01*
X143616226Y-81867102D01*
X143538205Y-81678744D01*
X143424937Y-81509226D01*
X143280774Y-81365063D01*
X143111256Y-81251795D01*
X142922898Y-81173774D01*
X142722939Y-81134000D01*
X142660802Y-81134000D01*
X142169802Y-80643000D01*
X142456678Y-80643000D01*
X142494000Y-80646676D01*
X142531322Y-80643000D01*
X142531333Y-80643000D01*
X142642986Y-80632003D01*
X142786247Y-80588546D01*
X142830297Y-80565000D01*
X143816928Y-80565000D01*
X143820000Y-82779250D01*
X143978750Y-82938000D01*
X146828000Y-82938000D01*
X146828000Y-80088750D01*
X147082000Y-80088750D01*
X147082000Y-82938000D01*
X149931250Y-82938000D01*
X150090000Y-82779250D01*
X150093072Y-80565000D01*
X150080812Y-80440518D01*
X150044502Y-80320820D01*
X149985537Y-80210506D01*
X149906185Y-80113815D01*
X149809494Y-80034463D01*
X149699180Y-79975498D01*
X149579482Y-79939188D01*
X149455000Y-79926928D01*
X147240750Y-79930000D01*
X147082000Y-80088750D01*
X146828000Y-80088750D01*
X146669250Y-79930000D01*
X144455000Y-79926928D01*
X144330518Y-79939188D01*
X144210820Y-79975498D01*
X144100506Y-80034463D01*
X144003815Y-80113815D01*
X143924463Y-80210506D01*
X143865498Y-80320820D01*
X143829188Y-80440518D01*
X143816928Y-80565000D01*
X142830297Y-80565000D01*
X142882681Y-80537000D01*
X142976939Y-80537000D01*
X143176898Y-80497226D01*
X143365256Y-80419205D01*
X143534774Y-80305937D01*
X143678937Y-80161774D01*
X143792205Y-79992256D01*
X143870226Y-79803898D01*
X143910000Y-79603939D01*
X143910000Y-79400061D01*
X143870226Y-79200102D01*
X143792205Y-79011744D01*
X143678937Y-78842226D01*
X143534774Y-78698063D01*
X143365256Y-78584795D01*
X143176898Y-78506774D01*
X142976939Y-78467000D01*
X142878654Y-78467000D01*
X142789937Y-78334226D01*
X142645774Y-78190063D01*
X142476256Y-78076795D01*
X142287898Y-77998774D01*
X142087939Y-77959000D01*
X142025801Y-77959000D01*
X141809178Y-77742376D01*
X141929287Y-77622267D01*
X142064443Y-77419992D01*
X142157540Y-77195236D01*
X142205000Y-76956637D01*
X142205000Y-76713363D01*
X142157540Y-76474764D01*
X142064443Y-76250008D01*
X141929287Y-76047733D01*
X141757267Y-75875713D01*
X141554992Y-75740557D01*
X141330236Y-75647460D01*
X141091637Y-75600000D01*
X140848363Y-75600000D01*
X140609764Y-75647460D01*
X140502235Y-75692000D01*
X139582000Y-75692000D01*
X139582000Y-75712000D01*
X139328000Y-75712000D01*
X139328000Y-75692000D01*
X139308000Y-75692000D01*
X139308000Y-75438000D01*
X139328000Y-75438000D01*
X139328000Y-75418000D01*
X139582000Y-75418000D01*
X139582000Y-75438000D01*
X140931250Y-75438000D01*
X141090000Y-75279250D01*
X141093072Y-75115000D01*
X141080812Y-74990518D01*
X141070038Y-74955000D01*
X154839962Y-74955000D01*
X154829188Y-74990518D01*
X154816928Y-75115000D01*
X154820000Y-75279250D01*
X154978750Y-75438000D01*
X156328000Y-75438000D01*
X156328000Y-75418000D01*
X156582000Y-75418000D01*
X156582000Y-75438000D01*
X157931250Y-75438000D01*
X158090000Y-75279250D01*
X158093072Y-75115000D01*
X158080812Y-74990518D01*
X158070038Y-74955000D01*
X165702722Y-74955000D01*
X166222884Y-75006002D01*
X166692188Y-75147694D01*
X167125025Y-75377837D01*
X167504927Y-75687678D01*
X167817403Y-76065397D01*
X168050569Y-76496627D01*
X168195532Y-76964928D01*
X168250000Y-77483153D01*
X168250001Y-109187712D01*
X168198998Y-109707883D01*
X168057307Y-110177186D01*
X167827161Y-110610028D01*
X167517323Y-110989927D01*
X167139600Y-111302406D01*
X166708373Y-111535569D01*
X166240073Y-111680532D01*
X165721847Y-111735000D01*
X132433151Y-111735000D01*
X132524792Y-111659792D01*
X132634458Y-111526164D01*
X132715947Y-111373709D01*
X132766128Y-111208285D01*
X132778270Y-111085000D01*
X133316928Y-111085000D01*
X133329188Y-111209482D01*
X133365498Y-111329180D01*
X133424463Y-111439494D01*
X133503815Y-111536185D01*
X133600506Y-111615537D01*
X133710820Y-111674502D01*
X133830518Y-111710812D01*
X133955000Y-111723072D01*
X134169250Y-111720000D01*
X134328000Y-111561250D01*
X134328000Y-110762000D01*
X133478750Y-110762000D01*
X133320000Y-110920750D01*
X133316928Y-111085000D01*
X132778270Y-111085000D01*
X132782352Y-111043562D01*
X132824256Y-111026205D01*
X132993774Y-110912937D01*
X133137937Y-110768774D01*
X133251205Y-110599256D01*
X133329226Y-110410898D01*
X133337923Y-110367173D01*
X133478750Y-110508000D01*
X134328000Y-110508000D01*
X134328000Y-109708750D01*
X134169250Y-109550000D01*
X133955000Y-109546928D01*
X133830518Y-109559188D01*
X133710820Y-109595498D01*
X133600506Y-109654463D01*
X133503815Y-109733815D01*
X133424463Y-109830506D01*
X133365498Y-109940820D01*
X133359655Y-109960081D01*
X133329226Y-109807102D01*
X133251205Y-109618744D01*
X133137937Y-109449226D01*
X132993774Y-109305063D01*
X132824256Y-109191795D01*
X132781796Y-109174207D01*
X132783072Y-109161250D01*
X132783072Y-108673750D01*
X132766128Y-108501715D01*
X132715947Y-108336291D01*
X132634458Y-108183836D01*
X132524792Y-108050208D01*
X132507277Y-108035834D01*
X132522962Y-108022962D01*
X132633405Y-107888387D01*
X132715472Y-107734851D01*
X132766008Y-107568255D01*
X132783072Y-107395001D01*
X132783072Y-106985000D01*
X133316928Y-106985000D01*
X133329188Y-107109482D01*
X133365498Y-107229180D01*
X133424463Y-107339494D01*
X133503815Y-107436185D01*
X133600506Y-107515537D01*
X133710820Y-107574502D01*
X133830518Y-107610812D01*
X133955000Y-107623072D01*
X134169250Y-107620000D01*
X134328000Y-107461250D01*
X134328000Y-106662000D01*
X133478750Y-106662000D01*
X133320000Y-106820750D01*
X133316928Y-106985000D01*
X132783072Y-106985000D01*
X132783072Y-106744999D01*
X132766008Y-106571745D01*
X132715472Y-106405149D01*
X132633405Y-106251613D01*
X132522962Y-106117038D01*
X132483924Y-106085000D01*
X133316928Y-106085000D01*
X133320000Y-106249250D01*
X133478750Y-106408000D01*
X134328000Y-106408000D01*
X134328000Y-105608750D01*
X134169250Y-105450000D01*
X133955000Y-105446928D01*
X133830518Y-105459188D01*
X133710820Y-105495498D01*
X133600506Y-105554463D01*
X133503815Y-105633815D01*
X133424463Y-105730506D01*
X133365498Y-105840820D01*
X133329188Y-105960518D01*
X133316928Y-106085000D01*
X132483924Y-106085000D01*
X132435184Y-106045000D01*
X132522962Y-105972962D01*
X132633405Y-105838387D01*
X132715472Y-105684851D01*
X132766008Y-105518255D01*
X132783072Y-105345001D01*
X132783072Y-104694999D01*
X132766008Y-104521745D01*
X132715472Y-104355149D01*
X132635216Y-104205000D01*
X133191928Y-104205000D01*
X133204188Y-104329482D01*
X133240498Y-104449180D01*
X133299463Y-104559494D01*
X133378815Y-104656185D01*
X133475506Y-104735537D01*
X133585820Y-104794502D01*
X133705518Y-104830812D01*
X133830000Y-104843072D01*
X134031750Y-104840000D01*
X134190500Y-104681250D01*
X134190500Y-103632000D01*
X133353750Y-103632000D01*
X133195000Y-103790750D01*
X133191928Y-104205000D01*
X132635216Y-104205000D01*
X132633405Y-104201613D01*
X132522962Y-104067038D01*
X132433600Y-103993700D01*
X132433600Y-102805000D01*
X133191928Y-102805000D01*
X133195000Y-103219250D01*
X133353750Y-103378000D01*
X134190500Y-103378000D01*
X134190500Y-102328750D01*
X134444500Y-102328750D01*
X134444500Y-103378000D01*
X134464500Y-103378000D01*
X134464500Y-103632000D01*
X134444500Y-103632000D01*
X134444500Y-104681250D01*
X134603250Y-104840000D01*
X134805000Y-104843072D01*
X134929482Y-104830812D01*
X135049180Y-104794502D01*
X135159494Y-104735537D01*
X135256185Y-104656185D01*
X135295001Y-104608888D01*
X135295000Y-105503954D01*
X135255000Y-105525335D01*
X135199180Y-105495498D01*
X135079482Y-105459188D01*
X134955000Y-105446928D01*
X134740750Y-105450000D01*
X134582000Y-105608750D01*
X134582000Y-106408000D01*
X134602000Y-106408000D01*
X134602000Y-106662000D01*
X134582000Y-106662000D01*
X134582000Y-107461250D01*
X134740750Y-107620000D01*
X134955000Y-107623072D01*
X135079482Y-107610812D01*
X135199180Y-107574502D01*
X135255000Y-107544665D01*
X135295001Y-107566046D01*
X135295000Y-109603954D01*
X135255000Y-109625335D01*
X135199180Y-109595498D01*
X135079482Y-109559188D01*
X134955000Y-109546928D01*
X134740750Y-109550000D01*
X134582000Y-109708750D01*
X134582000Y-110508000D01*
X134602000Y-110508000D01*
X134602000Y-110762000D01*
X134582000Y-110762000D01*
X134582000Y-111561250D01*
X134740750Y-111720000D01*
X134955000Y-111723072D01*
X135079482Y-111710812D01*
X135199180Y-111674502D01*
X135255000Y-111644665D01*
X135310820Y-111674502D01*
X135430518Y-111710812D01*
X135555000Y-111723072D01*
X136555000Y-111723072D01*
X136679482Y-111710812D01*
X136799180Y-111674502D01*
X136909494Y-111615537D01*
X137006185Y-111536185D01*
X137085537Y-111439494D01*
X137144502Y-111329180D01*
X137180812Y-111209482D01*
X137193072Y-111085000D01*
X138396928Y-111085000D01*
X138409188Y-111209482D01*
X138445498Y-111329180D01*
X138504463Y-111439494D01*
X138583815Y-111536185D01*
X138680506Y-111615537D01*
X138790820Y-111674502D01*
X138910518Y-111710812D01*
X139035000Y-111723072D01*
X139249250Y-111720000D01*
X139408000Y-111561250D01*
X139408000Y-110762000D01*
X138558750Y-110762000D01*
X138400000Y-110920750D01*
X138396928Y-111085000D01*
X137193072Y-111085000D01*
X137193072Y-110185000D01*
X138396928Y-110185000D01*
X138400000Y-110349250D01*
X138558750Y-110508000D01*
X139408000Y-110508000D01*
X139408000Y-109708750D01*
X139249250Y-109550000D01*
X139035000Y-109546928D01*
X138910518Y-109559188D01*
X138790820Y-109595498D01*
X138680506Y-109654463D01*
X138583815Y-109733815D01*
X138504463Y-109830506D01*
X138445498Y-109940820D01*
X138409188Y-110060518D01*
X138396928Y-110185000D01*
X137193072Y-110185000D01*
X137180812Y-110060518D01*
X137144502Y-109940820D01*
X137085537Y-109830506D01*
X137006185Y-109733815D01*
X136909494Y-109654463D01*
X136815000Y-109603954D01*
X136815000Y-107566046D01*
X136909494Y-107515537D01*
X137006185Y-107436185D01*
X137085537Y-107339494D01*
X137144502Y-107229180D01*
X137180812Y-107109482D01*
X137193072Y-106985000D01*
X138396928Y-106985000D01*
X138409188Y-107109482D01*
X138445498Y-107229180D01*
X138504463Y-107339494D01*
X138583815Y-107436185D01*
X138680506Y-107515537D01*
X138790820Y-107574502D01*
X138910518Y-107610812D01*
X139035000Y-107623072D01*
X139249250Y-107620000D01*
X139408000Y-107461250D01*
X139408000Y-106662000D01*
X138558750Y-106662000D01*
X138400000Y-106820750D01*
X138396928Y-106985000D01*
X137193072Y-106985000D01*
X137193072Y-106085000D01*
X138396928Y-106085000D01*
X138400000Y-106249250D01*
X138558750Y-106408000D01*
X139408000Y-106408000D01*
X139408000Y-105608750D01*
X139662000Y-105608750D01*
X139662000Y-106408000D01*
X139682000Y-106408000D01*
X139682000Y-106662000D01*
X139662000Y-106662000D01*
X139662000Y-107461250D01*
X139820750Y-107620000D01*
X140035000Y-107623072D01*
X140159482Y-107610812D01*
X140279180Y-107574502D01*
X140335000Y-107544665D01*
X140375000Y-107566046D01*
X140375001Y-108605288D01*
X140331063Y-108649226D01*
X140217795Y-108818744D01*
X140139774Y-109007102D01*
X140100000Y-109207061D01*
X140100000Y-109410939D01*
X140128889Y-109556175D01*
X140035000Y-109546928D01*
X139820750Y-109550000D01*
X139662000Y-109708750D01*
X139662000Y-110508000D01*
X139682000Y-110508000D01*
X139682000Y-110762000D01*
X139662000Y-110762000D01*
X139662000Y-111561250D01*
X139820750Y-111720000D01*
X140035000Y-111723072D01*
X140159482Y-111710812D01*
X140279180Y-111674502D01*
X140335000Y-111644665D01*
X140390820Y-111674502D01*
X140510518Y-111710812D01*
X140635000Y-111723072D01*
X141635000Y-111723072D01*
X141759482Y-111710812D01*
X141879180Y-111674502D01*
X141989494Y-111615537D01*
X142086185Y-111536185D01*
X142165537Y-111439494D01*
X142224502Y-111329180D01*
X142260812Y-111209482D01*
X142273072Y-111085000D01*
X143476928Y-111085000D01*
X143489188Y-111209482D01*
X143525498Y-111329180D01*
X143584463Y-111439494D01*
X143663815Y-111536185D01*
X143760506Y-111615537D01*
X143870820Y-111674502D01*
X143990518Y-111710812D01*
X144115000Y-111723072D01*
X144329250Y-111720000D01*
X144488000Y-111561250D01*
X144488000Y-110762000D01*
X143638750Y-110762000D01*
X143480000Y-110920750D01*
X143476928Y-111085000D01*
X142273072Y-111085000D01*
X142273072Y-110185000D01*
X143476928Y-110185000D01*
X143480000Y-110349250D01*
X143638750Y-110508000D01*
X144488000Y-110508000D01*
X144488000Y-109708750D01*
X144329250Y-109550000D01*
X144115000Y-109546928D01*
X143990518Y-109559188D01*
X143870820Y-109595498D01*
X143760506Y-109654463D01*
X143663815Y-109733815D01*
X143584463Y-109830506D01*
X143525498Y-109940820D01*
X143489188Y-110060518D01*
X143476928Y-110185000D01*
X142273072Y-110185000D01*
X142260812Y-110060518D01*
X142224502Y-109940820D01*
X142165537Y-109830506D01*
X142086185Y-109733815D01*
X142081055Y-109729605D01*
X142130226Y-109610898D01*
X142170000Y-109410939D01*
X142170000Y-109207061D01*
X142130226Y-109007102D01*
X142052205Y-108818744D01*
X141938937Y-108649226D01*
X141895000Y-108605289D01*
X141895000Y-107566046D01*
X141989494Y-107515537D01*
X142086185Y-107436185D01*
X142165537Y-107339494D01*
X142224502Y-107229180D01*
X142260812Y-107109482D01*
X142273072Y-106985000D01*
X143476928Y-106985000D01*
X143489188Y-107109482D01*
X143525498Y-107229180D01*
X143584463Y-107339494D01*
X143663815Y-107436185D01*
X143760506Y-107515537D01*
X143870820Y-107574502D01*
X143990518Y-107610812D01*
X144115000Y-107623072D01*
X144329250Y-107620000D01*
X144488000Y-107461250D01*
X144488000Y-106662000D01*
X143638750Y-106662000D01*
X143480000Y-106820750D01*
X143476928Y-106985000D01*
X142273072Y-106985000D01*
X142273072Y-106085000D01*
X143476928Y-106085000D01*
X143480000Y-106249250D01*
X143638750Y-106408000D01*
X144488000Y-106408000D01*
X144488000Y-105608750D01*
X144742000Y-105608750D01*
X144742000Y-106408000D01*
X144762000Y-106408000D01*
X144762000Y-106662000D01*
X144742000Y-106662000D01*
X144742000Y-107461250D01*
X144900750Y-107620000D01*
X145115000Y-107623072D01*
X145239482Y-107610812D01*
X145359180Y-107574502D01*
X145415000Y-107544665D01*
X145455000Y-107566046D01*
X145455001Y-109603954D01*
X145415000Y-109625335D01*
X145359180Y-109595498D01*
X145239482Y-109559188D01*
X145115000Y-109546928D01*
X144900750Y-109550000D01*
X144742000Y-109708750D01*
X144742000Y-110508000D01*
X144762000Y-110508000D01*
X144762000Y-110762000D01*
X144742000Y-110762000D01*
X144742000Y-111561250D01*
X144900750Y-111720000D01*
X145115000Y-111723072D01*
X145239482Y-111710812D01*
X145359180Y-111674502D01*
X145415000Y-111644665D01*
X145470820Y-111674502D01*
X145590518Y-111710812D01*
X145715000Y-111723072D01*
X146715000Y-111723072D01*
X146839482Y-111710812D01*
X146959180Y-111674502D01*
X147069494Y-111615537D01*
X147166185Y-111536185D01*
X147245537Y-111439494D01*
X147304502Y-111329180D01*
X147340812Y-111209482D01*
X147353072Y-111085000D01*
X148556928Y-111085000D01*
X148569188Y-111209482D01*
X148605498Y-111329180D01*
X148664463Y-111439494D01*
X148743815Y-111536185D01*
X148840506Y-111615537D01*
X148950820Y-111674502D01*
X149070518Y-111710812D01*
X149195000Y-111723072D01*
X149409250Y-111720000D01*
X149568000Y-111561250D01*
X149568000Y-110762000D01*
X148718750Y-110762000D01*
X148560000Y-110920750D01*
X148556928Y-111085000D01*
X147353072Y-111085000D01*
X147353072Y-110185000D01*
X148556928Y-110185000D01*
X148560000Y-110349250D01*
X148718750Y-110508000D01*
X149568000Y-110508000D01*
X149568000Y-109708750D01*
X149409250Y-109550000D01*
X149195000Y-109546928D01*
X149070518Y-109559188D01*
X148950820Y-109595498D01*
X148840506Y-109654463D01*
X148743815Y-109733815D01*
X148664463Y-109830506D01*
X148605498Y-109940820D01*
X148569188Y-110060518D01*
X148556928Y-110185000D01*
X147353072Y-110185000D01*
X147340812Y-110060518D01*
X147304502Y-109940820D01*
X147245537Y-109830506D01*
X147166185Y-109733815D01*
X147069494Y-109654463D01*
X146975000Y-109603954D01*
X146975000Y-107566046D01*
X147069494Y-107515537D01*
X147166185Y-107436185D01*
X147245537Y-107339494D01*
X147304502Y-107229180D01*
X147340812Y-107109482D01*
X147353072Y-106985000D01*
X148556928Y-106985000D01*
X148569188Y-107109482D01*
X148605498Y-107229180D01*
X148664463Y-107339494D01*
X148743815Y-107436185D01*
X148840506Y-107515537D01*
X148950820Y-107574502D01*
X149070518Y-107610812D01*
X149195000Y-107623072D01*
X149409250Y-107620000D01*
X149568000Y-107461250D01*
X149568000Y-106662000D01*
X148718750Y-106662000D01*
X148560000Y-106820750D01*
X148556928Y-106985000D01*
X147353072Y-106985000D01*
X147353072Y-106085000D01*
X148556928Y-106085000D01*
X148560000Y-106249250D01*
X148718750Y-106408000D01*
X149568000Y-106408000D01*
X149568000Y-105608750D01*
X149822000Y-105608750D01*
X149822000Y-106408000D01*
X149842000Y-106408000D01*
X149842000Y-106662000D01*
X149822000Y-106662000D01*
X149822000Y-107461250D01*
X149980750Y-107620000D01*
X150195000Y-107623072D01*
X150319482Y-107610812D01*
X150439180Y-107574502D01*
X150495000Y-107544665D01*
X150535001Y-107566046D01*
X150535000Y-109603954D01*
X150495000Y-109625335D01*
X150439180Y-109595498D01*
X150319482Y-109559188D01*
X150195000Y-109546928D01*
X149980750Y-109550000D01*
X149822000Y-109708750D01*
X149822000Y-110508000D01*
X149842000Y-110508000D01*
X149842000Y-110762000D01*
X149822000Y-110762000D01*
X149822000Y-111561250D01*
X149980750Y-111720000D01*
X150195000Y-111723072D01*
X150319482Y-111710812D01*
X150439180Y-111674502D01*
X150495000Y-111644665D01*
X150550820Y-111674502D01*
X150670518Y-111710812D01*
X150795000Y-111723072D01*
X151795000Y-111723072D01*
X151919482Y-111710812D01*
X152039180Y-111674502D01*
X152149494Y-111615537D01*
X152246185Y-111536185D01*
X152325537Y-111439494D01*
X152384502Y-111329180D01*
X152420812Y-111209482D01*
X152433072Y-111085000D01*
X153636928Y-111085000D01*
X153649188Y-111209482D01*
X153685498Y-111329180D01*
X153744463Y-111439494D01*
X153823815Y-111536185D01*
X153920506Y-111615537D01*
X154030820Y-111674502D01*
X154150518Y-111710812D01*
X154275000Y-111723072D01*
X154489250Y-111720000D01*
X154648000Y-111561250D01*
X154648000Y-110762000D01*
X153798750Y-110762000D01*
X153640000Y-110920750D01*
X153636928Y-111085000D01*
X152433072Y-111085000D01*
X152433072Y-110185000D01*
X153636928Y-110185000D01*
X153640000Y-110349250D01*
X153798750Y-110508000D01*
X154648000Y-110508000D01*
X154648000Y-109708750D01*
X154489250Y-109550000D01*
X154275000Y-109546928D01*
X154150518Y-109559188D01*
X154030820Y-109595498D01*
X153920506Y-109654463D01*
X153823815Y-109733815D01*
X153744463Y-109830506D01*
X153685498Y-109940820D01*
X153649188Y-110060518D01*
X153636928Y-110185000D01*
X152433072Y-110185000D01*
X152420812Y-110060518D01*
X152384502Y-109940820D01*
X152325537Y-109830506D01*
X152246185Y-109733815D01*
X152149494Y-109654463D01*
X152055000Y-109603954D01*
X152055000Y-107566046D01*
X152149494Y-107515537D01*
X152246185Y-107436185D01*
X152325537Y-107339494D01*
X152384502Y-107229180D01*
X152420812Y-107109482D01*
X152433072Y-106985000D01*
X153636928Y-106985000D01*
X153649188Y-107109482D01*
X153685498Y-107229180D01*
X153744463Y-107339494D01*
X153823815Y-107436185D01*
X153920506Y-107515537D01*
X154030820Y-107574502D01*
X154150518Y-107610812D01*
X154275000Y-107623072D01*
X154489250Y-107620000D01*
X154648000Y-107461250D01*
X154648000Y-106662000D01*
X153798750Y-106662000D01*
X153640000Y-106820750D01*
X153636928Y-106985000D01*
X152433072Y-106985000D01*
X152433072Y-106085000D01*
X153636928Y-106085000D01*
X153640000Y-106249250D01*
X153798750Y-106408000D01*
X154648000Y-106408000D01*
X154648000Y-105608750D01*
X154902000Y-105608750D01*
X154902000Y-106408000D01*
X154922000Y-106408000D01*
X154922000Y-106662000D01*
X154902000Y-106662000D01*
X154902000Y-107461250D01*
X155060750Y-107620000D01*
X155275000Y-107623072D01*
X155399482Y-107610812D01*
X155519180Y-107574502D01*
X155575000Y-107544665D01*
X155615001Y-107566046D01*
X155615000Y-109603954D01*
X155575000Y-109625335D01*
X155519180Y-109595498D01*
X155399482Y-109559188D01*
X155275000Y-109546928D01*
X155060750Y-109550000D01*
X154902000Y-109708750D01*
X154902000Y-110508000D01*
X154922000Y-110508000D01*
X154922000Y-110762000D01*
X154902000Y-110762000D01*
X154902000Y-111561250D01*
X155060750Y-111720000D01*
X155275000Y-111723072D01*
X155399482Y-111710812D01*
X155519180Y-111674502D01*
X155575000Y-111644665D01*
X155630820Y-111674502D01*
X155750518Y-111710812D01*
X155875000Y-111723072D01*
X156875000Y-111723072D01*
X156999482Y-111710812D01*
X157119180Y-111674502D01*
X157229494Y-111615537D01*
X157326185Y-111536185D01*
X157405537Y-111439494D01*
X157464502Y-111329180D01*
X157500812Y-111209482D01*
X157513072Y-111085000D01*
X158716928Y-111085000D01*
X158729188Y-111209482D01*
X158765498Y-111329180D01*
X158824463Y-111439494D01*
X158903815Y-111536185D01*
X159000506Y-111615537D01*
X159110820Y-111674502D01*
X159230518Y-111710812D01*
X159355000Y-111723072D01*
X159569250Y-111720000D01*
X159728000Y-111561250D01*
X159728000Y-110762000D01*
X158878750Y-110762000D01*
X158720000Y-110920750D01*
X158716928Y-111085000D01*
X157513072Y-111085000D01*
X157513072Y-110185000D01*
X158716928Y-110185000D01*
X158720000Y-110349250D01*
X158878750Y-110508000D01*
X159728000Y-110508000D01*
X159728000Y-109708750D01*
X159569250Y-109550000D01*
X159355000Y-109546928D01*
X159230518Y-109559188D01*
X159110820Y-109595498D01*
X159000506Y-109654463D01*
X158903815Y-109733815D01*
X158824463Y-109830506D01*
X158765498Y-109940820D01*
X158729188Y-110060518D01*
X158716928Y-110185000D01*
X157513072Y-110185000D01*
X157500812Y-110060518D01*
X157464502Y-109940820D01*
X157405537Y-109830506D01*
X157326185Y-109733815D01*
X157229494Y-109654463D01*
X157135000Y-109603954D01*
X157135000Y-107566046D01*
X157229494Y-107515537D01*
X157326185Y-107436185D01*
X157405537Y-107339494D01*
X157464502Y-107229180D01*
X157500812Y-107109482D01*
X157513072Y-106985000D01*
X158716928Y-106985000D01*
X158729188Y-107109482D01*
X158765498Y-107229180D01*
X158824463Y-107339494D01*
X158903815Y-107436185D01*
X159000506Y-107515537D01*
X159110820Y-107574502D01*
X159230518Y-107610812D01*
X159355000Y-107623072D01*
X159569250Y-107620000D01*
X159728000Y-107461250D01*
X159728000Y-106662000D01*
X158878750Y-106662000D01*
X158720000Y-106820750D01*
X158716928Y-106985000D01*
X157513072Y-106985000D01*
X157513072Y-106085000D01*
X158716928Y-106085000D01*
X158720000Y-106249250D01*
X158878750Y-106408000D01*
X159728000Y-106408000D01*
X159728000Y-105608750D01*
X159569250Y-105450000D01*
X159355000Y-105446928D01*
X159230518Y-105459188D01*
X159110820Y-105495498D01*
X159000506Y-105554463D01*
X158903815Y-105633815D01*
X158824463Y-105730506D01*
X158765498Y-105840820D01*
X158729188Y-105960518D01*
X158716928Y-106085000D01*
X157513072Y-106085000D01*
X157500812Y-105960518D01*
X157464502Y-105840820D01*
X157405537Y-105730506D01*
X157372000Y-105689641D01*
X157372000Y-105562061D01*
X157332226Y-105362102D01*
X157254205Y-105173744D01*
X157140937Y-105004226D01*
X156996774Y-104860063D01*
X156827256Y-104746795D01*
X156638898Y-104668774D01*
X156438939Y-104629000D01*
X156235061Y-104629000D01*
X156035102Y-104668774D01*
X155846744Y-104746795D01*
X155677226Y-104860063D01*
X155533063Y-105004226D01*
X155419795Y-105173744D01*
X155341774Y-105362102D01*
X155323942Y-105451748D01*
X155275000Y-105446928D01*
X155060750Y-105450000D01*
X154902000Y-105608750D01*
X154648000Y-105608750D01*
X154489250Y-105450000D01*
X154275000Y-105446928D01*
X154150518Y-105459188D01*
X154030820Y-105495498D01*
X153920506Y-105554463D01*
X153823815Y-105633815D01*
X153744463Y-105730506D01*
X153685498Y-105840820D01*
X153649188Y-105960518D01*
X153636928Y-106085000D01*
X152433072Y-106085000D01*
X152420812Y-105960518D01*
X152384502Y-105840820D01*
X152325537Y-105730506D01*
X152292000Y-105689641D01*
X152292000Y-105562061D01*
X152252226Y-105362102D01*
X152174205Y-105173744D01*
X152060937Y-105004226D01*
X151916774Y-104860063D01*
X151747256Y-104746795D01*
X151558898Y-104668774D01*
X151358939Y-104629000D01*
X151155061Y-104629000D01*
X150955102Y-104668774D01*
X150766744Y-104746795D01*
X150597226Y-104860063D01*
X150453063Y-105004226D01*
X150339795Y-105173744D01*
X150261774Y-105362102D01*
X150243942Y-105451748D01*
X150195000Y-105446928D01*
X149980750Y-105450000D01*
X149822000Y-105608750D01*
X149568000Y-105608750D01*
X149409250Y-105450000D01*
X149195000Y-105446928D01*
X149070518Y-105459188D01*
X148950820Y-105495498D01*
X148840506Y-105554463D01*
X148743815Y-105633815D01*
X148664463Y-105730506D01*
X148605498Y-105840820D01*
X148569188Y-105960518D01*
X148556928Y-106085000D01*
X147353072Y-106085000D01*
X147340812Y-105960518D01*
X147304502Y-105840820D01*
X147245537Y-105730506D01*
X147212000Y-105689641D01*
X147212000Y-105562061D01*
X147172226Y-105362102D01*
X147094205Y-105173744D01*
X146980937Y-105004226D01*
X146836774Y-104860063D01*
X146667256Y-104746795D01*
X146478898Y-104668774D01*
X146278939Y-104629000D01*
X146075061Y-104629000D01*
X145875102Y-104668774D01*
X145686744Y-104746795D01*
X145517226Y-104860063D01*
X145373063Y-105004226D01*
X145259795Y-105173744D01*
X145181774Y-105362102D01*
X145163942Y-105451748D01*
X145115000Y-105446928D01*
X144900750Y-105450000D01*
X144742000Y-105608750D01*
X144488000Y-105608750D01*
X144329250Y-105450000D01*
X144115000Y-105446928D01*
X143990518Y-105459188D01*
X143870820Y-105495498D01*
X143760506Y-105554463D01*
X143663815Y-105633815D01*
X143584463Y-105730506D01*
X143525498Y-105840820D01*
X143489188Y-105960518D01*
X143476928Y-106085000D01*
X142273072Y-106085000D01*
X142260812Y-105960518D01*
X142224502Y-105840820D01*
X142165537Y-105730506D01*
X142086185Y-105633815D01*
X141989494Y-105554463D01*
X141879180Y-105495498D01*
X141759482Y-105459188D01*
X141635000Y-105446928D01*
X140635000Y-105446928D01*
X140510518Y-105459188D01*
X140390820Y-105495498D01*
X140335000Y-105525335D01*
X140279180Y-105495498D01*
X140159482Y-105459188D01*
X140035000Y-105446928D01*
X139820750Y-105450000D01*
X139662000Y-105608750D01*
X139408000Y-105608750D01*
X139249250Y-105450000D01*
X139035000Y-105446928D01*
X138910518Y-105459188D01*
X138790820Y-105495498D01*
X138680506Y-105554463D01*
X138583815Y-105633815D01*
X138504463Y-105730506D01*
X138445498Y-105840820D01*
X138409188Y-105960518D01*
X138396928Y-106085000D01*
X137193072Y-106085000D01*
X137180812Y-105960518D01*
X137144502Y-105840820D01*
X137085537Y-105730506D01*
X137006185Y-105633815D01*
X136909494Y-105554463D01*
X136815000Y-105503954D01*
X136815000Y-104753876D01*
X136926164Y-104694458D01*
X137059792Y-104584792D01*
X137169458Y-104451164D01*
X137250947Y-104298709D01*
X137261173Y-104265000D01*
X141917289Y-104265000D01*
X141961226Y-104308937D01*
X142130744Y-104422205D01*
X142319102Y-104500226D01*
X142519061Y-104540000D01*
X142722939Y-104540000D01*
X142922898Y-104500226D01*
X143111256Y-104422205D01*
X143280774Y-104308937D01*
X143424937Y-104164774D01*
X143538205Y-103995256D01*
X143616226Y-103806898D01*
X143656000Y-103606939D01*
X143656000Y-103403061D01*
X143616226Y-103203102D01*
X143538205Y-103014744D01*
X143424937Y-102845226D01*
X143280774Y-102701063D01*
X143111256Y-102587795D01*
X142922898Y-102509774D01*
X142722939Y-102470000D01*
X142519061Y-102470000D01*
X142319102Y-102509774D01*
X142130744Y-102587795D01*
X141961226Y-102701063D01*
X141917289Y-102745000D01*
X137261173Y-102745000D01*
X137250947Y-102711291D01*
X137169458Y-102558836D01*
X137059792Y-102425208D01*
X136926164Y-102315542D01*
X136773709Y-102234053D01*
X136608285Y-102183872D01*
X136436250Y-102166928D01*
X135948750Y-102166928D01*
X135776715Y-102183872D01*
X135611291Y-102234053D01*
X135458836Y-102315542D01*
X135325208Y-102425208D01*
X135319992Y-102431564D01*
X135256185Y-102353815D01*
X135159494Y-102274463D01*
X135049180Y-102215498D01*
X134929482Y-102179188D01*
X134805000Y-102166928D01*
X134603250Y-102170000D01*
X134444500Y-102328750D01*
X134190500Y-102328750D01*
X134031750Y-102170000D01*
X133830000Y-102166928D01*
X133705518Y-102179188D01*
X133585820Y-102215498D01*
X133475506Y-102274463D01*
X133378815Y-102353815D01*
X133299463Y-102450506D01*
X133240498Y-102560820D01*
X133204188Y-102680518D01*
X133191928Y-102805000D01*
X132433600Y-102805000D01*
X132433600Y-100373311D01*
X132477537Y-100329374D01*
X132590805Y-100159856D01*
X132668826Y-99971498D01*
X132708600Y-99771539D01*
X132708600Y-99567661D01*
X132668826Y-99367702D01*
X132590805Y-99179344D01*
X132477537Y-99009826D01*
X132333374Y-98865663D01*
X132163856Y-98752395D01*
X131975498Y-98674374D01*
X131775539Y-98634600D01*
X131571661Y-98634600D01*
X131371702Y-98674374D01*
X131183344Y-98752395D01*
X131013826Y-98865663D01*
X130869663Y-99009826D01*
X130756395Y-99179344D01*
X130678374Y-99367702D01*
X130638600Y-99567661D01*
X130638600Y-99771539D01*
X130678374Y-99971498D01*
X130756395Y-100159856D01*
X130869663Y-100329374D01*
X130913600Y-100373311D01*
X130913601Y-103814945D01*
X130821745Y-103823992D01*
X130655149Y-103874528D01*
X130501613Y-103956595D01*
X130367038Y-104067038D01*
X130256595Y-104201613D01*
X130225386Y-104260000D01*
X128854614Y-104260000D01*
X128823405Y-104201613D01*
X128712962Y-104067038D01*
X128578387Y-103956595D01*
X128424851Y-103874528D01*
X128258255Y-103823992D01*
X128085001Y-103806928D01*
X127184999Y-103806928D01*
X127011745Y-103823992D01*
X126845149Y-103874528D01*
X126691613Y-103956595D01*
X126557038Y-104067038D01*
X126446595Y-104201613D01*
X126364528Y-104355149D01*
X126313992Y-104521745D01*
X126296928Y-104694999D01*
X126296928Y-105345001D01*
X126313992Y-105518255D01*
X126364528Y-105684851D01*
X126446595Y-105838387D01*
X126557038Y-105972962D01*
X126644816Y-106045000D01*
X126557038Y-106117038D01*
X126446595Y-106251613D01*
X126364528Y-106405149D01*
X126313992Y-106571745D01*
X126296928Y-106744999D01*
X126296928Y-107395001D01*
X126313992Y-107568255D01*
X126364528Y-107734851D01*
X126446595Y-107888387D01*
X126557038Y-108022962D01*
X126572723Y-108035834D01*
X126555208Y-108050208D01*
X126445542Y-108183836D01*
X126364053Y-108336291D01*
X126313872Y-108501715D01*
X126296928Y-108673750D01*
X126296928Y-109161250D01*
X126313872Y-109333285D01*
X126364053Y-109498709D01*
X126445542Y-109651164D01*
X126555208Y-109784792D01*
X126561564Y-109790008D01*
X126483815Y-109853815D01*
X126404463Y-109950506D01*
X126345498Y-110060820D01*
X126309188Y-110180518D01*
X126296928Y-110305000D01*
X126300000Y-110506750D01*
X126458750Y-110665500D01*
X127508000Y-110665500D01*
X127508000Y-110645500D01*
X127762000Y-110645500D01*
X127762000Y-110665500D01*
X128811250Y-110665500D01*
X128970000Y-110506750D01*
X128973072Y-110305000D01*
X128960812Y-110180518D01*
X128924502Y-110060820D01*
X128865537Y-109950506D01*
X128786185Y-109853815D01*
X128708436Y-109790008D01*
X128714792Y-109784792D01*
X128824458Y-109651164D01*
X128905947Y-109498709D01*
X128956128Y-109333285D01*
X128973072Y-109161250D01*
X128973072Y-108673750D01*
X128956128Y-108501715D01*
X128905947Y-108336291D01*
X128824458Y-108183836D01*
X128714792Y-108050208D01*
X128697277Y-108035834D01*
X128712962Y-108022962D01*
X128823405Y-107888387D01*
X128905472Y-107734851D01*
X128956008Y-107568255D01*
X128973072Y-107395001D01*
X128973072Y-106744999D01*
X128956008Y-106571745D01*
X128905472Y-106405149D01*
X128823405Y-106251613D01*
X128712962Y-106117038D01*
X128625184Y-106045000D01*
X128712962Y-105972962D01*
X128823405Y-105838387D01*
X128854614Y-105780000D01*
X130225386Y-105780000D01*
X130256595Y-105838387D01*
X130367038Y-105972962D01*
X130454816Y-106045000D01*
X130367038Y-106117038D01*
X130256595Y-106251613D01*
X130174528Y-106405149D01*
X130123992Y-106571745D01*
X130106928Y-106744999D01*
X130106928Y-107395001D01*
X130123992Y-107568255D01*
X130174528Y-107734851D01*
X130256595Y-107888387D01*
X130367038Y-108022962D01*
X130382723Y-108035834D01*
X130365208Y-108050208D01*
X130255542Y-108183836D01*
X130174053Y-108336291D01*
X130123872Y-108501715D01*
X130106928Y-108673750D01*
X130106928Y-109161250D01*
X130123872Y-109333285D01*
X130174053Y-109498709D01*
X130255542Y-109651164D01*
X130365208Y-109784792D01*
X130450756Y-109855000D01*
X130365208Y-109925208D01*
X130255542Y-110058836D01*
X130174053Y-110211291D01*
X130123872Y-110376715D01*
X130106928Y-110548750D01*
X130106928Y-111036250D01*
X130123872Y-111208285D01*
X130174053Y-111373709D01*
X130255542Y-111526164D01*
X130365208Y-111659792D01*
X130456849Y-111735000D01*
X128781536Y-111735000D01*
X128786185Y-111731185D01*
X128865537Y-111634494D01*
X128924502Y-111524180D01*
X128960812Y-111404482D01*
X128973072Y-111280000D01*
X128970000Y-111078250D01*
X128811250Y-110919500D01*
X127762000Y-110919500D01*
X127762000Y-110939500D01*
X127508000Y-110939500D01*
X127508000Y-110919500D01*
X126458750Y-110919500D01*
X126300000Y-111078250D01*
X126296928Y-111280000D01*
X126309188Y-111404482D01*
X126345498Y-111524180D01*
X126404463Y-111634494D01*
X126483815Y-111731185D01*
X126488464Y-111735000D01*
X124971536Y-111735000D01*
X124976185Y-111731185D01*
X125055537Y-111634494D01*
X125114502Y-111524180D01*
X125150812Y-111404482D01*
X125163072Y-111280000D01*
X125160000Y-111078250D01*
X125001250Y-110919500D01*
X123952000Y-110919500D01*
X123952000Y-110939500D01*
X123698000Y-110939500D01*
X123698000Y-110919500D01*
X122648750Y-110919500D01*
X122490000Y-111078250D01*
X122486928Y-111280000D01*
X122499188Y-111404482D01*
X122535498Y-111524180D01*
X122594463Y-111634494D01*
X122673815Y-111731185D01*
X122678464Y-111735000D01*
X99092278Y-111735000D01*
X98572117Y-111683998D01*
X98102814Y-111542307D01*
X97669972Y-111312161D01*
X97290073Y-111002323D01*
X96977594Y-110624600D01*
X96744431Y-110193373D01*
X96599468Y-109725073D01*
X96545000Y-109206847D01*
X96545000Y-107830000D01*
X110006928Y-107830000D01*
X110019188Y-107954482D01*
X110055498Y-108074180D01*
X110114463Y-108184494D01*
X110193815Y-108281185D01*
X110290506Y-108360537D01*
X110400820Y-108419502D01*
X110520518Y-108455812D01*
X110645000Y-108468072D01*
X112109250Y-108465000D01*
X112268000Y-108306250D01*
X112268000Y-106457000D01*
X112522000Y-106457000D01*
X112522000Y-108306250D01*
X112680750Y-108465000D01*
X114145000Y-108468072D01*
X114269482Y-108455812D01*
X114389180Y-108419502D01*
X114499494Y-108360537D01*
X114596185Y-108281185D01*
X114675537Y-108184494D01*
X114734502Y-108074180D01*
X114770812Y-107954482D01*
X114783072Y-107830000D01*
X114780000Y-106615750D01*
X114621250Y-106457000D01*
X112522000Y-106457000D01*
X112268000Y-106457000D01*
X110168750Y-106457000D01*
X110010000Y-106615750D01*
X110006928Y-107830000D01*
X96545000Y-107830000D01*
X96545000Y-104830000D01*
X110006928Y-104830000D01*
X110010000Y-106044250D01*
X110168750Y-106203000D01*
X112268000Y-106203000D01*
X112268000Y-104353750D01*
X112522000Y-104353750D01*
X112522000Y-106203000D01*
X114621250Y-106203000D01*
X114780000Y-106044250D01*
X114781698Y-105373195D01*
X114814463Y-105434494D01*
X114893815Y-105531185D01*
X114990506Y-105610537D01*
X115100820Y-105669502D01*
X115220518Y-105705812D01*
X115345000Y-105718072D01*
X116809250Y-105715000D01*
X116968000Y-105556250D01*
X116968000Y-103457000D01*
X117222000Y-103457000D01*
X117222000Y-105556250D01*
X117380750Y-105715000D01*
X118845000Y-105718072D01*
X118969482Y-105705812D01*
X119089180Y-105669502D01*
X119199494Y-105610537D01*
X119296185Y-105531185D01*
X119375537Y-105434494D01*
X119434502Y-105324180D01*
X119470812Y-105204482D01*
X119483072Y-105080000D01*
X119482265Y-104694999D01*
X122486928Y-104694999D01*
X122486928Y-105345001D01*
X122503992Y-105518255D01*
X122554528Y-105684851D01*
X122636595Y-105838387D01*
X122747038Y-105972962D01*
X122834816Y-106045000D01*
X122747038Y-106117038D01*
X122636595Y-106251613D01*
X122554528Y-106405149D01*
X122503992Y-106571745D01*
X122486928Y-106744999D01*
X122486928Y-107395001D01*
X122503992Y-107568255D01*
X122554528Y-107734851D01*
X122636595Y-107888387D01*
X122747038Y-108022962D01*
X122762723Y-108035834D01*
X122745208Y-108050208D01*
X122635542Y-108183836D01*
X122554053Y-108336291D01*
X122503872Y-108501715D01*
X122486928Y-108673750D01*
X122486928Y-109161250D01*
X122503872Y-109333285D01*
X122554053Y-109498709D01*
X122635542Y-109651164D01*
X122745208Y-109784792D01*
X122751564Y-109790008D01*
X122673815Y-109853815D01*
X122594463Y-109950506D01*
X122535498Y-110060820D01*
X122499188Y-110180518D01*
X122486928Y-110305000D01*
X122490000Y-110506750D01*
X122648750Y-110665500D01*
X123698000Y-110665500D01*
X123698000Y-110645500D01*
X123952000Y-110645500D01*
X123952000Y-110665500D01*
X125001250Y-110665500D01*
X125160000Y-110506750D01*
X125163072Y-110305000D01*
X125150812Y-110180518D01*
X125114502Y-110060820D01*
X125055537Y-109950506D01*
X124976185Y-109853815D01*
X124898436Y-109790008D01*
X124904792Y-109784792D01*
X125014458Y-109651164D01*
X125095947Y-109498709D01*
X125146128Y-109333285D01*
X125163072Y-109161250D01*
X125163072Y-108673750D01*
X125146128Y-108501715D01*
X125095947Y-108336291D01*
X125014458Y-108183836D01*
X124904792Y-108050208D01*
X124887277Y-108035834D01*
X124902962Y-108022962D01*
X125013405Y-107888387D01*
X125095472Y-107734851D01*
X125146008Y-107568255D01*
X125163072Y-107395001D01*
X125163072Y-106744999D01*
X125146008Y-106571745D01*
X125095472Y-106405149D01*
X125013405Y-106251613D01*
X124902962Y-106117038D01*
X124815184Y-106045000D01*
X124902962Y-105972962D01*
X125013405Y-105838387D01*
X125095472Y-105684851D01*
X125146008Y-105518255D01*
X125163072Y-105345001D01*
X125163072Y-104694999D01*
X125146640Y-104528162D01*
X126304803Y-103370000D01*
X126476788Y-103370000D01*
X126678542Y-103329869D01*
X126745150Y-103365472D01*
X126911746Y-103416008D01*
X127085000Y-103433072D01*
X128185000Y-103433072D01*
X128358254Y-103416008D01*
X128524850Y-103365472D01*
X128678386Y-103283405D01*
X128812962Y-103172962D01*
X128923405Y-103038386D01*
X129005472Y-102884850D01*
X129056008Y-102718254D01*
X129073072Y-102545000D01*
X129073072Y-100445000D01*
X129056008Y-100271746D01*
X129005472Y-100105150D01*
X128923405Y-99951614D01*
X128812962Y-99817038D01*
X128736187Y-99754031D01*
X128789494Y-99725537D01*
X128886185Y-99646185D01*
X128965537Y-99549494D01*
X129024502Y-99439180D01*
X129060812Y-99319482D01*
X129073072Y-99195000D01*
X129070000Y-98180750D01*
X128911250Y-98022000D01*
X127762000Y-98022000D01*
X127762000Y-98042000D01*
X127508000Y-98042000D01*
X127508000Y-98022000D01*
X126358750Y-98022000D01*
X126200000Y-98180750D01*
X126196928Y-99195000D01*
X126209188Y-99319482D01*
X126245498Y-99439180D01*
X126304463Y-99549494D01*
X126383815Y-99646185D01*
X126480506Y-99725537D01*
X126533813Y-99754031D01*
X126457038Y-99817038D01*
X126346595Y-99951614D01*
X126264528Y-100105150D01*
X126213992Y-100271746D01*
X126196928Y-100445000D01*
X126196928Y-101111196D01*
X126033933Y-101143617D01*
X125827376Y-101229176D01*
X125641480Y-101353388D01*
X125483388Y-101511480D01*
X125359176Y-101697376D01*
X125273617Y-101903933D01*
X125230000Y-102123212D01*
X125230000Y-102295197D01*
X123718271Y-103806928D01*
X123374999Y-103806928D01*
X123201745Y-103823992D01*
X123035149Y-103874528D01*
X122881613Y-103956595D01*
X122747038Y-104067038D01*
X122636595Y-104201613D01*
X122554528Y-104355149D01*
X122503992Y-104521745D01*
X122486928Y-104694999D01*
X119482265Y-104694999D01*
X119480000Y-103615750D01*
X119321250Y-103457000D01*
X117222000Y-103457000D01*
X116968000Y-103457000D01*
X114868750Y-103457000D01*
X114710000Y-103615750D01*
X114708069Y-104536367D01*
X114675537Y-104475506D01*
X114596185Y-104378815D01*
X114499494Y-104299463D01*
X114389180Y-104240498D01*
X114269482Y-104204188D01*
X114145000Y-104191928D01*
X112680750Y-104195000D01*
X112522000Y-104353750D01*
X112268000Y-104353750D01*
X112109250Y-104195000D01*
X110645000Y-104191928D01*
X110520518Y-104204188D01*
X110400820Y-104240498D01*
X110290506Y-104299463D01*
X110193815Y-104378815D01*
X110114463Y-104475506D01*
X110055498Y-104585820D01*
X110019188Y-104705518D01*
X110006928Y-104830000D01*
X96545000Y-104830000D01*
X96545000Y-77502278D01*
X96596002Y-76982116D01*
X96737694Y-76512812D01*
X96967837Y-76079975D01*
X97277678Y-75700073D01*
X97655397Y-75387597D01*
X98086627Y-75154431D01*
X98554928Y-75009468D01*
X99073153Y-74955000D01*
X132649669Y-74955000D01*
X132650000Y-74976750D01*
G36*
X117831226Y-82464937D02*
G01*
X118000744Y-82578205D01*
X118189102Y-82656226D01*
X118389061Y-82696000D01*
X118451198Y-82696000D01*
X119451205Y-83696008D01*
X119474999Y-83725001D01*
X119503992Y-83748795D01*
X119503996Y-83748799D01*
X119574685Y-83806811D01*
X119590724Y-83819974D01*
X119722753Y-83890546D01*
X119866014Y-83934003D01*
X119892376Y-83936600D01*
X119857068Y-84021842D01*
X119800000Y-84308740D01*
X119800000Y-84601260D01*
X119821829Y-84711000D01*
X119194711Y-84711000D01*
X119150774Y-84667063D01*
X118981256Y-84553795D01*
X118792898Y-84475774D01*
X118592939Y-84436000D01*
X118389061Y-84436000D01*
X118189102Y-84475774D01*
X118000744Y-84553795D01*
X117831226Y-84667063D01*
X117687063Y-84811226D01*
X117573795Y-84980744D01*
X117495774Y-85169102D01*
X117456000Y-85369061D01*
X117456000Y-85572939D01*
X117495774Y-85772898D01*
X117573795Y-85961256D01*
X117687063Y-86130774D01*
X117831226Y-86274937D01*
X118000744Y-86388205D01*
X118189102Y-86466226D01*
X118389061Y-86506000D01*
X118592939Y-86506000D01*
X118792898Y-86466226D01*
X118981256Y-86388205D01*
X119150774Y-86274937D01*
X119194711Y-86231000D01*
X119697401Y-86231000D01*
X119799725Y-86314975D01*
X119930393Y-86384819D01*
X119857068Y-86561842D01*
X119800000Y-86848740D01*
X119800000Y-87141260D01*
X119857068Y-87428158D01*
X119907536Y-87549999D01*
X119104800Y-87549999D01*
X118991304Y-87436503D01*
X118967501Y-87407499D01*
X118851776Y-87312526D01*
X118719747Y-87241954D01*
X118576486Y-87198497D01*
X118464833Y-87187500D01*
X118464822Y-87187500D01*
X118427500Y-87183824D01*
X118390178Y-87187500D01*
X118115211Y-87187500D01*
X118071274Y-87143563D01*
X117901756Y-87030295D01*
X117713398Y-86952274D01*
X117513439Y-86912500D01*
X117309561Y-86912500D01*
X117109602Y-86952274D01*
X116921244Y-87030295D01*
X116751726Y-87143563D01*
X116607563Y-87287726D01*
X116494295Y-87457244D01*
X116416274Y-87645602D01*
X116376500Y-87845561D01*
X116376500Y-88049439D01*
X116416274Y-88249398D01*
X116494295Y-88437756D01*
X116607563Y-88607274D01*
X116751726Y-88751437D01*
X116921244Y-88864705D01*
X117109602Y-88942726D01*
X117309561Y-88982500D01*
X117513439Y-88982500D01*
X117713398Y-88942726D01*
X117901756Y-88864705D01*
X118071274Y-88751437D01*
X118113955Y-88708756D01*
X118226195Y-88820996D01*
X118249998Y-88850000D01*
X118365723Y-88944973D01*
X118497752Y-89015545D01*
X118641013Y-89059002D01*
X118752666Y-89069999D01*
X118752676Y-89069999D01*
X118789998Y-89073675D01*
X118827321Y-89069999D01*
X119870258Y-89069999D01*
X119857068Y-89101842D01*
X119800000Y-89388740D01*
X119800000Y-89681260D01*
X119857068Y-89968158D01*
X119888897Y-90045000D01*
X118401322Y-90045000D01*
X118363999Y-90041324D01*
X118326676Y-90045000D01*
X118326667Y-90045000D01*
X118215014Y-90055997D01*
X118071753Y-90099454D01*
X117939773Y-90170000D01*
X108659327Y-90170000D01*
X108742932Y-89968158D01*
X108800000Y-89681260D01*
X108800000Y-89388740D01*
X108742932Y-89101842D01*
X108711103Y-89025000D01*
X109357849Y-89025000D01*
X109367774Y-89074898D01*
X109445795Y-89263256D01*
X109559063Y-89432774D01*
X109703226Y-89576937D01*
X109872744Y-89690205D01*
X110061102Y-89768226D01*
X110261061Y-89808000D01*
X110464939Y-89808000D01*
X110664898Y-89768226D01*
X110853256Y-89690205D01*
X111022774Y-89576937D01*
X111166937Y-89432774D01*
X111280205Y-89263256D01*
X111358226Y-89074898D01*
X111398000Y-88874939D01*
X111398000Y-88815671D01*
X111411001Y-88805001D01*
X111505974Y-88689276D01*
X111576546Y-88557247D01*
X111598314Y-88485487D01*
X117725045Y-82358756D01*
X117831226Y-82464937D01*
G37*
X117831226Y-82464937D02*
X118000744Y-82578205D01*
X118189102Y-82656226D01*
X118389061Y-82696000D01*
X118451198Y-82696000D01*
X119451205Y-83696008D01*
X119474999Y-83725001D01*
X119503992Y-83748795D01*
X119503996Y-83748799D01*
X119574685Y-83806811D01*
X119590724Y-83819974D01*
X119722753Y-83890546D01*
X119866014Y-83934003D01*
X119892376Y-83936600D01*
X119857068Y-84021842D01*
X119800000Y-84308740D01*
X119800000Y-84601260D01*
X119821829Y-84711000D01*
X119194711Y-84711000D01*
X119150774Y-84667063D01*
X118981256Y-84553795D01*
X118792898Y-84475774D01*
X118592939Y-84436000D01*
X118389061Y-84436000D01*
X118189102Y-84475774D01*
X118000744Y-84553795D01*
X117831226Y-84667063D01*
X117687063Y-84811226D01*
X117573795Y-84980744D01*
X117495774Y-85169102D01*
X117456000Y-85369061D01*
X117456000Y-85572939D01*
X117495774Y-85772898D01*
X117573795Y-85961256D01*
X117687063Y-86130774D01*
X117831226Y-86274937D01*
X118000744Y-86388205D01*
X118189102Y-86466226D01*
X118389061Y-86506000D01*
X118592939Y-86506000D01*
X118792898Y-86466226D01*
X118981256Y-86388205D01*
X119150774Y-86274937D01*
X119194711Y-86231000D01*
X119697401Y-86231000D01*
X119799725Y-86314975D01*
X119930393Y-86384819D01*
X119857068Y-86561842D01*
X119800000Y-86848740D01*
X119800000Y-87141260D01*
X119857068Y-87428158D01*
X119907536Y-87549999D01*
X119104800Y-87549999D01*
X118991304Y-87436503D01*
X118967501Y-87407499D01*
X118851776Y-87312526D01*
X118719747Y-87241954D01*
X118576486Y-87198497D01*
X118464833Y-87187500D01*
X118464822Y-87187500D01*
X118427500Y-87183824D01*
X118390178Y-87187500D01*
X118115211Y-87187500D01*
X118071274Y-87143563D01*
X117901756Y-87030295D01*
X117713398Y-86952274D01*
X117513439Y-86912500D01*
X117309561Y-86912500D01*
X117109602Y-86952274D01*
X116921244Y-87030295D01*
X116751726Y-87143563D01*
X116607563Y-87287726D01*
X116494295Y-87457244D01*
X116416274Y-87645602D01*
X116376500Y-87845561D01*
X116376500Y-88049439D01*
X116416274Y-88249398D01*
X116494295Y-88437756D01*
X116607563Y-88607274D01*
X116751726Y-88751437D01*
X116921244Y-88864705D01*
X117109602Y-88942726D01*
X117309561Y-88982500D01*
X117513439Y-88982500D01*
X117713398Y-88942726D01*
X117901756Y-88864705D01*
X118071274Y-88751437D01*
X118113955Y-88708756D01*
X118226195Y-88820996D01*
X118249998Y-88850000D01*
X118365723Y-88944973D01*
X118497752Y-89015545D01*
X118641013Y-89059002D01*
X118752666Y-89069999D01*
X118752676Y-89069999D01*
X118789998Y-89073675D01*
X118827321Y-89069999D01*
X119870258Y-89069999D01*
X119857068Y-89101842D01*
X119800000Y-89388740D01*
X119800000Y-89681260D01*
X119857068Y-89968158D01*
X119888897Y-90045000D01*
X118401322Y-90045000D01*
X118363999Y-90041324D01*
X118326676Y-90045000D01*
X118326667Y-90045000D01*
X118215014Y-90055997D01*
X118071753Y-90099454D01*
X117939773Y-90170000D01*
X108659327Y-90170000D01*
X108742932Y-89968158D01*
X108800000Y-89681260D01*
X108800000Y-89388740D01*
X108742932Y-89101842D01*
X108711103Y-89025000D01*
X109357849Y-89025000D01*
X109367774Y-89074898D01*
X109445795Y-89263256D01*
X109559063Y-89432774D01*
X109703226Y-89576937D01*
X109872744Y-89690205D01*
X110061102Y-89768226D01*
X110261061Y-89808000D01*
X110464939Y-89808000D01*
X110664898Y-89768226D01*
X110853256Y-89690205D01*
X111022774Y-89576937D01*
X111166937Y-89432774D01*
X111280205Y-89263256D01*
X111358226Y-89074898D01*
X111398000Y-88874939D01*
X111398000Y-88815671D01*
X111411001Y-88805001D01*
X111505974Y-88689276D01*
X111576546Y-88557247D01*
X111598314Y-88485487D01*
X117725045Y-82358756D01*
X117831226Y-82464937D01*
G36*
X137978748Y-75437998D02*
G01*
X137820000Y-75437998D01*
X137820000Y-75508250D01*
X137701252Y-75389502D01*
X137860000Y-75389502D01*
X137860000Y-75319250D01*
X137978748Y-75437998D01*
G37*
X137978748Y-75437998D02*
X137820000Y-75437998D01*
X137820000Y-75508250D01*
X137701252Y-75389502D01*
X137860000Y-75389502D01*
X137860000Y-75319250D01*
X137978748Y-75437998D01*
%TO.N,VDC*%
G36*
X103071842Y-90962932D02*
G01*
X103358740Y-91020000D01*
X103651260Y-91020000D01*
X103938158Y-90962932D01*
X104012835Y-90932000D01*
X106807165Y-90932000D01*
X106881842Y-90962932D01*
X107168740Y-91020000D01*
X107461260Y-91020000D01*
X107748158Y-90962932D01*
X107822835Y-90932000D01*
X116783997Y-90932000D01*
X116751726Y-90953563D01*
X116607563Y-91097726D01*
X116494295Y-91267244D01*
X116416274Y-91455602D01*
X116376500Y-91655561D01*
X116376500Y-91859439D01*
X116416274Y-92059398D01*
X116494295Y-92247756D01*
X116607563Y-92417274D01*
X116751726Y-92561437D01*
X116921244Y-92674705D01*
X117109602Y-92752726D01*
X117309561Y-92792500D01*
X117513439Y-92792500D01*
X117713398Y-92752726D01*
X117901756Y-92674705D01*
X118071274Y-92561437D01*
X118215437Y-92417274D01*
X118328705Y-92247756D01*
X118406726Y-92059398D01*
X118446500Y-91859439D01*
X118446500Y-91797302D01*
X118678803Y-91565000D01*
X125885201Y-91565000D01*
X126238000Y-91917799D01*
X126238000Y-93927394D01*
X118897316Y-101268078D01*
X118810618Y-101196927D01*
X118549028Y-101057104D01*
X118265186Y-100971001D01*
X117970000Y-100941928D01*
X116220000Y-100941928D01*
X115924814Y-100971001D01*
X115640972Y-101057104D01*
X115379382Y-101196927D01*
X115150097Y-101385097D01*
X114961927Y-101614382D01*
X114822104Y-101875972D01*
X114751719Y-102108000D01*
X110542606Y-102108000D01*
X102362000Y-93927394D01*
X102362000Y-90932000D01*
X102997165Y-90932000D01*
X103071842Y-90962932D01*
G37*
X103071842Y-90962932D02*
X103358740Y-91020000D01*
X103651260Y-91020000D01*
X103938158Y-90962932D01*
X104012835Y-90932000D01*
X106807165Y-90932000D01*
X106881842Y-90962932D01*
X107168740Y-91020000D01*
X107461260Y-91020000D01*
X107748158Y-90962932D01*
X107822835Y-90932000D01*
X116783997Y-90932000D01*
X116751726Y-90953563D01*
X116607563Y-91097726D01*
X116494295Y-91267244D01*
X116416274Y-91455602D01*
X116376500Y-91655561D01*
X116376500Y-91859439D01*
X116416274Y-92059398D01*
X116494295Y-92247756D01*
X116607563Y-92417274D01*
X116751726Y-92561437D01*
X116921244Y-92674705D01*
X117109602Y-92752726D01*
X117309561Y-92792500D01*
X117513439Y-92792500D01*
X117713398Y-92752726D01*
X117901756Y-92674705D01*
X118071274Y-92561437D01*
X118215437Y-92417274D01*
X118328705Y-92247756D01*
X118406726Y-92059398D01*
X118446500Y-91859439D01*
X118446500Y-91797302D01*
X118678803Y-91565000D01*
X125885201Y-91565000D01*
X126238000Y-91917799D01*
X126238000Y-93927394D01*
X118897316Y-101268078D01*
X118810618Y-101196927D01*
X118549028Y-101057104D01*
X118265186Y-100971001D01*
X117970000Y-100941928D01*
X116220000Y-100941928D01*
X115924814Y-100971001D01*
X115640972Y-101057104D01*
X115379382Y-101196927D01*
X115150097Y-101385097D01*
X114961927Y-101614382D01*
X114822104Y-101875972D01*
X114751719Y-102108000D01*
X110542606Y-102108000D01*
X102362000Y-93927394D01*
X102362000Y-90932000D01*
X102997165Y-90932000D01*
X103071842Y-90962932D01*
%TD*%
M02*
