M48
; DRILL file {KiCad (5.1.6-0-10_14)} date Wednesday, November 11, 2020 at 01:37:43 AM
; FORMAT={-:-/ absolute / inch / decimal}
; #@! TF.CreationDate,2020-11-11T01:37:43-06:00
; #@! TF.GenerationSoftware,Kicad,Pcbnew,(5.1.6-0-10_14)
; #@! TF.FileFunction,Plated,1,2,PTH
FMAT,2
INCH
T1C0.0157
T2C0.0197
T3C0.0236
T4C0.0354
T5C0.0394
T6C0.0866
%
G90
G05
T1
X3.9225Y-3.1625
X3.9225Y-3.3125
X3.9225Y-3.4625
X3.9225Y-3.6125
X4.345Y-3.495
X4.3775Y-3.0875
X4.3775Y-3.2375
X4.3775Y-3.3575
X4.5Y-3.4
X4.5Y-3.525
X4.6225Y-3.4625
X4.6225Y-3.6125
X4.665Y-3.215
X4.665Y-3.365
X5.025Y-3.725
X5.025Y-3.825
X5.125Y-3.825
X5.1575Y-3.0875
X5.184Y-3.924
X5.205Y-3.2375
X5.21Y-4.335
X5.235Y-3.365
X5.275Y-2.975
X5.315Y-3.49
X5.425Y-3.675
X5.5565Y-4.3035
X5.59Y-3.11
X5.6138Y-3.4415
X5.615Y-3.235
X5.615Y-4.075
X5.6159Y-3.3394
X5.625Y-3.13
X5.755Y-4.16
X5.775Y-3.025
X5.775Y-3.525
X5.85Y-4.075
X5.955Y-4.16
X6.025Y-3.025
X6.025Y-3.525
X6.05Y-3.61
X6.09Y-3.5
X6.155Y-3.665
X6.155Y-4.16
X6.24Y-3.455
X6.28Y-3.19
X6.315Y-3.28
X6.395Y-4.24
X3.835Y-4.3
X3.8541Y-4.2541
X3.8541Y-4.3459
X3.9Y-4.235
X3.9Y-4.365
X3.9459Y-4.2541
X3.9459Y-4.3459
X3.965Y-4.3
X6.46Y-3.05
X6.4791Y-3.0041
X6.4791Y-3.0959
X6.525Y-2.985
X6.525Y-3.115
X6.5709Y-3.0041
X6.5709Y-3.0959
X6.59Y-3.05
X4.085Y-3.05
X4.1041Y-3.0041
X4.1041Y-3.0959
X4.15Y-2.985
X4.15Y-3.115
X4.1959Y-3.0041
X4.1959Y-3.0959
X4.215Y-3.05
X6.46Y-4.3
X6.4791Y-4.2541
X6.4791Y-4.3459
X6.525Y-4.235
X6.525Y-4.365
X6.5709Y-4.2541
X6.5709Y-4.3459
X6.59Y-4.3
T2
X4.975Y-4.025
X5.025Y-4.025
T3
X5.55Y-3.025
T4
X6.125Y-4.0
X6.225Y-4.0
X6.325Y-4.0
T5
X4.225Y-3.225
X4.225Y-3.325
X4.225Y-3.425
X4.225Y-3.525
X4.225Y-3.625
X4.925Y-3.225
X4.925Y-3.325
X4.925Y-3.425
X4.925Y-3.525
X4.925Y-3.625
X4.775Y-3.225
X4.775Y-3.325
X4.775Y-3.425
X4.775Y-3.525
X4.775Y-3.625
X4.075Y-3.225
X4.075Y-3.325
X4.075Y-3.425
X4.075Y-3.525
X4.075Y-3.625
X6.55Y-3.225
X6.55Y-3.325
X6.55Y-3.425
X6.55Y-3.525
X6.55Y-3.625
X6.55Y-3.725
X6.55Y-3.825
X6.55Y-3.925
X6.55Y-4.025
X6.55Y-4.125
T6
X6.525Y-4.3
X3.9Y-4.3
X6.525Y-3.05
X4.15Y-3.05
T5
G00X4.3856Y-3.95
M15
G01X4.4644Y-3.95
M16
G05
G00X4.3856Y-4.1862
M15
G01X4.4644Y-4.1862
M16
G05
G00X4.61Y-4.1075
M15
G01X4.61Y-4.0287
M16
G05
T0
M30
