%TF.GenerationSoftware,KiCad,Pcbnew,(5.1.6-0-10_14)*%
%TF.CreationDate,2020-11-11T01:37:45-06:00*%
%TF.ProjectId,kbxLEDController-16ch,6b62784c-4544-4436-9f6e-74726f6c6c65,rev?*%
%TF.SameCoordinates,Original*%
%TF.FileFunction,Soldermask,Bot*%
%TF.FilePolarity,Negative*%
%FSLAX46Y46*%
G04 Gerber Fmt 4.6, Leading zero omitted, Abs format (unit mm)*
G04 Created by KiCad (PCBNEW (5.1.6-0-10_14)) date 2020-11-11 01:37:45*
%MOMM*%
%LPD*%
G01*
G04 APERTURE LIST*
%ADD10C,0.100000*%
%ADD11R,1.000000X1.400000*%
%ADD12C,1.900000*%
%ADD13O,1.800000X1.800000*%
%ADD14R,1.800000X1.800000*%
%ADD15C,4.500000*%
%ADD16C,0.800000*%
%ADD17R,1.000000X0.900000*%
%ADD18R,3.600000X3.600000*%
%ADD19R,1.000000X1.300000*%
G04 APERTURE END LIST*
D10*
%TO.C,U2*%
G36*
X131090539Y-104544755D02*
G01*
X131087694Y-104554134D01*
X131083073Y-104562779D01*
X131076855Y-104570355D01*
X131069279Y-104576573D01*
X131060634Y-104581194D01*
X131051255Y-104584039D01*
X131041500Y-104585000D01*
X129308500Y-104585000D01*
X129298745Y-104584039D01*
X129289366Y-104581194D01*
X129280721Y-104576573D01*
X129273145Y-104570355D01*
X129266927Y-104562779D01*
X129262306Y-104554134D01*
X129259461Y-104544755D01*
X129258500Y-104535000D01*
X129258500Y-101410000D01*
X129259461Y-101400245D01*
X129262306Y-101390866D01*
X129266927Y-101382221D01*
X129273145Y-101374645D01*
X129280721Y-101368427D01*
X129289366Y-101363806D01*
X129298745Y-101360961D01*
X129308500Y-101360000D01*
X129675000Y-101360000D01*
X129675000Y-99935000D01*
X129675961Y-99925245D01*
X129678806Y-99915866D01*
X129683427Y-99907221D01*
X129689645Y-99899645D01*
X129697221Y-99893427D01*
X129705866Y-99888806D01*
X129715245Y-99885961D01*
X129725000Y-99885000D01*
X130625000Y-99885000D01*
X130634755Y-99885961D01*
X130644134Y-99888806D01*
X130652779Y-99893427D01*
X130660355Y-99899645D01*
X130666573Y-99907221D01*
X130671194Y-99915866D01*
X130674039Y-99925245D01*
X130675000Y-99935000D01*
X130675000Y-101360000D01*
X131041500Y-101360000D01*
X131051255Y-101360961D01*
X131060634Y-101363806D01*
X131069279Y-101368427D01*
X131076855Y-101374645D01*
X131083073Y-101382221D01*
X131087694Y-101390866D01*
X131090539Y-101400245D01*
X131091500Y-101410000D01*
X131091500Y-104535000D01*
X131090539Y-104544755D01*
G37*
D11*
X131675000Y-100585000D03*
X128675000Y-100585000D03*
%TD*%
%TO.C,C8*%
G36*
G01*
X159317500Y-103658750D02*
X159317500Y-104621250D01*
G75*
G02*
X159048750Y-104890000I-268750J0D01*
G01*
X158511250Y-104890000D01*
G75*
G02*
X158242500Y-104621250I0J268750D01*
G01*
X158242500Y-103658750D01*
G75*
G02*
X158511250Y-103390000I268750J0D01*
G01*
X159048750Y-103390000D01*
G75*
G02*
X159317500Y-103658750I0J-268750D01*
G01*
G37*
G36*
G01*
X161192500Y-103658750D02*
X161192500Y-104621250D01*
G75*
G02*
X160923750Y-104890000I-268750J0D01*
G01*
X160386250Y-104890000D01*
G75*
G02*
X160117500Y-104621250I0J268750D01*
G01*
X160117500Y-103658750D01*
G75*
G02*
X160386250Y-103390000I268750J0D01*
G01*
X160923750Y-103390000D01*
G75*
G02*
X161192500Y-103658750I0J-268750D01*
G01*
G37*
%TD*%
%TO.C,U3*%
G36*
G01*
X154625000Y-102285900D02*
X154625000Y-100914100D01*
G75*
G02*
X154889100Y-100650000I264100J0D01*
G01*
X156260900Y-100650000D01*
G75*
G02*
X156525000Y-100914100I0J-264100D01*
G01*
X156525000Y-102285900D01*
G75*
G02*
X156260900Y-102550000I-264100J0D01*
G01*
X154889100Y-102550000D01*
G75*
G02*
X154625000Y-102285900I0J264100D01*
G01*
G37*
D12*
X158115000Y-101600000D03*
X160655000Y-101600000D03*
%TD*%
D13*
%TO.C,J6*%
X166370000Y-104775000D03*
X166370000Y-102235000D03*
X166370000Y-99695000D03*
X166370000Y-97155000D03*
X166370000Y-94615000D03*
X166370000Y-92075000D03*
X166370000Y-89535000D03*
X166370000Y-86995000D03*
X166370000Y-84455000D03*
D14*
X166370000Y-81915000D03*
%TD*%
%TO.C,R5*%
G36*
G01*
X163673262Y-101980000D02*
X162716738Y-101980000D01*
G75*
G02*
X162445000Y-101708262I0J271738D01*
G01*
X162445000Y-101001738D01*
G75*
G02*
X162716738Y-100730000I271738J0D01*
G01*
X163673262Y-100730000D01*
G75*
G02*
X163945000Y-101001738I0J-271738D01*
G01*
X163945000Y-101708262D01*
G75*
G02*
X163673262Y-101980000I-271738J0D01*
G01*
G37*
G36*
G01*
X163673262Y-99930000D02*
X162716738Y-99930000D01*
G75*
G02*
X162445000Y-99658262I0J271738D01*
G01*
X162445000Y-98951738D01*
G75*
G02*
X162716738Y-98680000I271738J0D01*
G01*
X163673262Y-98680000D01*
G75*
G02*
X163945000Y-98951738I0J-271738D01*
G01*
X163945000Y-99658262D01*
G75*
G02*
X163673262Y-99930000I-271738J0D01*
G01*
G37*
%TD*%
D15*
%TO.C,H4*%
X165735000Y-109220000D03*
D16*
X167385000Y-109220000D03*
X166901726Y-110386726D03*
X165735000Y-110870000D03*
X164568274Y-110386726D03*
X164085000Y-109220000D03*
X164568274Y-108053274D03*
X165735000Y-107570000D03*
X166901726Y-108053274D03*
%TD*%
%TO.C,H3*%
X100226726Y-108053274D03*
X99060000Y-107570000D03*
X97893274Y-108053274D03*
X97410000Y-109220000D03*
X97893274Y-110386726D03*
X99060000Y-110870000D03*
X100226726Y-110386726D03*
X100710000Y-109220000D03*
D15*
X99060000Y-109220000D03*
%TD*%
D16*
%TO.C,H2*%
X166901726Y-76303274D03*
X165735000Y-75820000D03*
X164568274Y-76303274D03*
X164085000Y-77470000D03*
X164568274Y-78636726D03*
X165735000Y-79120000D03*
X166901726Y-78636726D03*
X167385000Y-77470000D03*
D15*
X165735000Y-77470000D03*
%TD*%
D16*
%TO.C,H1*%
X106576726Y-76303274D03*
X105410000Y-75820000D03*
X104243274Y-76303274D03*
X103760000Y-77470000D03*
X104243274Y-78636726D03*
X105410000Y-79120000D03*
X106576726Y-78636726D03*
X107060000Y-77470000D03*
D15*
X105410000Y-77470000D03*
%TD*%
%TO.C,R9*%
G36*
G01*
X142005000Y-83663262D02*
X142005000Y-82706738D01*
G75*
G02*
X142276738Y-82435000I271738J0D01*
G01*
X142983262Y-82435000D01*
G75*
G02*
X143255000Y-82706738I0J-271738D01*
G01*
X143255000Y-83663262D01*
G75*
G02*
X142983262Y-83935000I-271738J0D01*
G01*
X142276738Y-83935000D01*
G75*
G02*
X142005000Y-83663262I0J271738D01*
G01*
G37*
G36*
G01*
X139955000Y-83663262D02*
X139955000Y-82706738D01*
G75*
G02*
X140226738Y-82435000I271738J0D01*
G01*
X140933262Y-82435000D01*
G75*
G02*
X141205000Y-82706738I0J-271738D01*
G01*
X141205000Y-83663262D01*
G75*
G02*
X140933262Y-83935000I-271738J0D01*
G01*
X140226738Y-83935000D01*
G75*
G02*
X139955000Y-83663262I0J271738D01*
G01*
G37*
%TD*%
%TO.C,R8*%
G36*
G01*
X142005000Y-81123262D02*
X142005000Y-80166738D01*
G75*
G02*
X142276738Y-79895000I271738J0D01*
G01*
X142983262Y-79895000D01*
G75*
G02*
X143255000Y-80166738I0J-271738D01*
G01*
X143255000Y-81123262D01*
G75*
G02*
X142983262Y-81395000I-271738J0D01*
G01*
X142276738Y-81395000D01*
G75*
G02*
X142005000Y-81123262I0J271738D01*
G01*
G37*
G36*
G01*
X139955000Y-81123262D02*
X139955000Y-80166738D01*
G75*
G02*
X140226738Y-79895000I271738J0D01*
G01*
X140933262Y-79895000D01*
G75*
G02*
X141205000Y-80166738I0J-271738D01*
G01*
X141205000Y-81123262D01*
G75*
G02*
X140933262Y-81395000I-271738J0D01*
G01*
X140226738Y-81395000D01*
G75*
G02*
X139955000Y-81123262I0J271738D01*
G01*
G37*
%TD*%
%TO.C,R7*%
G36*
G01*
X142005000Y-88743262D02*
X142005000Y-87786738D01*
G75*
G02*
X142276738Y-87515000I271738J0D01*
G01*
X142983262Y-87515000D01*
G75*
G02*
X143255000Y-87786738I0J-271738D01*
G01*
X143255000Y-88743262D01*
G75*
G02*
X142983262Y-89015000I-271738J0D01*
G01*
X142276738Y-89015000D01*
G75*
G02*
X142005000Y-88743262I0J271738D01*
G01*
G37*
G36*
G01*
X139955000Y-88743262D02*
X139955000Y-87786738D01*
G75*
G02*
X140226738Y-87515000I271738J0D01*
G01*
X140933262Y-87515000D01*
G75*
G02*
X141205000Y-87786738I0J-271738D01*
G01*
X141205000Y-88743262D01*
G75*
G02*
X140933262Y-89015000I-271738J0D01*
G01*
X140226738Y-89015000D01*
G75*
G02*
X139955000Y-88743262I0J271738D01*
G01*
G37*
%TD*%
%TO.C,R6*%
G36*
G01*
X142005000Y-86203262D02*
X142005000Y-85246738D01*
G75*
G02*
X142276738Y-84975000I271738J0D01*
G01*
X142983262Y-84975000D01*
G75*
G02*
X143255000Y-85246738I0J-271738D01*
G01*
X143255000Y-86203262D01*
G75*
G02*
X142983262Y-86475000I-271738J0D01*
G01*
X142276738Y-86475000D01*
G75*
G02*
X142005000Y-86203262I0J271738D01*
G01*
G37*
G36*
G01*
X139955000Y-86203262D02*
X139955000Y-85246738D01*
G75*
G02*
X140226738Y-84975000I271738J0D01*
G01*
X140933262Y-84975000D01*
G75*
G02*
X141205000Y-85246738I0J-271738D01*
G01*
X141205000Y-86203262D01*
G75*
G02*
X140933262Y-86475000I-271738J0D01*
G01*
X140226738Y-86475000D01*
G75*
G02*
X139955000Y-86203262I0J271738D01*
G01*
G37*
%TD*%
%TO.C,R4*%
G36*
G01*
X142005000Y-78583262D02*
X142005000Y-77626738D01*
G75*
G02*
X142276738Y-77355000I271738J0D01*
G01*
X142983262Y-77355000D01*
G75*
G02*
X143255000Y-77626738I0J-271738D01*
G01*
X143255000Y-78583262D01*
G75*
G02*
X142983262Y-78855000I-271738J0D01*
G01*
X142276738Y-78855000D01*
G75*
G02*
X142005000Y-78583262I0J271738D01*
G01*
G37*
G36*
G01*
X139955000Y-78583262D02*
X139955000Y-77626738D01*
G75*
G02*
X140226738Y-77355000I271738J0D01*
G01*
X140933262Y-77355000D01*
G75*
G02*
X141205000Y-77626738I0J-271738D01*
G01*
X141205000Y-78583262D01*
G75*
G02*
X140933262Y-78855000I-271738J0D01*
G01*
X140226738Y-78855000D01*
G75*
G02*
X139955000Y-78583262I0J271738D01*
G01*
G37*
%TD*%
D17*
%TO.C,Q16*%
X129905000Y-78425000D03*
X129905000Y-80325000D03*
X127905000Y-79375000D03*
%TD*%
%TO.C,Q12*%
X116475000Y-80325000D03*
X116475000Y-78425000D03*
X118475000Y-79375000D03*
%TD*%
%TO.C,Q8*%
X110125000Y-79375000D03*
X112125000Y-80325000D03*
X112125000Y-78425000D03*
%TD*%
%TO.C,Q4*%
X100695000Y-79375000D03*
X98695000Y-78425000D03*
X98695000Y-80325000D03*
%TD*%
%TO.C,Q15*%
X129905000Y-82235000D03*
X129905000Y-84135000D03*
X127905000Y-83185000D03*
%TD*%
%TO.C,Q11*%
X116475000Y-84135000D03*
X116475000Y-82235000D03*
X118475000Y-83185000D03*
%TD*%
%TO.C,Q7*%
X110125000Y-83185000D03*
X112125000Y-84135000D03*
X112125000Y-82235000D03*
%TD*%
%TO.C,Q3*%
X100695000Y-83185000D03*
X98695000Y-82235000D03*
X98695000Y-84135000D03*
%TD*%
%TO.C,Q14*%
X129905000Y-86045000D03*
X129905000Y-87945000D03*
X127905000Y-86995000D03*
%TD*%
%TO.C,Q10*%
X116475000Y-87945000D03*
X116475000Y-86045000D03*
X118475000Y-86995000D03*
%TD*%
%TO.C,Q6*%
X110125000Y-86995000D03*
X112125000Y-87945000D03*
X112125000Y-86045000D03*
%TD*%
%TO.C,Q2*%
X100695000Y-86995000D03*
X98695000Y-86045000D03*
X98695000Y-87945000D03*
%TD*%
%TO.C,Q13*%
X129905000Y-89855000D03*
X129905000Y-91755000D03*
X127905000Y-90805000D03*
%TD*%
%TO.C,Q9*%
X116475000Y-91755000D03*
X116475000Y-89855000D03*
X118475000Y-90805000D03*
%TD*%
%TO.C,Q5*%
X110125000Y-90805000D03*
X112125000Y-91755000D03*
X112125000Y-89855000D03*
%TD*%
%TO.C,Q1*%
X100695000Y-90805000D03*
X98695000Y-89855000D03*
X98695000Y-91755000D03*
%TD*%
D10*
%TO.C,JP1*%
G36*
X149389039Y-86219755D02*
G01*
X149386194Y-86229134D01*
X149381573Y-86237779D01*
X149375355Y-86245355D01*
X149367779Y-86251573D01*
X149359134Y-86256194D01*
X149349755Y-86259039D01*
X149340000Y-86260000D01*
X147840000Y-86260000D01*
X147830245Y-86259039D01*
X147820866Y-86256194D01*
X147812221Y-86251573D01*
X147804645Y-86245355D01*
X147798427Y-86237779D01*
X147793806Y-86229134D01*
X147790961Y-86219755D01*
X147790000Y-86210000D01*
X147790000Y-85710000D01*
X147790602Y-85703889D01*
X147790602Y-85685466D01*
X147790843Y-85680565D01*
X147795653Y-85631734D01*
X147796373Y-85626881D01*
X147805945Y-85578756D01*
X147807137Y-85573995D01*
X147821381Y-85527040D01*
X147823034Y-85522421D01*
X147841811Y-85477088D01*
X147843909Y-85472651D01*
X147867040Y-85429378D01*
X147869562Y-85425171D01*
X147896822Y-85384372D01*
X147899746Y-85380430D01*
X147930874Y-85342501D01*
X147934169Y-85338866D01*
X147968866Y-85304169D01*
X147972501Y-85300874D01*
X148010430Y-85269746D01*
X148014372Y-85266822D01*
X148055171Y-85239562D01*
X148059378Y-85237040D01*
X148102651Y-85213909D01*
X148107088Y-85211811D01*
X148152421Y-85193034D01*
X148157040Y-85191381D01*
X148203995Y-85177137D01*
X148208756Y-85175945D01*
X148256881Y-85166373D01*
X148261734Y-85165653D01*
X148310565Y-85160843D01*
X148315466Y-85160602D01*
X148333889Y-85160602D01*
X148340000Y-85160000D01*
X148840000Y-85160000D01*
X148846111Y-85160602D01*
X148864534Y-85160602D01*
X148869435Y-85160843D01*
X148918266Y-85165653D01*
X148923119Y-85166373D01*
X148971244Y-85175945D01*
X148976005Y-85177137D01*
X149022960Y-85191381D01*
X149027579Y-85193034D01*
X149072912Y-85211811D01*
X149077349Y-85213909D01*
X149120622Y-85237040D01*
X149124829Y-85239562D01*
X149165628Y-85266822D01*
X149169570Y-85269746D01*
X149207499Y-85300874D01*
X149211134Y-85304169D01*
X149245831Y-85338866D01*
X149249126Y-85342501D01*
X149280254Y-85380430D01*
X149283178Y-85384372D01*
X149310438Y-85425171D01*
X149312960Y-85429378D01*
X149336091Y-85472651D01*
X149338189Y-85477088D01*
X149356966Y-85522421D01*
X149358619Y-85527040D01*
X149372863Y-85573995D01*
X149374055Y-85578756D01*
X149383627Y-85626881D01*
X149384347Y-85631734D01*
X149389157Y-85680565D01*
X149389398Y-85685466D01*
X149389398Y-85703889D01*
X149390000Y-85710000D01*
X149390000Y-86210000D01*
X149389039Y-86219755D01*
G37*
G36*
X149389398Y-87016111D02*
G01*
X149389398Y-87034534D01*
X149389157Y-87039435D01*
X149384347Y-87088266D01*
X149383627Y-87093119D01*
X149374055Y-87141244D01*
X149372863Y-87146005D01*
X149358619Y-87192960D01*
X149356966Y-87197579D01*
X149338189Y-87242912D01*
X149336091Y-87247349D01*
X149312960Y-87290622D01*
X149310438Y-87294829D01*
X149283178Y-87335628D01*
X149280254Y-87339570D01*
X149249126Y-87377499D01*
X149245831Y-87381134D01*
X149211134Y-87415831D01*
X149207499Y-87419126D01*
X149169570Y-87450254D01*
X149165628Y-87453178D01*
X149124829Y-87480438D01*
X149120622Y-87482960D01*
X149077349Y-87506091D01*
X149072912Y-87508189D01*
X149027579Y-87526966D01*
X149022960Y-87528619D01*
X148976005Y-87542863D01*
X148971244Y-87544055D01*
X148923119Y-87553627D01*
X148918266Y-87554347D01*
X148869435Y-87559157D01*
X148864534Y-87559398D01*
X148846111Y-87559398D01*
X148840000Y-87560000D01*
X148340000Y-87560000D01*
X148333889Y-87559398D01*
X148315466Y-87559398D01*
X148310565Y-87559157D01*
X148261734Y-87554347D01*
X148256881Y-87553627D01*
X148208756Y-87544055D01*
X148203995Y-87542863D01*
X148157040Y-87528619D01*
X148152421Y-87526966D01*
X148107088Y-87508189D01*
X148102651Y-87506091D01*
X148059378Y-87482960D01*
X148055171Y-87480438D01*
X148014372Y-87453178D01*
X148010430Y-87450254D01*
X147972501Y-87419126D01*
X147968866Y-87415831D01*
X147934169Y-87381134D01*
X147930874Y-87377499D01*
X147899746Y-87339570D01*
X147896822Y-87335628D01*
X147869562Y-87294829D01*
X147867040Y-87290622D01*
X147843909Y-87247349D01*
X147841811Y-87242912D01*
X147823034Y-87197579D01*
X147821381Y-87192960D01*
X147807137Y-87146005D01*
X147805945Y-87141244D01*
X147796373Y-87093119D01*
X147795653Y-87088266D01*
X147790843Y-87039435D01*
X147790602Y-87034534D01*
X147790602Y-87016111D01*
X147790000Y-87010000D01*
X147790000Y-86510000D01*
X147790961Y-86500245D01*
X147793806Y-86490866D01*
X147798427Y-86482221D01*
X147804645Y-86474645D01*
X147812221Y-86468427D01*
X147820866Y-86463806D01*
X147830245Y-86460961D01*
X147840000Y-86460000D01*
X149340000Y-86460000D01*
X149349755Y-86460961D01*
X149359134Y-86463806D01*
X149367779Y-86468427D01*
X149375355Y-86474645D01*
X149381573Y-86482221D01*
X149386194Y-86490866D01*
X149389039Y-86500245D01*
X149390000Y-86510000D01*
X149390000Y-87010000D01*
X149389398Y-87016111D01*
G37*
%TD*%
D14*
%TO.C,J4*%
X125095000Y-92075000D03*
D13*
X125095000Y-89535000D03*
X125095000Y-86995000D03*
X125095000Y-84455000D03*
X125095000Y-81915000D03*
%TD*%
D14*
%TO.C,J3*%
X121285000Y-92075000D03*
D13*
X121285000Y-89535000D03*
X121285000Y-86995000D03*
X121285000Y-84455000D03*
X121285000Y-81915000D03*
%TD*%
%TO.C,J2*%
X107315000Y-81915000D03*
X107315000Y-84455000D03*
X107315000Y-86995000D03*
X107315000Y-89535000D03*
D14*
X107315000Y-92075000D03*
%TD*%
D13*
%TO.C,J1*%
X103505000Y-81915000D03*
X103505000Y-84455000D03*
X103505000Y-86995000D03*
X103505000Y-89535000D03*
D14*
X103505000Y-92075000D03*
%TD*%
D18*
%TO.C,J5*%
X112395000Y-100330000D03*
G36*
G01*
X113420000Y-107880000D02*
X111370000Y-107880000D01*
G75*
G02*
X110595000Y-107105000I0J775000D01*
G01*
X110595000Y-105555000D01*
G75*
G02*
X111370000Y-104780000I775000J0D01*
G01*
X113420000Y-104780000D01*
G75*
G02*
X114195000Y-105555000I0J-775000D01*
G01*
X114195000Y-107105000D01*
G75*
G02*
X113420000Y-107880000I-775000J0D01*
G01*
G37*
G36*
G01*
X117995000Y-105130000D02*
X116195000Y-105130000D01*
G75*
G02*
X115295000Y-104230000I0J900000D01*
G01*
X115295000Y-102430000D01*
G75*
G02*
X116195000Y-101530000I900000J0D01*
G01*
X117995000Y-101530000D01*
G75*
G02*
X118895000Y-102430000I0J-900000D01*
G01*
X118895000Y-104230000D01*
G75*
G02*
X117995000Y-105130000I-900000J0D01*
G01*
G37*
%TD*%
D19*
%TO.C,D1*%
X115825000Y-99695000D03*
X119125000Y-99695000D03*
%TD*%
%TO.C,C5*%
G36*
G01*
X134466250Y-101170000D02*
X133503750Y-101170000D01*
G75*
G02*
X133235000Y-100901250I0J268750D01*
G01*
X133235000Y-100363750D01*
G75*
G02*
X133503750Y-100095000I268750J0D01*
G01*
X134466250Y-100095000D01*
G75*
G02*
X134735000Y-100363750I0J-268750D01*
G01*
X134735000Y-100901250D01*
G75*
G02*
X134466250Y-101170000I-268750J0D01*
G01*
G37*
G36*
G01*
X134466250Y-99295000D02*
X133503750Y-99295000D01*
G75*
G02*
X133235000Y-99026250I0J268750D01*
G01*
X133235000Y-98488750D01*
G75*
G02*
X133503750Y-98220000I268750J0D01*
G01*
X134466250Y-98220000D01*
G75*
G02*
X134735000Y-98488750I0J-268750D01*
G01*
X134735000Y-99026250D01*
G75*
G02*
X134466250Y-99295000I-268750J0D01*
G01*
G37*
%TD*%
%TO.C,C4*%
G36*
G01*
X126846250Y-101170000D02*
X125883750Y-101170000D01*
G75*
G02*
X125615000Y-100901250I0J268750D01*
G01*
X125615000Y-100363750D01*
G75*
G02*
X125883750Y-100095000I268750J0D01*
G01*
X126846250Y-100095000D01*
G75*
G02*
X127115000Y-100363750I0J-268750D01*
G01*
X127115000Y-100901250D01*
G75*
G02*
X126846250Y-101170000I-268750J0D01*
G01*
G37*
G36*
G01*
X126846250Y-99295000D02*
X125883750Y-99295000D01*
G75*
G02*
X125615000Y-99026250I0J268750D01*
G01*
X125615000Y-98488750D01*
G75*
G02*
X125883750Y-98220000I268750J0D01*
G01*
X126846250Y-98220000D01*
G75*
G02*
X127115000Y-98488750I0J-268750D01*
G01*
X127115000Y-99026250D01*
G75*
G02*
X126846250Y-99295000I-268750J0D01*
G01*
G37*
%TD*%
%TO.C,C7*%
G36*
G01*
X156610000Y-87476250D02*
X156610000Y-86513750D01*
G75*
G02*
X156878750Y-86245000I268750J0D01*
G01*
X157416250Y-86245000D01*
G75*
G02*
X157685000Y-86513750I0J-268750D01*
G01*
X157685000Y-87476250D01*
G75*
G02*
X157416250Y-87745000I-268750J0D01*
G01*
X156878750Y-87745000D01*
G75*
G02*
X156610000Y-87476250I0J268750D01*
G01*
G37*
G36*
G01*
X154735000Y-87476250D02*
X154735000Y-86513750D01*
G75*
G02*
X155003750Y-86245000I268750J0D01*
G01*
X155541250Y-86245000D01*
G75*
G02*
X155810000Y-86513750I0J-268750D01*
G01*
X155810000Y-87476250D01*
G75*
G02*
X155541250Y-87745000I-268750J0D01*
G01*
X155003750Y-87745000D01*
G75*
G02*
X154735000Y-87476250I0J268750D01*
G01*
G37*
%TD*%
M02*
