%TF.GenerationSoftware,KiCad,Pcbnew,(5.1.6-0-10_14)*%
%TF.CreationDate,2020-11-11T01:37:45-06:00*%
%TF.ProjectId,kbxLEDController-16ch,6b62784c-4544-4436-9f6e-74726f6c6c65,rev?*%
%TF.SameCoordinates,Original*%
%TF.FileFunction,Legend,Top*%
%TF.FilePolarity,Positive*%
%FSLAX46Y46*%
G04 Gerber Fmt 4.6, Leading zero omitted, Abs format (unit mm)*
G04 Created by KiCad (PCBNEW (5.1.6-0-10_14)) date 2020-11-11 01:37:45*
%MOMM*%
%LPD*%
G01*
G04 APERTURE LIST*
%ADD10C,0.200000*%
%ADD11C,0.175000*%
%ADD12C,0.250000*%
%ADD13C,0.500000*%
%ADD14C,0.150000*%
%ADD15C,0.010000*%
G04 APERTURE END LIST*
D10*
X133576462Y-98203874D02*
X133711149Y-98136531D01*
X133879508Y-97968172D01*
X133913180Y-97867157D01*
X133913180Y-97799813D01*
X133879508Y-97698798D01*
X133812165Y-97631455D01*
X133711149Y-97597783D01*
X133643806Y-97597783D01*
X133542791Y-97631455D01*
X133374432Y-97732470D01*
X133273417Y-97766142D01*
X133206073Y-97766142D01*
X133105058Y-97732470D01*
X133037714Y-97665126D01*
X133004043Y-97564111D01*
X133004043Y-97496768D01*
X133037714Y-97395752D01*
X133206073Y-97227394D01*
X133340760Y-97160050D01*
X134148882Y-96755989D02*
X134620287Y-97227394D01*
X133845836Y-97059035D02*
X134216226Y-97429424D01*
X134317241Y-97463096D01*
X134418256Y-97429424D01*
X134519271Y-97328409D01*
X134552943Y-97227394D01*
X134552943Y-97160050D01*
X134485600Y-96419271D02*
X135192707Y-97126378D01*
X134519271Y-96452943D02*
X134552943Y-96351928D01*
X134687630Y-96217241D01*
X134788646Y-96183569D01*
X134855989Y-96183569D01*
X134957004Y-96217241D01*
X135159035Y-96419271D01*
X135192707Y-96520287D01*
X135192707Y-96587630D01*
X135159035Y-96688646D01*
X135024348Y-96823333D01*
X134923333Y-96857004D01*
X135832470Y-95947867D02*
X135798798Y-96048882D01*
X135664111Y-96183569D01*
X135563096Y-96217241D01*
X135462081Y-96183569D01*
X135192707Y-95914195D01*
X135159035Y-95813180D01*
X135192707Y-95712165D01*
X135327394Y-95577478D01*
X135428409Y-95543806D01*
X135529424Y-95577478D01*
X135596768Y-95644821D01*
X135327394Y-96048882D01*
X136202859Y-95644821D02*
X135731455Y-95173417D01*
X135866142Y-95308104D02*
X135832470Y-95207088D01*
X135832470Y-95139745D01*
X135866142Y-95038730D01*
X135933485Y-94971386D01*
X134627022Y-99624823D02*
X133919915Y-98917716D01*
X134189289Y-99187090D02*
X134222961Y-99086075D01*
X134357648Y-98951388D01*
X134458663Y-98917716D01*
X134526006Y-98917716D01*
X134627022Y-98951388D01*
X134829052Y-99153418D01*
X134862724Y-99254433D01*
X134862724Y-99321777D01*
X134829052Y-99422792D01*
X134694365Y-99557479D01*
X134593350Y-99591151D01*
X135367800Y-98884044D02*
X135266785Y-98917716D01*
X135165770Y-98884044D01*
X134559678Y-98277953D01*
X135637174Y-98614670D02*
X135165770Y-98143266D01*
X134930067Y-97907563D02*
X134930067Y-97974907D01*
X134997411Y-97974907D01*
X134997411Y-97907563D01*
X134930067Y-97907563D01*
X134997411Y-97974907D01*
X135502487Y-97806548D02*
X135973892Y-98277953D01*
X135569831Y-97873892D02*
X135569831Y-97806548D01*
X135603502Y-97705533D01*
X135704518Y-97604518D01*
X135805533Y-97570846D01*
X135906548Y-97604518D01*
X136276937Y-97974907D01*
X136613655Y-97638189D02*
X135906548Y-96931083D01*
X136411624Y-97301472D02*
X136883029Y-97368815D01*
X136411624Y-96897411D02*
X136411624Y-97436159D01*
X136647327Y-96661709D02*
X137287090Y-96964754D01*
X136984044Y-96324991D02*
X137287090Y-96964754D01*
X137388105Y-97200457D01*
X137388105Y-97267800D01*
X137354433Y-97368815D01*
X137657479Y-96459678D02*
X137724823Y-96459678D01*
X137724823Y-96527022D01*
X137657479Y-96527022D01*
X137657479Y-96459678D01*
X137724823Y-96527022D01*
X137455449Y-96257648D02*
X137017716Y-95887258D01*
X137017716Y-95819915D01*
X137085059Y-95819915D01*
X137455449Y-96257648D01*
X137017716Y-95819915D01*
D11*
X98843511Y-96716904D02*
X98843511Y-96907380D01*
X98653035Y-96831190D02*
X98843511Y-96907380D01*
X99033988Y-96831190D01*
X98729226Y-97059761D02*
X98843511Y-96907380D01*
X98957797Y-97059761D01*
X99338750Y-97516904D02*
X99338750Y-96716904D01*
X99605416Y-96983571D02*
X99910178Y-96983571D01*
X99719702Y-96716904D02*
X99719702Y-97402619D01*
X99757797Y-97478809D01*
X99833988Y-97516904D01*
X99910178Y-97516904D01*
X100710178Y-96983571D02*
X100862559Y-97516904D01*
X101014940Y-97135952D01*
X101167321Y-97516904D01*
X101319702Y-96983571D01*
X101624464Y-97516904D02*
X101624464Y-96983571D01*
X101624464Y-96716904D02*
X101586369Y-96755000D01*
X101624464Y-96793095D01*
X101662559Y-96755000D01*
X101624464Y-96716904D01*
X101624464Y-96793095D01*
X102119702Y-97516904D02*
X102043511Y-97478809D01*
X102005416Y-97402619D01*
X102005416Y-96716904D01*
X102538750Y-97516904D02*
X102462559Y-97478809D01*
X102424464Y-97402619D01*
X102424464Y-96716904D01*
X103795892Y-96983571D02*
X103795892Y-97631190D01*
X103757797Y-97707380D01*
X103719702Y-97745476D01*
X103643511Y-97783571D01*
X103529226Y-97783571D01*
X103453035Y-97745476D01*
X103795892Y-97478809D02*
X103719702Y-97516904D01*
X103567321Y-97516904D01*
X103491130Y-97478809D01*
X103453035Y-97440714D01*
X103414940Y-97364523D01*
X103414940Y-97135952D01*
X103453035Y-97059761D01*
X103491130Y-97021666D01*
X103567321Y-96983571D01*
X103719702Y-96983571D01*
X103795892Y-97021666D01*
X104481607Y-97478809D02*
X104405416Y-97516904D01*
X104253035Y-97516904D01*
X104176845Y-97478809D01*
X104138750Y-97402619D01*
X104138750Y-97097857D01*
X104176845Y-97021666D01*
X104253035Y-96983571D01*
X104405416Y-96983571D01*
X104481607Y-97021666D01*
X104519702Y-97097857D01*
X104519702Y-97174047D01*
X104138750Y-97250238D01*
X104748273Y-96983571D02*
X105053035Y-96983571D01*
X104862559Y-96716904D02*
X104862559Y-97402619D01*
X104900654Y-97478809D01*
X104976845Y-97516904D01*
X105053035Y-97516904D01*
X105814940Y-96983571D02*
X106119702Y-96983571D01*
X105929226Y-97516904D02*
X105929226Y-96831190D01*
X105967321Y-96755000D01*
X106043511Y-96716904D01*
X106119702Y-96716904D01*
X106386369Y-97516904D02*
X106386369Y-96983571D01*
X106386369Y-96716904D02*
X106348273Y-96755000D01*
X106386369Y-96793095D01*
X106424464Y-96755000D01*
X106386369Y-96716904D01*
X106386369Y-96793095D01*
X107072083Y-97478809D02*
X106995892Y-97516904D01*
X106843511Y-97516904D01*
X106767321Y-97478809D01*
X106729226Y-97402619D01*
X106729226Y-97097857D01*
X106767321Y-97021666D01*
X106843511Y-96983571D01*
X106995892Y-96983571D01*
X107072083Y-97021666D01*
X107110178Y-97097857D01*
X107110178Y-97174047D01*
X106729226Y-97250238D01*
X107453035Y-97516904D02*
X107453035Y-96983571D01*
X107453035Y-97135952D02*
X107491130Y-97059761D01*
X107529226Y-97021666D01*
X107605416Y-96983571D01*
X107681607Y-96983571D01*
X107872083Y-96983571D02*
X108062559Y-97516904D01*
X108253035Y-96983571D02*
X108062559Y-97516904D01*
X107986369Y-97707380D01*
X107948273Y-97745476D01*
X107872083Y-97783571D01*
X109167321Y-97516904D02*
X109167321Y-96716904D01*
X109510178Y-97516904D02*
X109510178Y-97097857D01*
X109472083Y-97021666D01*
X109395892Y-96983571D01*
X109281607Y-96983571D01*
X109205416Y-97021666D01*
X109167321Y-97059761D01*
X110005416Y-97516904D02*
X109929226Y-97478809D01*
X109891130Y-97440714D01*
X109853035Y-97364523D01*
X109853035Y-97135952D01*
X109891130Y-97059761D01*
X109929226Y-97021666D01*
X110005416Y-96983571D01*
X110119702Y-96983571D01*
X110195892Y-97021666D01*
X110233988Y-97059761D01*
X110272083Y-97135952D01*
X110272083Y-97364523D01*
X110233988Y-97440714D01*
X110195892Y-97478809D01*
X110119702Y-97516904D01*
X110005416Y-97516904D01*
X110500654Y-96983571D02*
X110805416Y-96983571D01*
X110614940Y-96716904D02*
X110614940Y-97402619D01*
X110653035Y-97478809D01*
X110729226Y-97516904D01*
X110805416Y-97516904D01*
X111072083Y-97440714D02*
X111110178Y-97478809D01*
X111072083Y-97516904D01*
X111033988Y-97478809D01*
X111072083Y-97440714D01*
X111072083Y-97516904D01*
X111072083Y-97212142D02*
X111033988Y-96755000D01*
X111072083Y-96716904D01*
X111110178Y-96755000D01*
X111072083Y-97212142D01*
X111072083Y-96716904D01*
D10*
X112419047Y-82685000D02*
X112323809Y-82637380D01*
X112180952Y-82637380D01*
X112038095Y-82685000D01*
X111942857Y-82780238D01*
X111895238Y-82875476D01*
X111847619Y-83065952D01*
X111847619Y-83208809D01*
X111895238Y-83399285D01*
X111942857Y-83494523D01*
X112038095Y-83589761D01*
X112180952Y-83637380D01*
X112276190Y-83637380D01*
X112419047Y-83589761D01*
X112466666Y-83542142D01*
X112466666Y-83208809D01*
X112276190Y-83208809D01*
X112895238Y-83637380D02*
X112895238Y-82637380D01*
X113276190Y-82637380D01*
X113371428Y-82685000D01*
X113419047Y-82732619D01*
X113466666Y-82827857D01*
X113466666Y-82970714D01*
X113419047Y-83065952D01*
X113371428Y-83113571D01*
X113276190Y-83161190D01*
X112895238Y-83161190D01*
X113895238Y-83637380D02*
X113895238Y-82637380D01*
X114561904Y-82637380D02*
X114752380Y-82637380D01*
X114847619Y-82685000D01*
X114942857Y-82780238D01*
X114990476Y-82970714D01*
X114990476Y-83304047D01*
X114942857Y-83494523D01*
X114847619Y-83589761D01*
X114752380Y-83637380D01*
X114561904Y-83637380D01*
X114466666Y-83589761D01*
X114371428Y-83494523D01*
X114323809Y-83304047D01*
X114323809Y-82970714D01*
X114371428Y-82780238D01*
X114466666Y-82685000D01*
X114561904Y-82637380D01*
X116133333Y-82970714D02*
X116847619Y-82970714D01*
X116419047Y-82542142D02*
X116133333Y-83827857D01*
X116752380Y-83399285D02*
X116038095Y-83399285D01*
X116466666Y-83827857D02*
X116752380Y-82542142D01*
D12*
X111264285Y-79960476D02*
X111502380Y-79960476D01*
X111621428Y-80020000D01*
X111740476Y-80139047D01*
X111800000Y-80377142D01*
X111800000Y-80793809D01*
X111740476Y-81031904D01*
X111621428Y-81150952D01*
X111502380Y-81210476D01*
X111264285Y-81210476D01*
X111145238Y-81150952D01*
X111026190Y-81031904D01*
X110966666Y-80793809D01*
X110966666Y-80377142D01*
X111026190Y-80139047D01*
X111145238Y-80020000D01*
X111264285Y-79960476D01*
X112871428Y-80377142D02*
X112871428Y-81210476D01*
X112335714Y-80377142D02*
X112335714Y-81031904D01*
X112395238Y-81150952D01*
X112514285Y-81210476D01*
X112692857Y-81210476D01*
X112811904Y-81150952D01*
X112871428Y-81091428D01*
X113288095Y-80377142D02*
X113764285Y-80377142D01*
X113466666Y-79960476D02*
X113466666Y-81031904D01*
X113526190Y-81150952D01*
X113645238Y-81210476D01*
X113764285Y-81210476D01*
X114180952Y-80377142D02*
X114180952Y-81627142D01*
X114180952Y-80436666D02*
X114300000Y-80377142D01*
X114538095Y-80377142D01*
X114657142Y-80436666D01*
X114716666Y-80496190D01*
X114776190Y-80615238D01*
X114776190Y-80972380D01*
X114716666Y-81091428D01*
X114657142Y-81150952D01*
X114538095Y-81210476D01*
X114300000Y-81210476D01*
X114180952Y-81150952D01*
X115847619Y-80377142D02*
X115847619Y-81210476D01*
X115311904Y-80377142D02*
X115311904Y-81031904D01*
X115371428Y-81150952D01*
X115490476Y-81210476D01*
X115669047Y-81210476D01*
X115788095Y-81150952D01*
X115847619Y-81091428D01*
X116264285Y-80377142D02*
X116740476Y-80377142D01*
X116442857Y-79960476D02*
X116442857Y-81031904D01*
X116502380Y-81150952D01*
X116621428Y-81210476D01*
X116740476Y-81210476D01*
X117097619Y-81150952D02*
X117216666Y-81210476D01*
X117454761Y-81210476D01*
X117573809Y-81150952D01*
X117633333Y-81031904D01*
X117633333Y-80972380D01*
X117573809Y-80853333D01*
X117454761Y-80793809D01*
X117276190Y-80793809D01*
X117157142Y-80734285D01*
X117097619Y-80615238D01*
X117097619Y-80555714D01*
X117157142Y-80436666D01*
X117276190Y-80377142D01*
X117454761Y-80377142D01*
X117573809Y-80436666D01*
D10*
X161290000Y-95885000D02*
X168910000Y-95885000D01*
X167700000Y-80585000D02*
X168910000Y-80585000D01*
X167700000Y-106105000D02*
X168910000Y-106105000D01*
X98425000Y-79375000D02*
X98425000Y-95885000D01*
X130175000Y-79375000D02*
X98425000Y-79375000D01*
X130175000Y-95885000D02*
X130175000Y-79375000D01*
X98425000Y-95885000D02*
X130175000Y-95885000D01*
X111538095Y-92582380D02*
X111347619Y-92582380D01*
X111252380Y-92630000D01*
X111204761Y-92677619D01*
X111109523Y-92820476D01*
X111061904Y-93010952D01*
X111061904Y-93391904D01*
X111109523Y-93487142D01*
X111157142Y-93534761D01*
X111252380Y-93582380D01*
X111442857Y-93582380D01*
X111538095Y-93534761D01*
X111585714Y-93487142D01*
X111633333Y-93391904D01*
X111633333Y-93153809D01*
X111585714Y-93058571D01*
X111538095Y-93010952D01*
X111442857Y-92963333D01*
X111252380Y-92963333D01*
X111157142Y-93010952D01*
X111109523Y-93058571D01*
X111061904Y-93153809D01*
X112252380Y-92582380D02*
X112347619Y-92582380D01*
X112442857Y-92630000D01*
X112490476Y-92677619D01*
X112538095Y-92772857D01*
X112585714Y-92963333D01*
X112585714Y-93201428D01*
X112538095Y-93391904D01*
X112490476Y-93487142D01*
X112442857Y-93534761D01*
X112347619Y-93582380D01*
X112252380Y-93582380D01*
X112157142Y-93534761D01*
X112109523Y-93487142D01*
X112061904Y-93391904D01*
X112014285Y-93201428D01*
X112014285Y-92963333D01*
X112061904Y-92772857D01*
X112109523Y-92677619D01*
X112157142Y-92630000D01*
X112252380Y-92582380D01*
X112919047Y-92582380D02*
X113157142Y-93582380D01*
X113347619Y-92868095D01*
X113538095Y-93582380D01*
X113776190Y-92582380D01*
X114919047Y-93582380D02*
X114919047Y-92915714D01*
X114919047Y-93010952D02*
X114966666Y-92963333D01*
X115061904Y-92915714D01*
X115204761Y-92915714D01*
X115300000Y-92963333D01*
X115347619Y-93058571D01*
X115347619Y-93582380D01*
X115347619Y-93058571D02*
X115395238Y-92963333D01*
X115490476Y-92915714D01*
X115633333Y-92915714D01*
X115728571Y-92963333D01*
X115776190Y-93058571D01*
X115776190Y-93582380D01*
X116680952Y-93582380D02*
X116680952Y-93058571D01*
X116633333Y-92963333D01*
X116538095Y-92915714D01*
X116347619Y-92915714D01*
X116252380Y-92963333D01*
X116680952Y-93534761D02*
X116585714Y-93582380D01*
X116347619Y-93582380D01*
X116252380Y-93534761D01*
X116204761Y-93439523D01*
X116204761Y-93344285D01*
X116252380Y-93249047D01*
X116347619Y-93201428D01*
X116585714Y-93201428D01*
X116680952Y-93153809D01*
X117061904Y-93582380D02*
X117585714Y-92915714D01*
X117061904Y-92915714D02*
X117585714Y-93582380D01*
X109657142Y-94615714D02*
X109657142Y-95615714D01*
X109657142Y-94663333D02*
X109752380Y-94615714D01*
X109942857Y-94615714D01*
X110038095Y-94663333D01*
X110085714Y-94710952D01*
X110133333Y-94806190D01*
X110133333Y-95091904D01*
X110085714Y-95187142D01*
X110038095Y-95234761D01*
X109942857Y-95282380D01*
X109752380Y-95282380D01*
X109657142Y-95234761D01*
X110942857Y-95234761D02*
X110847619Y-95282380D01*
X110657142Y-95282380D01*
X110561904Y-95234761D01*
X110514285Y-95139523D01*
X110514285Y-94758571D01*
X110561904Y-94663333D01*
X110657142Y-94615714D01*
X110847619Y-94615714D01*
X110942857Y-94663333D01*
X110990476Y-94758571D01*
X110990476Y-94853809D01*
X110514285Y-94949047D01*
X111419047Y-95282380D02*
X111419047Y-94615714D01*
X111419047Y-94806190D02*
X111466666Y-94710952D01*
X111514285Y-94663333D01*
X111609523Y-94615714D01*
X111704761Y-94615714D01*
X113228571Y-95234761D02*
X113133333Y-95282380D01*
X112942857Y-95282380D01*
X112847619Y-95234761D01*
X112800000Y-95187142D01*
X112752380Y-95091904D01*
X112752380Y-94806190D01*
X112800000Y-94710952D01*
X112847619Y-94663333D01*
X112942857Y-94615714D01*
X113133333Y-94615714D01*
X113228571Y-94663333D01*
X113657142Y-95282380D02*
X113657142Y-94282380D01*
X114085714Y-95282380D02*
X114085714Y-94758571D01*
X114038095Y-94663333D01*
X113942857Y-94615714D01*
X113800000Y-94615714D01*
X113704761Y-94663333D01*
X113657142Y-94710952D01*
X114990476Y-95282380D02*
X114990476Y-94758571D01*
X114942857Y-94663333D01*
X114847619Y-94615714D01*
X114657142Y-94615714D01*
X114561904Y-94663333D01*
X114990476Y-95234761D02*
X114895238Y-95282380D01*
X114657142Y-95282380D01*
X114561904Y-95234761D01*
X114514285Y-95139523D01*
X114514285Y-95044285D01*
X114561904Y-94949047D01*
X114657142Y-94901428D01*
X114895238Y-94901428D01*
X114990476Y-94853809D01*
X115466666Y-94615714D02*
X115466666Y-95282380D01*
X115466666Y-94710952D02*
X115514285Y-94663333D01*
X115609523Y-94615714D01*
X115752380Y-94615714D01*
X115847619Y-94663333D01*
X115895238Y-94758571D01*
X115895238Y-95282380D01*
X116371428Y-94615714D02*
X116371428Y-95282380D01*
X116371428Y-94710952D02*
X116419047Y-94663333D01*
X116514285Y-94615714D01*
X116657142Y-94615714D01*
X116752380Y-94663333D01*
X116800000Y-94758571D01*
X116800000Y-95282380D01*
X117657142Y-95234761D02*
X117561904Y-95282380D01*
X117371428Y-95282380D01*
X117276190Y-95234761D01*
X117228571Y-95139523D01*
X117228571Y-94758571D01*
X117276190Y-94663333D01*
X117371428Y-94615714D01*
X117561904Y-94615714D01*
X117657142Y-94663333D01*
X117704761Y-94758571D01*
X117704761Y-94853809D01*
X117228571Y-94949047D01*
X118276190Y-95282380D02*
X118180952Y-95234761D01*
X118133333Y-95139523D01*
X118133333Y-94282380D01*
X118800000Y-94282380D02*
X118800000Y-94520476D01*
X118561904Y-94425238D02*
X118800000Y-94520476D01*
X119038095Y-94425238D01*
X118657142Y-94710952D02*
X118800000Y-94520476D01*
X118942857Y-94710952D01*
D12*
X115977380Y-76591976D02*
X115263095Y-76591976D01*
X115620238Y-76591976D02*
X115620238Y-75341976D01*
X115501190Y-75520547D01*
X115382142Y-75639595D01*
X115263095Y-75699119D01*
X117048809Y-75341976D02*
X116810714Y-75341976D01*
X116691666Y-75401500D01*
X116632142Y-75461023D01*
X116513095Y-75639595D01*
X116453571Y-75877690D01*
X116453571Y-76353880D01*
X116513095Y-76472928D01*
X116572619Y-76532452D01*
X116691666Y-76591976D01*
X116929761Y-76591976D01*
X117048809Y-76532452D01*
X117108333Y-76472928D01*
X117167857Y-76353880D01*
X117167857Y-76056261D01*
X117108333Y-75937214D01*
X117048809Y-75877690D01*
X116929761Y-75818166D01*
X116691666Y-75818166D01*
X116572619Y-75877690D01*
X116513095Y-75937214D01*
X116453571Y-76056261D01*
X117703571Y-76115785D02*
X118655952Y-76115785D01*
X119786904Y-76532452D02*
X119667857Y-76591976D01*
X119429761Y-76591976D01*
X119310714Y-76532452D01*
X119251190Y-76472928D01*
X119191666Y-76353880D01*
X119191666Y-75996738D01*
X119251190Y-75877690D01*
X119310714Y-75818166D01*
X119429761Y-75758642D01*
X119667857Y-75758642D01*
X119786904Y-75818166D01*
X120322619Y-76591976D02*
X120322619Y-75341976D01*
X120858333Y-76591976D02*
X120858333Y-75937214D01*
X120798809Y-75818166D01*
X120679761Y-75758642D01*
X120501190Y-75758642D01*
X120382142Y-75818166D01*
X120322619Y-75877690D01*
X121989285Y-76591976D02*
X121989285Y-75937214D01*
X121929761Y-75818166D01*
X121810714Y-75758642D01*
X121572619Y-75758642D01*
X121453571Y-75818166D01*
X121989285Y-76532452D02*
X121870238Y-76591976D01*
X121572619Y-76591976D01*
X121453571Y-76532452D01*
X121394047Y-76413404D01*
X121394047Y-76294357D01*
X121453571Y-76175309D01*
X121572619Y-76115785D01*
X121870238Y-76115785D01*
X121989285Y-76056261D01*
X122584523Y-75758642D02*
X122584523Y-76591976D01*
X122584523Y-75877690D02*
X122644047Y-75818166D01*
X122763095Y-75758642D01*
X122941666Y-75758642D01*
X123060714Y-75818166D01*
X123120238Y-75937214D01*
X123120238Y-76591976D01*
X123715476Y-75758642D02*
X123715476Y-76591976D01*
X123715476Y-75877690D02*
X123775000Y-75818166D01*
X123894047Y-75758642D01*
X124072619Y-75758642D01*
X124191666Y-75818166D01*
X124251190Y-75937214D01*
X124251190Y-76591976D01*
X125322619Y-76532452D02*
X125203571Y-76591976D01*
X124965476Y-76591976D01*
X124846428Y-76532452D01*
X124786904Y-76413404D01*
X124786904Y-75937214D01*
X124846428Y-75818166D01*
X124965476Y-75758642D01*
X125203571Y-75758642D01*
X125322619Y-75818166D01*
X125382142Y-75937214D01*
X125382142Y-76056261D01*
X124786904Y-76175309D01*
X126096428Y-76591976D02*
X125977380Y-76532452D01*
X125917857Y-76413404D01*
X125917857Y-75341976D01*
X112048809Y-78716976D02*
X111453571Y-78716976D01*
X111453571Y-77466976D01*
X112465476Y-78062214D02*
X112882142Y-78062214D01*
X113060714Y-78716976D02*
X112465476Y-78716976D01*
X112465476Y-77466976D01*
X113060714Y-77466976D01*
X113596428Y-78716976D02*
X113596428Y-77466976D01*
X113894047Y-77466976D01*
X114072619Y-77526500D01*
X114191666Y-77645547D01*
X114251190Y-77764595D01*
X114310714Y-78002690D01*
X114310714Y-78181261D01*
X114251190Y-78419357D01*
X114191666Y-78538404D01*
X114072619Y-78657452D01*
X113894047Y-78716976D01*
X113596428Y-78716976D01*
X115739285Y-78657452D02*
X115917857Y-78716976D01*
X116215476Y-78716976D01*
X116334523Y-78657452D01*
X116394047Y-78597928D01*
X116453571Y-78478880D01*
X116453571Y-78359833D01*
X116394047Y-78240785D01*
X116334523Y-78181261D01*
X116215476Y-78121738D01*
X115977380Y-78062214D01*
X115858333Y-78002690D01*
X115798809Y-77943166D01*
X115739285Y-77824119D01*
X115739285Y-77705071D01*
X115798809Y-77586023D01*
X115858333Y-77526500D01*
X115977380Y-77466976D01*
X116275000Y-77466976D01*
X116453571Y-77526500D01*
X116810714Y-77883642D02*
X117286904Y-77883642D01*
X116989285Y-77466976D02*
X116989285Y-78538404D01*
X117048809Y-78657452D01*
X117167857Y-78716976D01*
X117286904Y-78716976D01*
X117703571Y-78716976D02*
X117703571Y-77883642D01*
X117703571Y-78121738D02*
X117763095Y-78002690D01*
X117822619Y-77943166D01*
X117941666Y-77883642D01*
X118060714Y-77883642D01*
X118477380Y-78716976D02*
X118477380Y-77883642D01*
X118477380Y-77466976D02*
X118417857Y-77526500D01*
X118477380Y-77586023D01*
X118536904Y-77526500D01*
X118477380Y-77466976D01*
X118477380Y-77586023D01*
X119072619Y-77883642D02*
X119072619Y-79133642D01*
X119072619Y-77943166D02*
X119191666Y-77883642D01*
X119429761Y-77883642D01*
X119548809Y-77943166D01*
X119608333Y-78002690D01*
X119667857Y-78121738D01*
X119667857Y-78478880D01*
X119608333Y-78597928D01*
X119548809Y-78657452D01*
X119429761Y-78716976D01*
X119191666Y-78716976D01*
X119072619Y-78657452D01*
X121870238Y-78597928D02*
X121810714Y-78657452D01*
X121632142Y-78716976D01*
X121513095Y-78716976D01*
X121334523Y-78657452D01*
X121215476Y-78538404D01*
X121155952Y-78419357D01*
X121096428Y-78181261D01*
X121096428Y-78002690D01*
X121155952Y-77764595D01*
X121215476Y-77645547D01*
X121334523Y-77526500D01*
X121513095Y-77466976D01*
X121632142Y-77466976D01*
X121810714Y-77526500D01*
X121870238Y-77586023D01*
X122584523Y-78716976D02*
X122465476Y-78657452D01*
X122405952Y-78597928D01*
X122346428Y-78478880D01*
X122346428Y-78121738D01*
X122405952Y-78002690D01*
X122465476Y-77943166D01*
X122584523Y-77883642D01*
X122763095Y-77883642D01*
X122882142Y-77943166D01*
X122941666Y-78002690D01*
X123001190Y-78121738D01*
X123001190Y-78478880D01*
X122941666Y-78597928D01*
X122882142Y-78657452D01*
X122763095Y-78716976D01*
X122584523Y-78716976D01*
X123536904Y-77883642D02*
X123536904Y-78716976D01*
X123536904Y-78002690D02*
X123596428Y-77943166D01*
X123715476Y-77883642D01*
X123894047Y-77883642D01*
X124013095Y-77943166D01*
X124072619Y-78062214D01*
X124072619Y-78716976D01*
X124489285Y-77883642D02*
X124965476Y-77883642D01*
X124667857Y-77466976D02*
X124667857Y-78538404D01*
X124727380Y-78657452D01*
X124846428Y-78716976D01*
X124965476Y-78716976D01*
X125382142Y-78716976D02*
X125382142Y-77883642D01*
X125382142Y-78121738D02*
X125441666Y-78002690D01*
X125501190Y-77943166D01*
X125620238Y-77883642D01*
X125739285Y-77883642D01*
X126334523Y-78716976D02*
X126215476Y-78657452D01*
X126155952Y-78597928D01*
X126096428Y-78478880D01*
X126096428Y-78121738D01*
X126155952Y-78002690D01*
X126215476Y-77943166D01*
X126334523Y-77883642D01*
X126513095Y-77883642D01*
X126632142Y-77943166D01*
X126691666Y-78002690D01*
X126751190Y-78121738D01*
X126751190Y-78478880D01*
X126691666Y-78597928D01*
X126632142Y-78657452D01*
X126513095Y-78716976D01*
X126334523Y-78716976D01*
X127465476Y-78716976D02*
X127346428Y-78657452D01*
X127286904Y-78538404D01*
X127286904Y-77466976D01*
X128120238Y-78716976D02*
X128001190Y-78657452D01*
X127941666Y-78538404D01*
X127941666Y-77466976D01*
X129072619Y-78657452D02*
X128953571Y-78716976D01*
X128715476Y-78716976D01*
X128596428Y-78657452D01*
X128536904Y-78538404D01*
X128536904Y-78062214D01*
X128596428Y-77943166D01*
X128715476Y-77883642D01*
X128953571Y-77883642D01*
X129072619Y-77943166D01*
X129132142Y-78062214D01*
X129132142Y-78181261D01*
X128536904Y-78300309D01*
X129667857Y-78716976D02*
X129667857Y-77883642D01*
X129667857Y-78121738D02*
X129727380Y-78002690D01*
X129786904Y-77943166D01*
X129905952Y-77883642D01*
X130025000Y-77883642D01*
D13*
%TO.C,REF\u002A\u002A*%
X104240000Y-106680000D02*
G75*
G03*
X104240000Y-106680000I-175000J0D01*
G01*
D14*
X104990000Y-109680000D02*
G75*
G03*
X104990000Y-109680000I-925000J0D01*
G01*
X104990000Y-103680000D02*
G75*
G03*
X104990000Y-103680000I-925000J0D01*
G01*
X104065000Y-104680000D02*
X104065000Y-105580000D01*
X104065000Y-106680000D02*
X104065000Y-108680000D01*
X104815000Y-107355000D02*
G75*
G03*
X103390000Y-107430000I-750000J675000D01*
G01*
D15*
G36*
X145554744Y-102884918D02*
G01*
X145610201Y-102912568D01*
X145659148Y-102963480D01*
X145672629Y-102982338D01*
X145687314Y-103007015D01*
X145696842Y-103033816D01*
X145702293Y-103069587D01*
X145704747Y-103121169D01*
X145705286Y-103189267D01*
X145702852Y-103282588D01*
X145694394Y-103352657D01*
X145678174Y-103404931D01*
X145652454Y-103444869D01*
X145615497Y-103477929D01*
X145612782Y-103479886D01*
X145576360Y-103499908D01*
X145532502Y-103509815D01*
X145476724Y-103512257D01*
X145386048Y-103512257D01*
X145386010Y-103600283D01*
X145385166Y-103649308D01*
X145380024Y-103678065D01*
X145366587Y-103695311D01*
X145340858Y-103709808D01*
X145334679Y-103712769D01*
X145305764Y-103726648D01*
X145283376Y-103735414D01*
X145266729Y-103736171D01*
X145255036Y-103726023D01*
X145247510Y-103702073D01*
X145243366Y-103661426D01*
X145241815Y-103601186D01*
X145242071Y-103518455D01*
X145243349Y-103410339D01*
X145243748Y-103378000D01*
X145245185Y-103266524D01*
X145246472Y-103193603D01*
X145385971Y-103193603D01*
X145386755Y-103255499D01*
X145390240Y-103295997D01*
X145398124Y-103322708D01*
X145412105Y-103343244D01*
X145421597Y-103353260D01*
X145460404Y-103382567D01*
X145494763Y-103384952D01*
X145530216Y-103360750D01*
X145531114Y-103359857D01*
X145545539Y-103341153D01*
X145554313Y-103315732D01*
X145558739Y-103276584D01*
X145560118Y-103216697D01*
X145560143Y-103203430D01*
X145556812Y-103120901D01*
X145545969Y-103063691D01*
X145526340Y-103028766D01*
X145496650Y-103013094D01*
X145479491Y-103011514D01*
X145438766Y-103018926D01*
X145410832Y-103043330D01*
X145394017Y-103087980D01*
X145386650Y-103156130D01*
X145385971Y-103193603D01*
X145246472Y-103193603D01*
X145246708Y-103180245D01*
X145248677Y-103115333D01*
X145251450Y-103067958D01*
X145255388Y-103034290D01*
X145260849Y-103010498D01*
X145268192Y-102992753D01*
X145277777Y-102977224D01*
X145281887Y-102971381D01*
X145336405Y-102916185D01*
X145405336Y-102884890D01*
X145485072Y-102876165D01*
X145554744Y-102884918D01*
G37*
X145554744Y-102884918D02*
X145610201Y-102912568D01*
X145659148Y-102963480D01*
X145672629Y-102982338D01*
X145687314Y-103007015D01*
X145696842Y-103033816D01*
X145702293Y-103069587D01*
X145704747Y-103121169D01*
X145705286Y-103189267D01*
X145702852Y-103282588D01*
X145694394Y-103352657D01*
X145678174Y-103404931D01*
X145652454Y-103444869D01*
X145615497Y-103477929D01*
X145612782Y-103479886D01*
X145576360Y-103499908D01*
X145532502Y-103509815D01*
X145476724Y-103512257D01*
X145386048Y-103512257D01*
X145386010Y-103600283D01*
X145385166Y-103649308D01*
X145380024Y-103678065D01*
X145366587Y-103695311D01*
X145340858Y-103709808D01*
X145334679Y-103712769D01*
X145305764Y-103726648D01*
X145283376Y-103735414D01*
X145266729Y-103736171D01*
X145255036Y-103726023D01*
X145247510Y-103702073D01*
X145243366Y-103661426D01*
X145241815Y-103601186D01*
X145242071Y-103518455D01*
X145243349Y-103410339D01*
X145243748Y-103378000D01*
X145245185Y-103266524D01*
X145246472Y-103193603D01*
X145385971Y-103193603D01*
X145386755Y-103255499D01*
X145390240Y-103295997D01*
X145398124Y-103322708D01*
X145412105Y-103343244D01*
X145421597Y-103353260D01*
X145460404Y-103382567D01*
X145494763Y-103384952D01*
X145530216Y-103360750D01*
X145531114Y-103359857D01*
X145545539Y-103341153D01*
X145554313Y-103315732D01*
X145558739Y-103276584D01*
X145560118Y-103216697D01*
X145560143Y-103203430D01*
X145556812Y-103120901D01*
X145545969Y-103063691D01*
X145526340Y-103028766D01*
X145496650Y-103013094D01*
X145479491Y-103011514D01*
X145438766Y-103018926D01*
X145410832Y-103043330D01*
X145394017Y-103087980D01*
X145386650Y-103156130D01*
X145385971Y-103193603D01*
X145246472Y-103193603D01*
X145246708Y-103180245D01*
X145248677Y-103115333D01*
X145251450Y-103067958D01*
X145255388Y-103034290D01*
X145260849Y-103010498D01*
X145268192Y-102992753D01*
X145277777Y-102977224D01*
X145281887Y-102971381D01*
X145336405Y-102916185D01*
X145405336Y-102884890D01*
X145485072Y-102876165D01*
X145554744Y-102884918D01*
G36*
X146671093Y-102892780D02*
G01*
X146717672Y-102919723D01*
X146750057Y-102946466D01*
X146773742Y-102974484D01*
X146790059Y-103008748D01*
X146800339Y-103054227D01*
X146805914Y-103115892D01*
X146808116Y-103198711D01*
X146808371Y-103258246D01*
X146808371Y-103477391D01*
X146746686Y-103505044D01*
X146685000Y-103532697D01*
X146677743Y-103292670D01*
X146674744Y-103203028D01*
X146671598Y-103137962D01*
X146667701Y-103093026D01*
X146662447Y-103063770D01*
X146655231Y-103045748D01*
X146645450Y-103034511D01*
X146642312Y-103032079D01*
X146594761Y-103013083D01*
X146546697Y-103020600D01*
X146518086Y-103040543D01*
X146506447Y-103054675D01*
X146498391Y-103073220D01*
X146493271Y-103101334D01*
X146490441Y-103144173D01*
X146489256Y-103206895D01*
X146489057Y-103272261D01*
X146489018Y-103354268D01*
X146487614Y-103412316D01*
X146482914Y-103451465D01*
X146472987Y-103476780D01*
X146455903Y-103493323D01*
X146429732Y-103506156D01*
X146394775Y-103519491D01*
X146356596Y-103534007D01*
X146361141Y-103276389D01*
X146362971Y-103183519D01*
X146365112Y-103114889D01*
X146368181Y-103065711D01*
X146372794Y-103031198D01*
X146379568Y-103006562D01*
X146389119Y-102987016D01*
X146400634Y-102969770D01*
X146456190Y-102914680D01*
X146523980Y-102882822D01*
X146597713Y-102875191D01*
X146671093Y-102892780D01*
G37*
X146671093Y-102892780D02*
X146717672Y-102919723D01*
X146750057Y-102946466D01*
X146773742Y-102974484D01*
X146790059Y-103008748D01*
X146800339Y-103054227D01*
X146805914Y-103115892D01*
X146808116Y-103198711D01*
X146808371Y-103258246D01*
X146808371Y-103477391D01*
X146746686Y-103505044D01*
X146685000Y-103532697D01*
X146677743Y-103292670D01*
X146674744Y-103203028D01*
X146671598Y-103137962D01*
X146667701Y-103093026D01*
X146662447Y-103063770D01*
X146655231Y-103045748D01*
X146645450Y-103034511D01*
X146642312Y-103032079D01*
X146594761Y-103013083D01*
X146546697Y-103020600D01*
X146518086Y-103040543D01*
X146506447Y-103054675D01*
X146498391Y-103073220D01*
X146493271Y-103101334D01*
X146490441Y-103144173D01*
X146489256Y-103206895D01*
X146489057Y-103272261D01*
X146489018Y-103354268D01*
X146487614Y-103412316D01*
X146482914Y-103451465D01*
X146472987Y-103476780D01*
X146455903Y-103493323D01*
X146429732Y-103506156D01*
X146394775Y-103519491D01*
X146356596Y-103534007D01*
X146361141Y-103276389D01*
X146362971Y-103183519D01*
X146365112Y-103114889D01*
X146368181Y-103065711D01*
X146372794Y-103031198D01*
X146379568Y-103006562D01*
X146389119Y-102987016D01*
X146400634Y-102969770D01*
X146456190Y-102914680D01*
X146523980Y-102882822D01*
X146597713Y-102875191D01*
X146671093Y-102892780D01*
G36*
X144996115Y-102886962D02*
G01*
X145064145Y-102922733D01*
X145114351Y-102980301D01*
X145132185Y-103017312D01*
X145146063Y-103072882D01*
X145153167Y-103143096D01*
X145153840Y-103219727D01*
X145148427Y-103294552D01*
X145137270Y-103359342D01*
X145120714Y-103405873D01*
X145115626Y-103413887D01*
X145055355Y-103473707D01*
X144983769Y-103509535D01*
X144906092Y-103520020D01*
X144827548Y-103503810D01*
X144805689Y-103494092D01*
X144763122Y-103464143D01*
X144725763Y-103424433D01*
X144722232Y-103419397D01*
X144707881Y-103395124D01*
X144698394Y-103369178D01*
X144692790Y-103335022D01*
X144690086Y-103286119D01*
X144689299Y-103215935D01*
X144689286Y-103200200D01*
X144689322Y-103195192D01*
X144834429Y-103195192D01*
X144835273Y-103261430D01*
X144838596Y-103305386D01*
X144845583Y-103333779D01*
X144857416Y-103353325D01*
X144863457Y-103359857D01*
X144898186Y-103384680D01*
X144931903Y-103383548D01*
X144965995Y-103362016D01*
X144986329Y-103339029D01*
X144998371Y-103305478D01*
X145005134Y-103252569D01*
X145005598Y-103246399D01*
X145006752Y-103150513D01*
X144994688Y-103079299D01*
X144969570Y-103033194D01*
X144931560Y-103012635D01*
X144917992Y-103011514D01*
X144882364Y-103017152D01*
X144857994Y-103036686D01*
X144843093Y-103074042D01*
X144835875Y-103133150D01*
X144834429Y-103195192D01*
X144689322Y-103195192D01*
X144689826Y-103125413D01*
X144692096Y-103073159D01*
X144697068Y-103036949D01*
X144705713Y-103010299D01*
X144719005Y-102986722D01*
X144721943Y-102982338D01*
X144771313Y-102923249D01*
X144825109Y-102888947D01*
X144890602Y-102875331D01*
X144912842Y-102874665D01*
X144996115Y-102886962D01*
G37*
X144996115Y-102886962D02*
X145064145Y-102922733D01*
X145114351Y-102980301D01*
X145132185Y-103017312D01*
X145146063Y-103072882D01*
X145153167Y-103143096D01*
X145153840Y-103219727D01*
X145148427Y-103294552D01*
X145137270Y-103359342D01*
X145120714Y-103405873D01*
X145115626Y-103413887D01*
X145055355Y-103473707D01*
X144983769Y-103509535D01*
X144906092Y-103520020D01*
X144827548Y-103503810D01*
X144805689Y-103494092D01*
X144763122Y-103464143D01*
X144725763Y-103424433D01*
X144722232Y-103419397D01*
X144707881Y-103395124D01*
X144698394Y-103369178D01*
X144692790Y-103335022D01*
X144690086Y-103286119D01*
X144689299Y-103215935D01*
X144689286Y-103200200D01*
X144689322Y-103195192D01*
X144834429Y-103195192D01*
X144835273Y-103261430D01*
X144838596Y-103305386D01*
X144845583Y-103333779D01*
X144857416Y-103353325D01*
X144863457Y-103359857D01*
X144898186Y-103384680D01*
X144931903Y-103383548D01*
X144965995Y-103362016D01*
X144986329Y-103339029D01*
X144998371Y-103305478D01*
X145005134Y-103252569D01*
X145005598Y-103246399D01*
X145006752Y-103150513D01*
X144994688Y-103079299D01*
X144969570Y-103033194D01*
X144931560Y-103012635D01*
X144917992Y-103011514D01*
X144882364Y-103017152D01*
X144857994Y-103036686D01*
X144843093Y-103074042D01*
X144835875Y-103133150D01*
X144834429Y-103195192D01*
X144689322Y-103195192D01*
X144689826Y-103125413D01*
X144692096Y-103073159D01*
X144697068Y-103036949D01*
X144705713Y-103010299D01*
X144719005Y-102986722D01*
X144721943Y-102982338D01*
X144771313Y-102923249D01*
X144825109Y-102888947D01*
X144890602Y-102875331D01*
X144912842Y-102874665D01*
X144996115Y-102886962D01*
G36*
X146123303Y-102896239D02*
G01*
X146180527Y-102934735D01*
X146224749Y-102990335D01*
X146251167Y-103061086D01*
X146256510Y-103113162D01*
X146255903Y-103134893D01*
X146250822Y-103151531D01*
X146236855Y-103166437D01*
X146209589Y-103182973D01*
X146164612Y-103204498D01*
X146097511Y-103234374D01*
X146097171Y-103234524D01*
X146035407Y-103262813D01*
X145984759Y-103287933D01*
X145950404Y-103307179D01*
X145937518Y-103317848D01*
X145937514Y-103317934D01*
X145948872Y-103341166D01*
X145975431Y-103366774D01*
X146005923Y-103385221D01*
X146021370Y-103388886D01*
X146063515Y-103376212D01*
X146099808Y-103344471D01*
X146117517Y-103309572D01*
X146134552Y-103283845D01*
X146167922Y-103254546D01*
X146207149Y-103229235D01*
X146241756Y-103215471D01*
X146248993Y-103214714D01*
X146257139Y-103227160D01*
X146257630Y-103258972D01*
X146251643Y-103301866D01*
X146240357Y-103347558D01*
X146224950Y-103387761D01*
X146224171Y-103389322D01*
X146177804Y-103454062D01*
X146117711Y-103498097D01*
X146049465Y-103519711D01*
X145978638Y-103517185D01*
X145910804Y-103488804D01*
X145907788Y-103486808D01*
X145854427Y-103438448D01*
X145819340Y-103375352D01*
X145799922Y-103292387D01*
X145797316Y-103269078D01*
X145792701Y-103159055D01*
X145798233Y-103107748D01*
X145937514Y-103107748D01*
X145939324Y-103139753D01*
X145949222Y-103149093D01*
X145973898Y-103142105D01*
X146012795Y-103125587D01*
X146056275Y-103104881D01*
X146057356Y-103104333D01*
X146094209Y-103084949D01*
X146109000Y-103072013D01*
X146105353Y-103058451D01*
X146089995Y-103040632D01*
X146050923Y-103014845D01*
X146008846Y-103012950D01*
X145971103Y-103031717D01*
X145945034Y-103067915D01*
X145937514Y-103107748D01*
X145798233Y-103107748D01*
X145802194Y-103071027D01*
X145826550Y-103001212D01*
X145860456Y-102952302D01*
X145921653Y-102902878D01*
X145989063Y-102878359D01*
X146057880Y-102876797D01*
X146123303Y-102896239D01*
G37*
X146123303Y-102896239D02*
X146180527Y-102934735D01*
X146224749Y-102990335D01*
X146251167Y-103061086D01*
X146256510Y-103113162D01*
X146255903Y-103134893D01*
X146250822Y-103151531D01*
X146236855Y-103166437D01*
X146209589Y-103182973D01*
X146164612Y-103204498D01*
X146097511Y-103234374D01*
X146097171Y-103234524D01*
X146035407Y-103262813D01*
X145984759Y-103287933D01*
X145950404Y-103307179D01*
X145937518Y-103317848D01*
X145937514Y-103317934D01*
X145948872Y-103341166D01*
X145975431Y-103366774D01*
X146005923Y-103385221D01*
X146021370Y-103388886D01*
X146063515Y-103376212D01*
X146099808Y-103344471D01*
X146117517Y-103309572D01*
X146134552Y-103283845D01*
X146167922Y-103254546D01*
X146207149Y-103229235D01*
X146241756Y-103215471D01*
X146248993Y-103214714D01*
X146257139Y-103227160D01*
X146257630Y-103258972D01*
X146251643Y-103301866D01*
X146240357Y-103347558D01*
X146224950Y-103387761D01*
X146224171Y-103389322D01*
X146177804Y-103454062D01*
X146117711Y-103498097D01*
X146049465Y-103519711D01*
X145978638Y-103517185D01*
X145910804Y-103488804D01*
X145907788Y-103486808D01*
X145854427Y-103438448D01*
X145819340Y-103375352D01*
X145799922Y-103292387D01*
X145797316Y-103269078D01*
X145792701Y-103159055D01*
X145798233Y-103107748D01*
X145937514Y-103107748D01*
X145939324Y-103139753D01*
X145949222Y-103149093D01*
X145973898Y-103142105D01*
X146012795Y-103125587D01*
X146056275Y-103104881D01*
X146057356Y-103104333D01*
X146094209Y-103084949D01*
X146109000Y-103072013D01*
X146105353Y-103058451D01*
X146089995Y-103040632D01*
X146050923Y-103014845D01*
X146008846Y-103012950D01*
X145971103Y-103031717D01*
X145945034Y-103067915D01*
X145937514Y-103107748D01*
X145798233Y-103107748D01*
X145802194Y-103071027D01*
X145826550Y-103001212D01*
X145860456Y-102952302D01*
X145921653Y-102902878D01*
X145989063Y-102878359D01*
X146057880Y-102876797D01*
X146123303Y-102896239D01*
G36*
X147330886Y-102816289D02*
G01*
X147335139Y-102875613D01*
X147340025Y-102910572D01*
X147346795Y-102925820D01*
X147356702Y-102926015D01*
X147359914Y-102924195D01*
X147402644Y-102911015D01*
X147458227Y-102911785D01*
X147514737Y-102925333D01*
X147550082Y-102942861D01*
X147586321Y-102970861D01*
X147612813Y-103002549D01*
X147630999Y-103042813D01*
X147642322Y-103096543D01*
X147648222Y-103168626D01*
X147650143Y-103263951D01*
X147650177Y-103282237D01*
X147650200Y-103487646D01*
X147604491Y-103503580D01*
X147572027Y-103514420D01*
X147554215Y-103519468D01*
X147553691Y-103519514D01*
X147551937Y-103505828D01*
X147550444Y-103468076D01*
X147549326Y-103411224D01*
X147548697Y-103340234D01*
X147548600Y-103297073D01*
X147548398Y-103211973D01*
X147547358Y-103150981D01*
X147544831Y-103109177D01*
X147540164Y-103081642D01*
X147532707Y-103063456D01*
X147521811Y-103049698D01*
X147515007Y-103043073D01*
X147468272Y-103016375D01*
X147417272Y-103014375D01*
X147371001Y-103036955D01*
X147362444Y-103045107D01*
X147349893Y-103060436D01*
X147341188Y-103078618D01*
X147335631Y-103104909D01*
X147332526Y-103144562D01*
X147331176Y-103202832D01*
X147330886Y-103283173D01*
X147330886Y-103487646D01*
X147285177Y-103503580D01*
X147252713Y-103514420D01*
X147234901Y-103519468D01*
X147234377Y-103519514D01*
X147233037Y-103505623D01*
X147231828Y-103466439D01*
X147230801Y-103405700D01*
X147230002Y-103327141D01*
X147229481Y-103234498D01*
X147229286Y-103131509D01*
X147229286Y-102734342D01*
X147276457Y-102714444D01*
X147323629Y-102694547D01*
X147330886Y-102816289D01*
G37*
X147330886Y-102816289D02*
X147335139Y-102875613D01*
X147340025Y-102910572D01*
X147346795Y-102925820D01*
X147356702Y-102926015D01*
X147359914Y-102924195D01*
X147402644Y-102911015D01*
X147458227Y-102911785D01*
X147514737Y-102925333D01*
X147550082Y-102942861D01*
X147586321Y-102970861D01*
X147612813Y-103002549D01*
X147630999Y-103042813D01*
X147642322Y-103096543D01*
X147648222Y-103168626D01*
X147650143Y-103263951D01*
X147650177Y-103282237D01*
X147650200Y-103487646D01*
X147604491Y-103503580D01*
X147572027Y-103514420D01*
X147554215Y-103519468D01*
X147553691Y-103519514D01*
X147551937Y-103505828D01*
X147550444Y-103468076D01*
X147549326Y-103411224D01*
X147548697Y-103340234D01*
X147548600Y-103297073D01*
X147548398Y-103211973D01*
X147547358Y-103150981D01*
X147544831Y-103109177D01*
X147540164Y-103081642D01*
X147532707Y-103063456D01*
X147521811Y-103049698D01*
X147515007Y-103043073D01*
X147468272Y-103016375D01*
X147417272Y-103014375D01*
X147371001Y-103036955D01*
X147362444Y-103045107D01*
X147349893Y-103060436D01*
X147341188Y-103078618D01*
X147335631Y-103104909D01*
X147332526Y-103144562D01*
X147331176Y-103202832D01*
X147330886Y-103283173D01*
X147330886Y-103487646D01*
X147285177Y-103503580D01*
X147252713Y-103514420D01*
X147234901Y-103519468D01*
X147234377Y-103519514D01*
X147233037Y-103505623D01*
X147231828Y-103466439D01*
X147230801Y-103405700D01*
X147230002Y-103327141D01*
X147229481Y-103234498D01*
X147229286Y-103131509D01*
X147229286Y-102734342D01*
X147276457Y-102714444D01*
X147323629Y-102694547D01*
X147330886Y-102816289D01*
G36*
X147994744Y-102915968D02*
G01*
X148051616Y-102937087D01*
X148052267Y-102937493D01*
X148087440Y-102963380D01*
X148113407Y-102993633D01*
X148131670Y-103033058D01*
X148143732Y-103086462D01*
X148151096Y-103158651D01*
X148155264Y-103254432D01*
X148155629Y-103268078D01*
X148160876Y-103473842D01*
X148116716Y-103496678D01*
X148084763Y-103512110D01*
X148065470Y-103519423D01*
X148064578Y-103519514D01*
X148061239Y-103506022D01*
X148058587Y-103469626D01*
X148056956Y-103416452D01*
X148056600Y-103373393D01*
X148056592Y-103303641D01*
X148053403Y-103259837D01*
X148042288Y-103238944D01*
X148018501Y-103237925D01*
X147977296Y-103253741D01*
X147915086Y-103282815D01*
X147869341Y-103306963D01*
X147845813Y-103327913D01*
X147838896Y-103350747D01*
X147838886Y-103351877D01*
X147850299Y-103391212D01*
X147884092Y-103412462D01*
X147935809Y-103415539D01*
X147973061Y-103415006D01*
X147992703Y-103425735D01*
X148004952Y-103451505D01*
X148012002Y-103484337D01*
X148001842Y-103502966D01*
X147998017Y-103505632D01*
X147962001Y-103516340D01*
X147911566Y-103517856D01*
X147859626Y-103510759D01*
X147822822Y-103497788D01*
X147771938Y-103454585D01*
X147743014Y-103394446D01*
X147737286Y-103347462D01*
X147741657Y-103305082D01*
X147757475Y-103270488D01*
X147788797Y-103239763D01*
X147839678Y-103208990D01*
X147914176Y-103174252D01*
X147918714Y-103172288D01*
X147985821Y-103141287D01*
X148027232Y-103115862D01*
X148044981Y-103093014D01*
X148041107Y-103069745D01*
X148017643Y-103043056D01*
X148010627Y-103036914D01*
X147963630Y-103013100D01*
X147914933Y-103014103D01*
X147872522Y-103037451D01*
X147844384Y-103080675D01*
X147841769Y-103089160D01*
X147816308Y-103130308D01*
X147784001Y-103150128D01*
X147737286Y-103169770D01*
X147737286Y-103118950D01*
X147751496Y-103045082D01*
X147793675Y-102977327D01*
X147815624Y-102954661D01*
X147865517Y-102925569D01*
X147928967Y-102912400D01*
X147994744Y-102915968D01*
G37*
X147994744Y-102915968D02*
X148051616Y-102937087D01*
X148052267Y-102937493D01*
X148087440Y-102963380D01*
X148113407Y-102993633D01*
X148131670Y-103033058D01*
X148143732Y-103086462D01*
X148151096Y-103158651D01*
X148155264Y-103254432D01*
X148155629Y-103268078D01*
X148160876Y-103473842D01*
X148116716Y-103496678D01*
X148084763Y-103512110D01*
X148065470Y-103519423D01*
X148064578Y-103519514D01*
X148061239Y-103506022D01*
X148058587Y-103469626D01*
X148056956Y-103416452D01*
X148056600Y-103373393D01*
X148056592Y-103303641D01*
X148053403Y-103259837D01*
X148042288Y-103238944D01*
X148018501Y-103237925D01*
X147977296Y-103253741D01*
X147915086Y-103282815D01*
X147869341Y-103306963D01*
X147845813Y-103327913D01*
X147838896Y-103350747D01*
X147838886Y-103351877D01*
X147850299Y-103391212D01*
X147884092Y-103412462D01*
X147935809Y-103415539D01*
X147973061Y-103415006D01*
X147992703Y-103425735D01*
X148004952Y-103451505D01*
X148012002Y-103484337D01*
X148001842Y-103502966D01*
X147998017Y-103505632D01*
X147962001Y-103516340D01*
X147911566Y-103517856D01*
X147859626Y-103510759D01*
X147822822Y-103497788D01*
X147771938Y-103454585D01*
X147743014Y-103394446D01*
X147737286Y-103347462D01*
X147741657Y-103305082D01*
X147757475Y-103270488D01*
X147788797Y-103239763D01*
X147839678Y-103208990D01*
X147914176Y-103174252D01*
X147918714Y-103172288D01*
X147985821Y-103141287D01*
X148027232Y-103115862D01*
X148044981Y-103093014D01*
X148041107Y-103069745D01*
X148017643Y-103043056D01*
X148010627Y-103036914D01*
X147963630Y-103013100D01*
X147914933Y-103014103D01*
X147872522Y-103037451D01*
X147844384Y-103080675D01*
X147841769Y-103089160D01*
X147816308Y-103130308D01*
X147784001Y-103150128D01*
X147737286Y-103169770D01*
X147737286Y-103118950D01*
X147751496Y-103045082D01*
X147793675Y-102977327D01*
X147815624Y-102954661D01*
X147865517Y-102925569D01*
X147928967Y-102912400D01*
X147994744Y-102915968D01*
G36*
X148484926Y-102914755D02*
G01*
X148550858Y-102939084D01*
X148604273Y-102982117D01*
X148625164Y-103012409D01*
X148647939Y-103067994D01*
X148647466Y-103108186D01*
X148623562Y-103135217D01*
X148614717Y-103139813D01*
X148576530Y-103154144D01*
X148557028Y-103150472D01*
X148550422Y-103126407D01*
X148550086Y-103113114D01*
X148537992Y-103064210D01*
X148506471Y-103029999D01*
X148462659Y-103013476D01*
X148413695Y-103017634D01*
X148373894Y-103039227D01*
X148360450Y-103051544D01*
X148350921Y-103066487D01*
X148344485Y-103089075D01*
X148340317Y-103124328D01*
X148337597Y-103177266D01*
X148335502Y-103252907D01*
X148334960Y-103276857D01*
X148332981Y-103358790D01*
X148330731Y-103416455D01*
X148327357Y-103454608D01*
X148322006Y-103478004D01*
X148313824Y-103491398D01*
X148301959Y-103499545D01*
X148294362Y-103503144D01*
X148262102Y-103515452D01*
X148243111Y-103519514D01*
X148236836Y-103505948D01*
X148233006Y-103464934D01*
X148231600Y-103395999D01*
X148232598Y-103298669D01*
X148232908Y-103283657D01*
X148235101Y-103194859D01*
X148237693Y-103130019D01*
X148241382Y-103084067D01*
X148246864Y-103051935D01*
X148254835Y-103028553D01*
X148265993Y-103008852D01*
X148271830Y-103000410D01*
X148305296Y-102963057D01*
X148342727Y-102934003D01*
X148347309Y-102931467D01*
X148414426Y-102911443D01*
X148484926Y-102914755D01*
G37*
X148484926Y-102914755D02*
X148550858Y-102939084D01*
X148604273Y-102982117D01*
X148625164Y-103012409D01*
X148647939Y-103067994D01*
X148647466Y-103108186D01*
X148623562Y-103135217D01*
X148614717Y-103139813D01*
X148576530Y-103154144D01*
X148557028Y-103150472D01*
X148550422Y-103126407D01*
X148550086Y-103113114D01*
X148537992Y-103064210D01*
X148506471Y-103029999D01*
X148462659Y-103013476D01*
X148413695Y-103017634D01*
X148373894Y-103039227D01*
X148360450Y-103051544D01*
X148350921Y-103066487D01*
X148344485Y-103089075D01*
X148340317Y-103124328D01*
X148337597Y-103177266D01*
X148335502Y-103252907D01*
X148334960Y-103276857D01*
X148332981Y-103358790D01*
X148330731Y-103416455D01*
X148327357Y-103454608D01*
X148322006Y-103478004D01*
X148313824Y-103491398D01*
X148301959Y-103499545D01*
X148294362Y-103503144D01*
X148262102Y-103515452D01*
X148243111Y-103519514D01*
X148236836Y-103505948D01*
X148233006Y-103464934D01*
X148231600Y-103395999D01*
X148232598Y-103298669D01*
X148232908Y-103283657D01*
X148235101Y-103194859D01*
X148237693Y-103130019D01*
X148241382Y-103084067D01*
X148246864Y-103051935D01*
X148254835Y-103028553D01*
X148265993Y-103008852D01*
X148271830Y-103000410D01*
X148305296Y-102963057D01*
X148342727Y-102934003D01*
X148347309Y-102931467D01*
X148414426Y-102911443D01*
X148484926Y-102914755D01*
G36*
X149145117Y-103030358D02*
G01*
X149144933Y-103138837D01*
X149144219Y-103222287D01*
X149142675Y-103284704D01*
X149140001Y-103330085D01*
X149135894Y-103362429D01*
X149130055Y-103385733D01*
X149122182Y-103403995D01*
X149116221Y-103414418D01*
X149066855Y-103470945D01*
X149004264Y-103506377D01*
X148935013Y-103519090D01*
X148865668Y-103507463D01*
X148824375Y-103486568D01*
X148781025Y-103450422D01*
X148751481Y-103406276D01*
X148733655Y-103348462D01*
X148725463Y-103271313D01*
X148724302Y-103214714D01*
X148724458Y-103210647D01*
X148825857Y-103210647D01*
X148826476Y-103275550D01*
X148829314Y-103318514D01*
X148835840Y-103346622D01*
X148847523Y-103366953D01*
X148861483Y-103382288D01*
X148908365Y-103411890D01*
X148958701Y-103414419D01*
X149006276Y-103389705D01*
X149009979Y-103386356D01*
X149025783Y-103368935D01*
X149035693Y-103348209D01*
X149041058Y-103317362D01*
X149043228Y-103269577D01*
X149043571Y-103216748D01*
X149042827Y-103150381D01*
X149039748Y-103106106D01*
X149033061Y-103077009D01*
X149021496Y-103056173D01*
X149012013Y-103045107D01*
X148967960Y-103017198D01*
X148917224Y-103013843D01*
X148868796Y-103035159D01*
X148859450Y-103043073D01*
X148843540Y-103060647D01*
X148833610Y-103081587D01*
X148828278Y-103112782D01*
X148826163Y-103161122D01*
X148825857Y-103210647D01*
X148724458Y-103210647D01*
X148727810Y-103123568D01*
X148739726Y-103055086D01*
X148762135Y-103003600D01*
X148797124Y-102963443D01*
X148824375Y-102942861D01*
X148873907Y-102920625D01*
X148931316Y-102910304D01*
X148984682Y-102913067D01*
X149014543Y-102924212D01*
X149026261Y-102927383D01*
X149034037Y-102915557D01*
X149039465Y-102883866D01*
X149043571Y-102835593D01*
X149048067Y-102781829D01*
X149054313Y-102749482D01*
X149065676Y-102730985D01*
X149085528Y-102718770D01*
X149098000Y-102713362D01*
X149145171Y-102693601D01*
X149145117Y-103030358D01*
G37*
X149145117Y-103030358D02*
X149144933Y-103138837D01*
X149144219Y-103222287D01*
X149142675Y-103284704D01*
X149140001Y-103330085D01*
X149135894Y-103362429D01*
X149130055Y-103385733D01*
X149122182Y-103403995D01*
X149116221Y-103414418D01*
X149066855Y-103470945D01*
X149004264Y-103506377D01*
X148935013Y-103519090D01*
X148865668Y-103507463D01*
X148824375Y-103486568D01*
X148781025Y-103450422D01*
X148751481Y-103406276D01*
X148733655Y-103348462D01*
X148725463Y-103271313D01*
X148724302Y-103214714D01*
X148724458Y-103210647D01*
X148825857Y-103210647D01*
X148826476Y-103275550D01*
X148829314Y-103318514D01*
X148835840Y-103346622D01*
X148847523Y-103366953D01*
X148861483Y-103382288D01*
X148908365Y-103411890D01*
X148958701Y-103414419D01*
X149006276Y-103389705D01*
X149009979Y-103386356D01*
X149025783Y-103368935D01*
X149035693Y-103348209D01*
X149041058Y-103317362D01*
X149043228Y-103269577D01*
X149043571Y-103216748D01*
X149042827Y-103150381D01*
X149039748Y-103106106D01*
X149033061Y-103077009D01*
X149021496Y-103056173D01*
X149012013Y-103045107D01*
X148967960Y-103017198D01*
X148917224Y-103013843D01*
X148868796Y-103035159D01*
X148859450Y-103043073D01*
X148843540Y-103060647D01*
X148833610Y-103081587D01*
X148828278Y-103112782D01*
X148826163Y-103161122D01*
X148825857Y-103210647D01*
X148724458Y-103210647D01*
X148727810Y-103123568D01*
X148739726Y-103055086D01*
X148762135Y-103003600D01*
X148797124Y-102963443D01*
X148824375Y-102942861D01*
X148873907Y-102920625D01*
X148931316Y-102910304D01*
X148984682Y-102913067D01*
X149014543Y-102924212D01*
X149026261Y-102927383D01*
X149034037Y-102915557D01*
X149039465Y-102883866D01*
X149043571Y-102835593D01*
X149048067Y-102781829D01*
X149054313Y-102749482D01*
X149065676Y-102730985D01*
X149085528Y-102718770D01*
X149098000Y-102713362D01*
X149145171Y-102693601D01*
X149145117Y-103030358D01*
G36*
X149734833Y-102923663D02*
G01*
X149737048Y-102961850D01*
X149738784Y-103019886D01*
X149739899Y-103093180D01*
X149740257Y-103170055D01*
X149740257Y-103430196D01*
X149694326Y-103476127D01*
X149662675Y-103504429D01*
X149634890Y-103515893D01*
X149596915Y-103515168D01*
X149581840Y-103513321D01*
X149534726Y-103507948D01*
X149495756Y-103504869D01*
X149486257Y-103504585D01*
X149454233Y-103506445D01*
X149408432Y-103511114D01*
X149390674Y-103513321D01*
X149347057Y-103516735D01*
X149317745Y-103509320D01*
X149288680Y-103486427D01*
X149278188Y-103476127D01*
X149232257Y-103430196D01*
X149232257Y-102943602D01*
X149269226Y-102926758D01*
X149301059Y-102914282D01*
X149319683Y-102909914D01*
X149324458Y-102923718D01*
X149328921Y-102962286D01*
X149332775Y-103021356D01*
X149335722Y-103096663D01*
X149337143Y-103160286D01*
X149341114Y-103410657D01*
X149375759Y-103415556D01*
X149407268Y-103412131D01*
X149422708Y-103401041D01*
X149427023Y-103380308D01*
X149430708Y-103336145D01*
X149433469Y-103274146D01*
X149435012Y-103199909D01*
X149435235Y-103161706D01*
X149435457Y-102941783D01*
X149481166Y-102925849D01*
X149513518Y-102915015D01*
X149531115Y-102909962D01*
X149531623Y-102909914D01*
X149533388Y-102923648D01*
X149535329Y-102961730D01*
X149537282Y-103019482D01*
X149539084Y-103092227D01*
X149540343Y-103160286D01*
X149544314Y-103410657D01*
X149631400Y-103410657D01*
X149635396Y-103182240D01*
X149639392Y-102953822D01*
X149681847Y-102931868D01*
X149713192Y-102916793D01*
X149731744Y-102909951D01*
X149732279Y-102909914D01*
X149734833Y-102923663D01*
G37*
X149734833Y-102923663D02*
X149737048Y-102961850D01*
X149738784Y-103019886D01*
X149739899Y-103093180D01*
X149740257Y-103170055D01*
X149740257Y-103430196D01*
X149694326Y-103476127D01*
X149662675Y-103504429D01*
X149634890Y-103515893D01*
X149596915Y-103515168D01*
X149581840Y-103513321D01*
X149534726Y-103507948D01*
X149495756Y-103504869D01*
X149486257Y-103504585D01*
X149454233Y-103506445D01*
X149408432Y-103511114D01*
X149390674Y-103513321D01*
X149347057Y-103516735D01*
X149317745Y-103509320D01*
X149288680Y-103486427D01*
X149278188Y-103476127D01*
X149232257Y-103430196D01*
X149232257Y-102943602D01*
X149269226Y-102926758D01*
X149301059Y-102914282D01*
X149319683Y-102909914D01*
X149324458Y-102923718D01*
X149328921Y-102962286D01*
X149332775Y-103021356D01*
X149335722Y-103096663D01*
X149337143Y-103160286D01*
X149341114Y-103410657D01*
X149375759Y-103415556D01*
X149407268Y-103412131D01*
X149422708Y-103401041D01*
X149427023Y-103380308D01*
X149430708Y-103336145D01*
X149433469Y-103274146D01*
X149435012Y-103199909D01*
X149435235Y-103161706D01*
X149435457Y-102941783D01*
X149481166Y-102925849D01*
X149513518Y-102915015D01*
X149531115Y-102909962D01*
X149531623Y-102909914D01*
X149533388Y-102923648D01*
X149535329Y-102961730D01*
X149537282Y-103019482D01*
X149539084Y-103092227D01*
X149540343Y-103160286D01*
X149544314Y-103410657D01*
X149631400Y-103410657D01*
X149635396Y-103182240D01*
X149639392Y-102953822D01*
X149681847Y-102931868D01*
X149713192Y-102916793D01*
X149731744Y-102909951D01*
X149732279Y-102909914D01*
X149734833Y-102923663D01*
G36*
X150099876Y-102921335D02*
G01*
X150141667Y-102940344D01*
X150174469Y-102963378D01*
X150198503Y-102989133D01*
X150215097Y-103022358D01*
X150225577Y-103067800D01*
X150231271Y-103130207D01*
X150233507Y-103214327D01*
X150233743Y-103269721D01*
X150233743Y-103485826D01*
X150196774Y-103502670D01*
X150167656Y-103514981D01*
X150153231Y-103519514D01*
X150150472Y-103506025D01*
X150148282Y-103469653D01*
X150146942Y-103416542D01*
X150146657Y-103374372D01*
X150145434Y-103313447D01*
X150142136Y-103265115D01*
X150137321Y-103235518D01*
X150133496Y-103229229D01*
X150107783Y-103235652D01*
X150067418Y-103252125D01*
X150020679Y-103274458D01*
X149975845Y-103298457D01*
X149941193Y-103319930D01*
X149925002Y-103334685D01*
X149924938Y-103334845D01*
X149926330Y-103362152D01*
X149938818Y-103388219D01*
X149960743Y-103409392D01*
X149992743Y-103416474D01*
X150020092Y-103415649D01*
X150058826Y-103415042D01*
X150079158Y-103424116D01*
X150091369Y-103448092D01*
X150092909Y-103452613D01*
X150098203Y-103486806D01*
X150084047Y-103507568D01*
X150047148Y-103517462D01*
X150007289Y-103519292D01*
X149935562Y-103505727D01*
X149898432Y-103486355D01*
X149852576Y-103440845D01*
X149828256Y-103384983D01*
X149826073Y-103325957D01*
X149846629Y-103270953D01*
X149877549Y-103236486D01*
X149908420Y-103217189D01*
X149956942Y-103192759D01*
X150013485Y-103167985D01*
X150022910Y-103164199D01*
X150085019Y-103136791D01*
X150120822Y-103112634D01*
X150132337Y-103088619D01*
X150121580Y-103061635D01*
X150103114Y-103040543D01*
X150059469Y-103014572D01*
X150011446Y-103012624D01*
X149967406Y-103032637D01*
X149935709Y-103072551D01*
X149931549Y-103082848D01*
X149907327Y-103120724D01*
X149871965Y-103148842D01*
X149827343Y-103171917D01*
X149827343Y-103106485D01*
X149829969Y-103066506D01*
X149841230Y-103034997D01*
X149866199Y-103001378D01*
X149890169Y-102975484D01*
X149927441Y-102938817D01*
X149956401Y-102919121D01*
X149987505Y-102911220D01*
X150022713Y-102909914D01*
X150099876Y-102921335D01*
G37*
X150099876Y-102921335D02*
X150141667Y-102940344D01*
X150174469Y-102963378D01*
X150198503Y-102989133D01*
X150215097Y-103022358D01*
X150225577Y-103067800D01*
X150231271Y-103130207D01*
X150233507Y-103214327D01*
X150233743Y-103269721D01*
X150233743Y-103485826D01*
X150196774Y-103502670D01*
X150167656Y-103514981D01*
X150153231Y-103519514D01*
X150150472Y-103506025D01*
X150148282Y-103469653D01*
X150146942Y-103416542D01*
X150146657Y-103374372D01*
X150145434Y-103313447D01*
X150142136Y-103265115D01*
X150137321Y-103235518D01*
X150133496Y-103229229D01*
X150107783Y-103235652D01*
X150067418Y-103252125D01*
X150020679Y-103274458D01*
X149975845Y-103298457D01*
X149941193Y-103319930D01*
X149925002Y-103334685D01*
X149924938Y-103334845D01*
X149926330Y-103362152D01*
X149938818Y-103388219D01*
X149960743Y-103409392D01*
X149992743Y-103416474D01*
X150020092Y-103415649D01*
X150058826Y-103415042D01*
X150079158Y-103424116D01*
X150091369Y-103448092D01*
X150092909Y-103452613D01*
X150098203Y-103486806D01*
X150084047Y-103507568D01*
X150047148Y-103517462D01*
X150007289Y-103519292D01*
X149935562Y-103505727D01*
X149898432Y-103486355D01*
X149852576Y-103440845D01*
X149828256Y-103384983D01*
X149826073Y-103325957D01*
X149846629Y-103270953D01*
X149877549Y-103236486D01*
X149908420Y-103217189D01*
X149956942Y-103192759D01*
X150013485Y-103167985D01*
X150022910Y-103164199D01*
X150085019Y-103136791D01*
X150120822Y-103112634D01*
X150132337Y-103088619D01*
X150121580Y-103061635D01*
X150103114Y-103040543D01*
X150059469Y-103014572D01*
X150011446Y-103012624D01*
X149967406Y-103032637D01*
X149935709Y-103072551D01*
X149931549Y-103082848D01*
X149907327Y-103120724D01*
X149871965Y-103148842D01*
X149827343Y-103171917D01*
X149827343Y-103106485D01*
X149829969Y-103066506D01*
X149841230Y-103034997D01*
X149866199Y-103001378D01*
X149890169Y-102975484D01*
X149927441Y-102938817D01*
X149956401Y-102919121D01*
X149987505Y-102911220D01*
X150022713Y-102909914D01*
X150099876Y-102921335D01*
G36*
X150607600Y-102923752D02*
G01*
X150624948Y-102931334D01*
X150666356Y-102964128D01*
X150701765Y-103011547D01*
X150723664Y-103062151D01*
X150727229Y-103087098D01*
X150715279Y-103121927D01*
X150689067Y-103140357D01*
X150660964Y-103151516D01*
X150648095Y-103153572D01*
X150641829Y-103138649D01*
X150629456Y-103106175D01*
X150624028Y-103091502D01*
X150593590Y-103040744D01*
X150549520Y-103015427D01*
X150493010Y-103016206D01*
X150488825Y-103017203D01*
X150458655Y-103031507D01*
X150436476Y-103059393D01*
X150421327Y-103104287D01*
X150412250Y-103169615D01*
X150408286Y-103258804D01*
X150407914Y-103306261D01*
X150407730Y-103381071D01*
X150406522Y-103432069D01*
X150403309Y-103464471D01*
X150397109Y-103483495D01*
X150386940Y-103494356D01*
X150371819Y-103502272D01*
X150370946Y-103502670D01*
X150341828Y-103514981D01*
X150327403Y-103519514D01*
X150325186Y-103505809D01*
X150323289Y-103467925D01*
X150321847Y-103410715D01*
X150320998Y-103339027D01*
X150320829Y-103286565D01*
X150321692Y-103185047D01*
X150325070Y-103108032D01*
X150332142Y-103051023D01*
X150344088Y-103009526D01*
X150362090Y-102979043D01*
X150387327Y-102955080D01*
X150412247Y-102938355D01*
X150472171Y-102916097D01*
X150541911Y-102911076D01*
X150607600Y-102923752D01*
G37*
X150607600Y-102923752D02*
X150624948Y-102931334D01*
X150666356Y-102964128D01*
X150701765Y-103011547D01*
X150723664Y-103062151D01*
X150727229Y-103087098D01*
X150715279Y-103121927D01*
X150689067Y-103140357D01*
X150660964Y-103151516D01*
X150648095Y-103153572D01*
X150641829Y-103138649D01*
X150629456Y-103106175D01*
X150624028Y-103091502D01*
X150593590Y-103040744D01*
X150549520Y-103015427D01*
X150493010Y-103016206D01*
X150488825Y-103017203D01*
X150458655Y-103031507D01*
X150436476Y-103059393D01*
X150421327Y-103104287D01*
X150412250Y-103169615D01*
X150408286Y-103258804D01*
X150407914Y-103306261D01*
X150407730Y-103381071D01*
X150406522Y-103432069D01*
X150403309Y-103464471D01*
X150397109Y-103483495D01*
X150386940Y-103494356D01*
X150371819Y-103502272D01*
X150370946Y-103502670D01*
X150341828Y-103514981D01*
X150327403Y-103519514D01*
X150325186Y-103505809D01*
X150323289Y-103467925D01*
X150321847Y-103410715D01*
X150320998Y-103339027D01*
X150320829Y-103286565D01*
X150321692Y-103185047D01*
X150325070Y-103108032D01*
X150332142Y-103051023D01*
X150344088Y-103009526D01*
X150362090Y-102979043D01*
X150387327Y-102955080D01*
X150412247Y-102938355D01*
X150472171Y-102916097D01*
X150541911Y-102911076D01*
X150607600Y-102923752D01*
G36*
X151108595Y-102931966D02*
G01*
X151166021Y-102969497D01*
X151193719Y-103003096D01*
X151215662Y-103064064D01*
X151217405Y-103112308D01*
X151213457Y-103176816D01*
X151064686Y-103241934D01*
X150992349Y-103275202D01*
X150945084Y-103301964D01*
X150920507Y-103325144D01*
X150916237Y-103347667D01*
X150929889Y-103372455D01*
X150944943Y-103388886D01*
X150988746Y-103415235D01*
X151036389Y-103417081D01*
X151080145Y-103396546D01*
X151112289Y-103355752D01*
X151118038Y-103341347D01*
X151145576Y-103296356D01*
X151177258Y-103277182D01*
X151220714Y-103260779D01*
X151220714Y-103322966D01*
X151216872Y-103365283D01*
X151201823Y-103400969D01*
X151170280Y-103441943D01*
X151165592Y-103447267D01*
X151130506Y-103483720D01*
X151100347Y-103503283D01*
X151062615Y-103512283D01*
X151031335Y-103515230D01*
X150975385Y-103515965D01*
X150935555Y-103506660D01*
X150910708Y-103492846D01*
X150871656Y-103462467D01*
X150844625Y-103429613D01*
X150827517Y-103388294D01*
X150818238Y-103332521D01*
X150814693Y-103256305D01*
X150814410Y-103217622D01*
X150815372Y-103171247D01*
X150903007Y-103171247D01*
X150904023Y-103196126D01*
X150906556Y-103200200D01*
X150923274Y-103194665D01*
X150959249Y-103180017D01*
X151007331Y-103159190D01*
X151017386Y-103154714D01*
X151078152Y-103123814D01*
X151111632Y-103096657D01*
X151118990Y-103071220D01*
X151101391Y-103045481D01*
X151086856Y-103034109D01*
X151034410Y-103011364D01*
X150985322Y-103015122D01*
X150944227Y-103042884D01*
X150915758Y-103092152D01*
X150906631Y-103131257D01*
X150903007Y-103171247D01*
X150815372Y-103171247D01*
X150816285Y-103127249D01*
X150823196Y-103060384D01*
X150836884Y-103011695D01*
X150859096Y-102975849D01*
X150891574Y-102947513D01*
X150905733Y-102938355D01*
X150970053Y-102914507D01*
X151040473Y-102913006D01*
X151108595Y-102931966D01*
G37*
X151108595Y-102931966D02*
X151166021Y-102969497D01*
X151193719Y-103003096D01*
X151215662Y-103064064D01*
X151217405Y-103112308D01*
X151213457Y-103176816D01*
X151064686Y-103241934D01*
X150992349Y-103275202D01*
X150945084Y-103301964D01*
X150920507Y-103325144D01*
X150916237Y-103347667D01*
X150929889Y-103372455D01*
X150944943Y-103388886D01*
X150988746Y-103415235D01*
X151036389Y-103417081D01*
X151080145Y-103396546D01*
X151112289Y-103355752D01*
X151118038Y-103341347D01*
X151145576Y-103296356D01*
X151177258Y-103277182D01*
X151220714Y-103260779D01*
X151220714Y-103322966D01*
X151216872Y-103365283D01*
X151201823Y-103400969D01*
X151170280Y-103441943D01*
X151165592Y-103447267D01*
X151130506Y-103483720D01*
X151100347Y-103503283D01*
X151062615Y-103512283D01*
X151031335Y-103515230D01*
X150975385Y-103515965D01*
X150935555Y-103506660D01*
X150910708Y-103492846D01*
X150871656Y-103462467D01*
X150844625Y-103429613D01*
X150827517Y-103388294D01*
X150818238Y-103332521D01*
X150814693Y-103256305D01*
X150814410Y-103217622D01*
X150815372Y-103171247D01*
X150903007Y-103171247D01*
X150904023Y-103196126D01*
X150906556Y-103200200D01*
X150923274Y-103194665D01*
X150959249Y-103180017D01*
X151007331Y-103159190D01*
X151017386Y-103154714D01*
X151078152Y-103123814D01*
X151111632Y-103096657D01*
X151118990Y-103071220D01*
X151101391Y-103045481D01*
X151086856Y-103034109D01*
X151034410Y-103011364D01*
X150985322Y-103015122D01*
X150944227Y-103042884D01*
X150915758Y-103092152D01*
X150906631Y-103131257D01*
X150903007Y-103171247D01*
X150815372Y-103171247D01*
X150816285Y-103127249D01*
X150823196Y-103060384D01*
X150836884Y-103011695D01*
X150859096Y-102975849D01*
X150891574Y-102947513D01*
X150905733Y-102938355D01*
X150970053Y-102914507D01*
X151040473Y-102913006D01*
X151108595Y-102931966D01*
G36*
X148058910Y-98207348D02*
G01*
X148137454Y-98207778D01*
X148194298Y-98208942D01*
X148233105Y-98211207D01*
X148257538Y-98214940D01*
X148271262Y-98220506D01*
X148277940Y-98228273D01*
X148281236Y-98238605D01*
X148281556Y-98239943D01*
X148286562Y-98264079D01*
X148295829Y-98311701D01*
X148308392Y-98377741D01*
X148323287Y-98457128D01*
X148339551Y-98544796D01*
X148340119Y-98547875D01*
X148356410Y-98633789D01*
X148371652Y-98709696D01*
X148384861Y-98771045D01*
X148395054Y-98813282D01*
X148401248Y-98831855D01*
X148401543Y-98832184D01*
X148419788Y-98841253D01*
X148457405Y-98856367D01*
X148506271Y-98874262D01*
X148506543Y-98874358D01*
X148568093Y-98897493D01*
X148640657Y-98926965D01*
X148709057Y-98956597D01*
X148712294Y-98958062D01*
X148823702Y-99008626D01*
X149070399Y-98840160D01*
X149146077Y-98788803D01*
X149214631Y-98742889D01*
X149272088Y-98705030D01*
X149314476Y-98677837D01*
X149337825Y-98663921D01*
X149340042Y-98662889D01*
X149357010Y-98667484D01*
X149388701Y-98689655D01*
X149436352Y-98730447D01*
X149501198Y-98790905D01*
X149567397Y-98855227D01*
X149631214Y-98918612D01*
X149688329Y-98976451D01*
X149735305Y-99025175D01*
X149768703Y-99061210D01*
X149785085Y-99080984D01*
X149785694Y-99082002D01*
X149787505Y-99095572D01*
X149780683Y-99117733D01*
X149763540Y-99151478D01*
X149734393Y-99199800D01*
X149691555Y-99265692D01*
X149634448Y-99350517D01*
X149583766Y-99425177D01*
X149538461Y-99492140D01*
X149501150Y-99547516D01*
X149474452Y-99587420D01*
X149460985Y-99607962D01*
X149460137Y-99609356D01*
X149461781Y-99629038D01*
X149474245Y-99667293D01*
X149495048Y-99716889D01*
X149502462Y-99732728D01*
X149534814Y-99803290D01*
X149569328Y-99883353D01*
X149597365Y-99952629D01*
X149617568Y-100004045D01*
X149633615Y-100043119D01*
X149642888Y-100063541D01*
X149644041Y-100065114D01*
X149661096Y-100067721D01*
X149701298Y-100074863D01*
X149759302Y-100085523D01*
X149829763Y-100098685D01*
X149907335Y-100113333D01*
X149986672Y-100128449D01*
X150062431Y-100143018D01*
X150129264Y-100156022D01*
X150181828Y-100166445D01*
X150214776Y-100173270D01*
X150222857Y-100175199D01*
X150231205Y-100179962D01*
X150237506Y-100190718D01*
X150242045Y-100211098D01*
X150245104Y-100244734D01*
X150246967Y-100295255D01*
X150247918Y-100366292D01*
X150248240Y-100461476D01*
X150248257Y-100500492D01*
X150248257Y-100817799D01*
X150172057Y-100832839D01*
X150129663Y-100840995D01*
X150066400Y-100852899D01*
X149989962Y-100867116D01*
X149908043Y-100882210D01*
X149885400Y-100886355D01*
X149809806Y-100901053D01*
X149743953Y-100915505D01*
X149693366Y-100928375D01*
X149663574Y-100938322D01*
X149658612Y-100941287D01*
X149646426Y-100962283D01*
X149628953Y-101002967D01*
X149609577Y-101055322D01*
X149605734Y-101066600D01*
X149580339Y-101136523D01*
X149548817Y-101215418D01*
X149517969Y-101286266D01*
X149517817Y-101286595D01*
X149466447Y-101397733D01*
X149635399Y-101646253D01*
X149804352Y-101894772D01*
X149587429Y-102112058D01*
X149521819Y-102176726D01*
X149461979Y-102233733D01*
X149411267Y-102280033D01*
X149373046Y-102312584D01*
X149350675Y-102328343D01*
X149347466Y-102329343D01*
X149328626Y-102321469D01*
X149290180Y-102299578D01*
X149236330Y-102266267D01*
X149171276Y-102224131D01*
X149100940Y-102176943D01*
X149029555Y-102128810D01*
X148965908Y-102086928D01*
X148914041Y-102053871D01*
X148877995Y-102032218D01*
X148861867Y-102024543D01*
X148842189Y-102031037D01*
X148804875Y-102048150D01*
X148757621Y-102072326D01*
X148752612Y-102075013D01*
X148688977Y-102106927D01*
X148645341Y-102122579D01*
X148618202Y-102122745D01*
X148604057Y-102108204D01*
X148603975Y-102108000D01*
X148596905Y-102090779D01*
X148580042Y-102049899D01*
X148554695Y-101988525D01*
X148522171Y-101909819D01*
X148483778Y-101816947D01*
X148440822Y-101713072D01*
X148399222Y-101612502D01*
X148353504Y-101501516D01*
X148311526Y-101398703D01*
X148274548Y-101307215D01*
X148243827Y-101230201D01*
X148220622Y-101170815D01*
X148206190Y-101132209D01*
X148201743Y-101117800D01*
X148212896Y-101101272D01*
X148242069Y-101074930D01*
X148280971Y-101045887D01*
X148391757Y-100954039D01*
X148478351Y-100848759D01*
X148539716Y-100732266D01*
X148574815Y-100606776D01*
X148582608Y-100474507D01*
X148576943Y-100413457D01*
X148546078Y-100286795D01*
X148492920Y-100174941D01*
X148420767Y-100079001D01*
X148332917Y-100000076D01*
X148232665Y-99939270D01*
X148123310Y-99897687D01*
X148008147Y-99876428D01*
X147890475Y-99876599D01*
X147773590Y-99899301D01*
X147660789Y-99945638D01*
X147555369Y-100016713D01*
X147511368Y-100056911D01*
X147426979Y-100160129D01*
X147368222Y-100272925D01*
X147334704Y-100392010D01*
X147326035Y-100514095D01*
X147341823Y-100635893D01*
X147381678Y-100754116D01*
X147445207Y-100865475D01*
X147532021Y-100966684D01*
X147629029Y-101045887D01*
X147669437Y-101076162D01*
X147697982Y-101102219D01*
X147708257Y-101117825D01*
X147702877Y-101134843D01*
X147687575Y-101175500D01*
X147663612Y-101236642D01*
X147632244Y-101315119D01*
X147594732Y-101407780D01*
X147552333Y-101511472D01*
X147510663Y-101612526D01*
X147464690Y-101723607D01*
X147422107Y-101826541D01*
X147384221Y-101918165D01*
X147352340Y-101995316D01*
X147327771Y-102054831D01*
X147311820Y-102093544D01*
X147305910Y-102108000D01*
X147291948Y-102122685D01*
X147264940Y-102122642D01*
X147221413Y-102107099D01*
X147157890Y-102075284D01*
X147157388Y-102075013D01*
X147109560Y-102050323D01*
X147070897Y-102032338D01*
X147049095Y-102024614D01*
X147048133Y-102024543D01*
X147031721Y-102032378D01*
X146995487Y-102054165D01*
X146943474Y-102087328D01*
X146879725Y-102129291D01*
X146809060Y-102176943D01*
X146737116Y-102225191D01*
X146672274Y-102267151D01*
X146618735Y-102300227D01*
X146580697Y-102321821D01*
X146562533Y-102329343D01*
X146545808Y-102319457D01*
X146512180Y-102291826D01*
X146465010Y-102249495D01*
X146407658Y-102195505D01*
X146343484Y-102132899D01*
X146322497Y-102111983D01*
X146105499Y-101894623D01*
X146270668Y-101652220D01*
X146320864Y-101577781D01*
X146364919Y-101510972D01*
X146400362Y-101455665D01*
X146424719Y-101415729D01*
X146435522Y-101395036D01*
X146435838Y-101393563D01*
X146430143Y-101374058D01*
X146414826Y-101334822D01*
X146392537Y-101282430D01*
X146376893Y-101247355D01*
X146347641Y-101180201D01*
X146320094Y-101112358D01*
X146298737Y-101055034D01*
X146292935Y-101037572D01*
X146276452Y-100990938D01*
X146260340Y-100954905D01*
X146251490Y-100941287D01*
X146231960Y-100932952D01*
X146189334Y-100921137D01*
X146129145Y-100907181D01*
X146056922Y-100892422D01*
X146024600Y-100886355D01*
X145942522Y-100871273D01*
X145863795Y-100856669D01*
X145796109Y-100843980D01*
X145747160Y-100834642D01*
X145737943Y-100832839D01*
X145661743Y-100817799D01*
X145661743Y-100500492D01*
X145661914Y-100396154D01*
X145662616Y-100317213D01*
X145664134Y-100260038D01*
X145666749Y-100220999D01*
X145670746Y-100196465D01*
X145676409Y-100182805D01*
X145684020Y-100176389D01*
X145687143Y-100175199D01*
X145705978Y-100170980D01*
X145747588Y-100162562D01*
X145806630Y-100150961D01*
X145877757Y-100137195D01*
X145955625Y-100122280D01*
X146034887Y-100107232D01*
X146110198Y-100093069D01*
X146176213Y-100080806D01*
X146227587Y-100071461D01*
X146258975Y-100066050D01*
X146265959Y-100065114D01*
X146272285Y-100052596D01*
X146286290Y-100019246D01*
X146305355Y-99971377D01*
X146312634Y-99952629D01*
X146341996Y-99880195D01*
X146376571Y-99800170D01*
X146407537Y-99732728D01*
X146430323Y-99681159D01*
X146445482Y-99638785D01*
X146450542Y-99612834D01*
X146449736Y-99609356D01*
X146439041Y-99592936D01*
X146414620Y-99556417D01*
X146379095Y-99503687D01*
X146335087Y-99438635D01*
X146285217Y-99365151D01*
X146275356Y-99350645D01*
X146217492Y-99264704D01*
X146174956Y-99199261D01*
X146146054Y-99151304D01*
X146129090Y-99117820D01*
X146122367Y-99095795D01*
X146124190Y-99082217D01*
X146124236Y-99082131D01*
X146138586Y-99064297D01*
X146170323Y-99029817D01*
X146216010Y-98982268D01*
X146272204Y-98925222D01*
X146335468Y-98862255D01*
X146342602Y-98855227D01*
X146422330Y-98778020D01*
X146483857Y-98721330D01*
X146528421Y-98684110D01*
X146557257Y-98665315D01*
X146569958Y-98662889D01*
X146588494Y-98673471D01*
X146626961Y-98697916D01*
X146681386Y-98733612D01*
X146747798Y-98777947D01*
X146822225Y-98828311D01*
X146839601Y-98840160D01*
X147086297Y-99008626D01*
X147197706Y-98958062D01*
X147265457Y-98928595D01*
X147338183Y-98898959D01*
X147400703Y-98875330D01*
X147403457Y-98874358D01*
X147452360Y-98856457D01*
X147490057Y-98841320D01*
X147508425Y-98832210D01*
X147508456Y-98832184D01*
X147514285Y-98815717D01*
X147524192Y-98775219D01*
X147537195Y-98715242D01*
X147552309Y-98640340D01*
X147568552Y-98555064D01*
X147569881Y-98547875D01*
X147586175Y-98460014D01*
X147601133Y-98380260D01*
X147613791Y-98313681D01*
X147623186Y-98265347D01*
X147628354Y-98240325D01*
X147628444Y-98239943D01*
X147631589Y-98229299D01*
X147637704Y-98221262D01*
X147650453Y-98215467D01*
X147673500Y-98211547D01*
X147710509Y-98209135D01*
X147765144Y-98207865D01*
X147841067Y-98207371D01*
X147941944Y-98207286D01*
X147955000Y-98207286D01*
X148058910Y-98207348D01*
G37*
X148058910Y-98207348D02*
X148137454Y-98207778D01*
X148194298Y-98208942D01*
X148233105Y-98211207D01*
X148257538Y-98214940D01*
X148271262Y-98220506D01*
X148277940Y-98228273D01*
X148281236Y-98238605D01*
X148281556Y-98239943D01*
X148286562Y-98264079D01*
X148295829Y-98311701D01*
X148308392Y-98377741D01*
X148323287Y-98457128D01*
X148339551Y-98544796D01*
X148340119Y-98547875D01*
X148356410Y-98633789D01*
X148371652Y-98709696D01*
X148384861Y-98771045D01*
X148395054Y-98813282D01*
X148401248Y-98831855D01*
X148401543Y-98832184D01*
X148419788Y-98841253D01*
X148457405Y-98856367D01*
X148506271Y-98874262D01*
X148506543Y-98874358D01*
X148568093Y-98897493D01*
X148640657Y-98926965D01*
X148709057Y-98956597D01*
X148712294Y-98958062D01*
X148823702Y-99008626D01*
X149070399Y-98840160D01*
X149146077Y-98788803D01*
X149214631Y-98742889D01*
X149272088Y-98705030D01*
X149314476Y-98677837D01*
X149337825Y-98663921D01*
X149340042Y-98662889D01*
X149357010Y-98667484D01*
X149388701Y-98689655D01*
X149436352Y-98730447D01*
X149501198Y-98790905D01*
X149567397Y-98855227D01*
X149631214Y-98918612D01*
X149688329Y-98976451D01*
X149735305Y-99025175D01*
X149768703Y-99061210D01*
X149785085Y-99080984D01*
X149785694Y-99082002D01*
X149787505Y-99095572D01*
X149780683Y-99117733D01*
X149763540Y-99151478D01*
X149734393Y-99199800D01*
X149691555Y-99265692D01*
X149634448Y-99350517D01*
X149583766Y-99425177D01*
X149538461Y-99492140D01*
X149501150Y-99547516D01*
X149474452Y-99587420D01*
X149460985Y-99607962D01*
X149460137Y-99609356D01*
X149461781Y-99629038D01*
X149474245Y-99667293D01*
X149495048Y-99716889D01*
X149502462Y-99732728D01*
X149534814Y-99803290D01*
X149569328Y-99883353D01*
X149597365Y-99952629D01*
X149617568Y-100004045D01*
X149633615Y-100043119D01*
X149642888Y-100063541D01*
X149644041Y-100065114D01*
X149661096Y-100067721D01*
X149701298Y-100074863D01*
X149759302Y-100085523D01*
X149829763Y-100098685D01*
X149907335Y-100113333D01*
X149986672Y-100128449D01*
X150062431Y-100143018D01*
X150129264Y-100156022D01*
X150181828Y-100166445D01*
X150214776Y-100173270D01*
X150222857Y-100175199D01*
X150231205Y-100179962D01*
X150237506Y-100190718D01*
X150242045Y-100211098D01*
X150245104Y-100244734D01*
X150246967Y-100295255D01*
X150247918Y-100366292D01*
X150248240Y-100461476D01*
X150248257Y-100500492D01*
X150248257Y-100817799D01*
X150172057Y-100832839D01*
X150129663Y-100840995D01*
X150066400Y-100852899D01*
X149989962Y-100867116D01*
X149908043Y-100882210D01*
X149885400Y-100886355D01*
X149809806Y-100901053D01*
X149743953Y-100915505D01*
X149693366Y-100928375D01*
X149663574Y-100938322D01*
X149658612Y-100941287D01*
X149646426Y-100962283D01*
X149628953Y-101002967D01*
X149609577Y-101055322D01*
X149605734Y-101066600D01*
X149580339Y-101136523D01*
X149548817Y-101215418D01*
X149517969Y-101286266D01*
X149517817Y-101286595D01*
X149466447Y-101397733D01*
X149635399Y-101646253D01*
X149804352Y-101894772D01*
X149587429Y-102112058D01*
X149521819Y-102176726D01*
X149461979Y-102233733D01*
X149411267Y-102280033D01*
X149373046Y-102312584D01*
X149350675Y-102328343D01*
X149347466Y-102329343D01*
X149328626Y-102321469D01*
X149290180Y-102299578D01*
X149236330Y-102266267D01*
X149171276Y-102224131D01*
X149100940Y-102176943D01*
X149029555Y-102128810D01*
X148965908Y-102086928D01*
X148914041Y-102053871D01*
X148877995Y-102032218D01*
X148861867Y-102024543D01*
X148842189Y-102031037D01*
X148804875Y-102048150D01*
X148757621Y-102072326D01*
X148752612Y-102075013D01*
X148688977Y-102106927D01*
X148645341Y-102122579D01*
X148618202Y-102122745D01*
X148604057Y-102108204D01*
X148603975Y-102108000D01*
X148596905Y-102090779D01*
X148580042Y-102049899D01*
X148554695Y-101988525D01*
X148522171Y-101909819D01*
X148483778Y-101816947D01*
X148440822Y-101713072D01*
X148399222Y-101612502D01*
X148353504Y-101501516D01*
X148311526Y-101398703D01*
X148274548Y-101307215D01*
X148243827Y-101230201D01*
X148220622Y-101170815D01*
X148206190Y-101132209D01*
X148201743Y-101117800D01*
X148212896Y-101101272D01*
X148242069Y-101074930D01*
X148280971Y-101045887D01*
X148391757Y-100954039D01*
X148478351Y-100848759D01*
X148539716Y-100732266D01*
X148574815Y-100606776D01*
X148582608Y-100474507D01*
X148576943Y-100413457D01*
X148546078Y-100286795D01*
X148492920Y-100174941D01*
X148420767Y-100079001D01*
X148332917Y-100000076D01*
X148232665Y-99939270D01*
X148123310Y-99897687D01*
X148008147Y-99876428D01*
X147890475Y-99876599D01*
X147773590Y-99899301D01*
X147660789Y-99945638D01*
X147555369Y-100016713D01*
X147511368Y-100056911D01*
X147426979Y-100160129D01*
X147368222Y-100272925D01*
X147334704Y-100392010D01*
X147326035Y-100514095D01*
X147341823Y-100635893D01*
X147381678Y-100754116D01*
X147445207Y-100865475D01*
X147532021Y-100966684D01*
X147629029Y-101045887D01*
X147669437Y-101076162D01*
X147697982Y-101102219D01*
X147708257Y-101117825D01*
X147702877Y-101134843D01*
X147687575Y-101175500D01*
X147663612Y-101236642D01*
X147632244Y-101315119D01*
X147594732Y-101407780D01*
X147552333Y-101511472D01*
X147510663Y-101612526D01*
X147464690Y-101723607D01*
X147422107Y-101826541D01*
X147384221Y-101918165D01*
X147352340Y-101995316D01*
X147327771Y-102054831D01*
X147311820Y-102093544D01*
X147305910Y-102108000D01*
X147291948Y-102122685D01*
X147264940Y-102122642D01*
X147221413Y-102107099D01*
X147157890Y-102075284D01*
X147157388Y-102075013D01*
X147109560Y-102050323D01*
X147070897Y-102032338D01*
X147049095Y-102024614D01*
X147048133Y-102024543D01*
X147031721Y-102032378D01*
X146995487Y-102054165D01*
X146943474Y-102087328D01*
X146879725Y-102129291D01*
X146809060Y-102176943D01*
X146737116Y-102225191D01*
X146672274Y-102267151D01*
X146618735Y-102300227D01*
X146580697Y-102321821D01*
X146562533Y-102329343D01*
X146545808Y-102319457D01*
X146512180Y-102291826D01*
X146465010Y-102249495D01*
X146407658Y-102195505D01*
X146343484Y-102132899D01*
X146322497Y-102111983D01*
X146105499Y-101894623D01*
X146270668Y-101652220D01*
X146320864Y-101577781D01*
X146364919Y-101510972D01*
X146400362Y-101455665D01*
X146424719Y-101415729D01*
X146435522Y-101395036D01*
X146435838Y-101393563D01*
X146430143Y-101374058D01*
X146414826Y-101334822D01*
X146392537Y-101282430D01*
X146376893Y-101247355D01*
X146347641Y-101180201D01*
X146320094Y-101112358D01*
X146298737Y-101055034D01*
X146292935Y-101037572D01*
X146276452Y-100990938D01*
X146260340Y-100954905D01*
X146251490Y-100941287D01*
X146231960Y-100932952D01*
X146189334Y-100921137D01*
X146129145Y-100907181D01*
X146056922Y-100892422D01*
X146024600Y-100886355D01*
X145942522Y-100871273D01*
X145863795Y-100856669D01*
X145796109Y-100843980D01*
X145747160Y-100834642D01*
X145737943Y-100832839D01*
X145661743Y-100817799D01*
X145661743Y-100500492D01*
X145661914Y-100396154D01*
X145662616Y-100317213D01*
X145664134Y-100260038D01*
X145666749Y-100220999D01*
X145670746Y-100196465D01*
X145676409Y-100182805D01*
X145684020Y-100176389D01*
X145687143Y-100175199D01*
X145705978Y-100170980D01*
X145747588Y-100162562D01*
X145806630Y-100150961D01*
X145877757Y-100137195D01*
X145955625Y-100122280D01*
X146034887Y-100107232D01*
X146110198Y-100093069D01*
X146176213Y-100080806D01*
X146227587Y-100071461D01*
X146258975Y-100066050D01*
X146265959Y-100065114D01*
X146272285Y-100052596D01*
X146286290Y-100019246D01*
X146305355Y-99971377D01*
X146312634Y-99952629D01*
X146341996Y-99880195D01*
X146376571Y-99800170D01*
X146407537Y-99732728D01*
X146430323Y-99681159D01*
X146445482Y-99638785D01*
X146450542Y-99612834D01*
X146449736Y-99609356D01*
X146439041Y-99592936D01*
X146414620Y-99556417D01*
X146379095Y-99503687D01*
X146335087Y-99438635D01*
X146285217Y-99365151D01*
X146275356Y-99350645D01*
X146217492Y-99264704D01*
X146174956Y-99199261D01*
X146146054Y-99151304D01*
X146129090Y-99117820D01*
X146122367Y-99095795D01*
X146124190Y-99082217D01*
X146124236Y-99082131D01*
X146138586Y-99064297D01*
X146170323Y-99029817D01*
X146216010Y-98982268D01*
X146272204Y-98925222D01*
X146335468Y-98862255D01*
X146342602Y-98855227D01*
X146422330Y-98778020D01*
X146483857Y-98721330D01*
X146528421Y-98684110D01*
X146557257Y-98665315D01*
X146569958Y-98662889D01*
X146588494Y-98673471D01*
X146626961Y-98697916D01*
X146681386Y-98733612D01*
X146747798Y-98777947D01*
X146822225Y-98828311D01*
X146839601Y-98840160D01*
X147086297Y-99008626D01*
X147197706Y-98958062D01*
X147265457Y-98928595D01*
X147338183Y-98898959D01*
X147400703Y-98875330D01*
X147403457Y-98874358D01*
X147452360Y-98856457D01*
X147490057Y-98841320D01*
X147508425Y-98832210D01*
X147508456Y-98832184D01*
X147514285Y-98815717D01*
X147524192Y-98775219D01*
X147537195Y-98715242D01*
X147552309Y-98640340D01*
X147568552Y-98555064D01*
X147569881Y-98547875D01*
X147586175Y-98460014D01*
X147601133Y-98380260D01*
X147613791Y-98313681D01*
X147623186Y-98265347D01*
X147628354Y-98240325D01*
X147628444Y-98239943D01*
X147631589Y-98229299D01*
X147637704Y-98221262D01*
X147650453Y-98215467D01*
X147673500Y-98211547D01*
X147710509Y-98209135D01*
X147765144Y-98207865D01*
X147841067Y-98207371D01*
X147941944Y-98207286D01*
X147955000Y-98207286D01*
X148058910Y-98207348D01*
D10*
%TO.C,C2*%
X134695000Y-76458578D02*
X134695000Y-75941422D01*
X133275000Y-76458578D02*
X133275000Y-75941422D01*
%TO.C,U3*%
X160715000Y-100440000D02*
X160715000Y-100090000D01*
X160715000Y-100090000D02*
X158115000Y-100090000D01*
X160715000Y-102760000D02*
X160715000Y-103100000D01*
X160715000Y-103100000D02*
X155625000Y-103100000D01*
X156015083Y-103101736D02*
G75*
G03*
X160215000Y-103100000I2099917J101736D01*
G01*
%TO.C,J6*%
X166370000Y-80585000D02*
X167700000Y-80585000D01*
X167700000Y-80585000D02*
X167700000Y-81915000D01*
X167700000Y-83185000D02*
X167700000Y-106105000D01*
X165040000Y-106105000D02*
X167700000Y-106105000D01*
X165040000Y-83185000D02*
X165040000Y-106105000D01*
X165040000Y-83185000D02*
X167700000Y-83185000D01*
%TO.C,U1*%
X138835000Y-74375000D02*
X138455000Y-74375000D01*
X138835000Y-67955000D02*
X138835000Y-74375000D01*
X157075000Y-67955000D02*
X157075000Y-74375000D01*
X138835000Y-67955000D02*
X157075000Y-67955000D01*
X157075000Y-93700000D02*
X156075000Y-93700000D01*
X157075000Y-92920000D02*
X157075000Y-93700000D01*
X138835000Y-93700000D02*
X139835000Y-93700000D01*
X138835000Y-92920000D02*
X138835000Y-93700000D01*
%TO.C,SW6*%
X155525000Y-110785000D02*
X155625000Y-110785000D01*
X154025000Y-106385000D02*
X154025000Y-110785000D01*
X157125000Y-110785000D02*
X157125000Y-106385000D01*
X155525000Y-106385000D02*
X155625000Y-106385000D01*
%TO.C,SW5*%
X160605000Y-110785000D02*
X160705000Y-110785000D01*
X159105000Y-106385000D02*
X159105000Y-110785000D01*
X162205000Y-110785000D02*
X162205000Y-106385000D01*
X160605000Y-106385000D02*
X160705000Y-106385000D01*
%TO.C,SW4*%
X145365000Y-110785000D02*
X145465000Y-110785000D01*
X143865000Y-106385000D02*
X143865000Y-110785000D01*
X146965000Y-110785000D02*
X146965000Y-106385000D01*
X145365000Y-106385000D02*
X145465000Y-106385000D01*
%TO.C,SW3*%
X150445000Y-110785000D02*
X150545000Y-110785000D01*
X148945000Y-106385000D02*
X148945000Y-110785000D01*
X152045000Y-110785000D02*
X152045000Y-106385000D01*
X150445000Y-106385000D02*
X150545000Y-106385000D01*
%TO.C,SW2*%
X140285000Y-110785000D02*
X140385000Y-110785000D01*
X138785000Y-106385000D02*
X138785000Y-110785000D01*
X141885000Y-110785000D02*
X141885000Y-106385000D01*
X140285000Y-106385000D02*
X140385000Y-106385000D01*
%TO.C,SW1*%
X135205000Y-110785000D02*
X135305000Y-110785000D01*
X133705000Y-106385000D02*
X133705000Y-110785000D01*
X136805000Y-110785000D02*
X136805000Y-106385000D01*
X135205000Y-106385000D02*
X135305000Y-106385000D01*
%TO.C,R3*%
X130735000Y-105783748D02*
X130735000Y-106306252D01*
X132155000Y-105783748D02*
X132155000Y-106306252D01*
%TO.C,R2*%
X126925000Y-105783748D02*
X126925000Y-106306252D01*
X128345000Y-105783748D02*
X128345000Y-106306252D01*
%TO.C,R1*%
X123115000Y-105783748D02*
X123115000Y-106306252D01*
X124535000Y-105783748D02*
X124535000Y-106306252D01*
%TO.C,J4*%
X126425000Y-90805000D02*
X123765000Y-90805000D01*
X126425000Y-90805000D02*
X126425000Y-80585000D01*
X126425000Y-80585000D02*
X123765000Y-80585000D01*
X123765000Y-90805000D02*
X123765000Y-80585000D01*
X123765000Y-93405000D02*
X123765000Y-92075000D01*
X125095000Y-93405000D02*
X123765000Y-93405000D01*
%TO.C,J3*%
X122615000Y-90805000D02*
X119955000Y-90805000D01*
X122615000Y-90805000D02*
X122615000Y-80585000D01*
X122615000Y-80585000D02*
X119955000Y-80585000D01*
X119955000Y-90805000D02*
X119955000Y-80585000D01*
X119955000Y-93405000D02*
X119955000Y-92075000D01*
X121285000Y-93405000D02*
X119955000Y-93405000D01*
%TO.C,J2*%
X107315000Y-93405000D02*
X105985000Y-93405000D01*
X105985000Y-93405000D02*
X105985000Y-92075000D01*
X105985000Y-90805000D02*
X105985000Y-80585000D01*
X108645000Y-80585000D02*
X105985000Y-80585000D01*
X108645000Y-90805000D02*
X108645000Y-80585000D01*
X108645000Y-90805000D02*
X105985000Y-90805000D01*
%TO.C,J1*%
X103505000Y-93405000D02*
X102175000Y-93405000D01*
X102175000Y-93405000D02*
X102175000Y-92075000D01*
X102175000Y-90805000D02*
X102175000Y-80585000D01*
X104835000Y-80585000D02*
X102175000Y-80585000D01*
X104835000Y-90805000D02*
X104835000Y-80585000D01*
X104835000Y-90805000D02*
X102175000Y-90805000D01*
%TO.C,J5*%
X108645000Y-99230000D02*
X107595000Y-99230000D01*
X107595000Y-100280000D02*
X107595000Y-99230000D01*
X116995000Y-105330000D02*
X116995000Y-114130000D01*
X116995000Y-114130000D02*
X107795000Y-114130000D01*
X114295000Y-99430000D02*
X116995000Y-99430000D01*
X116995000Y-99430000D02*
X116995000Y-101330000D01*
X107795000Y-114130000D02*
X107795000Y-99430000D01*
X107795000Y-99430000D02*
X110395000Y-99430000D01*
%TO.C,D4*%
X132405000Y-111540000D02*
X132405000Y-108855000D01*
X130485000Y-111540000D02*
X132405000Y-111540000D01*
X130485000Y-108855000D02*
X130485000Y-111540000D01*
%TO.C,D3*%
X128595000Y-111540000D02*
X128595000Y-108855000D01*
X126675000Y-111540000D02*
X128595000Y-111540000D01*
X126675000Y-108855000D02*
X126675000Y-111540000D01*
%TO.C,D2*%
X124785000Y-111540000D02*
X124785000Y-108855000D01*
X122865000Y-111540000D02*
X124785000Y-111540000D01*
X122865000Y-108855000D02*
X122865000Y-111540000D01*
%TO.C,C3*%
X125825000Y-102445000D02*
X126325000Y-102445000D01*
X126075000Y-102695000D02*
X126075000Y-102195000D01*
X128830563Y-101955000D02*
X129895000Y-100890563D01*
X126439437Y-101955000D02*
X125375000Y-100890563D01*
X126439437Y-101955000D02*
X126575000Y-101955000D01*
X128830563Y-101955000D02*
X128695000Y-101955000D01*
X129895000Y-100890563D02*
X129895000Y-97435000D01*
X125375000Y-100890563D02*
X125375000Y-97435000D01*
X125375000Y-97435000D02*
X126575000Y-97435000D01*
X129895000Y-97435000D02*
X128695000Y-97435000D01*
%TO.C,C1*%
X137235000Y-76458578D02*
X137235000Y-75941422D01*
X135815000Y-76458578D02*
X135815000Y-75941422D01*
%TO.C,C6*%
X135513578Y-104215000D02*
X134996422Y-104215000D01*
X135513578Y-102795000D02*
X134996422Y-102795000D01*
%TO.C,C2*%
X134342142Y-78906666D02*
X134389761Y-78954285D01*
X134437380Y-79097142D01*
X134437380Y-79192380D01*
X134389761Y-79335238D01*
X134294523Y-79430476D01*
X134199285Y-79478095D01*
X134008809Y-79525714D01*
X133865952Y-79525714D01*
X133675476Y-79478095D01*
X133580238Y-79430476D01*
X133485000Y-79335238D01*
X133437380Y-79192380D01*
X133437380Y-79097142D01*
X133485000Y-78954285D01*
X133532619Y-78906666D01*
X133532619Y-78525714D02*
X133485000Y-78478095D01*
X133437380Y-78382857D01*
X133437380Y-78144761D01*
X133485000Y-78049523D01*
X133532619Y-78001904D01*
X133627857Y-77954285D01*
X133723095Y-77954285D01*
X133865952Y-78001904D01*
X134437380Y-78573333D01*
X134437380Y-77954285D01*
X133707380Y-80303714D02*
X133707380Y-80970380D01*
X133469285Y-79922761D02*
X133231190Y-80637047D01*
X133850238Y-80637047D01*
X134135952Y-79970380D02*
X134802619Y-79970380D01*
X134374047Y-80970380D01*
X136374047Y-80303714D02*
X136374047Y-80970380D01*
X135945476Y-80303714D02*
X135945476Y-80827523D01*
X135993095Y-80922761D01*
X136088333Y-80970380D01*
X136231190Y-80970380D01*
X136326428Y-80922761D01*
X136374047Y-80875142D01*
X137183571Y-80446571D02*
X136850238Y-80446571D01*
X136850238Y-80970380D02*
X136850238Y-79970380D01*
X137326428Y-79970380D01*
%TO.C,U3*%
X154178095Y-103592380D02*
X154178095Y-104401904D01*
X154225714Y-104497142D01*
X154273333Y-104544761D01*
X154368571Y-104592380D01*
X154559047Y-104592380D01*
X154654285Y-104544761D01*
X154701904Y-104497142D01*
X154749523Y-104401904D01*
X154749523Y-103592380D01*
X155130476Y-103592380D02*
X155749523Y-103592380D01*
X155416190Y-103973333D01*
X155559047Y-103973333D01*
X155654285Y-104020952D01*
X155701904Y-104068571D01*
X155749523Y-104163809D01*
X155749523Y-104401904D01*
X155701904Y-104497142D01*
X155654285Y-104544761D01*
X155559047Y-104592380D01*
X155273333Y-104592380D01*
X155178095Y-104544761D01*
X155130476Y-104497142D01*
X153456190Y-98639380D02*
X154027619Y-98639380D01*
X153741904Y-99639380D02*
X153741904Y-98639380D01*
X154313333Y-99591761D02*
X154456190Y-99639380D01*
X154694285Y-99639380D01*
X154789523Y-99591761D01*
X154837142Y-99544142D01*
X154884761Y-99448904D01*
X154884761Y-99353666D01*
X154837142Y-99258428D01*
X154789523Y-99210809D01*
X154694285Y-99163190D01*
X154503809Y-99115571D01*
X154408571Y-99067952D01*
X154360952Y-99020333D01*
X154313333Y-98925095D01*
X154313333Y-98829857D01*
X154360952Y-98734619D01*
X154408571Y-98687000D01*
X154503809Y-98639380D01*
X154741904Y-98639380D01*
X154884761Y-98687000D01*
X155503809Y-98639380D02*
X155694285Y-98639380D01*
X155789523Y-98687000D01*
X155884761Y-98782238D01*
X155932380Y-98972714D01*
X155932380Y-99306047D01*
X155884761Y-99496523D01*
X155789523Y-99591761D01*
X155694285Y-99639380D01*
X155503809Y-99639380D01*
X155408571Y-99591761D01*
X155313333Y-99496523D01*
X155265714Y-99306047D01*
X155265714Y-98972714D01*
X155313333Y-98782238D01*
X155408571Y-98687000D01*
X155503809Y-98639380D01*
X156360952Y-99639380D02*
X156360952Y-98639380D01*
X156741904Y-98639380D01*
X156837142Y-98687000D01*
X156884761Y-98734619D01*
X156932380Y-98829857D01*
X156932380Y-98972714D01*
X156884761Y-99067952D01*
X156837142Y-99115571D01*
X156741904Y-99163190D01*
X156360952Y-99163190D01*
X157265714Y-98639380D02*
X157884761Y-98639380D01*
X157551428Y-99020333D01*
X157694285Y-99020333D01*
X157789523Y-99067952D01*
X157837142Y-99115571D01*
X157884761Y-99210809D01*
X157884761Y-99448904D01*
X157837142Y-99544142D01*
X157789523Y-99591761D01*
X157694285Y-99639380D01*
X157408571Y-99639380D01*
X157313333Y-99591761D01*
X157265714Y-99544142D01*
X158456190Y-99067952D02*
X158360952Y-99020333D01*
X158313333Y-98972714D01*
X158265714Y-98877476D01*
X158265714Y-98829857D01*
X158313333Y-98734619D01*
X158360952Y-98687000D01*
X158456190Y-98639380D01*
X158646666Y-98639380D01*
X158741904Y-98687000D01*
X158789523Y-98734619D01*
X158837142Y-98829857D01*
X158837142Y-98877476D01*
X158789523Y-98972714D01*
X158741904Y-99020333D01*
X158646666Y-99067952D01*
X158456190Y-99067952D01*
X158360952Y-99115571D01*
X158313333Y-99163190D01*
X158265714Y-99258428D01*
X158265714Y-99448904D01*
X158313333Y-99544142D01*
X158360952Y-99591761D01*
X158456190Y-99639380D01*
X158646666Y-99639380D01*
X158741904Y-99591761D01*
X158789523Y-99544142D01*
X158837142Y-99448904D01*
X158837142Y-99258428D01*
X158789523Y-99163190D01*
X158741904Y-99115571D01*
X158646666Y-99067952D01*
X159218095Y-98734619D02*
X159265714Y-98687000D01*
X159360952Y-98639380D01*
X159599047Y-98639380D01*
X159694285Y-98687000D01*
X159741904Y-98734619D01*
X159789523Y-98829857D01*
X159789523Y-98925095D01*
X159741904Y-99067952D01*
X159170476Y-99639380D01*
X159789523Y-99639380D01*
X160122857Y-99639380D02*
X160646666Y-98972714D01*
X160122857Y-98972714D02*
X160646666Y-99639380D01*
X160932380Y-99639380D02*
X161456190Y-98972714D01*
X160932380Y-98972714D02*
X161456190Y-99639380D01*
%TO.C,J6*%
X163496666Y-80097380D02*
X163496666Y-80811666D01*
X163449047Y-80954523D01*
X163353809Y-81049761D01*
X163210952Y-81097380D01*
X163115714Y-81097380D01*
X164401428Y-80097380D02*
X164210952Y-80097380D01*
X164115714Y-80145000D01*
X164068095Y-80192619D01*
X163972857Y-80335476D01*
X163925238Y-80525952D01*
X163925238Y-80906904D01*
X163972857Y-81002142D01*
X164020476Y-81049761D01*
X164115714Y-81097380D01*
X164306190Y-81097380D01*
X164401428Y-81049761D01*
X164449047Y-81002142D01*
X164496666Y-80906904D01*
X164496666Y-80668809D01*
X164449047Y-80573571D01*
X164401428Y-80525952D01*
X164306190Y-80478333D01*
X164115714Y-80478333D01*
X164020476Y-80525952D01*
X163972857Y-80573571D01*
X163925238Y-80668809D01*
X162096904Y-105227380D02*
X162096904Y-104227380D01*
X162763571Y-104227380D02*
X162954047Y-104227380D01*
X163049285Y-104275000D01*
X163144523Y-104370238D01*
X163192142Y-104560714D01*
X163192142Y-104894047D01*
X163144523Y-105084523D01*
X163049285Y-105179761D01*
X162954047Y-105227380D01*
X162763571Y-105227380D01*
X162668333Y-105179761D01*
X162573095Y-105084523D01*
X162525476Y-104894047D01*
X162525476Y-104560714D01*
X162573095Y-104370238D01*
X162668333Y-104275000D01*
X162763571Y-104227380D01*
X163811190Y-104227380D02*
X163906428Y-104227380D01*
X164001666Y-104275000D01*
X164049285Y-104322619D01*
X164096904Y-104417857D01*
X164144523Y-104608333D01*
X164144523Y-104846428D01*
X164096904Y-105036904D01*
X164049285Y-105132142D01*
X164001666Y-105179761D01*
X163906428Y-105227380D01*
X163811190Y-105227380D01*
X163715952Y-105179761D01*
X163668333Y-105132142D01*
X163620714Y-105036904D01*
X163573095Y-104846428D01*
X163573095Y-104608333D01*
X163620714Y-104417857D01*
X163668333Y-104322619D01*
X163715952Y-104275000D01*
X163811190Y-104227380D01*
X159192142Y-91527380D02*
X159763571Y-91527380D01*
X159477857Y-92527380D02*
X159477857Y-91527380D01*
X160001666Y-91527380D02*
X160668333Y-92527380D01*
X160668333Y-91527380D02*
X160001666Y-92527380D01*
X161763571Y-91479761D02*
X160906428Y-92765476D01*
X162096904Y-92527380D02*
X162096904Y-91527380D01*
X162763571Y-91527380D02*
X162954047Y-91527380D01*
X163049285Y-91575000D01*
X163144523Y-91670238D01*
X163192142Y-91860714D01*
X163192142Y-92194047D01*
X163144523Y-92384523D01*
X163049285Y-92479761D01*
X162954047Y-92527380D01*
X162763571Y-92527380D01*
X162668333Y-92479761D01*
X162573095Y-92384523D01*
X162525476Y-92194047D01*
X162525476Y-91860714D01*
X162573095Y-91670238D01*
X162668333Y-91575000D01*
X162763571Y-91527380D01*
X164144523Y-92527380D02*
X163573095Y-92527380D01*
X163858809Y-92527380D02*
X163858809Y-91527380D01*
X163763571Y-91670238D01*
X163668333Y-91765476D01*
X163573095Y-91813095D01*
X162096904Y-102687380D02*
X162096904Y-101687380D01*
X162763571Y-101687380D02*
X162954047Y-101687380D01*
X163049285Y-101735000D01*
X163144523Y-101830238D01*
X163192142Y-102020714D01*
X163192142Y-102354047D01*
X163144523Y-102544523D01*
X163049285Y-102639761D01*
X162954047Y-102687380D01*
X162763571Y-102687380D01*
X162668333Y-102639761D01*
X162573095Y-102544523D01*
X162525476Y-102354047D01*
X162525476Y-102020714D01*
X162573095Y-101830238D01*
X162668333Y-101735000D01*
X162763571Y-101687380D01*
X163573095Y-101782619D02*
X163620714Y-101735000D01*
X163715952Y-101687380D01*
X163954047Y-101687380D01*
X164049285Y-101735000D01*
X164096904Y-101782619D01*
X164144523Y-101877857D01*
X164144523Y-101973095D01*
X164096904Y-102115952D01*
X163525476Y-102687380D01*
X164144523Y-102687380D01*
X159668333Y-89987380D02*
X159335000Y-89511190D01*
X159096904Y-89987380D02*
X159096904Y-88987380D01*
X159477857Y-88987380D01*
X159573095Y-89035000D01*
X159620714Y-89082619D01*
X159668333Y-89177857D01*
X159668333Y-89320714D01*
X159620714Y-89415952D01*
X159573095Y-89463571D01*
X159477857Y-89511190D01*
X159096904Y-89511190D01*
X160001666Y-88987380D02*
X160668333Y-89987380D01*
X160668333Y-88987380D02*
X160001666Y-89987380D01*
X161763571Y-88939761D02*
X160906428Y-90225476D01*
X162096904Y-89987380D02*
X162096904Y-88987380D01*
X162763571Y-88987380D02*
X162954047Y-88987380D01*
X163049285Y-89035000D01*
X163144523Y-89130238D01*
X163192142Y-89320714D01*
X163192142Y-89654047D01*
X163144523Y-89844523D01*
X163049285Y-89939761D01*
X162954047Y-89987380D01*
X162763571Y-89987380D01*
X162668333Y-89939761D01*
X162573095Y-89844523D01*
X162525476Y-89654047D01*
X162525476Y-89320714D01*
X162573095Y-89130238D01*
X162668333Y-89035000D01*
X162763571Y-88987380D01*
X163525476Y-88987380D02*
X164144523Y-88987380D01*
X163811190Y-89368333D01*
X163954047Y-89368333D01*
X164049285Y-89415952D01*
X164096904Y-89463571D01*
X164144523Y-89558809D01*
X164144523Y-89796904D01*
X164096904Y-89892142D01*
X164049285Y-89939761D01*
X163954047Y-89987380D01*
X163668333Y-89987380D01*
X163573095Y-89939761D01*
X163525476Y-89892142D01*
X162096904Y-100147380D02*
X162096904Y-99147380D01*
X162763571Y-99147380D02*
X162954047Y-99147380D01*
X163049285Y-99195000D01*
X163144523Y-99290238D01*
X163192142Y-99480714D01*
X163192142Y-99814047D01*
X163144523Y-100004523D01*
X163049285Y-100099761D01*
X162954047Y-100147380D01*
X162763571Y-100147380D01*
X162668333Y-100099761D01*
X162573095Y-100004523D01*
X162525476Y-99814047D01*
X162525476Y-99480714D01*
X162573095Y-99290238D01*
X162668333Y-99195000D01*
X162763571Y-99147380D01*
X164049285Y-99480714D02*
X164049285Y-100147380D01*
X163811190Y-99099761D02*
X163573095Y-99814047D01*
X164192142Y-99814047D01*
X162096904Y-97607380D02*
X162096904Y-96607380D01*
X162763571Y-96607380D02*
X162954047Y-96607380D01*
X163049285Y-96655000D01*
X163144523Y-96750238D01*
X163192142Y-96940714D01*
X163192142Y-97274047D01*
X163144523Y-97464523D01*
X163049285Y-97559761D01*
X162954047Y-97607380D01*
X162763571Y-97607380D01*
X162668333Y-97559761D01*
X162573095Y-97464523D01*
X162525476Y-97274047D01*
X162525476Y-96940714D01*
X162573095Y-96750238D01*
X162668333Y-96655000D01*
X162763571Y-96607380D01*
X164096904Y-96607380D02*
X163620714Y-96607380D01*
X163573095Y-97083571D01*
X163620714Y-97035952D01*
X163715952Y-96988333D01*
X163954047Y-96988333D01*
X164049285Y-97035952D01*
X164096904Y-97083571D01*
X164144523Y-97178809D01*
X164144523Y-97416904D01*
X164096904Y-97512142D01*
X164049285Y-97559761D01*
X163954047Y-97607380D01*
X163715952Y-97607380D01*
X163620714Y-97559761D01*
X163573095Y-97512142D01*
X161715952Y-86447380D02*
X162335000Y-86447380D01*
X162001666Y-86828333D01*
X162144523Y-86828333D01*
X162239761Y-86875952D01*
X162287380Y-86923571D01*
X162335000Y-87018809D01*
X162335000Y-87256904D01*
X162287380Y-87352142D01*
X162239761Y-87399761D01*
X162144523Y-87447380D01*
X161858809Y-87447380D01*
X161763571Y-87399761D01*
X161715952Y-87352142D01*
X162620714Y-86447380D02*
X162954047Y-87447380D01*
X163287380Y-86447380D01*
X163525476Y-86447380D02*
X164144523Y-86447380D01*
X163811190Y-86828333D01*
X163954047Y-86828333D01*
X164049285Y-86875952D01*
X164096904Y-86923571D01*
X164144523Y-87018809D01*
X164144523Y-87256904D01*
X164096904Y-87352142D01*
X164049285Y-87399761D01*
X163954047Y-87447380D01*
X163668333Y-87447380D01*
X163573095Y-87399761D01*
X163525476Y-87352142D01*
X162049285Y-81415000D02*
X161954047Y-81367380D01*
X161811190Y-81367380D01*
X161668333Y-81415000D01*
X161573095Y-81510238D01*
X161525476Y-81605476D01*
X161477857Y-81795952D01*
X161477857Y-81938809D01*
X161525476Y-82129285D01*
X161573095Y-82224523D01*
X161668333Y-82319761D01*
X161811190Y-82367380D01*
X161906428Y-82367380D01*
X162049285Y-82319761D01*
X162096904Y-82272142D01*
X162096904Y-81938809D01*
X161906428Y-81938809D01*
X162525476Y-82367380D02*
X162525476Y-81367380D01*
X163096904Y-82367380D01*
X163096904Y-81367380D01*
X163573095Y-82367380D02*
X163573095Y-81367380D01*
X163811190Y-81367380D01*
X163954047Y-81415000D01*
X164049285Y-81510238D01*
X164096904Y-81605476D01*
X164144523Y-81795952D01*
X164144523Y-81938809D01*
X164096904Y-82129285D01*
X164049285Y-82224523D01*
X163954047Y-82319761D01*
X163811190Y-82367380D01*
X163573095Y-82367380D01*
X161620714Y-93635000D02*
X162620714Y-93635000D01*
X162430238Y-95067380D02*
X162096904Y-94591190D01*
X161858809Y-95067380D02*
X161858809Y-94067380D01*
X162239761Y-94067380D01*
X162335000Y-94115000D01*
X162382619Y-94162619D01*
X162430238Y-94257857D01*
X162430238Y-94400714D01*
X162382619Y-94495952D01*
X162335000Y-94543571D01*
X162239761Y-94591190D01*
X161858809Y-94591190D01*
X162620714Y-93635000D02*
X163573095Y-93635000D01*
X162811190Y-95019761D02*
X162954047Y-95067380D01*
X163192142Y-95067380D01*
X163287380Y-95019761D01*
X163335000Y-94972142D01*
X163382619Y-94876904D01*
X163382619Y-94781666D01*
X163335000Y-94686428D01*
X163287380Y-94638809D01*
X163192142Y-94591190D01*
X163001666Y-94543571D01*
X162906428Y-94495952D01*
X162858809Y-94448333D01*
X162811190Y-94353095D01*
X162811190Y-94257857D01*
X162858809Y-94162619D01*
X162906428Y-94115000D01*
X163001666Y-94067380D01*
X163239761Y-94067380D01*
X163382619Y-94115000D01*
X163573095Y-93635000D02*
X164335000Y-93635000D01*
X163668333Y-94067380D02*
X164239761Y-94067380D01*
X163954047Y-95067380D02*
X163954047Y-94067380D01*
X161477857Y-84907380D02*
X161477857Y-83907380D01*
X162049285Y-84907380D01*
X162049285Y-83907380D01*
X163239761Y-83859761D02*
X162382619Y-85145476D01*
X164144523Y-84812142D02*
X164096904Y-84859761D01*
X163954047Y-84907380D01*
X163858809Y-84907380D01*
X163715952Y-84859761D01*
X163620714Y-84764523D01*
X163573095Y-84669285D01*
X163525476Y-84478809D01*
X163525476Y-84335952D01*
X163573095Y-84145476D01*
X163620714Y-84050238D01*
X163715952Y-83955000D01*
X163858809Y-83907380D01*
X163954047Y-83907380D01*
X164096904Y-83955000D01*
X164144523Y-84002619D01*
%TO.C,U1*%
X136797380Y-93011904D02*
X137606904Y-93011904D01*
X137702142Y-92964285D01*
X137749761Y-92916666D01*
X137797380Y-92821428D01*
X137797380Y-92630952D01*
X137749761Y-92535714D01*
X137702142Y-92488095D01*
X137606904Y-92440476D01*
X136797380Y-92440476D01*
X137797380Y-91440476D02*
X137797380Y-92011904D01*
X137797380Y-91726190D02*
X136797380Y-91726190D01*
X136940238Y-91821428D01*
X137035476Y-91916666D01*
X137083095Y-92011904D01*
X140431190Y-95248571D02*
X140764523Y-95248571D01*
X140907380Y-95772380D02*
X140431190Y-95772380D01*
X140431190Y-94772380D01*
X140907380Y-94772380D01*
X141288333Y-95724761D02*
X141431190Y-95772380D01*
X141669285Y-95772380D01*
X141764523Y-95724761D01*
X141812142Y-95677142D01*
X141859761Y-95581904D01*
X141859761Y-95486666D01*
X141812142Y-95391428D01*
X141764523Y-95343809D01*
X141669285Y-95296190D01*
X141478809Y-95248571D01*
X141383571Y-95200952D01*
X141335952Y-95153333D01*
X141288333Y-95058095D01*
X141288333Y-94962857D01*
X141335952Y-94867619D01*
X141383571Y-94820000D01*
X141478809Y-94772380D01*
X141716904Y-94772380D01*
X141859761Y-94820000D01*
X142288333Y-95772380D02*
X142288333Y-94772380D01*
X142669285Y-94772380D01*
X142764523Y-94820000D01*
X142812142Y-94867619D01*
X142859761Y-94962857D01*
X142859761Y-95105714D01*
X142812142Y-95200952D01*
X142764523Y-95248571D01*
X142669285Y-95296190D01*
X142288333Y-95296190D01*
X143193095Y-94772380D02*
X143812142Y-94772380D01*
X143478809Y-95153333D01*
X143621666Y-95153333D01*
X143716904Y-95200952D01*
X143764523Y-95248571D01*
X143812142Y-95343809D01*
X143812142Y-95581904D01*
X143764523Y-95677142D01*
X143716904Y-95724761D01*
X143621666Y-95772380D01*
X143335952Y-95772380D01*
X143240714Y-95724761D01*
X143193095Y-95677142D01*
X144193095Y-94867619D02*
X144240714Y-94820000D01*
X144335952Y-94772380D01*
X144574047Y-94772380D01*
X144669285Y-94820000D01*
X144716904Y-94867619D01*
X144764523Y-94962857D01*
X144764523Y-95058095D01*
X144716904Y-95200952D01*
X144145476Y-95772380D01*
X144764523Y-95772380D01*
X145193095Y-95391428D02*
X145955000Y-95391428D01*
X146335952Y-94772380D02*
X146574047Y-95772380D01*
X146764523Y-95058095D01*
X146955000Y-95772380D01*
X147193095Y-94772380D01*
X148145476Y-95772380D02*
X147812142Y-95296190D01*
X147574047Y-95772380D02*
X147574047Y-94772380D01*
X147955000Y-94772380D01*
X148050238Y-94820000D01*
X148097857Y-94867619D01*
X148145476Y-94962857D01*
X148145476Y-95105714D01*
X148097857Y-95200952D01*
X148050238Y-95248571D01*
X147955000Y-95296190D01*
X147574047Y-95296190D01*
X148764523Y-94772380D02*
X148955000Y-94772380D01*
X149050238Y-94820000D01*
X149145476Y-94915238D01*
X149193095Y-95105714D01*
X149193095Y-95439047D01*
X149145476Y-95629523D01*
X149050238Y-95724761D01*
X148955000Y-95772380D01*
X148764523Y-95772380D01*
X148669285Y-95724761D01*
X148574047Y-95629523D01*
X148526428Y-95439047D01*
X148526428Y-95105714D01*
X148574047Y-94915238D01*
X148669285Y-94820000D01*
X148764523Y-94772380D01*
X149812142Y-94772380D02*
X150002619Y-94772380D01*
X150097857Y-94820000D01*
X150193095Y-94915238D01*
X150240714Y-95105714D01*
X150240714Y-95439047D01*
X150193095Y-95629523D01*
X150097857Y-95724761D01*
X150002619Y-95772380D01*
X149812142Y-95772380D01*
X149716904Y-95724761D01*
X149621666Y-95629523D01*
X149574047Y-95439047D01*
X149574047Y-95105714D01*
X149621666Y-94915238D01*
X149716904Y-94820000D01*
X149812142Y-94772380D01*
X150669285Y-95772380D02*
X150669285Y-94772380D01*
X151002619Y-95486666D01*
X151335952Y-94772380D01*
X151335952Y-95772380D01*
X151812142Y-95391428D02*
X152574047Y-95391428D01*
X152954999Y-94772380D02*
X153574047Y-94772380D01*
X153240714Y-95153333D01*
X153383571Y-95153333D01*
X153478809Y-95200952D01*
X153526428Y-95248571D01*
X153574047Y-95343809D01*
X153574047Y-95581904D01*
X153526428Y-95677142D01*
X153478809Y-95724761D01*
X153383571Y-95772380D01*
X153097857Y-95772380D01*
X153002619Y-95724761D01*
X152954999Y-95677142D01*
X153954999Y-94867619D02*
X154002619Y-94820000D01*
X154097857Y-94772380D01*
X154335952Y-94772380D01*
X154431190Y-94820000D01*
X154478809Y-94867619D01*
X154526428Y-94962857D01*
X154526428Y-95058095D01*
X154478809Y-95200952D01*
X153907380Y-95772380D01*
X154526428Y-95772380D01*
X154954999Y-95772380D02*
X154954999Y-94772380D01*
X155193095Y-94772380D01*
X155335952Y-94820000D01*
X155431190Y-94915238D01*
X155478809Y-95010476D01*
X155526428Y-95200952D01*
X155526428Y-95343809D01*
X155478809Y-95534285D01*
X155431190Y-95629523D01*
X155335952Y-95724761D01*
X155193095Y-95772380D01*
X154954999Y-95772380D01*
%TO.C,SW6*%
X158429761Y-109918333D02*
X158477380Y-109775476D01*
X158477380Y-109537380D01*
X158429761Y-109442142D01*
X158382142Y-109394523D01*
X158286904Y-109346904D01*
X158191666Y-109346904D01*
X158096428Y-109394523D01*
X158048809Y-109442142D01*
X158001190Y-109537380D01*
X157953571Y-109727857D01*
X157905952Y-109823095D01*
X157858333Y-109870714D01*
X157763095Y-109918333D01*
X157667857Y-109918333D01*
X157572619Y-109870714D01*
X157525000Y-109823095D01*
X157477380Y-109727857D01*
X157477380Y-109489761D01*
X157525000Y-109346904D01*
X157477380Y-109013571D02*
X158477380Y-108775476D01*
X157763095Y-108585000D01*
X158477380Y-108394523D01*
X157477380Y-108156428D01*
X157477380Y-107346904D02*
X157477380Y-107537380D01*
X157525000Y-107632619D01*
X157572619Y-107680238D01*
X157715476Y-107775476D01*
X157905952Y-107823095D01*
X158286904Y-107823095D01*
X158382142Y-107775476D01*
X158429761Y-107727857D01*
X158477380Y-107632619D01*
X158477380Y-107442142D01*
X158429761Y-107346904D01*
X158382142Y-107299285D01*
X158286904Y-107251666D01*
X158048809Y-107251666D01*
X157953571Y-107299285D01*
X157905952Y-107346904D01*
X157858333Y-107442142D01*
X157858333Y-107632619D01*
X157905952Y-107727857D01*
X157953571Y-107775476D01*
X158048809Y-107823095D01*
%TO.C,SW5*%
X163509761Y-109918333D02*
X163557380Y-109775476D01*
X163557380Y-109537380D01*
X163509761Y-109442142D01*
X163462142Y-109394523D01*
X163366904Y-109346904D01*
X163271666Y-109346904D01*
X163176428Y-109394523D01*
X163128809Y-109442142D01*
X163081190Y-109537380D01*
X163033571Y-109727857D01*
X162985952Y-109823095D01*
X162938333Y-109870714D01*
X162843095Y-109918333D01*
X162747857Y-109918333D01*
X162652619Y-109870714D01*
X162605000Y-109823095D01*
X162557380Y-109727857D01*
X162557380Y-109489761D01*
X162605000Y-109346904D01*
X162557380Y-109013571D02*
X163557380Y-108775476D01*
X162843095Y-108585000D01*
X163557380Y-108394523D01*
X162557380Y-108156428D01*
X162557380Y-107299285D02*
X162557380Y-107775476D01*
X163033571Y-107823095D01*
X162985952Y-107775476D01*
X162938333Y-107680238D01*
X162938333Y-107442142D01*
X162985952Y-107346904D01*
X163033571Y-107299285D01*
X163128809Y-107251666D01*
X163366904Y-107251666D01*
X163462142Y-107299285D01*
X163509761Y-107346904D01*
X163557380Y-107442142D01*
X163557380Y-107680238D01*
X163509761Y-107775476D01*
X163462142Y-107823095D01*
%TO.C,SW4*%
X148269761Y-109918333D02*
X148317380Y-109775476D01*
X148317380Y-109537380D01*
X148269761Y-109442142D01*
X148222142Y-109394523D01*
X148126904Y-109346904D01*
X148031666Y-109346904D01*
X147936428Y-109394523D01*
X147888809Y-109442142D01*
X147841190Y-109537380D01*
X147793571Y-109727857D01*
X147745952Y-109823095D01*
X147698333Y-109870714D01*
X147603095Y-109918333D01*
X147507857Y-109918333D01*
X147412619Y-109870714D01*
X147365000Y-109823095D01*
X147317380Y-109727857D01*
X147317380Y-109489761D01*
X147365000Y-109346904D01*
X147317380Y-109013571D02*
X148317380Y-108775476D01*
X147603095Y-108585000D01*
X148317380Y-108394523D01*
X147317380Y-108156428D01*
X147650714Y-107346904D02*
X148317380Y-107346904D01*
X147269761Y-107585000D02*
X147984047Y-107823095D01*
X147984047Y-107204047D01*
%TO.C,SW3*%
X153349761Y-109918333D02*
X153397380Y-109775476D01*
X153397380Y-109537380D01*
X153349761Y-109442142D01*
X153302142Y-109394523D01*
X153206904Y-109346904D01*
X153111666Y-109346904D01*
X153016428Y-109394523D01*
X152968809Y-109442142D01*
X152921190Y-109537380D01*
X152873571Y-109727857D01*
X152825952Y-109823095D01*
X152778333Y-109870714D01*
X152683095Y-109918333D01*
X152587857Y-109918333D01*
X152492619Y-109870714D01*
X152445000Y-109823095D01*
X152397380Y-109727857D01*
X152397380Y-109489761D01*
X152445000Y-109346904D01*
X152397380Y-109013571D02*
X153397380Y-108775476D01*
X152683095Y-108585000D01*
X153397380Y-108394523D01*
X152397380Y-108156428D01*
X152397380Y-107870714D02*
X152397380Y-107251666D01*
X152778333Y-107585000D01*
X152778333Y-107442142D01*
X152825952Y-107346904D01*
X152873571Y-107299285D01*
X152968809Y-107251666D01*
X153206904Y-107251666D01*
X153302142Y-107299285D01*
X153349761Y-107346904D01*
X153397380Y-107442142D01*
X153397380Y-107727857D01*
X153349761Y-107823095D01*
X153302142Y-107870714D01*
%TO.C,SW2*%
X143189761Y-109918333D02*
X143237380Y-109775476D01*
X143237380Y-109537380D01*
X143189761Y-109442142D01*
X143142142Y-109394523D01*
X143046904Y-109346904D01*
X142951666Y-109346904D01*
X142856428Y-109394523D01*
X142808809Y-109442142D01*
X142761190Y-109537380D01*
X142713571Y-109727857D01*
X142665952Y-109823095D01*
X142618333Y-109870714D01*
X142523095Y-109918333D01*
X142427857Y-109918333D01*
X142332619Y-109870714D01*
X142285000Y-109823095D01*
X142237380Y-109727857D01*
X142237380Y-109489761D01*
X142285000Y-109346904D01*
X142237380Y-109013571D02*
X143237380Y-108775476D01*
X142523095Y-108585000D01*
X143237380Y-108394523D01*
X142237380Y-108156428D01*
X142332619Y-107823095D02*
X142285000Y-107775476D01*
X142237380Y-107680238D01*
X142237380Y-107442142D01*
X142285000Y-107346904D01*
X142332619Y-107299285D01*
X142427857Y-107251666D01*
X142523095Y-107251666D01*
X142665952Y-107299285D01*
X143237380Y-107870714D01*
X143237380Y-107251666D01*
%TO.C,SW1*%
X138109761Y-109918333D02*
X138157380Y-109775476D01*
X138157380Y-109537380D01*
X138109761Y-109442142D01*
X138062142Y-109394523D01*
X137966904Y-109346904D01*
X137871666Y-109346904D01*
X137776428Y-109394523D01*
X137728809Y-109442142D01*
X137681190Y-109537380D01*
X137633571Y-109727857D01*
X137585952Y-109823095D01*
X137538333Y-109870714D01*
X137443095Y-109918333D01*
X137347857Y-109918333D01*
X137252619Y-109870714D01*
X137205000Y-109823095D01*
X137157380Y-109727857D01*
X137157380Y-109489761D01*
X137205000Y-109346904D01*
X137157380Y-109013571D02*
X138157380Y-108775476D01*
X137443095Y-108585000D01*
X138157380Y-108394523D01*
X137157380Y-108156428D01*
X138157380Y-107251666D02*
X138157380Y-107823095D01*
X138157380Y-107537380D02*
X137157380Y-107537380D01*
X137300238Y-107632619D01*
X137395476Y-107727857D01*
X137443095Y-107823095D01*
%TO.C,R3*%
X130246380Y-106211666D02*
X129770190Y-106545000D01*
X130246380Y-106783095D02*
X129246380Y-106783095D01*
X129246380Y-106402142D01*
X129294000Y-106306904D01*
X129341619Y-106259285D01*
X129436857Y-106211666D01*
X129579714Y-106211666D01*
X129674952Y-106259285D01*
X129722571Y-106306904D01*
X129770190Y-106402142D01*
X129770190Y-106783095D01*
X129246380Y-105878333D02*
X129246380Y-105259285D01*
X129627333Y-105592619D01*
X129627333Y-105449761D01*
X129674952Y-105354523D01*
X129722571Y-105306904D01*
X129817809Y-105259285D01*
X130055904Y-105259285D01*
X130151142Y-105306904D01*
X130198761Y-105354523D01*
X130246380Y-105449761D01*
X130246380Y-105735476D01*
X130198761Y-105830714D01*
X130151142Y-105878333D01*
%TO.C,R2*%
X126436380Y-106211666D02*
X125960190Y-106545000D01*
X126436380Y-106783095D02*
X125436380Y-106783095D01*
X125436380Y-106402142D01*
X125484000Y-106306904D01*
X125531619Y-106259285D01*
X125626857Y-106211666D01*
X125769714Y-106211666D01*
X125864952Y-106259285D01*
X125912571Y-106306904D01*
X125960190Y-106402142D01*
X125960190Y-106783095D01*
X125531619Y-105830714D02*
X125484000Y-105783095D01*
X125436380Y-105687857D01*
X125436380Y-105449761D01*
X125484000Y-105354523D01*
X125531619Y-105306904D01*
X125626857Y-105259285D01*
X125722095Y-105259285D01*
X125864952Y-105306904D01*
X126436380Y-105878333D01*
X126436380Y-105259285D01*
%TO.C,R1*%
X122626380Y-106211666D02*
X122150190Y-106545000D01*
X122626380Y-106783095D02*
X121626380Y-106783095D01*
X121626380Y-106402142D01*
X121674000Y-106306904D01*
X121721619Y-106259285D01*
X121816857Y-106211666D01*
X121959714Y-106211666D01*
X122054952Y-106259285D01*
X122102571Y-106306904D01*
X122150190Y-106402142D01*
X122150190Y-106783095D01*
X122626380Y-105259285D02*
X122626380Y-105830714D01*
X122626380Y-105545000D02*
X121626380Y-105545000D01*
X121769238Y-105640238D01*
X121864476Y-105735476D01*
X121912095Y-105830714D01*
%TO.C,J4*%
X124761666Y-94067380D02*
X124761666Y-94781666D01*
X124714047Y-94924523D01*
X124618809Y-95019761D01*
X124475952Y-95067380D01*
X124380714Y-95067380D01*
X125666428Y-94400714D02*
X125666428Y-95067380D01*
X125428333Y-94019761D02*
X125190238Y-94734047D01*
X125809285Y-94734047D01*
X127320476Y-89082619D02*
X127368095Y-89035000D01*
X127463333Y-88987380D01*
X127701428Y-88987380D01*
X127796666Y-89035000D01*
X127844285Y-89082619D01*
X127891904Y-89177857D01*
X127891904Y-89273095D01*
X127844285Y-89415952D01*
X127272857Y-89987380D01*
X127891904Y-89987380D01*
X128749047Y-88987380D02*
X128558571Y-88987380D01*
X128463333Y-89035000D01*
X128415714Y-89082619D01*
X128320476Y-89225476D01*
X128272857Y-89415952D01*
X128272857Y-89796904D01*
X128320476Y-89892142D01*
X128368095Y-89939761D01*
X128463333Y-89987380D01*
X128653809Y-89987380D01*
X128749047Y-89939761D01*
X128796666Y-89892142D01*
X128844285Y-89796904D01*
X128844285Y-89558809D01*
X128796666Y-89463571D01*
X128749047Y-89415952D01*
X128653809Y-89368333D01*
X128463333Y-89368333D01*
X128368095Y-89415952D01*
X128320476Y-89463571D01*
X128272857Y-89558809D01*
X127320476Y-86542619D02*
X127368095Y-86495000D01*
X127463333Y-86447380D01*
X127701428Y-86447380D01*
X127796666Y-86495000D01*
X127844285Y-86542619D01*
X127891904Y-86637857D01*
X127891904Y-86733095D01*
X127844285Y-86875952D01*
X127272857Y-87447380D01*
X127891904Y-87447380D01*
X128796666Y-86447380D02*
X128320476Y-86447380D01*
X128272857Y-86923571D01*
X128320476Y-86875952D01*
X128415714Y-86828333D01*
X128653809Y-86828333D01*
X128749047Y-86875952D01*
X128796666Y-86923571D01*
X128844285Y-87018809D01*
X128844285Y-87256904D01*
X128796666Y-87352142D01*
X128749047Y-87399761D01*
X128653809Y-87447380D01*
X128415714Y-87447380D01*
X128320476Y-87399761D01*
X128272857Y-87352142D01*
X127272857Y-83907380D02*
X127891904Y-83907380D01*
X127558571Y-84288333D01*
X127701428Y-84288333D01*
X127796666Y-84335952D01*
X127844285Y-84383571D01*
X127891904Y-84478809D01*
X127891904Y-84716904D01*
X127844285Y-84812142D01*
X127796666Y-84859761D01*
X127701428Y-84907380D01*
X127415714Y-84907380D01*
X127320476Y-84859761D01*
X127272857Y-84812142D01*
X128225238Y-83907380D02*
X128844285Y-83907380D01*
X128510952Y-84288333D01*
X128653809Y-84288333D01*
X128749047Y-84335952D01*
X128796666Y-84383571D01*
X128844285Y-84478809D01*
X128844285Y-84716904D01*
X128796666Y-84812142D01*
X128749047Y-84859761D01*
X128653809Y-84907380D01*
X128368095Y-84907380D01*
X128272857Y-84859761D01*
X128225238Y-84812142D01*
X127272857Y-81367380D02*
X127891904Y-81367380D01*
X127558571Y-81748333D01*
X127701428Y-81748333D01*
X127796666Y-81795952D01*
X127844285Y-81843571D01*
X127891904Y-81938809D01*
X127891904Y-82176904D01*
X127844285Y-82272142D01*
X127796666Y-82319761D01*
X127701428Y-82367380D01*
X127415714Y-82367380D01*
X127320476Y-82319761D01*
X127272857Y-82272142D01*
X128272857Y-81462619D02*
X128320476Y-81415000D01*
X128415714Y-81367380D01*
X128653809Y-81367380D01*
X128749047Y-81415000D01*
X128796666Y-81462619D01*
X128844285Y-81557857D01*
X128844285Y-81653095D01*
X128796666Y-81795952D01*
X128225238Y-82367380D01*
X128844285Y-82367380D01*
X127225238Y-91527380D02*
X127558571Y-92527380D01*
X127891904Y-91527380D01*
X128225238Y-92146428D02*
X128987142Y-92146428D01*
X128606190Y-92527380D02*
X128606190Y-91765476D01*
%TO.C,J3*%
X120951666Y-94067380D02*
X120951666Y-94781666D01*
X120904047Y-94924523D01*
X120808809Y-95019761D01*
X120665952Y-95067380D01*
X120570714Y-95067380D01*
X121332619Y-94067380D02*
X121951666Y-94067380D01*
X121618333Y-94448333D01*
X121761190Y-94448333D01*
X121856428Y-94495952D01*
X121904047Y-94543571D01*
X121951666Y-94638809D01*
X121951666Y-94876904D01*
X121904047Y-94972142D01*
X121856428Y-95019761D01*
X121761190Y-95067380D01*
X121475476Y-95067380D01*
X121380238Y-95019761D01*
X121332619Y-94972142D01*
X117535714Y-89082619D02*
X117583333Y-89035000D01*
X117678571Y-88987380D01*
X117916666Y-88987380D01*
X118011904Y-89035000D01*
X118059523Y-89082619D01*
X118107142Y-89177857D01*
X118107142Y-89273095D01*
X118059523Y-89415952D01*
X117488095Y-89987380D01*
X118107142Y-89987380D01*
X118440476Y-88987380D02*
X119059523Y-88987380D01*
X118726190Y-89368333D01*
X118869047Y-89368333D01*
X118964285Y-89415952D01*
X119011904Y-89463571D01*
X119059523Y-89558809D01*
X119059523Y-89796904D01*
X119011904Y-89892142D01*
X118964285Y-89939761D01*
X118869047Y-89987380D01*
X118583333Y-89987380D01*
X118488095Y-89939761D01*
X118440476Y-89892142D01*
X117535714Y-86542619D02*
X117583333Y-86495000D01*
X117678571Y-86447380D01*
X117916666Y-86447380D01*
X118011904Y-86495000D01*
X118059523Y-86542619D01*
X118107142Y-86637857D01*
X118107142Y-86733095D01*
X118059523Y-86875952D01*
X117488095Y-87447380D01*
X118107142Y-87447380D01*
X118488095Y-86542619D02*
X118535714Y-86495000D01*
X118630952Y-86447380D01*
X118869047Y-86447380D01*
X118964285Y-86495000D01*
X119011904Y-86542619D01*
X119059523Y-86637857D01*
X119059523Y-86733095D01*
X119011904Y-86875952D01*
X118440476Y-87447380D01*
X119059523Y-87447380D01*
X117535714Y-84002619D02*
X117583333Y-83955000D01*
X117678571Y-83907380D01*
X117916666Y-83907380D01*
X118011904Y-83955000D01*
X118059523Y-84002619D01*
X118107142Y-84097857D01*
X118107142Y-84193095D01*
X118059523Y-84335952D01*
X117488095Y-84907380D01*
X118107142Y-84907380D01*
X119059523Y-84907380D02*
X118488095Y-84907380D01*
X118773809Y-84907380D02*
X118773809Y-83907380D01*
X118678571Y-84050238D01*
X118583333Y-84145476D01*
X118488095Y-84193095D01*
X118107142Y-82367380D02*
X117535714Y-82367380D01*
X117821428Y-82367380D02*
X117821428Y-81367380D01*
X117726190Y-81510238D01*
X117630952Y-81605476D01*
X117535714Y-81653095D01*
X118583333Y-82367380D02*
X118773809Y-82367380D01*
X118869047Y-82319761D01*
X118916666Y-82272142D01*
X119011904Y-82129285D01*
X119059523Y-81938809D01*
X119059523Y-81557857D01*
X119011904Y-81462619D01*
X118964285Y-81415000D01*
X118869047Y-81367380D01*
X118678571Y-81367380D01*
X118583333Y-81415000D01*
X118535714Y-81462619D01*
X118488095Y-81557857D01*
X118488095Y-81795952D01*
X118535714Y-81891190D01*
X118583333Y-81938809D01*
X118678571Y-81986428D01*
X118869047Y-81986428D01*
X118964285Y-81938809D01*
X119011904Y-81891190D01*
X119059523Y-81795952D01*
X117250000Y-91527380D02*
X117583333Y-92527380D01*
X117916666Y-91527380D01*
X118250000Y-92146428D02*
X119011904Y-92146428D01*
X118630952Y-92527380D02*
X118630952Y-91765476D01*
%TO.C,J2*%
X106981666Y-94067380D02*
X106981666Y-94781666D01*
X106934047Y-94924523D01*
X106838809Y-95019761D01*
X106695952Y-95067380D01*
X106600714Y-95067380D01*
X107410238Y-94162619D02*
X107457857Y-94115000D01*
X107553095Y-94067380D01*
X107791190Y-94067380D01*
X107886428Y-94115000D01*
X107934047Y-94162619D01*
X107981666Y-94257857D01*
X107981666Y-94353095D01*
X107934047Y-94495952D01*
X107362619Y-95067380D01*
X107981666Y-95067380D01*
X110111904Y-89987380D02*
X109540476Y-89987380D01*
X109826190Y-89987380D02*
X109826190Y-88987380D01*
X109730952Y-89130238D01*
X109635714Y-89225476D01*
X109540476Y-89273095D01*
X110683333Y-89415952D02*
X110588095Y-89368333D01*
X110540476Y-89320714D01*
X110492857Y-89225476D01*
X110492857Y-89177857D01*
X110540476Y-89082619D01*
X110588095Y-89035000D01*
X110683333Y-88987380D01*
X110873809Y-88987380D01*
X110969047Y-89035000D01*
X111016666Y-89082619D01*
X111064285Y-89177857D01*
X111064285Y-89225476D01*
X111016666Y-89320714D01*
X110969047Y-89368333D01*
X110873809Y-89415952D01*
X110683333Y-89415952D01*
X110588095Y-89463571D01*
X110540476Y-89511190D01*
X110492857Y-89606428D01*
X110492857Y-89796904D01*
X110540476Y-89892142D01*
X110588095Y-89939761D01*
X110683333Y-89987380D01*
X110873809Y-89987380D01*
X110969047Y-89939761D01*
X111016666Y-89892142D01*
X111064285Y-89796904D01*
X111064285Y-89606428D01*
X111016666Y-89511190D01*
X110969047Y-89463571D01*
X110873809Y-89415952D01*
X110111904Y-87447380D02*
X109540476Y-87447380D01*
X109826190Y-87447380D02*
X109826190Y-86447380D01*
X109730952Y-86590238D01*
X109635714Y-86685476D01*
X109540476Y-86733095D01*
X110969047Y-86447380D02*
X110778571Y-86447380D01*
X110683333Y-86495000D01*
X110635714Y-86542619D01*
X110540476Y-86685476D01*
X110492857Y-86875952D01*
X110492857Y-87256904D01*
X110540476Y-87352142D01*
X110588095Y-87399761D01*
X110683333Y-87447380D01*
X110873809Y-87447380D01*
X110969047Y-87399761D01*
X111016666Y-87352142D01*
X111064285Y-87256904D01*
X111064285Y-87018809D01*
X111016666Y-86923571D01*
X110969047Y-86875952D01*
X110873809Y-86828333D01*
X110683333Y-86828333D01*
X110588095Y-86875952D01*
X110540476Y-86923571D01*
X110492857Y-87018809D01*
X110111904Y-84907380D02*
X109540476Y-84907380D01*
X109826190Y-84907380D02*
X109826190Y-83907380D01*
X109730952Y-84050238D01*
X109635714Y-84145476D01*
X109540476Y-84193095D01*
X110445238Y-83907380D02*
X111064285Y-83907380D01*
X110730952Y-84288333D01*
X110873809Y-84288333D01*
X110969047Y-84335952D01*
X111016666Y-84383571D01*
X111064285Y-84478809D01*
X111064285Y-84716904D01*
X111016666Y-84812142D01*
X110969047Y-84859761D01*
X110873809Y-84907380D01*
X110588095Y-84907380D01*
X110492857Y-84859761D01*
X110445238Y-84812142D01*
X109540476Y-81462619D02*
X109588095Y-81415000D01*
X109683333Y-81367380D01*
X109921428Y-81367380D01*
X110016666Y-81415000D01*
X110064285Y-81462619D01*
X110111904Y-81557857D01*
X110111904Y-81653095D01*
X110064285Y-81795952D01*
X109492857Y-82367380D01*
X110111904Y-82367380D01*
X110445238Y-81367380D02*
X111111904Y-81367380D01*
X110683333Y-82367380D01*
X109445238Y-91527380D02*
X109778571Y-92527380D01*
X110111904Y-91527380D01*
X110445238Y-92146428D02*
X111207142Y-92146428D01*
X110826190Y-92527380D02*
X110826190Y-91765476D01*
%TO.C,J1*%
X103171666Y-94067380D02*
X103171666Y-94781666D01*
X103124047Y-94924523D01*
X103028809Y-95019761D01*
X102885952Y-95067380D01*
X102790714Y-95067380D01*
X104171666Y-95067380D02*
X103600238Y-95067380D01*
X103885952Y-95067380D02*
X103885952Y-94067380D01*
X103790714Y-94210238D01*
X103695476Y-94305476D01*
X103600238Y-94353095D01*
X100327142Y-89987380D02*
X99755714Y-89987380D01*
X100041428Y-89987380D02*
X100041428Y-88987380D01*
X99946190Y-89130238D01*
X99850952Y-89225476D01*
X99755714Y-89273095D01*
X100660476Y-88987380D02*
X101327142Y-88987380D01*
X100898571Y-89987380D01*
X100327142Y-87447380D02*
X99755714Y-87447380D01*
X100041428Y-87447380D02*
X100041428Y-86447380D01*
X99946190Y-86590238D01*
X99850952Y-86685476D01*
X99755714Y-86733095D01*
X101231904Y-86447380D02*
X100755714Y-86447380D01*
X100708095Y-86923571D01*
X100755714Y-86875952D01*
X100850952Y-86828333D01*
X101089047Y-86828333D01*
X101184285Y-86875952D01*
X101231904Y-86923571D01*
X101279523Y-87018809D01*
X101279523Y-87256904D01*
X101231904Y-87352142D01*
X101184285Y-87399761D01*
X101089047Y-87447380D01*
X100850952Y-87447380D01*
X100755714Y-87399761D01*
X100708095Y-87352142D01*
X100327142Y-84907380D02*
X99755714Y-84907380D01*
X100041428Y-84907380D02*
X100041428Y-83907380D01*
X99946190Y-84050238D01*
X99850952Y-84145476D01*
X99755714Y-84193095D01*
X100708095Y-84002619D02*
X100755714Y-83955000D01*
X100850952Y-83907380D01*
X101089047Y-83907380D01*
X101184285Y-83955000D01*
X101231904Y-84002619D01*
X101279523Y-84097857D01*
X101279523Y-84193095D01*
X101231904Y-84335952D01*
X100660476Y-84907380D01*
X101279523Y-84907380D01*
X100327142Y-82367380D02*
X99755714Y-82367380D01*
X100041428Y-82367380D02*
X100041428Y-81367380D01*
X99946190Y-81510238D01*
X99850952Y-81605476D01*
X99755714Y-81653095D01*
X101184285Y-81700714D02*
X101184285Y-82367380D01*
X100946190Y-81319761D02*
X100708095Y-82034047D01*
X101327142Y-82034047D01*
X99470000Y-91527380D02*
X99803333Y-92527380D01*
X100136666Y-91527380D01*
X100470000Y-92146428D02*
X101231904Y-92146428D01*
X100850952Y-92527380D02*
X100850952Y-91765476D01*
%TO.C,J5*%
X117562380Y-100663333D02*
X118276666Y-100663333D01*
X118419523Y-100710952D01*
X118514761Y-100806190D01*
X118562380Y-100949047D01*
X118562380Y-101044285D01*
X117562380Y-99710952D02*
X117562380Y-100187142D01*
X118038571Y-100234761D01*
X117990952Y-100187142D01*
X117943333Y-100091904D01*
X117943333Y-99853809D01*
X117990952Y-99758571D01*
X118038571Y-99710952D01*
X118133809Y-99663333D01*
X118371904Y-99663333D01*
X118467142Y-99710952D01*
X118514761Y-99758571D01*
X118562380Y-99853809D01*
X118562380Y-100091904D01*
X118514761Y-100187142D01*
X118467142Y-100234761D01*
X106347380Y-110720476D02*
X106347380Y-111196666D01*
X106823571Y-111244285D01*
X106775952Y-111196666D01*
X106728333Y-111101428D01*
X106728333Y-110863333D01*
X106775952Y-110768095D01*
X106823571Y-110720476D01*
X106918809Y-110672857D01*
X107156904Y-110672857D01*
X107252142Y-110720476D01*
X107299761Y-110768095D01*
X107347380Y-110863333D01*
X107347380Y-111101428D01*
X107299761Y-111196666D01*
X107252142Y-111244285D01*
X106347380Y-109625238D02*
X106347380Y-109053809D01*
X107347380Y-109339523D02*
X106347380Y-109339523D01*
X106347380Y-108530000D02*
X106347380Y-108339523D01*
X106395000Y-108244285D01*
X106490238Y-108149047D01*
X106680714Y-108101428D01*
X107014047Y-108101428D01*
X107204523Y-108149047D01*
X107299761Y-108244285D01*
X107347380Y-108339523D01*
X107347380Y-108530000D01*
X107299761Y-108625238D01*
X107204523Y-108720476D01*
X107014047Y-108768095D01*
X106680714Y-108768095D01*
X106490238Y-108720476D01*
X106395000Y-108625238D01*
X106347380Y-108530000D01*
X106442619Y-106958571D02*
X106395000Y-106910952D01*
X106347380Y-106815714D01*
X106347380Y-106577619D01*
X106395000Y-106482380D01*
X106442619Y-106434761D01*
X106537857Y-106387142D01*
X106633095Y-106387142D01*
X106775952Y-106434761D01*
X107347380Y-107006190D01*
X107347380Y-106387142D01*
X106680714Y-105530000D02*
X107347380Y-105530000D01*
X106299761Y-105768095D02*
X107014047Y-106006190D01*
X107014047Y-105387142D01*
X106347380Y-104387142D02*
X107347380Y-104053809D01*
X106347380Y-103720476D01*
X107347380Y-103387142D02*
X106347380Y-103387142D01*
X106347380Y-103149047D01*
X106395000Y-103006190D01*
X106490238Y-102910952D01*
X106585476Y-102863333D01*
X106775952Y-102815714D01*
X106918809Y-102815714D01*
X107109285Y-102863333D01*
X107204523Y-102910952D01*
X107299761Y-103006190D01*
X107347380Y-103149047D01*
X107347380Y-103387142D01*
X107252142Y-101815714D02*
X107299761Y-101863333D01*
X107347380Y-102006190D01*
X107347380Y-102101428D01*
X107299761Y-102244285D01*
X107204523Y-102339523D01*
X107109285Y-102387142D01*
X106918809Y-102434761D01*
X106775952Y-102434761D01*
X106585476Y-102387142D01*
X106490238Y-102339523D01*
X106395000Y-102244285D01*
X106347380Y-102101428D01*
X106347380Y-102006190D01*
X106395000Y-101863333D01*
X106442619Y-101815714D01*
X104084428Y-109965714D02*
X104084428Y-109203809D01*
X104465380Y-109584761D02*
X103703476Y-109584761D01*
X104084428Y-104156190D02*
X104084428Y-103394285D01*
%TO.C,D4*%
X130247380Y-110593095D02*
X129247380Y-110593095D01*
X129247380Y-110355000D01*
X129295000Y-110212142D01*
X129390238Y-110116904D01*
X129485476Y-110069285D01*
X129675952Y-110021666D01*
X129818809Y-110021666D01*
X130009285Y-110069285D01*
X130104523Y-110116904D01*
X130199761Y-110212142D01*
X130247380Y-110355000D01*
X130247380Y-110593095D01*
X129580714Y-109164523D02*
X130247380Y-109164523D01*
X129199761Y-109402619D02*
X129914047Y-109640714D01*
X129914047Y-109021666D01*
%TO.C,D3*%
X126437380Y-110593095D02*
X125437380Y-110593095D01*
X125437380Y-110355000D01*
X125485000Y-110212142D01*
X125580238Y-110116904D01*
X125675476Y-110069285D01*
X125865952Y-110021666D01*
X126008809Y-110021666D01*
X126199285Y-110069285D01*
X126294523Y-110116904D01*
X126389761Y-110212142D01*
X126437380Y-110355000D01*
X126437380Y-110593095D01*
X125437380Y-109688333D02*
X125437380Y-109069285D01*
X125818333Y-109402619D01*
X125818333Y-109259761D01*
X125865952Y-109164523D01*
X125913571Y-109116904D01*
X126008809Y-109069285D01*
X126246904Y-109069285D01*
X126342142Y-109116904D01*
X126389761Y-109164523D01*
X126437380Y-109259761D01*
X126437380Y-109545476D01*
X126389761Y-109640714D01*
X126342142Y-109688333D01*
%TO.C,D2*%
X122627380Y-110593095D02*
X121627380Y-110593095D01*
X121627380Y-110355000D01*
X121675000Y-110212142D01*
X121770238Y-110116904D01*
X121865476Y-110069285D01*
X122055952Y-110021666D01*
X122198809Y-110021666D01*
X122389285Y-110069285D01*
X122484523Y-110116904D01*
X122579761Y-110212142D01*
X122627380Y-110355000D01*
X122627380Y-110593095D01*
X121722619Y-109640714D02*
X121675000Y-109593095D01*
X121627380Y-109497857D01*
X121627380Y-109259761D01*
X121675000Y-109164523D01*
X121722619Y-109116904D01*
X121817857Y-109069285D01*
X121913095Y-109069285D01*
X122055952Y-109116904D01*
X122627380Y-109688333D01*
X122627380Y-109069285D01*
%TO.C,C3*%
X124944142Y-98845666D02*
X124991761Y-98893285D01*
X125039380Y-99036142D01*
X125039380Y-99131380D01*
X124991761Y-99274238D01*
X124896523Y-99369476D01*
X124801285Y-99417095D01*
X124610809Y-99464714D01*
X124467952Y-99464714D01*
X124277476Y-99417095D01*
X124182238Y-99369476D01*
X124087000Y-99274238D01*
X124039380Y-99131380D01*
X124039380Y-99036142D01*
X124087000Y-98893285D01*
X124134619Y-98845666D01*
X124039380Y-98512333D02*
X124039380Y-97893285D01*
X124420333Y-98226619D01*
X124420333Y-98083761D01*
X124467952Y-97988523D01*
X124515571Y-97940904D01*
X124610809Y-97893285D01*
X124848904Y-97893285D01*
X124944142Y-97940904D01*
X124991761Y-97988523D01*
X125039380Y-98083761D01*
X125039380Y-98369476D01*
X124991761Y-98464714D01*
X124944142Y-98512333D01*
X131287380Y-101147380D02*
X131287380Y-101718809D01*
X131287380Y-101433095D02*
X130287380Y-101433095D01*
X130430238Y-101528333D01*
X130525476Y-101623571D01*
X130573095Y-101718809D01*
X130287380Y-100528333D02*
X130287380Y-100433095D01*
X130335000Y-100337857D01*
X130382619Y-100290238D01*
X130477857Y-100242619D01*
X130668333Y-100195000D01*
X130906428Y-100195000D01*
X131096904Y-100242619D01*
X131192142Y-100290238D01*
X131239761Y-100337857D01*
X131287380Y-100433095D01*
X131287380Y-100528333D01*
X131239761Y-100623571D01*
X131192142Y-100671190D01*
X131096904Y-100718809D01*
X130906428Y-100766428D01*
X130668333Y-100766428D01*
X130477857Y-100718809D01*
X130382619Y-100671190D01*
X130335000Y-100623571D01*
X130287380Y-100528333D01*
X130620714Y-98575952D02*
X131287380Y-98575952D01*
X130620714Y-99004523D02*
X131144523Y-99004523D01*
X131239761Y-98956904D01*
X131287380Y-98861666D01*
X131287380Y-98718809D01*
X131239761Y-98623571D01*
X131192142Y-98575952D01*
X130763571Y-97766428D02*
X130763571Y-98099761D01*
X131287380Y-98099761D02*
X130287380Y-98099761D01*
X130287380Y-97623571D01*
%TO.C,C1*%
X136882142Y-78906666D02*
X136929761Y-78954285D01*
X136977380Y-79097142D01*
X136977380Y-79192380D01*
X136929761Y-79335238D01*
X136834523Y-79430476D01*
X136739285Y-79478095D01*
X136548809Y-79525714D01*
X136405952Y-79525714D01*
X136215476Y-79478095D01*
X136120238Y-79430476D01*
X136025000Y-79335238D01*
X135977380Y-79192380D01*
X135977380Y-79097142D01*
X136025000Y-78954285D01*
X136072619Y-78906666D01*
X136977380Y-77954285D02*
X136977380Y-78525714D01*
X136977380Y-78240000D02*
X135977380Y-78240000D01*
X136120238Y-78335238D01*
X136215476Y-78430476D01*
X136263095Y-78525714D01*
%TO.C,C6*%
X135088333Y-102211142D02*
X135040714Y-102258761D01*
X134897857Y-102306380D01*
X134802619Y-102306380D01*
X134659761Y-102258761D01*
X134564523Y-102163523D01*
X134516904Y-102068285D01*
X134469285Y-101877809D01*
X134469285Y-101734952D01*
X134516904Y-101544476D01*
X134564523Y-101449238D01*
X134659761Y-101354000D01*
X134802619Y-101306380D01*
X134897857Y-101306380D01*
X135040714Y-101354000D01*
X135088333Y-101401619D01*
X135945476Y-101306380D02*
X135755000Y-101306380D01*
X135659761Y-101354000D01*
X135612142Y-101401619D01*
X135516904Y-101544476D01*
X135469285Y-101734952D01*
X135469285Y-102115904D01*
X135516904Y-102211142D01*
X135564523Y-102258761D01*
X135659761Y-102306380D01*
X135850238Y-102306380D01*
X135945476Y-102258761D01*
X135993095Y-102211142D01*
X136040714Y-102115904D01*
X136040714Y-101877809D01*
X135993095Y-101782571D01*
X135945476Y-101734952D01*
X135850238Y-101687333D01*
X135659761Y-101687333D01*
X135564523Y-101734952D01*
X135516904Y-101782571D01*
X135469285Y-101877809D01*
%TD*%
M02*
