M48
; DRILL file {KiCad 7.0.6-0} date 2023 August 15, Tuesday 02:22:10
; FORMAT={-:-/ absolute / inch / decimal}
; #@! TF.CreationDate,2023-08-15T02:22:10-05:00
; #@! TF.GenerationSoftware,Kicad,Pcbnew,7.0.6-0
; #@! TF.FileFunction,Plated,1,2,PTH
FMAT,2
INCH
; #@! TA.AperFunction,Plated,PTH,ComponentDrill
T1C0.0079
; #@! TA.AperFunction,Plated,PTH,ViaDrill
T2C0.0157
; #@! TA.AperFunction,Plated,PTH,ComponentDrill
T3C0.0157
; #@! TA.AperFunction,Plated,PTH,ViaDrill
T4C0.0236
; #@! TA.AperFunction,Plated,PTH,ComponentDrill
T5C0.0354
; #@! TA.AperFunction,Plated,PTH,ComponentDrill
T6C0.0394
; #@! TA.AperFunction,Plated,PTH,ComponentDrill
T7C0.0512
; #@! TA.AperFunction,Plated,PTH,ComponentDrill
T8C0.0866
%
G90
G05
T1
X5.7382Y-3.214
X5.7382Y-3.274
X5.7682Y-3.1839
X5.7682Y-3.244
X5.7682Y-3.304
X5.7982Y-3.214
X5.7982Y-3.274
X5.8282Y-3.1839
X5.8282Y-3.244
X5.8282Y-3.304
X5.8583Y-3.214
X5.8583Y-3.274
T2
X3.795Y-3.05
X3.795Y-3.3
X3.795Y-3.55
X3.795Y-3.8
X3.795Y-4.05
X3.905Y-3.11
X3.905Y-3.26
X3.905Y-3.41
X3.905Y-3.56
X3.9225Y-3.1625
X3.9225Y-3.3125
X3.9225Y-3.4625
X3.9225Y-3.6125
X4.15Y-3.5059
X4.305Y-3.925
X4.325Y-3.995
X4.345Y-3.495
X4.3552Y-3.935
X4.3775Y-3.0875
X4.3775Y-3.2375
X4.3775Y-3.3575
X4.39Y-3.495
X4.4Y-2.945
X4.4Y-3.925
X4.405Y-3.85
X4.41Y-4.03
X4.44Y-3.445
X4.445Y-4.065
X4.47Y-3.55
X4.475Y-4.105
X4.475Y-4.155
X4.49Y-3.395
X4.515Y-3.47
X4.515Y-4.405
X4.54Y-3.345
X4.54Y-3.55
X4.56Y-4.155
X4.56Y-4.205
X4.56Y-4.305
X4.605Y-3.2748
X4.6088Y-3.5904
X4.615Y-4.005
X4.615Y-4.065
X4.615Y-4.125
X4.6225Y-3.4625
X4.625Y-3.38
X4.625Y-3.53
X4.65Y-2.945
X4.65Y-4.33
X4.665Y-3.215
X4.665Y-3.365
X4.67Y-3.975
X4.755Y-3.81
X4.755Y-3.925
X4.765Y-4.405
X4.855Y-3.81
X4.855Y-3.925
X4.9Y-2.945
X4.955Y-3.81
X4.955Y-3.925
X4.98Y-3.96
X4.99Y-3.64
X5.015Y-4.405
X5.055Y-3.81
X5.07Y-3.72
X5.085Y-4.025
X5.1417Y-3.0827
X5.145Y-3.795
X5.145Y-4.0624
X5.15Y-2.945
X5.18Y-3.925
X5.205Y-3.2375
X5.21Y-4.1391
X5.21Y-4.335
X5.235Y-3.365
X5.25Y-4.025
X5.265Y-4.405
X5.3Y-3.475
X5.4Y-3.195
X5.4Y-3.66
X5.415Y-4.025
X5.515Y-4.405
X5.525Y-2.945
X5.54Y-4.025
X5.5565Y-4.33
X5.5805Y-3.085
X5.6085Y-3.31
X5.6085Y-3.41
X5.61Y-3.21
X5.6117Y-3.109
X5.615Y-4.075
X5.755Y-4.16
X5.765Y-4.405
X5.775Y-2.945
X5.775Y-3.525
X5.82Y-4.07
X5.955Y-4.16
X6.015Y-4.405
X6.025Y-2.945
X6.025Y-3.245
X6.025Y-3.525
X6.05Y-3.615
X6.07Y-4.07
X6.095Y-3.72
X6.13Y-3.555
X6.155Y-4.16
X6.185Y-3.63
X6.21Y-3.405
X6.265Y-4.405
X6.275Y-2.945
X6.275Y-3.17
X6.29Y-3.84
X6.305Y-3.25
X6.39Y-3.88
X6.4Y-4.075
X6.425Y-3.58
X6.425Y-3.73
X6.5Y-4.1
T3
X3.835Y-4.3
X3.8541Y-4.2541
X3.8541Y-4.3459
X3.9Y-4.235
X3.9Y-4.365
X3.9459Y-4.2541
X3.9459Y-4.3459
X3.965Y-4.3
X4.085Y-3.05
X4.1041Y-3.0041
X4.1041Y-3.0959
X4.15Y-2.985
X4.15Y-3.115
X4.1959Y-3.0041
X4.1959Y-3.0959
X4.215Y-3.05
X6.46Y-3.05
X6.46Y-4.3
X6.4791Y-3.0041
X6.4791Y-3.0959
X6.4791Y-4.2541
X6.4791Y-4.3459
X6.525Y-2.985
X6.525Y-3.115
X6.525Y-4.235
X6.525Y-4.365
X6.5709Y-3.0041
X6.5709Y-3.0959
X6.5709Y-4.2541
X6.5709Y-4.3459
X6.59Y-3.05
X6.59Y-4.3
T4
X4.43Y-4.255
X4.6874Y-4.235
X5.525Y-3.005
X5.5436Y-3.9414
T5
X6.125Y-4.0
X6.225Y-4.0
X6.325Y-4.0
T6
X4.075Y-3.225
X4.075Y-3.325
X4.075Y-3.425
X4.075Y-3.525
X4.075Y-3.625
X4.105Y-4.346
X4.205Y-4.346
X4.225Y-3.225
X4.225Y-3.325
X4.225Y-3.425
X4.225Y-3.525
X4.225Y-3.625
X4.305Y-4.346
X4.775Y-3.225
X4.775Y-3.325
X4.775Y-3.425
X4.775Y-3.525
X4.775Y-3.625
X4.925Y-3.225
X4.925Y-3.325
X4.925Y-3.425
X4.925Y-3.525
X4.925Y-3.625
X6.57Y-3.225
X6.57Y-3.325
X6.57Y-3.425
X6.57Y-3.525
X6.57Y-3.625
X6.57Y-3.725
X6.57Y-3.825
X6.57Y-3.925
X6.57Y-4.025
X6.57Y-4.125
T7
X3.975Y-3.8466
X3.975Y-4.0434
T8
X3.9Y-4.3
X4.15Y-3.05
X6.525Y-3.05
X6.525Y-4.3
T0
M30
